<svg xmlns="http://www.w3.org/2000/svg" width="212.381" height="112.621" viewBox="0 0 212.381 112.621">
    <defs>
        <clipPath id="uyoihwolva">
            <path data-name="Path 107" d="M0-321.3h212.381v-112.62H0z" transform="translate(0 433.92)" style="fill:#ffffff"/>
        </clipPath>
    </defs>
    <g data-name="Group 63">
        <g data-name="Group 64">
            <path data-name="Path 104" d="M-23.122-4.824h-6.228V.331h6.228v1.691h-6.228v5.9h-1.877V-6.515h8.1z" transform="translate(146.356 37.302)" style="fill:#ffffff"/>
        </g>
        <g data-name="Group 67" style="clip-path:url(#uyoihwolva)">
            <g data-name="Group 65">
                <path data-name="Path 105" d="M-21.239-43.066a6.971 6.971 0 0 1-5.392-2.234 7.592 7.592 0 0 1-2.052-5.31 7.593 7.593 0 0 1 2.052-5.31 6.973 6.973 0 0 1 5.393-2.238 6.972 6.972 0 0 1 5.393 2.238 7.593 7.593 0 0 1 2.052 5.31 7.92 7.92 0 0 1-.876 3.681 7.077 7.077 0 0 1-2.609 2.784 7.313 7.313 0 0 1-3.959 1.083m0-1.691A4.984 4.984 0 0 0-17.29-46.5a6.064 6.064 0 0 0 1.516-4.114 6.067 6.067 0 0 0-1.516-4.114 4.986 4.986 0 0 0-3.949-1.742 5.022 5.022 0 0 0-3.97 1.732 6.055 6.055 0 0 0-1.516 4.124 6.065 6.065 0 0 0 1.517 4.114 5.007 5.007 0 0 0 3.97 1.743" transform="translate(153.525 88.618)" style="fill:#ffffff"/>
            </g>
            <g data-name="Group 66">
                <path data-name="Path 106" d="M0-27.828v-9.754h1.876v9.754a3.4 3.4 0 0 0 .866 2.351 2.874 2.874 0 0 0 2.248.969 2.953 2.953 0 0 0 2.3-.969 3.382 3.382 0 0 0 .876-2.351v-9.754h1.876v9.754a4.951 4.951 0 0 1-1.392 3.557 4.837 4.837 0 0 1-3.66 1.454 4.759 4.759 0 0 1-3.6-1.454A4.951 4.951 0 0 1 0-27.828" transform="translate(141.402 68.369)" style="fill:#ffffff"/>
            </g>
        </g>
        <g data-name="Group 68">
            <path data-name="Path 108" d="m-5.941 0 6.5 11.156V0h1.872v14.435H.348l-6.5-11.156v11.156h-1.872V0z" transform="translate(161.922 30.787)" style="fill:#ffffff"/>
        </g>
        <g data-name="Group 70" style="clip-path:url(#uyoihwolva)">
            <g data-name="Group 69">
                <path data-name="Path 109" d="M0 0h4.454A8.1 8.1 0 0 1 7.63.608 6.624 6.624 0 0 1 10 2.238a7.444 7.444 0 0 1 1.433 2.31 7.309 7.309 0 0 1 0 5.341A7.447 7.447 0 0 1 10 12.2a6.624 6.624 0 0 1-2.37 1.627 8.1 8.1 0 0 1-3.176.608H0zm4.454 1.691H1.876v11.053h2.578a5.2 5.2 0 0 0 4.046-1.65A5.565 5.565 0 0 0 10 7.218a5.566 5.566 0 0 0-1.5-3.877 5.2 5.2 0 0 0-4.042-1.65" style="fill:#ffffff" transform="translate(166.952 30.787)"/>
            </g>
        </g>
        <g data-name="Group 71">
            <path data-name="Path 111" d="M-23.121-4.824h-6.228V-.1h6.228v1.689h-6.228v4.64h6.228V7.92h-8.1V-6.515h8.1z" transform="translate(211.931 37.302)" style="fill:#ffffff"/>
        </g>
        <g data-name="Group 74" style="clip-path:url(#uyoihwolva)">
            <g data-name="Group 72">
                <path data-name="Path 112" d="M0-41.183v-14.435h5.073a4.729 4.729 0 0 1 3.578 1.433 4.843 4.843 0 0 1 1.371 3.475 4.9 4.9 0 0 1-.866 2.846 4.618 4.618 0 0 1-2.33 1.773l3.031 4.908H7.713l-2.866-4.6H1.876v4.6zm5.073-6.31a2.87 2.87 0 0 0 2.227-.928 3.273 3.273 0 0 0 .846-2.289 3.263 3.263 0 0 0-.856-2.279 2.863 2.863 0 0 0-2.217-.938h-3.2v6.434z" transform="translate(191.306 86.405)" style="fill:#ffffff"/>
            </g>
            <g data-name="Group 73">
                <path data-name="Path 113" d="M0-29h1.876a3.17 3.17 0 0 0 .887 2.361 3.225 3.225 0 0 0 2.371.876 3.1 3.1 0 0 0 2.073-.67A2.217 2.217 0 0 0 8-28.221a2.441 2.441 0 0 0-.226-1.079 1.886 1.886 0 0 0-.691-.763 4.791 4.791 0 0 0-.835-.443q-.371-.144-.99-.33-.99-.31-1.516-.505a10.755 10.755 0 0 1-1.242-.581 3.758 3.758 0 0 1-1.083-.794A3.734 3.734 0 0 1 .784-33.8a4.049 4.049 0 0 1-.268-1.516A3.475 3.475 0 0 1 1.784-38.1a4.826 4.826 0 0 1 3.227-1.072 4.5 4.5 0 0 1 3.248 1.217 4.293 4.293 0 0 1 1.289 3.2H7.671a2.84 2.84 0 0 0-.722-1.98 2.486 2.486 0 0 0-1.9-.742 2.987 2.987 0 0 0-1.928.588 1.918 1.918 0 0 0-.732 1.577 1.857 1.857 0 0 0 .691 1.578 6.339 6.339 0 0 0 1.99.917q.886.289 1.382.474a11.944 11.944 0 0 1 1.248.577 4.544 4.544 0 0 1 1.155.8 3.879 3.879 0 0 1 .711 1.072 3.406 3.406 0 0 1 .31 1.464 3.947 3.947 0 0 1-1.369 3.21 5.3 5.3 0 0 1-3.517 1.144 5 5 0 0 1-3.568-1.341A4.7 4.7 0 0 1 0-29" transform="translate(202.503 69.628)" style="fill:#ffffff"/>
            </g>
        </g>
        <g data-name="Group 75">
            <path data-name="Path 115" d="M-23.122-4.824h-6.228V.331h6.228v1.691h-6.228v5.9h-1.877V-6.515h8.1z" transform="translate(146.356 55.489)" style="fill:#ffffff"/>
        </g>
        <g data-name="Group 79" style="clip-path:url(#uyoihwolva)">
            <g data-name="Group 76">
                <path data-name="Path 116" d="M-21.239-43.066a6.971 6.971 0 0 1-5.392-2.234 7.592 7.592 0 0 1-2.052-5.31 7.593 7.593 0 0 1 2.052-5.31 6.973 6.973 0 0 1 5.393-2.238 6.972 6.972 0 0 1 5.393 2.238 7.593 7.593 0 0 1 2.052 5.31 7.92 7.92 0 0 1-.876 3.681 7.077 7.077 0 0 1-2.609 2.784 7.313 7.313 0 0 1-3.959 1.083m0-1.691A4.984 4.984 0 0 0-17.29-46.5a6.064 6.064 0 0 0 1.516-4.114 6.067 6.067 0 0 0-1.516-4.114 4.986 4.986 0 0 0-3.949-1.742 5.022 5.022 0 0 0-3.97 1.732 6.055 6.055 0 0 0-1.516 4.124 6.065 6.065 0 0 0 1.517 4.114 5.007 5.007 0 0 0 3.97 1.743" transform="translate(153.525 106.805)" style="fill:#ffffff"/>
            </g>
            <g data-name="Group 77">
                <path data-name="Path 117" d="M0-41.183v-14.435h5.073a4.729 4.729 0 0 1 3.578 1.433 4.843 4.843 0 0 1 1.371 3.475 4.9 4.9 0 0 1-.866 2.846 4.618 4.618 0 0 1-2.33 1.773l3.031 4.908H7.713l-2.866-4.6H1.876v4.6zm5.073-6.31a2.87 2.87 0 0 0 2.227-.928 3.273 3.273 0 0 0 .846-2.289 3.263 3.263 0 0 0-.856-2.279 2.863 2.863 0 0 0-2.217-.938h-3.2v6.434z" transform="translate(141.546 104.592)" style="fill:#ffffff"/>
            </g>
            <g data-name="Group 78">
                <path data-name="Path 118" d="M0-27.828v-9.754h1.876v9.754a3.4 3.4 0 0 0 .866 2.351 2.873 2.873 0 0 0 2.248.969 2.953 2.953 0 0 0 2.3-.969 3.382 3.382 0 0 0 .876-2.351v-9.754h1.876v9.754a4.951 4.951 0 0 1-1.392 3.557 4.837 4.837 0 0 1-3.66 1.454 4.76 4.76 0 0 1-3.6-1.454A4.95 4.95 0 0 1 0-27.828" transform="translate(153.279 86.556)" style="fill:#ffffff"/>
            </g>
        </g>
        <g data-name="Group 80">
            <path data-name="Path 120" d="M-38.594 0v14.435h-1.9V4.372l-4.145 10.063h-1.441l-4.166-10.063v10.063h-1.876V0h1.815l4.949 11.548L-40.409 0z" transform="translate(217.898 48.974)" style="fill:#ffffff"/>
        </g>
        <g data-name="Group 86" style="clip-path:url(#uyoihwolva)">
            <g data-name="Group 81">
                <path data-name="Path 121" d="M-25.416-27.121v-1.691h6.95v1.691h-1.547a6.581 6.581 0 0 1-2.207 4.083 7.021 7.021 0 0 1-4.7 1.505 7.722 7.722 0 0 1-3.155-.629 6.575 6.575 0 0 1-2.341-1.681 7.6 7.6 0 0 1-1.413-2.4 8.178 8.178 0 0 1-.495-2.836 7.592 7.592 0 0 1 2.052-5.31 6.924 6.924 0 0 1 5.351-2.237 6.651 6.651 0 0 1 4.083 1.258 4.619 4.619 0 0 1 1.959 3.093h-1.9a3.227 3.227 0 0 0-1.433-1.9 4.777 4.777 0 0 0-2.712-.763A5.014 5.014 0 0 0-30.9-33.2a6.08 6.08 0 0 0-1.505 4.124 6.058 6.058 0 0 0 1.505 4.14 5.307 5.307 0 0 0 4.207 1.712 4.662 4.662 0 0 0 3.238-1.093 4.424 4.424 0 0 0 1.444-2.8z" transform="translate(148.692 103.459)" style="fill:#ffffff"/>
            </g>
            <g data-name="Group 82">
                <path data-name="Path 122" d="M0-41.183v-14.435h5.073a4.728 4.728 0 0 1 3.578 1.433 4.843 4.843 0 0 1 1.371 3.475 4.9 4.9 0 0 1-.866 2.846 4.618 4.618 0 0 1-2.33 1.773l3.031 4.908H7.713l-2.866-4.6H1.876v4.6zm5.073-6.31a2.87 2.87 0 0 0 2.227-.928 3.273 3.273 0 0 0 .846-2.289 3.263 3.263 0 0 0-.856-2.279 2.863 2.863 0 0 0-2.217-.938h-3.2v6.434z" transform="translate(131.751 122.779)" style="fill:#ffffff"/>
            </g>
            <g data-name="Group 83">
                <path data-name="Path 123" d="M-21.239-43.066a6.97 6.97 0 0 1-5.392-2.234 7.591 7.591 0 0 1-2.052-5.31 7.592 7.592 0 0 1 2.052-5.31 6.972 6.972 0 0 1 5.393-2.238 6.972 6.972 0 0 1 5.393 2.238 7.593 7.593 0 0 1 2.052 5.31 7.92 7.92 0 0 1-.876 3.681 7.077 7.077 0 0 1-2.609 2.784 7.313 7.313 0 0 1-3.959 1.083m0-1.691A4.984 4.984 0 0 0-17.29-46.5a6.064 6.064 0 0 0 1.516-4.114 6.067 6.067 0 0 0-1.516-4.114 4.986 4.986 0 0 0-3.949-1.742 5.022 5.022 0 0 0-3.97 1.732 6.055 6.055 0 0 0-1.516 4.124 6.065 6.065 0 0 0 1.517 4.114 5.007 5.007 0 0 0 3.97 1.743" transform="translate(171.548 124.992)" style="fill:#ffffff"/>
            </g>
            <g data-name="Group 84">
                <path data-name="Path 124" d="M0-27.828v-9.754h1.876v9.754a3.4 3.4 0 0 0 .866 2.351 2.874 2.874 0 0 0 2.248.969 2.953 2.953 0 0 0 2.3-.969 3.382 3.382 0 0 0 .876-2.351v-9.754h1.876v9.754a4.951 4.951 0 0 1-1.392 3.557 4.837 4.837 0 0 1-3.66 1.454 4.76 4.76 0 0 1-3.6-1.454A4.951 4.951 0 0 1 0-27.828" transform="translate(159.425 104.743)" style="fill:#ffffff"/>
            </g>
            <g data-name="Group 85">
                <path data-name="Path 125" d="M0-41.183v-14.435h5.073a4.728 4.728 0 0 1 3.578 1.433 4.843 4.843 0 0 1 1.371 3.475 4.868 4.868 0 0 1-1.371 3.5 4.727 4.727 0 0 1-3.578 1.433h-3.2v4.6zm5.073-6.31a2.87 2.87 0 0 0 2.227-.928 3.273 3.273 0 0 0 .846-2.289 3.263 3.263 0 0 0-.856-2.279 2.863 2.863 0 0 0-2.217-.938h-3.2v6.434z" transform="translate(171.922 122.779)" style="fill:#ffffff"/>
            </g>
        </g>
        <g data-name="Group 87">
            <path data-name="Path 127" d="m-139.127 0-48.766 28.155v56.31l48.766 28.155 48.766-28.155v-56.31zm-44.987 82.283V30.337l44.987-25.973 44.987 25.973v51.946l-44.987 25.973z" transform="translate(187.893)" style="fill:#ffffff"/>
        </g>
        <path data-name="Path 128" d="M133.791-272.636h-3.754V-332.7h3.754z" transform="translate(-96.287 358.971)" style="fill:#ffffff"/>
        <path data-name="Path 129" d="M162.719-243.336h-3.754V-303.4h3.754z" transform="translate(-117.707 337.275)" style="fill:#ffffff"/>
        <path data-name="Path 130" d="M144.5-328.946h33.786v-3.754H144.5z" transform="translate(-106.997 358.971)" style="fill:#ffffff"/>
        <path data-name="Path 131" d="M173.429-300.018h22.524v-3.754h-22.524z" transform="translate(-128.417 337.551)" style="fill:#ffffff"/>
        <path data-name="Path 132" d="M144.5-227.7h30.032v-3.754H144.5z" transform="translate(-106.997 284.001)" style="fill:#ffffff"/>
        <path data-name="Path 133" d="M173.429-198.77H192.2v-3.754h-18.77z" transform="translate(-128.417 262.581)" style="fill:#ffffff"/>
    </g>
</svg>
