<svg xmlns="http://www.w3.org/2000/svg" width="41.517" height="41.503" viewBox="0 0 41.517 41.503">
    <g data-name="Group 122">
        <path data-name="Path 90" d="M1512.092 208.471h-20.261c-.131-.024-.261-.057-.393-.072a10.212 10.212 0 0 1-3.273-.862c-4.457-2.108-6.86-5.636-6.928-10.572-.087-6.158-.024-12.318-.019-18.477a10.9 10.9 0 0 1 1.455-5.617 11.259 11.259 0 0 1 10.216-5.886c6.05-.033 12.1-.016 18.153 0a11.028 11.028 0 0 1 2.334.211 11.261 11.261 0 0 1 8.993 8.532c.169.606.23 1.243.34 1.865v20.261c-.067.424-.112.853-.206 1.271a11.308 11.308 0 0 1-8.549 9.006c-.6.168-1.24.229-1.861.34m-10.1-37.814h-9.034a8.22 8.22 0 0 0-2.787.421 7.755 7.755 0 0 0-5.275 7.57c-.01 6.05-.02 12.1.016 18.149a8.737 8.737 0 0 0 .423 2.7 7.663 7.663 0 0 0 7.541 5.291c6.05.012 12.1.021 18.15-.015a8.758 8.758 0 0 0 2.7-.418 7.639 7.639 0 0 0 5.3-7.5q.031-9.135 0-18.271a7.656 7.656 0 0 0-3.316-6.512 7.8 7.8 0 0 0-4.723-1.422q-4.5.007-8.994 0" transform="translate(-1481.191 -166.968)" style="fill:#fff"/>
        <path data-name="Path 91" d="M1516.792 191.86a10.693 10.693 0 1 1-10.7-10.7 10.739 10.739 0 0 1 10.7 10.7m-10.712-7.008a7 7 0 1 0 7.023 6.985 7.011 7.011 0 0 0-7.023-6.985" transform="translate(-1485.329 -171.099)" style="fill:#fff"/>
        <path data-name="Path 92" d="M1525.115 182.158a2.689 2.689 0 1 1 2.681-2.69 2.717 2.717 0 0 1-2.681 2.69" transform="translate(-1493.184 -169.823)" style="fill:#fff"/>
    </g>
</svg>
