<svg xmlns="http://www.w3.org/2000/svg" width="41.52" height="41.506" viewBox="0 0 41.52 41.506">
    <defs>
        <clipPath id="qd4pk42loa">
            <path data-name="Rectangle 18" style="fill:#fff" d="M0 0h41.52v41.506H0z"/>
        </clipPath>
    </defs>
    <g data-name="Group 121">
        <g data-name="Group 25" style="clip-path:url(#qd4pk42loa)">
            <path data-name="Path 93" d="M39.736 41.5H1.8A2.508 2.508 0 0 1 0 38.752Q.038 20.636.015 2.52A2.247 2.247 0 0 1 2.535 0h36.841a2.078 2.078 0 0 1 1.668.858 6.613 6.613 0 0 1 .476.922v37.941a2.538 2.538 0 0 1-1.784 1.779M37.2 37.157c.008-.115.021-.206.021-.3 0-4.229.01-8.457-.016-12.686a16.094 16.094 0 0 0-.559-4.326 6.432 6.432 0 0 0-3.262-4.277 9.147 9.147 0 0 0-4.445-.876 7.139 7.139 0 0 0-6.313 3.453c-.015.024-.058.032-.151.079v-2.962h-6.483v21.892h6.784v-.5c0-3.391-.012-6.782.009-10.173a15.642 15.642 0 0 1 .193-2.539 3.377 3.377 0 0 1 2.468-3.049 6.414 6.414 0 0 1 2-.147 2.649 2.649 0 0 1 2.54 2.087 12.318 12.318 0 0 1 .4 2.912c.047 3.647.021 7.3.023 10.943v.47zm-25.549-21.9H4.887v21.9h6.764zm.564-6.889a3.952 3.952 0 1 0-4.139 3.862 3.954 3.954 0 0 0 4.139-3.862" transform="translate(0 .001)" style="fill:#fff"/>
        </g>
    </g>
</svg>
