<svg data-name="Group 436" xmlns="http://www.w3.org/2000/svg" width="341.022" height="105.859" viewBox="0 0 341.022 105.859">
    <path data-name="Path 667" d="M858.276 678.846c-.257.565-.359 1.343-.794 1.662-2.678 1.96-5.6 3.62-8.107 5.767-2.352 2.012-4.25 4.547-6.432 6.768-1.034 1.053-1.358 1.848-.319 3.191 4.227 5.46 8.269 11.068 12.526 16.508 1.685 2.152 3.729 3.983 6.866 3.731 2.417-.2 3.829-1.339 3.856-3.812.048-4.77.223-9.554-.125-14.3-.1-1.326-1.814-2.555-2.843-3.783a9.148 9.148 0 0 0-1.343-1.1c.538-.279 1.068-.778 1.618-.8 2.323-.09 4.651-.038 7.4-.038v8.566c0 3.8-.052 7.594.023 11.388.05 2.6 1.549 3.84 4.4 3.865 2.916.025 4.409-1.147 4.451-3.761.073-4.77 0-9.539.031-14.307.013-2.073-1.1-3.172-2.916-3.852a5.361 5.361 0 0 1-1.329-1.078c.54-.275 1.072-.759 1.625-.786 2.021-.094 4.048-.037 6.175-.037l1.158 4.985c1.418-1.235 2.582-2.378 3.873-3.347 2.924-2.194 6.178-2.991 9.573-1.347 3.237 1.564 3.894 4.578 3.835 7.892-.065 3.6.077 7.206-.048 10.8-.083 2.436.569 4.15 3.109 4.876.486.138.8.874 1.7 1.925-4.645 0-8.418.035-12.186-.042-.509-.01-1.007-.584-1.512-.9.38-.348.7-.884 1.147-1.014 2.332-.686 3.2-2.211 3.137-4.582-.1-3.892.027-7.788-.048-11.679-.079-4.24-2.578-5.892-6.636-4.5-4.641 1.6-6 3.471-6 8.307a61.03 61.03 0 0 0 .117 8.451c.194 1.374 1.548 2.617 2.482 3.837a9.994 9.994 0 0 0 1.712 1.433 9.156 9.156 0 0 1-2.344.663q-10.806.075-21.609.017c-4.265-.027-9.2 1.122-12.608-.634-3.3-1.7-5.041-6.434-7.443-9.852-2.117-3.014-4.2-6.052-6.393-9.212-2.793 2.227-4.976 4.486-4.288 8.342a16.314 16.314 0 0 1 .021 3.79c-.179 2.987.68 5.162 4.019 5.656a1.376 1.376 0 0 1 .987.786c.056.307-.421 1.024-.669 1.028-4.876.062-9.755.046-14.631.046l-.2-.951c.471-.317.9-.814 1.416-.92 2.734-.574 3.819-2.2 3.794-4.97-.077-8.564-.09-17.131.006-25.695.033-2.859-1-4.57-3.838-5.281-.592-.148-.98-1.114-1.462-1.7h15.78c-.53.594-1.016 1.235-1.6 1.775-1.149 1.068-3.289 2.015-3.368 3.128-.365 5.137-.16 10.313-.16 16.245 4.643-5.174 8.726-9.7 12.781-14.255 2.021-2.273 1.47-4.063-1.368-5.154-.663-.254-1.082-1.143-1.612-1.739z" transform="translate(-752.479 -678.763)" style="fill:#fff"/>
    <path data-name="Path 668" d="M836.07 678.889c-.453.588-.809 1.562-1.372 1.7-2.841.7-3.9 2.419-3.877 5.27q.125 12.7 0 25.4c-.029 2.828.92 4.657 3.81 5.285.463.1.844.58 1.264.882-.474.346-.941.984-1.418.993q-6.129.119-12.261 0c-.492-.01-.974-.626-1.46-.961.409-.317.774-.815 1.23-.92 2.763-.628 3.673-2.371 3.644-5.1-.094-8.461-.036-16.923-.58-25.565q-3.394 8.062-6.786 16.128c-2.29 5.46-4.568 10.925-7.116 17.023L797.4 685.715l-.542.088c-.065.8-.186 1.6-.186 2.4-.015 7.688.054 15.377-.04 23.065-.036 2.813.8 4.705 3.775 5.277.428.081.768.632 1.147.964-.484.319-.959.893-1.455.911-3.594.134-7.191.152-10.787.209v-2.339c3.475.271 5.083-1.118 5.1-4.567q.047-12.968 0-25.935c-.009-3.631-1.37-4.972-5.1-5.145.029-.968-.382-1.958 1.466-1.825 3.391.246 6.814.071 10.221.071l11.878 30.3 12.668-30.3z" transform="translate(-789.297 -678.806)" style="fill:#fff"/>
    <path data-name="Path 669" d="M947.16 749.783c-1.174-.886-1.235-1.844-.536-3.162 1.635-3.089 3.007-6.317 4.682-9.385a4.928 4.928 0 0 0 .115-5.129c-2.49-4.941-4.611-10.071-7.149-14.985-.834-1.618-2.5-2.805-3.785-4.19q-.522-.563-1.049-1.122c.446-.282.888-.795 1.341-.8q5.4-.1 10.8.006c.44.008.868.53 1.3.813-.363.346-.667.874-1.1 1.012-2.492.792-3.114 2.215-1.99 4.63 1.758 3.775 3.354 7.627 5.27 12.028 2.025-4.738 3.929-8.928 5.591-13.214.7-1.8-.559-2.812-2.2-3.429-.484-.183-.826-.747-1.233-1.137.459-.252.909-.709 1.374-.722q3.645-.113 7.293 0c.486.014.957.444 1.435.682-.39.421-.778.845-1.168 1.266-1.1 1.182-2.59 2.184-3.233 3.577-4.885 10.582-9.6 21.238-14.357 31.881a5.755 5.755 0 0 0-.238 1.387z" transform="translate(-626.302 -643.924)" style="fill:#fff"/>
    <path data-name="Path 670" d="m930.343 737.058-.826-4.745c-1.2 1.122-2.1 2.04-3.072 2.865-2.467 2.092-5.216 3.081-8.338 1.608-2.684-1.266-3.725-3.662-3.675-6.459.06-3.335 2.079-5.45 5.07-6.434 3.124-1.026 6.374-1.679 9.759-2.542.159-2.72 1.143-6.046-1.706-7.611a8.9 8.9 0 0 0-7.064-.294c-1.36.628-1.587 3.715-2.478 6.132-1.892-.486-2.165-3.233-3.679-4.8 3.838-4.146 11.594-5.4 16.218-2.711a6.751 6.751 0 0 1 3.55 6.263q-.016 5.988.006 11.976c.013 3.464 1.208 4.764 4.359 4.793 3.264.033 4.463-1.191 4.476-4.626.014-4.186-.063-8.374.029-12.558.054-2.427-.6-4.169-3.208-4.763-.411-.094-.711-.674-1.064-1.028.432-.282.851-.78 1.3-.805a30.386 30.386 0 0 1 5.245.029 2.691 2.691 0 0 1 1.629 1.525 17.853 17.853 0 0 1 .759 3.387c1.489-1.268 2.736-2.467 4.121-3.483 2.861-2.1 6.042-2.805 9.331-1.226 3.247 1.562 3.908 4.572 3.865 7.88-.05 3.8.056 7.594-.038 11.39a3.991 3.991 0 0 0 2.8 4.253c.507.2.872.759 1.3 1.153-.534.282-1.062.793-1.6.8-3.21.077-6.426.088-9.636 0-.615-.017-1.216-.582-1.823-.893a6.232 6.232 0 0 1 1.426-1.076 3.983 3.983 0 0 0 2.912-4.182c-.065-3.99.054-7.984-.036-11.974-.1-4.309-2.517-5.938-6.591-4.574-4.632 1.55-6.054 3.491-6.057 8.261 0 2.628.071 5.258-.019 7.884-.081 2.344.742 3.929 3.089 4.626.465.138.828.62 1.239.943-.388.338-.772.968-1.162.97-6.788.062-13.574.046-20.411.046zm-1.068-13.9c-2.275.6-4.23 1.107-6.182 1.625a7.458 7.458 0 0 0-1.105.348 4.85 4.85 0 0 0-2.547 6.726c1.22 2.292 3.873 2.682 6.555 1.214 4.104-2.243 3.613-5.911 3.279-9.91z" transform="translate(-653.553 -644.238)" style="fill:#fff"/>
    <path data-name="Path 671" d="M829.046 721.516c-.876-3.033-2.14-5.735-2.359-8.52-.4-5.129 2.809-8.459 7.942-8.874a22.163 22.163 0 0 1 4.069.152c2.519.267 5.031.63 7.823.987v8.505l-.719.24c-.4-.757-.824-1.5-1.2-2.269-2.157-4.38-6.883-6.993-11-5.521-1.677.6-3.85 2.344-4.086 3.836a8.141 8.141 0 0 0 1.812 6.238c6.13 6.065 12.658 11.727 19.05 17.528a8.48 8.48 0 0 0 1.066.694 13.691 13.691 0 0 0 1.925-9.558c-.379-2.6-2.209-3.963-4.711-4.561-.519-.123-.932-.686-1.393-1.047.5-.315 1-.893 1.514-.9q5.4-.116 10.8 0c.525.013 1.038.542 1.556.834a8.4 8.4 0 0 0-1.341 1.1c-1.239 1.518-2.891 2.918-3.518 4.672-1.256 3.512-1.935 7.227-3.068 11.706 2.511 1.573 5.664 3.527 8.787 5.531a4.856 4.856 0 0 1 .951 1.166c-.465.248-.918.686-1.4.715-4.615.288-8.943-.446-12.514-4.029a18.064 18.064 0 0 1-12.6 4.724c-5.135 0-9.387-1.919-11.781-6.647-2.384-4.707-1.448-9.279 1.477-13.471a29.606 29.606 0 0 1 2.918-3.231zm1.483.847c-4.351 4.964-4.173 11.179.263 15.617 4.636 4.641 11.83 5.1 15.978 1.55z" transform="translate(-752.387 -651.369)" style="fill:#fff"/>
    <path data-name="Path 672" d="M910.008 737.024c.824-1.026 1.126-1.8 1.585-1.908 2.64-.6 3.245-2.365 3.191-4.78-.092-4.086.027-8.176-.06-12.261-.073-3.335-1.86-4.747-5.12-4.248a7.211 7.211 0 0 0-6.547 7.5c0 3.018.067 6.036-.017 9.052-.065 2.309.64 3.967 3.012 4.688.434.133.742.684 1.108 1.043a8.759 8.759 0 0 1-1.558.88 4.854 4.854 0 0 1-1.45.036h-10.495c.905-1.022 1.251-1.785 1.777-1.942 2.244-.667 3.026-2.132 2.984-4.367-.077-4.184.036-8.372-.054-12.555-.075-3.516-2.217-5.068-5.633-4.25-3.961.947-6.078 3.61-6.08 7.656 0 2.92.067 5.842-.027 8.76-.073 2.3.6 3.961 2.951 4.736.469.156.767.839 1.145 1.276-.484.227-.966.64-1.454.649-3.308.061-6.617.071-9.925-.008-.494-.01-.974-.582-1.462-.895.363-.348.674-.9 1.1-1.014 2.428-.645 3.089-2.277 3.035-4.605-.1-4.183-.092-8.371 0-12.555.05-2.39-.488-4.2-3.13-4.809-.388-.088-.657-.7-.98-1.074.446-.263.88-.728 1.339-.753 1.65-.1 3.556-.552 4.891.1s2.063 2.467 2.864 3.516c2.465-1.23 5.239-3.237 8.319-3.99 3.562-.87 6.4 1 7.707 4.91 1.347-1.145 2.461-2.184 3.671-3.1a8.423 8.423 0 0 1 9.052-1.187c3.07 1.406 3.752 4.19 3.7 7.321-.069 3.892.039 7.786-.035 11.677-.042 2.2.678 3.735 2.851 4.528.459.167.722.876 1.076 1.335a4.292 4.292 0 0 1-1.445.613c-3.694.047-7.373.025-11.886.025z" transform="translate(-693.129 -644.193)" style="fill:#fff"/>
    <path data-name="Path 673" d="M899.051 749.37c1.051-.884 1.443-1.46 1.96-1.608 2.346-.663 3.2-2.181 3.181-4.553-.062-8.57-.046-17.138-.015-25.707.008-2.232-.818-3.7-3.085-4.29-.478-.123-.826-.743-1.235-1.135a4.982 4.982 0 0 1 1.383-.709 13.775 13.775 0 0 1 2.332-.048c5.5.058 4.138-.482 5.368 4.732.686-.786 1.216-1.385 1.74-1.99a9.526 9.526 0 0 1 16.02 2.078 17.805 17.805 0 0 1-.246 15.8c-3.009 6.284-11.7 8.08-17.373 1.358 0 4.267-.19 8.084.133 11.855.079.93 1.819 1.729 2.815 2.565a2.49 2.49 0 0 1 1.133 1.656zm24.8-25.136c-.154-1.418-.234-2.778-.465-4.113-.678-3.906-2.409-5.9-5.4-6.349a7.243 7.243 0 0 0-7.919 4.19c-2.071 4.13-1.768 8.532-.382 12.735.993 3.012 4.319 4.576 7.573 4.246 3.164-.321 5.3-2.365 5.956-5.852.31-1.616.439-3.266.641-4.857z" transform="translate(-670.145 -644.297)" style="fill:#fff"/>
    <path data-name="Path 674" d="M878.927 705.726v12.766l-.607.29a10.7 10.7 0 0 1-1.049-1.971c-1.973-6.726-6.96-10.753-13-10.434-5.664.3-9.5 3.729-10.176 10.082a69.619 69.619 0 0 0 .006 14.245 12.527 12.527 0 0 0 10.059 10.829c6.4 1.274 11.533-.713 14.808-5.656a6.673 6.673 0 0 1 2.378-2.1c-1.208 6.58-7.391 11.1-14.7 11.243-10.159.2-18.479-7.5-18.965-18.235a32.361 32.361 0 0 1 1.81-12.242c2.926-8.038 11.016-11.89 19.417-10.192 3.207.649 6.486.902 10.019 1.375z" transform="translate(-725.942 -651.504)" style="fill:#fff"/>
    <path data-name="Path 675" d="M865.529 723.977c.071-7.667 5.662-13.461 12.891-13.354 7.268.106 12.724 5.979 12.668 13.629s-5.59 13.508-12.8 13.527c-7.326.021-12.832-5.937-12.759-13.802zm20.652.188c-.082-1.554-.071-3.12-.265-4.659-.542-4.276-3.23-6.7-7.375-6.776s-7.191 2.255-7.667 6.432a43.944 43.944 0 0 0-.023 9.581c.467 4.353 3.587 6.805 7.782 6.668 4.248-.14 6.87-2.678 7.333-7.164.134-1.354.144-2.721.216-4.082z" transform="translate(-706.537 -644.267)" style="fill:#fff"/>
    <path data-name="Path 676" d="M899.345 704.013c2.04-4.772 4.007-8.985 5.55-13.346.267-.757-1.2-2.19-1.979-3.228a5.891 5.891 0 0 0-1.433-1.041c.609-.309 1.208-.857 1.829-.884 2.328-.1 4.666-.075 7 .006.461.015.905.486 1.356.747-.33.375-.661.749-.986 1.128-1.351 1.566-3.137 2.93-3.977 4.734-4.474 9.588-8.71 19.288-13.033 28.946-.434.97-.909 1.921-1.356 2.864-1.994-.123-2.4-.872-1.487-2.611 1.8-3.443 3.545-6.922 5.089-10.482a4.808 4.808 0 0 0 .027-3.468c-2.338-5.335-4.753-10.645-7.419-15.821-.83-1.608-2.526-2.77-3.817-4.142-.342-.365-.657-.759-.982-1.139.45-.267.9-.755 1.354-.763q5.393-.091 10.791.011c.426.008.843.542 1.262.832-.363.34-.668.857-1.095.993-2.536.807-3.039 2.275-1.925 4.665 1.75 3.766 3.329 7.616 5.231 11.999z" transform="translate(-686.784 -671.595)" style="fill:#fff"/>
    <path data-name="Path 677" d="m894.529 695.932-16.929 1.433c.152 4.075 1.531 7.329 5 9.118 5.26 2.711 9.683 1.122 13.21-3.965.369 5.715-5.393 10.251-11.4 9.54-5.333-.63-8.7-3.752-10.182-8.76-1.706-5.744-.776-11.07 3.744-15.262a11.168 11.168 0 0 1 5.105-2.576c6.895-1.426 11.47 2.729 11.452 10.472zm-16.91-.455c3.908-.3 7.567-.538 11.212-.895a2.083 2.083 0 0 0 1.479-1.028 4.943 4.943 0 0 0-3.794-6.4c-4.931-.811-8.216 2.117-8.898 8.324z" transform="translate(-697.954 -671.884)" style="fill:#fff"/>
    <path data-name="Path 678" d="M880.27 686.578v6.906l-.661.244c-.367-.653-.751-1.3-1.1-1.958-1.75-3.329-4.939-5.256-8.347-4.557-1.193.246-2.889 1.431-3.054 2.407a4.542 4.542 0 0 0 1.619 3.821 72.113 72.113 0 0 0 8.207 3.742c2.578 1.16 4.724 2.77 5.306 5.76 1.062 5.477-2.958 9.775-8.666 9.216-1.243-.121-2.442-.661-3.687-.824-1.831-.238-3.685-.311-5.938-.484v-8.211l.709-.234c.348.678.709 1.347 1.045 2.031 1.915 3.919 5.516 6.165 9.673 5.491 1.372-.221 3.429-1.5 3.6-2.547.215-1.335-.859-3.241-1.952-4.319s-2.908-1.481-4.411-2.165c-1.414-.644-2.872-1.208-4.248-1.923-4.14-2.152-5.652-5.69-4.192-9.65 1.182-3.208 4.793-4.768 9.068-3.963 2.208.418 4.427.768 7.029 1.217z" transform="translate(-708.6 -671.916)" style="fill:#fff"/>
    <path data-name="Path 679" d="M834.245 702.9c-.5 8.885-10.484 11.312-16.332 7.656-5.216-3.26-7.375-10.885-4.87-17.434 2.3-6.015 7.754-9.056 14.282-7.617 2.071.455 3.961 1.742 6.3 2.818l-4.48 6.382-.722-.39c-.042-.544-.123-1.091-.119-1.633.021-2.25-.271-4.495-2.7-5.3a6.523 6.523 0 0 0-6.8 1.418c-2.841 2.634-3.725 8.908-1.871 13.16a8.838 8.838 0 0 0 9.867 5.568c2.038-.319 3.925-1.777 5.8-2.855a8.037 8.037 0 0 0 1.645-1.773z" transform="translate(-764.649 -671.918)" style="fill:#fff"/>
    <path data-name="Path 680" d="M846.091 685.844a2.982 2.982 0 0 1-3.068-3.418c.1-2.132 1.468-3.1 3.5-2.987a2.918 2.918 0 0 1 2.985 3.241c-.063 2.027-1.287 3.143-3.417 3.164z" transform="translate(-730.976 -678.13)" style="fill:#fff"/>
</svg>
