<svg data-name="Group 441" xmlns="http://www.w3.org/2000/svg" width="265.354" height="52.678" viewBox="0 0 265.354 52.678">
    <path data-name="Path 504" d="m559.007 696.93-3.853 27.879h-6.194l5.636-36.456c2.383 0 4.676-.058 6.961.055.4.02.909.695 1.131 1.177q5.825 12.641 11.587 25.312a4.729 4.729 0 0 0 1.058 1.579l1.167-8.372c.85-6.178 1.72-12.353 2.522-18.538.123-.954.441-1.276 1.394-1.232 1.579.072 3.163.02 4.917.02-.459 3.053-.881 5.919-1.324 8.78-1.363 8.8-2.756 17.6-4.072 26.41-.159 1.071-.511 1.428-1.576 1.366a37.863 37.863 0 0 0-4.5 0 1.623 1.623 0 0 1-1.78-1.163q-6.108-12.977-12.282-25.922c-.154-.326-.339-.64-.511-.958z" transform="translate(-548.96 -687.722)" style="fill:#fff"/>
    <path data-name="Path 505" d="m600.623 719.351-.678 5.458h-22.282c.428-2.809.839-5.527 1.258-8.246Q581 703.082 583.07 689.6c.117-.769.227-1.276 1.23-1.269 6.613.044 13.226.024 19.839.031a7.315 7.315 0 0 1 .789.114c-.266 1.683-.475 3.336-.839 4.956-.052.231-.844.416-1.3.419-4.174.031-8.348.057-12.522-.01-1.12-.018-1.534.31-1.672 1.435-.329 2.692-.807 5.367-1.25 8.225h12.416c-.25 1.748-.412 3.33-.753 4.873-.067.3-.826.623-1.272.631-3.187.053-6.378.028-9.567.026h-1.684l-1.623 10.323z" transform="translate(-531.083 -687.722)" style="fill:#fff"/>
    <path data-name="Path 506" d="m664.334 719.359-.639 5.412h-22.311l5.627-36.391h21.652c-.261 1.676-.451 3.288-.816 4.857-.067.284-.851.566-1.306.571-4.221.044-8.444.061-12.663 0-1.016-.015-1.386.291-1.516 1.29-.355 2.733-.818 5.451-1.263 8.342h12.4l-.788 5.56h-5.784c-1.909 0-3.848-.032-5.768.028-.355.011-.962.347-1.008.612-.555 3.171-1.026 6.355-1.547 9.722z" transform="translate(-491.394 -687.69)" style="fill:#fff"/>
    <path data-name="Path 507" d="m688.271 723.448 2.421-6.043a22.2 22.2 0 0 0 2.61 1.06 51.965 51.965 0 0 0 6.928 1.652 6.1 6.1 0 0 0 5.818-2.762 3.458 3.458 0 0 0-.31-4.951 28.44 28.44 0 0 0-3.655-2.83c-1.952-1.371-4.067-2.538-5.909-4.041-5.227-4.262-4.95-10.717.524-14.729a15.928 15.928 0 0 1 11.495-2.723c2.91.3 5.785.935 8.853 1.448l-2.03 6.285c-1.519-.521-2.946-1.084-4.413-1.5-2.274-.639-4.6-1.1-6.9-.187a8.1 8.1 0 0 0-2.47 1.542c-1.639 1.524-1.795 3.527-.195 5.091a39.135 39.135 0 0 0 4.872 3.757c1.107.782 2.35 1.368 3.483 2.118 7.856 5.193 4.753 14.791-1.363 17.631-4.206 1.952-8.552 1.887-12.942.99-2.232-.456-4.413-1.162-6.817-1.808z" transform="translate(-462.19 -687.955)" style="fill:#fff"/>
    <path data-name="Path 508" d="M637.735 688.388h6.556c-.347 2.254-.667 4.416-1.013 6.573-1.5 9.4-2.918 18.809-4.544 28.184-1.336 7.7-5.464 13.354-12.915 16.263a34.545 34.545 0 0 1-3.442.956l-2.549-5.286c.768-.274 1.446-.549 2.142-.761 6.123-1.858 9.541-6.133 10.589-12.275 1.334-7.807 2.457-15.652 3.659-23.483.512-3.336.996-6.674 1.517-10.171z" transform="translate(-504.819 -687.685)" style="fill:#fff"/>
    <path data-name="Path 509" d="M679.129 724.821H672.7c1.607-10.292 3.2-20.5 4.823-30.917h-10.87c.248-1.787.407-3.367.74-4.911.063-.292.816-.617 1.255-.622 4.221-.047 8.442-.028 12.663-.028h14.355l-.883 5.488h-10.856c-1.605 10.369-3.194 20.637-4.798 30.99z" transform="translate(-475.655 -687.715)" style="fill:#fff"/>
    <path data-name="Path 510" d="m632.322 688.343-.847 5.477h-10.884c-1.6 10.367-3.19 20.626-4.789 30.967h-6.415c1.6-10.307 3.2-20.522 4.815-30.907H603.34c.256-1.818.441-3.471.777-5.093.047-.229.842-.425 1.293-.427 7.266-.026 14.533-.018 21.8-.018z" transform="translate(-515.089 -687.714)" style="fill:#fff"/>
    <path data-name="Path 511" d="M715.24 691.527a3.634 3.634 0 0 1-3.6 3.687 3.719 3.719 0 0 1-3.612-3.572 3.658 3.658 0 0 1 3.637-3.669 3.586 3.586 0 0 1 3.575 3.554zm-.519.084a3.064 3.064 0 0 0-3.087-3.124 3.1 3.1 0 0 0-.047 6.2 3.079 3.079 0 0 0 3.134-3.076z" transform="translate(-449.886 -687.944)" style="fill:#fff"/>
    <path data-name="Path 512" d="M709.6 689.031a4.8 4.8 0 0 1 1.806.149 1.811 1.811 0 0 1 .69 1.334 8.928 8.928 0 0 1-.36 2.061l-1.428-1.519-.4 1.558h-.31z" transform="translate(-448.904 -687.289)" style="fill:#fff"/>
</svg>
