<svg data-name="Group 440" xmlns="http://www.w3.org/2000/svg" width="189.539" height="132.598" viewBox="0 0 189.539 132.598">
    <g data-name="Group 413">
        <path data-name="Path 536" d="M712.958 878.4a30.1 30.1 0 0 1-39.049 12.374c-6.663 13.286-17.214 20.5-32.3 20.612-15.028-.847-25.2-8.535-31.271-22.21a31.721 31.721 0 0 1-36.321-21.128 32.2 32.2 0 0 1 14.083-37.91c-3.94-9.794-4.081-19.562.1-29.257a36.038 36.038 0 0 1 15.7-17.381 35.359 35.359 0 0 1 12.347-4.268 37.642 37.642 0 0 1 13.074.289 36.233 36.233 0 0 1 12.137 4.844 37.41 37.41 0 0 1 9.718 8.809c7.953-7.8 17.394-11.384 28.423-9.92 10.993 1.462 19.117 7.426 24.857 16.9.269-.091.555-.164.826-.277a39.265 39.265 0 0 1 12.014-2.973 38.869 38.869 0 0 1 18.1 2.512c13.955 5.68 22.7 15.936 25.6 30.685 2.6 13.186-.722 25.086-9.578 35.271a39.506 39.506 0 0 1-22.025 12.906 40.131 40.131 0 0 1-15.686.244c-.229-.049-.463-.077-.749-.122zm-37.3-45.9h-2.746l-.519 2.856 2.744.084c-.028.349-.026.584-.067.811-.811 4.541-1.6 9.085-2.462 13.617a15.806 15.806 0 0 1-.953 2.993 2.292 2.292 0 0 1-2.421 1.5c-.634-.039-1.267-.122-2.014-.2l-.966 2.6a6.375 6.375 0 0 0 3.385.613 5.555 5.555 0 0 0 5.276-3.5 13.917 13.917 0 0 0 .982-2.984c.794-4.129 1.511-8.27 2.259-12.407.185-1.021.378-2.038.583-3.137h3.921a11.908 11.908 0 0 0 .315-2.855h-3.591a4.711 4.711 0 0 1 .359-2.262 2.9 2.9 0 0 1 3.465-2.116c.427.062.85.14 1.329.219l.959-2.681a4.284 4.284 0 0 0-.607-.282 8.6 8.6 0 0 0-4.229-.05 5.2 5.2 0 0 0-3.645 2.853 23.194 23.194 0 0 0-1.081 3.056 12.6 12.6 0 0 0-.275 1.279zm-46.6 16.3v-1.211q0-4.481-.008-8.961c0-.407-.01-.815-.037-1.22a4.991 4.991 0 0 0-4.06-4.956 12.979 12.979 0 0 0-8.353.815 5.513 5.513 0 0 0-.761.49 10.152 10.152 0 0 0 1 2.595c.4-.172.711-.315 1.026-.435a9.411 9.411 0 0 1 5.675-.6c1.693.411 2.385 1.792 1.86 3.554-.427-.049-.862-.107-1.3-.146a11.344 11.344 0 0 0-6.079.777 5.343 5.343 0 0 0-3.059 5.873 4.891 4.891 0 0 0 4.32 4.245c3.287.635 6.473.029 9.778-.81zm25.36-6.9c.018-.982.093-1.826.036-2.661a7.985 7.985 0 0 0-1.605-4.638 6.824 6.824 0 0 0-5.868-2.467 7.35 7.35 0 0 0-7.132 5.355 12.014 12.014 0 0 0-.081 6.926 6.806 6.806 0 0 0 4.729 4.919 13.5 13.5 0 0 0 8.411-.208 7.747 7.747 0 0 0 .982-.5l-.953-2.611a6.114 6.114 0 0 0-.613.167 10.689 10.689 0 0 1-5.006.613 5.985 5.985 0 0 1-1.858-.477 4.069 4.069 0 0 1-2.2-4.422zm87.819.008a10.047 10.047 0 0 0 .1-3.1c-.326-3.515-2.359-6.2-6.034-6.618-4.01-.453-7.332 1.464-8.515 5.227a12.139 12.139 0 0 0-.119 6.934 6.851 6.851 0 0 0 4.882 5.026 13.536 13.536 0 0 0 8.028-.169 10.584 10.584 0 0 0 1.232-.566l-.933-2.569a5.648 5.648 0 0 0-.792.169 11.014 11.014 0 0 1-5.12.54 4.079 4.079 0 0 1-3.76-4.877zm-42.916-.8c-.177-1.134-.261-2.293-.547-3.4-1.069-4.134-4.706-6.032-8.659-5.493a7.119 7.119 0 0 0-6.339 5.763 12.15 12.15 0 0 0 .119 6.54 7.068 7.068 0 0 0 4.8 5 8.666 8.666 0 0 0 3.325.326 7.041 7.041 0 0 0 6.517-4.722 13.4 13.4 0 0 0 .786-4.003zm-29.932-7.292a6.933 6.933 0 0 0-.672-.472 10.874 10.874 0 0 0-6.814-1.139 7.154 7.154 0 0 0-2.54.974c-2.726 1.642-3.345 6.415.354 8.182a17.972 17.972 0 0 0 1.787.732c.833.291 1.688.516 2.519.812a7.157 7.157 0 0 1 1.478.668 1.667 1.667 0 0 1 .162 2.819 3.416 3.416 0 0 1-1.67.626 8.592 8.592 0 0 1-5.339-1.334c-.308-.185-.623-.357-1-.57-.161.349-.286.584-.38.831-.182.475-.347.957-.519 1.436-.144.406.073.638.393.826a10.9 10.9 0 0 0 9.383 1.185 4.69 4.69 0 0 0 3.255-4.39 4.28 4.28 0 0 0-2.683-4.487c-.909-.445-1.894-.735-2.842-1.1-.885-.344-1.785-.656-2.642-1.058a1.539 1.539 0 0 1-.988-1.722 1.744 1.744 0 0 1 1.386-1.465 4.94 4.94 0 0 1 1.607-.166 11.365 11.365 0 0 1 3.926 1.011c.26.122.537.208.884.339zm-68.671 11.261c-.279.755-.541 1.407-.763 2.072s-.2.781.456 1.136a13.427 13.427 0 0 0 2.209 1.026 10.753 10.753 0 0 0 6.9.146 5 5 0 0 0 3.332-5.82 3.582 3.582 0 0 0-1.879-2.66c-1.1-.594-2.275-1.035-3.427-1.519a28.938 28.938 0 0 1-2.906-1.191 1.583 1.583 0 0 1 .171-2.944 4.524 4.524 0 0 1 1.975-.31 10.592 10.592 0 0 1 3.825.969c.271.123.55.23.941.393l.966-2.572a7.883 7.883 0 0 0-3.145-1.388 9.373 9.373 0 0 0-5.993.261 4.82 4.82 0 0 0-3.095 4.716c0 2.157 1.235 3.442 3.093 4.229.841.355 1.733.584 2.595.894a25.008 25.008 0 0 1 2.462.948 1.752 1.752 0 0 1-.032 3.223 3.346 3.346 0 0 1-1.259.339 8.579 8.579 0 0 1-5.161-1.235c-.376-.208-.756-.414-1.262-.701zm124.584 1.177a5.264 5.264 0 0 0-.628.135 8.707 8.707 0 0 1-3.718.4 4.278 4.278 0 0 1-3.992-3.113 8.737 8.737 0 0 1 .133-5.605 4.114 4.114 0 0 1 4.221-2.9c1.01.015 2.017.211 3.025.325l.823.094.93-2.6c-.355-.143-.622-.273-.9-.357a12.555 12.555 0 0 0-4.836-.48 7.467 7.467 0 0 0-6.858 5.227 11.108 11.108 0 0 0 .011 7.4 6.929 6.929 0 0 0 5.247 4.784 12.636 12.636 0 0 0 6.735-.326 6.1 6.1 0 0 0 .756-.368zm-92.571 3.169h3.377v-23.93a17.388 17.388 0 0 0-3.377.005zm72.986.052v-1.123c0-1.834-.018-3.669.007-5.5.016-1.22.029-2.447.156-3.66a3.779 3.779 0 0 1 4.356-3.679c.365.019.73.047 1.173.076l.949-2.691c-1.74-1.032-3.952-.7-6.645.969l-.18-1.34a21.265 21.265 0 0 0-3.27.06v16.839a17.393 17.393 0 0 0 3.458.061z" transform="translate(-572.319 -778.791)" style="fill:#fff"/>
        <path data-name="Path 537" d="M607.848 817.65v4.969a11.9 11.9 0 0 1-4.841.286 2.429 2.429 0 0 1-2.272-2.454 2.583 2.583 0 0 1 2.048-2.783 11.667 11.667 0 0 1 5.065-.018z" transform="translate(-554.621 -754.759)" style="fill:#fff"/>
        <path data-name="Path 538" d="M623.693 817.614h-7.666c.08-2.514 1.689-4.192 3.953-4.171 2.23.021 3.6 1.526 3.713 4.171z" transform="translate(-545.095 -757.209)" style="fill:#fff"/>
        <path data-name="Path 539" d="M677.869 817.613h-7.645a3.867 3.867 0 0 1 3.817-4.167c2.338-.056 3.815 1.668 3.828 4.167z" transform="translate(-511.34 -757.208)" style="fill:#fff"/>
        <path data-name="Path 540" d="M651.577 819.459a26.426 26.426 0 0 1-.592 3.176c-.92 2.958-3.595 3.1-5.385 2.439a3.215 3.215 0 0 1-1.808-1.835 9.39 9.39 0 0 1-.636-5.081 10.118 10.118 0 0 1 .647-2.543 3.329 3.329 0 0 1 3.291-2.115 3.554 3.554 0 0 1 3.6 1.983 10.43 10.43 0 0 1 .883 3.976z" transform="translate(-528.258 -757.174)" style="fill:#fff"/>
    </g>
</svg>
