<svg data-name="Group 435" xmlns="http://www.w3.org/2000/svg" width="341.021" height="67.478" viewBox="0 0 341.021 67.478">
    <path data-name="Path 440" d="m371.046 867.092-6.5-4.1c-.315-.2-.624-.4-.974-.634l14.261-25.315-14.274-25.334 7.575-4.69q12.123 14.981 24.274 30.004c-.34.438-.661.863-1 1.276q-11.406 14.1-22.812 28.193a6.383 6.383 0 0 0-.39.6z" transform="translate(-248.985 -799.614)" style="fill:#fff"/>
    <path data-name="Path 441" d="m480.8 811.947-3.083 7.8c-1.41 3.585-2.807 7.177-4.225 10.76a8.447 8.447 0 0 1-.64 1.214c-1.585 2.645-3.637 3.458-6.722 2.645v-2.595a17.308 17.308 0 0 0 1.773-.008 3.62 3.62 0 0 0 3-3.085 2.212 2.212 0 0 0-.242-.916q-3.15-7.708-6.315-15.409c-.06-.146-.113-.294-.194-.513h3.579l4.935 12.872c1.6-4.409 3.128-8.624 4.693-12.931h3.441z" transform="translate(-139.782 -794.44)" style="fill:#fff"/>
    <path data-name="Path 442" d="M353.233 829.474a13.472 13.472 0 0 1 4.373-5.183c3.99-2.661 8.3-2.676 12.687-1.306a13 13 0 0 1 8.23 7.331 24.364 24.364 0 0 1-.159 21.371 14.409 14.409 0 0 1-18.618 7.1 12.484 12.484 0 0 1-6.447-6.128c-.951 1.71-1.937 3.291-2.726 4.964a2.219 2.219 0 0 1-2.534 1.487c-1.416-.134-2.855-.031-4.33-.031v-55.611h9.523zm17.876 11.626c-.211-1.466-.325-2.953-.649-4.392-.924-4.1-3.685-6.6-7.529-6.947-4.248-.38-7.533 1.491-9.137 5.377a15.171 15.171 0 0 0-.025 11.834 8.781 8.781 0 0 0 16.261-.3 19.514 19.514 0 0 0 1.079-5.572z" transform="translate(-270.533 -803.468)" style="fill:#fff"/>
    <path data-name="Path 443" d="M308.635 837.658h8.835c.046.4.071.8.138 1.185a5.8 5.8 0 0 0 4.849 4.918 12.149 12.149 0 0 0 6.568-.273c2.617-.847 3.877-3.016 3.181-5.36a3.456 3.456 0 0 0-2.238-2.4c-1.965-.645-3.981-1.143-6-1.625-2.676-.638-5.423-1.026-8.036-1.846-3.256-1.024-5.569-3.137-6.223-6.693-.928-5.024 1.26-9.429 6.027-11.379a23.614 23.614 0 0 1 17.882-.211c4.38 1.681 6.668 5.049 6.978 9.736.013.184 0 .371 0 .615h-8.9c-.015-.167-.025-.346-.046-.523-.426-3.516-2.451-5.289-6.278-5.41a8.715 8.715 0 0 0-4.559.915 3.588 3.588 0 0 0-2.048 3.412 2.963 2.963 0 0 0 2.159 2.93 57.677 57.677 0 0 0 6.255 1.606c2.857.582 5.765.949 8.472 2.117a10.044 10.044 0 0 1 3.164 16.241 14.767 14.767 0 0 1-8.539 4.111 26.822 26.822 0 0 1-13.7-.9c-3.986-1.437-6.774-4.065-7.715-8.344a10.023 10.023 0 0 1-.223-1.358c-.038-.459-.003-.922-.003-1.464z" transform="translate(-308.623 -793.864)" style="fill:#fff"/>
    <path data-name="Path 444" d="M351.049 848.985H335l-10.58-36.232h10.286l8.244 32.561h.146l8.245-32.575h10.286z" transform="translate(-291.475 -793.403)" style="fill:#fff"/>
    <path data-name="Path 445" d="M383.746 846.668v-23.634c.227-.015.434-.042.642-.042 3.276 0 6.553-.021 9.829 0a9.239 9.239 0 0 1 5.008 1.383c2.912 1.844 3.41 7.633-.82 9.308-.146.058-.282.138-.463.227 3.156 1 4.584 2.968 4.48 6.1a6.266 6.266 0 0 1-5.03 6.315 12.794 12.794 0 0 1-2.886.363c-3.466.042-6.933.017-10.4.015-.106-.003-.206-.019-.36-.035zm3.717-3.264c2.713 0 5.393.15 8.046-.048 2.142-.161 3.149-1.721 3.035-4.032a3.431 3.431 0 0 0-3.4-3.52c-2.24-.106-4.488-.056-6.73-.073h-.947zm-.021-10.68c2.538 0 4.993.044 7.448-.021a2.665 2.665 0 0 0 2.332-1.4 3.307 3.307 0 0 0-2.666-5.066c-2.294-.121-4.6-.052-6.895-.06-.069 0-.138.065-.219.1z" transform="translate(-227.07 -782.283)" style="fill:#fff"/>
    <path data-name="Path 446" d="M401.583 815.836h-3.767c-.056-.19-.131-.411-.188-.638a4.3 4.3 0 0 0-4.332-3.641 13.666 13.666 0 0 0-3.518.34 2.475 2.475 0 0 0-1.931 2.255 2.605 2.605 0 0 0 1.316 2.9 30.061 30.061 0 0 0 3.936 1.429c1.616.521 3.3.872 4.874 1.491 3.185 1.249 4.472 3.253 4.309 6.378a6.391 6.391 0 0 1-5.035 6.109c-3.961 1.028-7.8.747-11.2-1.8a7.489 7.489 0 0 1-2.922-6.146h3.7c.056.256.127.534.179.815a4.974 4.974 0 0 0 4.05 4.213 9.007 9.007 0 0 0 4.964-.1 3.185 3.185 0 0 0 2.384-3.032c.085-1.8-.446-2.889-2.027-3.493-1.608-.613-3.3-.995-4.949-1.506a35.347 35.347 0 0 1-3.6-1.212c-2.7-1.162-4.017-3.168-3.861-5.688a5.948 5.948 0 0 1 4.607-5.681 12.862 12.862 0 0 1 7.9.146 7.384 7.384 0 0 1 5.111 6.861z" transform="translate(-227.742 -798.24)" style="fill:#fff"/>
    <path data-name="Path 447" d="M443.82 832.2h-4.02l-8.359-23.669h4.1c2.073 6.553 4.144 13.1 6.282 19.865 2.121-6.739 4.186-13.3 6.251-19.855h3.9L443.82 832.2z" transform="translate(-175.297 -797.976)" style="fill:#fff"/>
    <path data-name="Path 448" d="M472.316 821.447h-12.923c.033 2.686 1.527 4.753 3.723 5.239a4.7 4.7 0 0 0 5.756-2.874h3.27a7.28 7.28 0 0 1-2.909 4.35 9.137 9.137 0 0 1-10.645-.717 8.578 8.578 0 0 1-2.6-6.1c-.165-3.066.428-5.923 2.939-7.961a8.552 8.552 0 0 1 8.889-1.164c2.991 1.135 4.194 3.65 4.49 6.668.076.799.01 1.612.01 2.559zm-3.4-2.649a4.242 4.242 0 0 0-2.121-3.873 4.916 4.916 0 0 0-5.3.113 4.54 4.54 0 0 0-2.123 3.76z" transform="translate(-148.671 -794.755)" style="fill:#fff"/>
    <path data-name="Path 449" d="M444.986 817.373h-3.224a5.177 5.177 0 0 1 3.3-5.1 10.311 10.311 0 0 1 6.605-.4c2.549.665 3.756 2.5 3.785 5.6.023 2.54 0 5.078.006 7.619 0 .3.029.592.044.888.031.669.325 1.078 1.1 1.016v1.927c-2.363.786-3.773.1-4.344-2.125a12.246 12.246 0 0 1-1.489 1.393 7.3 7.3 0 0 1-7.256.663 4.222 4.222 0 0 1-2.634-3.95 4.512 4.512 0 0 1 2.29-4.5 18.534 18.534 0 0 1 5.556-1.675 15.875 15.875 0 0 0 2.474-.734 1.547 1.547 0 0 0 1-1.606 1.76 1.76 0 0 0-.991-1.723 5.373 5.373 0 0 0-4.914.125c-.544.294-.807 1.132-1.149 1.748a2.827 2.827 0 0 0-.159.834zm7.122 2.938c-1.56.39-3.17.724-4.73 1.21a6.527 6.527 0 0 0-2.409 1.226 2.35 2.35 0 0 0 .868 3.885 5.639 5.639 0 0 0 4.73-.786 3.274 3.274 0 0 0 1.516-2.394 30.51 30.51 0 0 0 .025-3.141z" transform="translate(-165.062 -794.737)" style="fill:#fff"/>
    <path data-name="Path 450" d="M409.487 843.377c-2.417.8-3.938.058-4.3-2.144a1.008 1.008 0 0 0-.248.173c-1.948 2.7-5.825 2.957-8.088 2.109a4.388 4.388 0 0 1-3.064-4c-.159-2.023.451-3.8 2.38-4.653a43.8 43.8 0 0 1 5.314-1.633c.8-.233 1.629-.392 2.415-.669a1.66 1.66 0 0 0 1.205-1.725 1.807 1.807 0 0 0-1.22-1.827 5.619 5.619 0 0 0-4.568.173c-.54.279-.868 1.028-1.214 1.61a3.26 3.26 0 0 0-.223 1h-3.249a5.266 5.266 0 0 1 3.533-5.145 10.424 10.424 0 0 1 6.382-.34 4.9 4.9 0 0 1 3.777 5.033c.023 2.918.008 5.838.042 8.757.006.684.083 1.408 1.128 1.356zm-4.392-8.628c-1.493.371-2.911.672-4.294 1.084a11.745 11.745 0 0 0-2.657 1.1 2.3 2.3 0 0 0-.834 2.672 1.922 1.922 0 0 0 1.671 1.552 6.128 6.128 0 0 0 3.714-.415 3.845 3.845 0 0 0 2.394-3.621c.031-.804.006-1.611.006-2.372z" transform="translate(-216.198 -779.044)" style="fill:#fff"/>
    <path data-name="Path 451" d="M411.345 846.633V823h3.231v13.865c1.212-1.162 2.292-2.2 3.368-3.235 1.228-1.18 2.449-2.369 3.685-3.539a1.068 1.068 0 0 1 .607-.323c1.1-.031 2.2-.015 3.51-.015l-6.511 6.209c2.365 3.518 4.732 7.043 7.2 10.716-1.32 0-2.494.023-3.664-.025-.192-.006-.413-.3-.546-.509-1.714-2.649-3.416-5.308-5.2-8.086-.82.79-1.616 1.535-2.376 2.317-.113.119-.06.413-.06.624v5.631z" transform="translate(-197.108 -782.261)" style="fill:#fff"/>
    <path data-name="Path 452" d="M428.926 820.159c-.031 3.245-.765 5.844-3.133 7.623a8.762 8.762 0 0 1-9.208.9c-3.181-1.374-4.39-4.15-4.6-7.418a9.3 9.3 0 0 1 1.981-6.9c2.4-2.807 5.552-3.293 8.935-2.5 3.32.778 5.133 3.106 5.8 6.361a17.2 17.2 0 0 1 .225 1.934zm-3.249.33a24.624 24.624 0 0 0-.909-3.483 4.229 4.229 0 0 0-3.917-2.682 4.373 4.373 0 0 0-4.555 2.315 8.167 8.167 0 0 0 .006 7.781 4.8 4.8 0 0 0 8.213.15 9.906 9.906 0 0 0 1.161-4.082z" transform="translate(-196.444 -794.731)" style="fill:#fff"/>
    <path data-name="Path 453" d="M405.906 828.569a7.093 7.093 0 0 1 7.821-2.207 4.5 4.5 0 0 1 3.406 4.455c.127 4.179.038 8.365.038 12.583h-3.3v-.845c0-3.272.006-6.542 0-9.813a6.865 6.865 0 0 0-.121-1.45c-.411-1.823-1.9-2.722-3.969-2.436a4.086 4.086 0 0 0-3.858 4.463c-.023 3.055-.006 6.109-.006 9.162v.915h-3.26v-16.825h3.258z" transform="translate(-206.549 -779.013)" style="fill:#fff"/>
    <path data-name="Path 454" d="M424.709 828.9h-3.222v-16.825h3.218v2.025a6.176 6.176 0 0 1 4.355-2.482 10.069 10.069 0 0 1 3.137.15 4.682 4.682 0 0 1 3.717 4.555c.075 4.159.021 8.322.021 12.537h-3.26v-10.307c0-2.882-1.08-4.221-3.412-4.238a4.183 4.183 0 0 0-4.551 4.378v9.327z" transform="translate(-186.097 -794.675)" style="fill:#fff"/>
    <path data-name="Path 455" d="M419.347 818.191h-3.383a1.185 1.185 0 0 1-.1-.221q-.648-3.379-3.506-3.648c-2.409-.227-4.188.751-4.978 2.876a8.728 8.728 0 0 0 .215 7.074 4.434 4.434 0 0 0 5.035 2.373c1.754-.269 2.847-1.483 3.212-3.566.019-.1.05-.2.088-.352h3.3a6.659 6.659 0 0 1-4.845 6.34c-5.133 1.5-10.378-1.089-10.968-7.337-.284-3.024.292-5.815 2.549-8.046 3.477-3.437 11.49-3.043 13.129 3.3.105.383.164.778.252 1.207z" transform="translate(-205.785 -794.711)" style="fill:#fff"/>
    <path data-name="Path 456" d="M449.743 808.533h3.237v23.626h-3.237z" transform="translate(-155.423 -797.969)" style="fill:#fff"/>
    <path data-name="Path 457" d="M400.208 832.174h-3.191v-23.636h3.191z" transform="translate(-212.662 -797.964)" style="fill:#fff"/>
    <path data-name="Path 458" d="M456.237 832.172h-3.193v-23.634h3.193z" transform="translate(-151.839 -797.964)" style="fill:#fff"/>
    <path data-name="Path 459" d="M393.626 811.8h3.233v16.814h-3.233z" transform="translate(-216.344 -794.425)" style="fill:#fff"/>
    <path data-name="Path 460" d="M403.606 828.622h-3.22v-16.808h3.22z" transform="translate(-209.005 -794.407)" style="fill:#fff"/>
    <path data-name="Path 461" d="M404.086 810.569a1.79 1.79 0 0 1-1.963 1.881 1.822 1.822 0 0 1-1.892-1.894 1.877 1.877 0 0 1 1.942-1.95 1.843 1.843 0 0 1 1.913 1.963z" transform="translate(-209.173 -797.889)" style="fill:#fff"/>
    <path data-name="Path 462" d="M393.479 810.546a1.841 1.841 0 0 1 1.929-1.94 1.872 1.872 0 0 1 1.921 1.971 1.813 1.813 0 0 1-1.91 1.873 1.79 1.79 0 0 1-1.94-1.904z" transform="translate(-216.504 -797.889)" style="fill:#fff"/>
</svg>
