<svg xmlns="http://www.w3.org/2000/svg" width="50.638" height="41.506" viewBox="0 0 50.638 41.506">
    <path data-name="Path 85" d="M1310.421 182.718a10.013 10.013 0 0 1-4.366-1.2c.14 5.55 2.884 8.928 8.106 10.434a14 14 0 0 1-2.163.286c-.71.035-1.422.008-2.209.008 1.608 4.42 4.861 6.684 9.607 7.212a20.573 20.573 0 0 1-15.056 4.492 1.815 1.815 0 0 0 .438.351 29.423 29.423 0 0 0 11.994 3.982 28.344 28.344 0 0 0 17.768-3.614c10.157-5.962 15.278-14.929 15.345-26.735a1.167 1.167 0 0 1 .439-.978c1.182-1.049 2.354-2.116 3.471-3.234a11.007 11.007 0 0 0 1.119-1.58l.065-.069-.054-.006c0 .028 0 .057.006.085-.3.067-.6.121-.9.2q-2.307.622-4.611 1.256l-.08-.189c1.893-1.513 3.688-3.1 4.381-5.717-.345.155-.542.253-.747.333-1.765.69-3.535 1.369-5.295 2.072a.877.877 0 0 1-1.067-.25 10.467 10.467 0 0 0-17.654 8.377c.041.506.1 1.01.168 1.621-8.592-.922-15.814-4.329-21.585-11.015a28.76 28.76 0 0 0-1.163 3.091 9.622 9.622 0 0 0 2.023 8.521c.614.8 1.332 1.519 2 2.276z" transform="translate(-1304.341 -166.966)" style="fill:#fff"/>
</svg>
