<svg xmlns="http://www.w3.org/2000/svg" width="58.775" height="41.506" viewBox="0 0 58.775 41.506">
    <g data-name="Group 120">
        <path data-name="Path 143" d="M-278.262-171.221c5.065.152 10.132.26 15.194.474a60.286 60.286 0 0 1 6.765.644c3.624.568 5.838 2.9 6.509 6.567a51.462 51.462 0 0 1 .776 7.45c.091 2.576.177 5.155.142 7.732a69.323 69.323 0 0 1-.836 10.525 9.027 9.027 0 0 1-1.684 4.366 7.318 7.318 0 0 1-5.115 2.786c-2.847.288-5.7.567-8.557.69-4.013.172-8.033.246-12.05.268-3.627.02-7.255-.066-10.882-.143-2.125-.045-4.252-.109-6.371-.266a56.679 56.679 0 0 1-6.364-.7c-3.291-.624-5.182-2.792-5.9-6.009a39.492 39.492 0 0 1-.838-7.128c-.118-3.092-.2-6.19-.158-9.284a61.831 61.831 0 0 1 .907-10.283 7.953 7.953 0 0 1 2.674-4.9 7.745 7.745 0 0 1 3.94-1.707 94.809 94.809 0 0 1 11.082-.79q3.867-.109 7.735-.184c1.01-.02 2.02 0 3.03 0zm-5.993 12.07v17.488l15.384-8.744z" transform="translate(307.643 171.221)" style="fill:#fff"/>
    </g>
</svg>
