<svg xmlns="http://www.w3.org/2000/svg" width="313.748" height="129.163" viewBox="0 0 313.748 129.163">
    <g data-name="Group 289">
        <path data-name="Path 228" d="M-1025.61 1373.35h20.776a4.822 4.822 0 0 1-3.829 2.833h-12.38c-.442 0-.879.063-1.421.1-.038.55-.1 1.021-.1 1.492 0 6.1-.029 12.2.021 18.305a3.2 3.2 0 0 1-1.171 2.813 20.4 20.4 0 0 0-1.613 1.567c-.1-.05-.192-.1-.283-.15z" transform="translate(1059.987 -1314.332)" style="fill:#fff"/>
        <path data-name="Path 229" d="M-972.462 1374.194h-23.66v-43.152h-29.418v-2.842h32.293v43.115c.558.033.963.083 1.367.083 5.063 0 10.13.033 15.2-.021a2.887 2.887 0 0 1 2.533 1.071c.439.552.985 1.029 1.685 1.746z" transform="translate(1059.946 -1287.996)" style="fill:#fff"/>
        <path data-name="Path 230" d="M-995.925 1305.329q0-20.076.013-40.156a2.1 2.1 0 0 0-1.029-2.088q-10.126-5.819-20.23-11.659c-4.442-2.554-8.9-5.079-13.326-7.642-6.863-3.967-13.7-7.975-20.589-11.884a2.884 2.884 0 0 0-2.146.054 19.481 19.481 0 0 0-2.692 1.542q-11.519 6.632-23.035 13.255-13.982 8.063-27.96 16.13a2.055 2.055 0 0 0-1.192 2.05q.044 31.158.021 62.312v1.354l55.94 32.281c2.271-1.279 4.45-2.479 6.6-3.725q13.388-7.744 26.764-15.5 10.738-6.207 21.514-12.351a2.48 2.48 0 0 0 1.367-2.437c-.041-7.181-.02-14.365-.02-21.536zm-3.213-37.777v59.1c-1.592.946-3.1 1.863-4.617 2.742q-11.138 6.444-22.289 12.872-9.619 5.544-19.26 11.067c-1.771 1.017-3.55 2.021-5.284 3.1a2.567 2.567 0 0 1-2.971.042c-3.263-1.954-6.579-3.825-9.871-5.734l-11.413-6.6q-8.175-4.719-16.359-9.434l-12.951-7.463c-.3-.171-.563-.4-.946-.667v-1.192q0-29.02-.021-58.045a2.741 2.741 0 0 1 1.5-2.692c5.825-3.333 11.63-6.709 17.438-10.067q12.8-7.407 25.606-14.8c2.367-1.367 4.759-2.7 7.113-4.083a2.471 2.471 0 0 1 2.729.012q7.894 4.594 15.813 9.146c3.809 2.192 7.634 4.359 11.438 6.555q9.757 5.625 19.493 11.28c1.288.746 2.625 1.421 3.833 2.279a4.026 4.026 0 0 1 .992 1.663 2.459 2.459 0 0 1 .028.919zm33.089 61.9v-27.4h-4.875v31.9h19.23v-4.5zm16.251-69.362v-4.242h-21.155v31.785h4.921v-12.134h14.555v-4.338h-14.463v-11.071zm22.13 11.242a9.916 9.916 0 0 0-4.838-5.85c-2.754-1.571-5.7-1.508-8.688-1.017a8.995 8.995 0 0 0-5.309 3c-2.221 2.458-2.9 5.429-3.009 8.655.171 1.263.254 2.542.525 3.784a9.725 9.725 0 0 0 5.909 7.384 13.566 13.566 0 0 0 8.38.429 9.111 9.111 0 0 0 6.525-5.459 15.289 15.289 0 0 0 .506-10.931zm-4.488 8.775a4.9 4.9 0 0 1-3.121 3.5 7.661 7.661 0 0 1-5.854 0 5.4 5.4 0 0 1-3.425-4.825 29.067 29.067 0 0 1 .092-5.484c.342-3.371 3.288-5.117 6.28-5.121a6.191 6.191 0 0 1 6.442 6.388v1.767l.162.025c-.183 1.243-.275 2.521-.575 3.743zm2.859 50.311v-1.229c0-3.817.05-7.634-.029-11.446a6.509 6.509 0 0 0-3.146-5.775 11.688 11.688 0 0 0-12.334.158 6.618 6.618 0 0 0-3.171 5.913h4.488c.383-1.463.917-2.984 2.567-3.329a10.272 10.272 0 0 1 4.367-.171c2.183.521 3.067 2.821 2.425 5.5-.342.017-.717.05-1.088.054-2.013 0-4.029-.1-6.034.025-3.788.225-6.946 1.7-7.659 6.15a7.47 7.47 0 0 0 2.821 6.95c3.046 2.1 9.125 1.55 11.6-1.646.217-.279.442-.558.779-.983.054.508.067.808.121 1.1a2.294 2.294 0 0 0 1.521 2.05c1.967.579 3.967.237 6.021.271v-3.438c-1.094-.054-2.106-.104-3.252-.158zm-9.155.025a5.793 5.793 0 0 1-4.038-.279 2.534 2.534 0 0 1-1.6-2.533 9.387 9.387 0 0 1 .1-2.062 2.6 2.6 0 0 1 2.446-1.95c2.471-.129 4.954-.037 7.425-.037a5.755 5.755 0 0 1-4.332 6.857zm29.777-65.841c-.037.5-.092.942-.1 1.379 0 3.85 0 7.7-.008 11.547a6.629 6.629 0 0 1-2.492 5.367 5.394 5.394 0 0 1-5.729.858c-1.958-.787-2.517-2.5-2.542-4.388-.062-4.471-.029-8.946-.042-13.417 0-.437-.062-.871-.1-1.359h-4.609a2.648 2.648 0 0 0-.133.513c.071 5.538.054 11.084.271 16.618a6.392 6.392 0 0 0 2.783 5.025 8.741 8.741 0 0 0 12.1-2.4c.146-.229.325-.442.575-.775.242 1.5.45 2.783.654 4.054h4V1264.6zm8.584 46.382c-1.417 6.03-2.829 12.021-4.284 18.2-1.417-6.2-2.792-12.222-4.15-18.176h-5.534l-4.009 17.959c-.058 0-.117-.013-.175-.017-1.438-6-2.879-12-4.309-17.934h-5.063c2.142 7.721 4.254 15.322 6.371 22.939h6c1.25-5.538 2.483-11.013 3.721-16.489l.283.025c1.279 5.479 2.563 10.959 3.854 16.476h6.029c2.079-7.621 4.154-15.247 6.263-22.985zm21.268-40.006a7.82 7.82 0 0 0-2.117-4.642c-2.492-2.929-8.684-2.808-11.4-.2-.713.688-1.333 1.467-2.133 2.358-.25-1.383-.483-2.642-.708-3.888h-3.917v23.039h4.579v-1.375c0-3.429-.029-6.863.017-10.292a11.916 11.916 0 0 1 .379-3.175 5.887 5.887 0 0 1 8.063-4.1c1.9.688 2.592 2.475 2.625 4.367.075 4.4.025 8.8.029 13.2 0 .438.05.875.079 1.363h4.613a2.1 2.1 0 0 0 .129-.463c-.054-5.4-.038-10.805-.238-16.197zm20.539-15.447v12.684a36.406 36.406 0 0 0-3.142-2.633c-1.692-1.125-3.663-1.1-5.621-1.075a8.27 8.27 0 0 0-7.884 5.525 18.716 18.716 0 0 0-.567 10.638c.8 3.617 2.763 6.38 6.613 7.192 3.492.738 7.8.133 10.109-3.363a5.785 5.785 0 0 1 .617-.662c.2 1.371.367 2.579.542 3.825h4.134v-32.131zm-1.167 26.139a7.616 7.616 0 0 1-6.45 2.558c-2.408-.421-4.442-1.467-4.917-3.954a35.722 35.722 0 0 1-.25-6.588 4.832 4.832 0 0 1 1.238-3.329 6.828 6.828 0 0 1 7.359-1.567 5.935 5.935 0 0 1 4.225 5.663c.029.625 0 1.25 0 1.992a7.837 7.837 0 0 1-1.205 5.221zm25.864-1.042c-1.567 3.842-5.854 4.259-8.53 3.225a5.457 5.457 0 0 1-3.225-6.613h16.168c0-1.542.1-2.946-.021-4.329a9.044 9.044 0 0 0-4.509-7.388c-2.554-1.533-5.379-1.583-8.171-1.183a9.2 9.2 0 0 0-7.709 6.275 15.9 15.9 0 0 0-.329 10 10.361 10.361 0 0 0 3.071 5.079c3.7 3.292 10.521 3.038 14.026.65a8.07 8.07 0 0 0 3.8-5.713zm-9.813-11.567a7.03 7.03 0 0 1 7.017-.358 4.583 4.583 0 0 1 2.4 4.95H-845.4c-.621-1.646.629-3.58 2-4.597zm21.655-4.529c-3.159.017-4.25 1.108-4.288 4.25v17.476c0 .442.054.883.083 1.392h4.634v-19.118h7.367v-4c-2.67-.005-5.233-.017-7.796-.005zm27.368 15.522a4.641 4.641 0 0 0-2.658-4.367 24.429 24.429 0 0 0-4.421-1.379c-1.6-.4-3.254-.6-4.842-1.042a2.335 2.335 0 0 1-1.854-1.9 2.6 2.6 0 0 1 1.125-2.817 6.161 6.161 0 0 1 5.1-.5 3.3 3.3 0 0 1 2.367 3.092c.008.054.083.1.175.212h4.242a5.561 5.561 0 0 0-3.042-5.813 12.4 12.4 0 0 0-11.026-.35c-3.884 1.609-4.7 6.275-2.963 9.288a6.358 6.358 0 0 0 4.409 2.838c2.088.479 4.2.825 6.3 1.263a2.849 2.849 0 0 1 2.346 2.333 3.19 3.19 0 0 1-1.633 2.917 6.6 6.6 0 0 1-5.425.271 4.077 4.077 0 0 1-2.671-3.509h-4.475a6.425 6.425 0 0 0 3.346 6.117c3.038 1.7 6.309 1.642 9.6 1.088a7.976 7.976 0 0 0 4.425-2.333c1.501-1.539 1.647-3.422 1.576-5.414z" style="fill:#fff" transform="translate(1108.11 -1231.715)"/>
    </g>
</svg>
