<svg xmlns="http://www.w3.org/2000/svg" width="277.503" height="128.781" viewBox="0 0 277.503 128.781">
    <g data-name="Group 285">
        <path data-name="Path 210" d="M111.558 32.162v64.463l-55.768 32.16L0 96.609V32.177L55.787 0zM3.865 94.441l51.923 29.944 51.977-29.974v-60.04L55.789 4.399 3.865 34.341z"/>
        <path data-name="Path 211" d="M192.252 40.373h3.7l7.958 12.124.334-.081V40.384h3.754v19.64h-3.655l-8-12.222-.263.081v12.1h-3.83z"/>
        <path data-name="Path 212" d="M158.43 60.563a10.394 10.394 0 0 1 .24-20.786 10.373 10.373 0 0 1 10.2 10.7 10.141 10.141 0 0 1-10.44 10.086zm-6.237-10.266a6.383 6.383 0 0 0 6.41 6.555 6.643 6.643 0 0 0-.079-13.275c-3.708 0-6.341 2.794-6.33 6.72z"/>
        <path data-name="Path 213" d="M213.829 60.097v-19.78c3.636.05 7.252-.6 10.66.977 3.435 1.592 5.429 5.745 5 10.146-.512 5.306-3.348 8.213-8.654 8.628-2.276.178-4.583.029-7.006.029zm3.927-3.823c2.723.027 5.442.415 6.931-2.314a6.909 6.909 0 0 0-.268-7.592c-1.584-2.277-4.051-2.388-6.663-2.153z"/>
        <path data-name="Path 214" d="M249.888 40.103a75.863 75.863 0 0 1 8.077.629c2.352.425 3.45 2.345 3.71 4.637a5.183 5.183 0 0 1-2.315 5.27c-.379.252-.785.463-1.322.777l4.519 8.6h-4.232l-4.233-7.909-.346.092v7.796h-3.859zm3.964 4.063V47.9c1.362.088 2.75.426 3.636-.8a2.17 2.17 0 0 0 .11-1.91c-.759-1.407-2.202-1.023-3.746-1.024z"/>
        <path data-name="Path 215" d="m223.247 79.799 4.545 8.579h-4.243l-4.219-7.872-.323.045v7.839h-3.768V68.733c2.831.126 5.69-.487 8.457.511a4.8 4.8 0 0 1 3.159 4.347c.245 2.211-.277 4.135-2.26 5.43-.383.25-.793.46-1.348.778zm-4.15-3.545c1.421.057 2.823.473 3.657-.84a2.21 2.21 0 0 0-.035-2.015c-.87-1.184-2.227-.99-3.617-.78z"/>
        <path data-name="Path 216" d="M182.911 40.373h3.678a2.5 2.5 0 0 1 .182.608c-.02 4.61.1 9.228-.13 13.827-.178 3.55-2.688 5.659-6.224 5.752-3.925.1-6.531-1.782-6.943-5.434a79.676 79.676 0 0 1-.177-8.15c-.021-2.155 0-4.311 0-6.585h3.814c.03.6.079 1.136.081 1.673.009 3.828-.058 7.659.057 11.484a4.2 4.2 0 0 0 1.043 2.693 2.7 2.7 0 0 0 4.431-1.665c.231-2.934.154-5.893.188-8.842.017-1.743 0-3.486 0-5.361z"/>
        <path data-name="Path 217" d="m139.216 74.691 4.7-5.905h4.718l-6.837 8.72 7.5 10.895h-4.6l-5.547-7.884-.31.046v7.831h-3.771V68.85h3.717v5.741z"/>
        <path data-name="Path 218" d="M238.103 56.272h6.819v3.748h-10.679V40.365h10.687v3.737h-6.814v3.31h6.778v3.926h-6.791z"/>
        <path data-name="Path 219" d="M157.026 79.607v5.048h6.8v3.738h-10.667V68.824h10.653v3.652h-6.781v3.284h6.77v3.851z"/>
        <path data-name="Path 220" d="M179.292 88.405h-10.643V68.827h10.636v3.63h-6.751v3.332h6.78v3.828h-6.761v5.007h6.739z"/>
        <path data-name="Path 221" d="M210.153 84.622v3.774h-10.692V68.845h10.68v3.607h-6.76v3.27h6.753v3.853h-6.767v5.047z"/>
        <path data-name="Path 222" d="M187.809 88.402h-3.8v-19.51a61.273 61.273 0 0 1 7.414.062c2.8.348 4.329 2.493 4.354 5.382a5.19 5.19 0 0 1-4.235 5.525c-1.157.259-2.362.3-3.737.469zm.092-12.126c1.405 0 2.874.518 3.731-.861a2.3 2.3 0 0 0-.161-2.132c-.92-1.1-2.27-.871-3.569-.662z"/>
        <path data-name="Path 223" d="m229.969 84.735 3.364-2.028c.425.523.712 1.128 1.19 1.408a5.615 5.615 0 0 0 2.569 1 1.7 1.7 0 0 0 1.325-2.863 13.289 13.289 0 0 0-1.773-1.737c-1.285-1.192-2.664-2.3-3.852-3.577-1.85-2-2.132-4.26-.963-6.21a5.674 5.674 0 0 1 6.037-2.437 7.3 7.3 0 0 1 4.516 3.159l-2.418 2.132a32.712 32.712 0 0 0-3.8-1.567c-.327-.092-.875.6-1.489 1.058a14.122 14.122 0 0 0 1.389 1.764c1.4 1.268 2.892 2.446 4.3 3.708a6.178 6.178 0 0 1 2.311 4.126c.193 2.363-.539 4.336-2.7 5.483a6.511 6.511 0 0 1-7.32-.425 20.254 20.254 0 0 1-2.686-2.994z"/>
        <path data-name="Path 224" d="m264.776 56.353 3.335-2.043a6.127 6.127 0 0 0 .944 1.175 4.941 4.941 0 0 0 2.173 1.268 2.825 2.825 0 0 0 2.155-1.041c.292-.413-.073-1.452-.395-2.084-.275-.539-.9-.9-1.383-1.333-1.3-1.177-2.674-2.282-3.888-3.542-2.108-2.187-2.391-4.747-.889-6.766a5.778 5.778 0 0 1 7.118-1.626 27.167 27.167 0 0 1 3.445 2.506l-2.958 2.6a17.622 17.622 0 0 0-2.02-1.6 1.681 1.681 0 0 0-2.373.3c-.635.869-.061 1.572.6 2.144 1.467 1.268 2.981 2.483 4.428 3.773a6.247 6.247 0 0 1 2.42 5.205 5.075 5.075 0 0 1-3.141 4.686 6.578 6.578 0 0 1-6.956-.65 21.693 21.693 0 0 1-2.615-2.972z"/>
        <path data-name="Path 225" d="M138.712 60.018h-3.672V40.399h9.622v3.68h-5.824v3.382h5.818v3.857h-5.944z"/>
        <path data-name="Path 226" d="M35.62 43.985v16.6h13.3l.059.3-3.858 3.317h-9.588V88.34h-3.6V40.452h37.348a3.81 3.81 0 0 1-.342.607c-.9.985-1.819 1.959-2.722 2.928z"/>
        <path data-name="Path 227" d="M75.014 40.479h4.321l.191.34L56.375 63.95 79.77 87.32h-4.826L51.41 64.04z"/>
    </g>
</svg>
