<?xml version="1.0" standalone="no"?>
<!DOCTYPE svg PUBLIC "-//W3C//DTD SVG 1.1//EN" "http://www.w3.org/Graphics/SVG/1.1/DTD/svg11.dtd" >
<svg xmlns="http://www.w3.org/2000/svg" xmlns:xlink="http://www.w3.org/1999/xlink" version="1.1">
<metadata>
Created by FontForge 20190801 at Mon Apr 16 20:48:58 2018
 By www-data
Copyright (c) 2018 by Arterfak Project. All rights reserved.
</metadata>
<defs>
<font id="BerthaItalic" horiz-adv-x="532" >
  <font-face 
    font-family="BerthaItalic"
    font-weight="400"
    font-style="italic"
    font-stretch="normal"
    units-per-em="1000"
    panose-1="0 0 0 0 0 0 0 0 0 0"
    ascent="750"
    descent="-250"
    x-height="475"
    cap-height="655"
    bbox="-560.298 -530 2380 1108"
    underline-thickness="50"
    underline-position="-100"
    unicode-range="U+000D-FB00"
  />
<missing-glyph horiz-adv-x="250" 
 />
    <glyph glyph-name="T_T" unicode="TT" horiz-adv-x="875" 
d="M423 535l-36 -171q15 -3 23 -13t5 -23t-15 -23t-28 -13l-62 -291h-120l62 291q-34 7 -29 36q6 27 44 36l36 171h-155l26 120h805l-26 -120h-155l-36 -171q15 -3 23 -13t5 -23t-15 -23t-28 -13l-62 -291h-120l62 291q-34 7 -29 36q6 27 44 36l36 171h-255z" />
    <glyph glyph-name="t_t" unicode="tt" horiz-adv-x="690" 
d="M566 111q16 0 30 11l57 -81q-51 -40 -110 -40q-63 0 -98 44.5t-22 107.5l49 232h-170l-49 -232q-4 -17 6 -29.5t27 -12.5q16 0 30 11l57 -81q-51 -40 -110 -40q-63 0 -98 44.5t-22 107.5l49 232h-66l19 90h66l26 119l123 61l-39 -180h170l26 119l123 61l-39 -180h107
l-19 -90h-107l-49 -232q-4 -17 6 -29.5t27 -12.5z" />
    <glyph glyph-name="f_f" unicode="ff" horiz-adv-x="700" 
d="M327 503l-6 -28h195l6 28q13 63 67.5 107.5t117.5 44.5q59 0 93 -40l-91 -81q-11 11 -26 11q-17 0 -32 -12.5t-19 -29.5l-6 -28h107l-19 -90h-107l-81 -384h-110l81 384h-195l-81 -384h-110l81 384h-66l19 90h66l6 28q13 63 67.5 107.5t117.5 44.5q59 0 93 -40l-91 -81
q-11 11 -26 11q-17 0 -32 -12.5t-19 -29.5z" />
    <glyph glyph-name=".notdef" horiz-adv-x="250" 
 />
    <glyph glyph-name=".null" horiz-adv-x="0" 
 />
    <glyph glyph-name="nonmarkingreturn" horiz-adv-x="333" 
 />
    <glyph glyph-name="NULL" horiz-adv-x="0" 
 />
    <glyph glyph-name="NULL" horiz-adv-x="0" 
 />
    <glyph glyph-name="CR" unicode="&#xd;" horiz-adv-x="250" 
 />
    <glyph glyph-name="space" unicode=" " horiz-adv-x="250" 
 />
    <glyph glyph-name="exclam" unicode="!" horiz-adv-x="210" 
d="M99 185l85 470h120l-115 -470h-90zM130 121q25 0 38.5 -17.5t8.5 -42.5t-26 -42.5t-46 -17.5t-39 17.5t-9 42.5t26.5 42.5t46.5 17.5z" />
    <glyph glyph-name="quotedbl" unicode="&#x22;" horiz-adv-x="366" 
d="M340 655l-139 -180h-56l102 180h93zM265 475l102 180h93l-139 -180h-56z" />
    <glyph glyph-name="numbersign" unicode="#" horiz-adv-x="518" 
d="M565 655l-67 -200h71l-27 -80h-71l-32 -94h71l-26 -80h-71l-67 -200h-80l67 200h-95l-66 -200h-80l66 200h-71l27 80h71l32 94h-72l27 80h71l68 200h80l-68 -200h95l67 200h80zM359 281l32 94h-94l-32 -94h94z" />
    <glyph glyph-name="dollar" unicode="$" horiz-adv-x="575" 
d="M518 329q33 -25 45 -58q16 -38 5 -89q-7 -37 -33 -76q-27 -37 -62 -62q-70 -50 -158 -53l-20 -93h-60l20 93q-81 3 -129 54q-46 49 -46 124l123 25q-1 -32 19 -56t58 -27l36 168q-72 25 -103 49q-32 26 -44 58q-17 39 -6 87q19 84 97 135q59 39 135 45l14 65h60l-13 -64
q72 -5 117 -47q47 -46 49 -121l-123 -24q0 30 -18 48.5t-51 23.5l-32 -149q85 -28 120 -56zM300 428q22 -14 43 -22l27 126q-76 -11 -87 -59q-6 -26 17 -45zM415 136q29 21 33 46q6 29 -18 47q-16 13 -58 30l-32 -148q44 3 75 25z" />
    <glyph glyph-name="percent" unicode="%" horiz-adv-x="597" 
d="M596 655h60l-516 -654h-60zM258 395q-54 0 -83.5 38t-18.5 92q11 53 57.5 91t100.5 38q53 0 82.5 -38t18.5 -91q-11 -54 -57.5 -92t-99.5 -38zM301 594q-29 0 -54 -20.5t-31 -48.5q-6 -29 10 -49.5t45 -20.5t53.5 20.5t30.5 49.5t-10 49t-44 20zM478 260q53 0 82.5 -38
t18.5 -91t-57 -91t-99 -38q-54 0 -84 38t-19 91t57.5 91t100.5 38zM436 62q28 0 52.5 20t30.5 49t-10 49t-44 20q-29 0 -54 -20t-31 -49t10.5 -49t45.5 -20z" />
    <glyph glyph-name="ampersand" unicode="&#x26;" horiz-adv-x="643" 
d="M578 203q-51 -45 -63 -54l83 -148h-126l-45 80q-98 -69 -161 -86q-34 -8 -60 -8q-58 0 -93 32q-54 48 -38 125q16 75 94 141q37 30 92 63q-48 72 -33 142q14 66 70.5 113t123.5 47q66 0 102.5 -47t22.5 -113q-13 -62 -84 -121q-32 -24 -51 -36l58 -104q49 41 63 55z
M400 550q-25 0 -46 -17.5t-26 -42.5q-8 -35 29 -85q83 52 90 85q5 25 -8.5 42.5t-38.5 17.5zM259 91q46 12 124 69l-65 117q-63 -38 -99.5 -68.5t-43.5 -64.5q-6 -28 15 -45q22 -20 69 -8z" />
    <glyph glyph-name="quotesingle" unicode="'" horiz-adv-x="246" 
d="M145 475l102 180h93l-139 -180h-56z" />
    <glyph glyph-name="parenleft" unicode="(" horiz-adv-x="309" 
d="M216 318q-35 -168 9 -312q11 -37 26 -67h-119q-1 2 -9 26q-23 72 -27 150q-6 101 16 203q23 107 70 202q35 74 91 151q7 9 19 25h119q-150 -166 -195 -378z" />
    <glyph glyph-name="parenright" unicode=")" horiz-adv-x="309" 
d="M320 671q23 -72 27 -151q6 -100 -16 -202q-23 -106 -70 -203q-36 -74 -91 -150q-4 -5 -10.5 -14t-8.5 -12h-119q39 47 54 67q106 143 141 312q46 218 -35 378h119q2 -4 9 -25z" />
    <glyph glyph-name="asterisk" unicode="*" horiz-adv-x="368" 
d="M422 609l19 -52l-103 -46l84 -45l-42 -52l-73 58l-15 -104h-60l30 104l-100 -58l-18 52l103 45l-84 46l41 52l75 -58l14 104h60l-29 -104z" />
    <glyph glyph-name="plus" unicode="+" horiz-adv-x="427" 
d="M442 283h-123l-27 -124h-90l27 124h-124l19 90h124l26 123h90l-26 -123h123z" />
    <glyph glyph-name="comma" unicode="," horiz-adv-x="220" 
d="M37 -33l89 139l63 -39l-113 -124z" />
    <glyph glyph-name="hyphen" unicode="-" horiz-adv-x="323" 
d="M93 226l17 80h233l-17 -80h-233z" />
    <glyph glyph-name="period" unicode="." horiz-adv-x="210" 
d="M130 121q25 0 38.5 -17.5t8.5 -42.5t-26 -42.5t-46 -17.5t-39 17.5t-9 42.5t26.5 42.5t46.5 17.5z" />
    <glyph glyph-name="slash" unicode="/" horiz-adv-x="435" 
d="M32 -58l433 713h64l-432 -713h-65z" />
    <glyph glyph-name="zero" unicode="0" horiz-adv-x="500" 
d="M538 544q25 -80 -4 -216q-29 -137 -88 -216q-35 -50 -84 -80q-54 -31 -112 -31q-60 0 -100 31q-36 28 -51 80q-23 84 5 216q28 133 87 216q37 52 85 79q52 32 113 32q58 0 99 -32q35 -27 50 -79zM351 166q42 57 63 162q23 107 5 161q-13 46 -56 46q-44 0 -77 -46
q-39 -53 -62 -161q-22 -108 -6 -162q12 -45 57 -45q43 0 76 45z" />
    <glyph glyph-name="one" unicode="1" horiz-adv-x="234" 
d="M148 535l26 120h164l-139 -654h-120l113 534h-44z" />
    <glyph glyph-name="two" unicode="2" horiz-adv-x="440" 
d="M271 179q-54 -39 -74 -58h233l-25 -120h-370l19 89q10 52 65 105q27 27 91 74q51 38 78 60.5t57.5 61.5t38.5 79q6 26 -9 45.5t-42 19.5t-50 -19t-29 -46h-120q16 76 82 130.5t143 54.5q76 0 119 -54t26 -131q-19 -93 -98 -178q-36 -37 -135 -113z" />
    <glyph glyph-name="three" unicode="3" horiz-adv-x="500" 
d="M465 376q25 -18 38 -47q22 -46 7 -113q-19 -89 -94 -152q-77 -63 -166 -63q-90 0 -139 63q-49 65 -31 152h120q-8 -39 14 -67t61 -28q40 0 73.5 28t41.5 67q10 44 -15.5 62t-118.5 18l26 120q26 0 39 -1v1q24 0 51 20.5t32 46.5q5 21 -7 36.5t-34 15.5q-35 0 -55 -34
l-103 43q28 48 79 80q51 31 105 31q71 0 110.5 -50.5t24.5 -121.5q-12 -60 -59 -107z" />
    <glyph glyph-name="four" unicode="4" horiz-adv-x="508" 
d="M576 655l-77 -359h36l-25 -120h-36l-37 -175h-120l37 175h-282l25 119l327 360h152zM379 296l42 194l-177 -194h135z" />
    <glyph glyph-name="five" unicode="5" horiz-adv-x="500" 
d="M341 431q90 0 139 -63q50 -64 30 -152q-19 -90 -95 -152q-75 -63 -165 -63t-139 63q-49 65 -31 152h120q-8 -39 14 -67t61 -28q40 0 73.5 28t41.5 67t-13.5 67t-60.5 28h-193l119 344h322l-26 -120h-217l-36 -104h56z" />
    <glyph glyph-name="six" unicode="6" horiz-adv-x="500" 
d="M341 431q88 0 139 -63q50 -64 30 -152q-19 -90 -95 -152q-77 -63 -165 -63q-90 0 -139 63q-50 64 -31 152q24 115 90 210q52 78 128 139q37 31 79 56.5t60.5 34t25.5 10.5l22 -111q-60 -24 -125 -78q-30 -25 -50 -48q20 2 31 2zM275 121q39 0 73 28t42 67t-13.5 67
t-60.5 28t-73.5 -28t-42.5 -67t14 -67t61 -28z" />
    <glyph glyph-name="seven" unicode="7" horiz-adv-x="440" 
d="M148 535l26 120h370l-28 -130l-289 -524h-127l294 534h-246z" />
    <glyph glyph-name="eight" unicode="8" horiz-adv-x="500" 
d="M475 355q53 -60 34 -147q-19 -86 -97 -148q-75 -59 -162 -59q-89 0 -139 59q-51 61 -32 148q19 88 95 147q1 1 3.5 3t3.5 3q-31 51 -18 114q17 74 83 127t143 53t120 -53t27 -127q-14 -65 -66 -114q1 -1 2.5 -3t2.5 -3zM283 475q-5 -25 11 -42.5t44 -17.5q27 0 50 17.5
t28 42.5t-10.5 42.5t-42.5 17.5q-28 0 -51.5 -17.5t-28.5 -42.5zM275 121q39 0 73 25.5t41 61.5t-15.5 61.5t-61.5 25.5q-40 0 -72.5 -25.5t-40.5 -61.5t14 -61.5t62 -25.5z" />
    <glyph glyph-name="nine" unicode="9" horiz-adv-x="500" 
d="M389 655q88 0 138 -63q50 -62 31 -152q-24 -115 -90 -210q-50 -77 -127 -139q-38 -31 -79.5 -56.5t-61.5 -34.5t-25 -10l-22 111q60 24 126 78q22 19 50 48q-11 -2 -32 -2q-89 0 -138 63q-50 61 -31 152q19 88 95 152q79 63 166 63zM323 345q39 0 73 27.5t42 67.5
q8 39 -14 67t-61 28t-73 -28t-42 -67q-8 -40 14 -67.5t61 -27.5z" />
    <glyph glyph-name="colon" unicode=":" horiz-adv-x="210" 
d="M130 121q25 0 38.5 -17.5t8.5 -42.5t-26 -42.5t-46 -17.5t-39 17.5t-9 42.5t26.5 42.5t46.5 17.5zM205 475q25 0 39 -17.5t9 -42.5t-26.5 -42.5t-46.5 -17.5t-38.5 17.5t-8.5 42.5t26 42.5t46 17.5z" />
    <glyph glyph-name="semicolon" unicode=";" horiz-adv-x="222" 
d="M39 -33l89 139l63 -39l-113 -124zM180 355q-25 0 -38.5 17.5t-8.5 42.5t26 42.5t46 17.5t39 -17.5t9 -42.5t-26.5 -42.5t-46.5 -17.5z" />
    <glyph glyph-name="less" unicode="&#x3c;" horiz-adv-x="496" 
d="M98 252l11 51l445 182l-19 -88l-354 -145l292 -145l-18 -88l-368 183z" />
    <glyph glyph-name="equal" unicode="=" horiz-adv-x="464" 
d="M126 385l19 90h374l-19 -90h-374zM91 221l20 90h374l-20 -90h-374z" />
    <glyph glyph-name="greater" unicode="&#x3e;" horiz-adv-x="496" 
d="M515 303l-11 -51l-11 -50l-444 -183l18 88l354 145l-292 145l19 88z" />
    <glyph glyph-name="question" unicode="?" horiz-adv-x="441" 
d="M245 121q25 0 38.5 -17.5t8.5 -42.5t-26 -42.5t-46 -17.5t-39 17.5t-9 42.5t26.5 42.5t46.5 17.5zM453 632q47 -33 50 -96.5t-31 -121.5q-25 -50 -92 -119q-68 -70 -76 -110h-90q2 11 5 21.5t8 21.5t8 18.5t10.5 19.5t10.5 17t12.5 17.5t11.5 16t13.5 18t13.5 16.5
q60 79 71 133q6 27 -8 44t-41 17q-25 0 -49.5 -13t-30.5 -39l1 1l-100 2q10 49 46 88t80.5 57t93 17t83.5 -26z" />
    <glyph glyph-name="at" unicode="@" horiz-adv-x="755" 
d="M755 549q30 -44 36 -105q4 -61 -17 -128q-26 -77 -85.5 -138t-134.5 -61q-46 0 -70 24t-22 66q-51 -40 -103 -40q-57 0 -82.5 47t-3.5 114q22 66 77.5 113t112.5 47q49 0 76 -35l11 32h80l-68 -201q-11 -32 -16 -50.5t-6.5 -35.5t5 -24t21.5 -7q31 0 58.5 18.5t45.5 46
t28.5 48.5t15.5 36q37 113 -14.5 201.5t-160.5 88.5q-110 0 -218 -88.5t-146 -201.5q-39 -118 7 -203.5t168 -85.5q103 0 200 62l15 -30q-57 -35 -113 -53q-62 -20 -118 -20q-66 0 -120 26q-51 26 -81 71q-30 48 -36 104q-5 61 18 129q23 67 69 128q41 56 105 105
q64 47 129 70q70 26 137 26t119 -26q52 -25 81 -70zM398 247q30 0 59 23.5t40 57.5q11 33 -2.5 56.5t-42.5 23.5q-30 0 -58.5 -23.5t-40.5 -56.5q-11 -34 2.5 -57.5t42.5 -23.5z" />
    <glyph glyph-name="A" unicode="A" horiz-adv-x="612" 
d="M576 328q-3 -17 -25 -30l26 -297h-126l-12 139h-208l-70 -139h-126l151 295q-21 12 -16 32q3 14 18 24.5t33 12.5l149 290h75h75l25 -291q16 -2 25 -12.5t6 -23.5zM277 230h154l-22 257z" />
    <glyph glyph-name="B" unicode="B" horiz-adv-x="557" 
d="M529 338q52 -57 34 -144q-17 -80 -86 -136.5t-148 -56.5h-257l56 267l6 24q-36 7 -30 36q7 29 45 36l5 24l57 267h237q80 0 124 -57t27 -137q-13 -68 -70 -123zM305 535l-31 -147h117q30 0 56 21.5t32 51.5q7 31 -10 52.5t-47 21.5h-117zM354 121q30 0 56 21.5t33 51.5
q6 31 -11 52.5t-47 21.5h-137l-31 -147h137z" />
    <glyph glyph-name="C" unicode="C" horiz-adv-x="654" 
d="M506 535q-76 0 -144 -49.5t-96 -122.5q33 -9 26 -35q-5 -28 -41 -35q-3 -74 44 -123t123 -49q87 0 159 61l67 -85q-56 -46 -119 -70q-66 -26 -132 -26q-65 0 -122 26q-52 24 -89 70q-36 45 -48 104q-9 42 -4 91q-17 2 -25.5 12.5t-5.5 23.5q3 14 16 24t30 12q15 45 43 91
q38 59 92 104q54 44 119 70q67 26 133 26t121 -26t89 -70l-103 -85q-47 61 -133 61z" />
    <glyph glyph-name="D" unicode="D" horiz-adv-x="631" 
d="M641 364q15 -3 23.5 -13t5.5 -23q-3 -14 -16 -25t-28 -11h-2q-14 -44 -43 -91q-38 -59 -92 -104q-56 -46 -119 -70q-67 -26 -132 -26h-166l62 291q-36 7 -30 36q7 29 45 36l62 291h166q64 0 121 -26q55 -26 89 -70q36 -45 48 -104q9 -42 4 -91h2zM263 121q76 0 144 49
t96 123q-31 7 -26 35q7 26 41 35q3 73 -44 122.5t-123 49.5h-46l-36 -171q15 -3 23 -13t5 -23t-15 -23t-28 -13l-37 -171h46z" />
    <glyph glyph-name="E" unicode="E" horiz-adv-x="510" 
d="M149 364l62 291h403l-26 -120h-283l-31 -147h208l-26 -120h-208l-31 -147h283l-25 -120h-403l56 267l6 24q-36 7 -30 36q7 29 45 36z" />
    <glyph glyph-name="F" unicode="F" horiz-adv-x="510" 
d="M148 364l62 291h404l-26 -120h-284l-34 -161h250l-26 -120h-250l-53 -253h-120l53 253l9 38q-35 7 -29 36q7 29 44 36z" />
    <glyph glyph-name="G" unicode="G" horiz-adv-x="677" 
d="M436 283l19 90h266l-16 -73l-3 -17l-36 -169l-22 -17q-56 -46 -119 -70q-66 -26 -132 -26q-65 0 -122 26q-52 24 -89 70q-36 45 -48 104q-9 37 -4 91q-17 2 -25.5 12.5t-5.5 23.5q3 14 16 24t30 12q16 50 43 91q38 59 92 104q54 44 119 70q67 26 133 26t121 -26t89 -70
l-103 -85q-47 61 -133 61q-76 0 -144 -49.5t-96 -122.5q33 -9 26 -35q-5 -28 -41 -35q-3 -74 44 -123t123 -49q72 0 139 45l25 117h-146z" />
    <glyph glyph-name="H" unicode="H" horiz-adv-x="572" 
d="M578 364q15 -3 23 -13t5 -23t-15 -23t-28 -13l-62 -291h-120l60 282h-190l-60 -282h-120l62 291q-35 7 -29 36q7 29 44 36l62 291h120l-60 -282h190l60 282h120z" />
    <glyph glyph-name="I" unicode="I" horiz-adv-x="262" 
d="M268 364q15 -3 23 -13t5 -23t-15 -23t-28 -13l-62 -291h-120l62 291q-35 7 -29 36q7 29 44 36l62 291h120z" />
    <glyph glyph-name="J" unicode="J" horiz-adv-x="506" 
d="M512 364q15 -3 23 -13t5 -23t-15 -23t-28 -13l-19 -89q-18 -83 -90 -142.5t-155 -59.5q-72 0 -118.5 46.5t-45.5 116.5l123 23q-1 -29 18 -47.5t48 -18.5q34 0 63 24t37 58l19 89q-35 7 -29 36q7 29 44 36l62 291h120z" />
    <glyph glyph-name="K" unicode="K" horiz-adv-x="602" 
d="M547 655h159l-254 -234l115 -420h-134l-87 321l-108 -100l-47 -221h-120l62 291q-35 7 -29 36q7 29 44 36l62 291h120l-53 -250z" />
    <glyph glyph-name="L" unicode="L" horiz-adv-x="416" 
d="M253 292l-37 -171h190l-25 -120h-310l62 291q-35 7 -29 36q7 29 44 36l62 291h120l-62 -291q15 -3 23 -13t5 -23t-15 -23t-28 -13z" />
    <glyph glyph-name="M" unicode="M" horiz-adv-x="799" 
d="M833 328q-3 -13 -15.5 -23t-28.5 -13l-62 -291h-120l103 485l-263 -485h-96l-56 485l-103 -485h-120l62 291q-36 7 -30 36q7 29 45 36l62 291h190l48 -416l226 416h191l-62 -291q15 -3 23.5 -13t5.5 -23z" />
    <glyph glyph-name="N" unicode="N" horiz-adv-x="633" 
d="M639 364q15 -3 23 -13t5 -23t-15 -23t-28 -13l-62 -291h-189l-76 494l-105 -494h-120l62 291q-36 7 -30 36q7 29 45 36l62 291h189l76 -494l105 494h120z" />
    <glyph glyph-name="O" unicode="O" horiz-adv-x="768" 
d="M777 364q15 -2 24 -12.5t6 -23.5t-16 -23.5t-29 -12.5q-36 -112 -133 -195q-51 -44 -116 -70q-64 -26 -129 -26q-63 0 -120 26q-52 26 -86 70q-60 80 -48 195q-17 2 -25.5 12.5t-5.5 23.5q3 14 16 24t30 12q35 112 131 194q52 44 116 71q67 26 131 26t118 -26
q50 -24 86 -71q61 -81 50 -194zM409 121q72 0 138 49t94 123q-32 7 -27 35q7 27 42 35q3 73 -42 122.5t-117 49.5q-73 0 -138.5 -49.5t-92.5 -122.5q14 -4 21 -13.5t4 -21.5q-5 -28 -40 -35q-4 -74 40.5 -123t117.5 -49z" />
    <glyph glyph-name="P" unicode="P" horiz-adv-x="563" 
d="M445 655q92 0 143 -65t31 -158q-19 -92 -98 -157t-171 -65h-115l-44 -209h-120l44 209l16 73q-15 3 -23 13t-6 23q6 29 44 36l51 240l13 60h235zM376 330q42 0 78 30t45 72q9 43 -14.5 73t-65.5 30h-115l-43 -205h115z" />
    <glyph glyph-name="Q" unicode="Q" horiz-adv-x="769" 
d="M777 364q16 -2 25 -12.5t6 -23.5t-16 -23.5t-30 -12.5q-37 -114 -132 -195q-44 -36 -93 -60q46 -39 120 -37l-22 -100q-143 3 -204 104q-23 -3 -47 -3q-64 0 -119 26q-52 26 -86 70q-62 82 -48 195q-17 2 -26 12.5t-6 23.5t16.5 23.5t30.5 12.5q33 110 131 194
q52 44 116 71q66 26 130 26t119 -26q50 -24 86 -71q60 -79 49 -194zM252 293q-4 -74 40.5 -123t116.5 -49q73 0 138.5 49t93.5 123q-31 7 -26 35q7 26 41 35q3 74 -41.5 123t-117.5 49q-72 0 -137.5 -49.5t-92.5 -122.5q14 -4 21 -13.5t4 -21.5q-5 -28 -40 -35z" />
    <glyph glyph-name="R" unicode="R" horiz-adv-x="563" 
d="M619 432q-19 -92 -98 -157q-57 -46 -122 -60q0 -7 6 -25q22 -69 121 -69l-25 -120q-93 0 -150 42q-49 36 -65 95q-12 33 -12 72h-39l-44 -209h-120l44 209l16 73q-15 3 -23 13t-6 23q6 29 44 36l51 240l13 60h235q92 0 143 -65t31 -158zM376 330q42 0 78 30t45 72
q9 43 -14.5 73t-65.5 30h-115l-43 -205h115z" />
    <glyph glyph-name="S" unicode="S" horiz-adv-x="545" 
d="M503 329q33 -24 45 -58q16 -38 5 -89q-7 -37 -33 -76q-27 -37 -62 -62q-74 -53 -170 -53h-40q-85 0 -137 54q-46 51 -46 124l123 25q0 -34 22 -58.5t63 -24.5h40q53 0 87 25q29 21 33 46q6 29 -18 47q-21 16 -79 37q-14 -17 -31.5 -23t-28.5 1q-20 13 -5 45
q-47 19 -73 39q-32 26 -44 58q-16 39 -6 87q18 83 97 135q71 47 167 47h10q83 0 136 -48q47 -46 49 -121l-123 -24q0 34 -23.5 53.5t-64.5 19.5h-10q-42 0 -76.5 -15t-41.5 -47q-6 -26 17 -45q17 -12 67 -32q13 14 28 18.5t26 -2.5q17 -11 8 -38q62 -23 89 -45z" />
    <glyph glyph-name="T" unicode="T" horiz-adv-x="500" 
d="M148 535l26 120h430l-26 -120h-155l-36 -171q15 -3 23 -13t5 -23t-15 -23t-28 -13l-62 -291h-120l62 291q-34 7 -29 36q6 27 44 36l36 171h-155z" />
    <glyph glyph-name="U" unicode="U" horiz-adv-x="573" 
d="M578 364q15 -3 23.5 -13t5.5 -23t-15.5 -23t-28.5 -13l-17 -76q-19 -90 -95 -152q-75 -63 -165 -63t-139 63q-49 65 -31 152l17 76q-35 7 -29 36q7 29 44 36l62 291h120l-62 -291q15 -3 23.5 -13t5.5 -23t-15.5 -23t-28.5 -13l-17 -76q-8 -39 14 -67t61 -28q40 0 73.5 28
t41.5 67l17 76q-35 7 -29 36q7 29 44 36l62 291h120z" />
    <glyph glyph-name="V" unicode="V" horiz-adv-x="612" 
d="M590 655h126l-152 -297q17 -12 12 -30q-7 -30 -47 -37l-148 -290h-75h-75l-26 290q-17 2 -27.5 12.5t-7.5 24.5q5 21 30 31l-26 296h126l41 -486z" />
    <glyph glyph-name="W" unicode="W" horiz-adv-x="937" 
d="M917 655h124l-137 -293q27 -10 22 -34q-3 -15 -19.5 -26t-35.5 -11l-134 -290h-72h-93l-16 409l-190 -409h-73h-92l-13 290q-19 0 -30 11t-8 26q5 23 35 34l-11 293h124l20 -490l228 490h124v0l20 -490z" />
    <glyph glyph-name="X" unicode="X" horiz-adv-x="622" 
d="M487 328q-3 -18 -24 -29l124 -298h-141l-90 214l-179 -214h-142l251 298q-15 12 -12 29q5 19 27 30l-107 297h138l74 -207l163 207h138l-233 -297q17 -12 13 -30z" />
    <glyph glyph-name="Y" unicode="Y" horiz-adv-x="558" 
d="M436 354q12 -12 9 -26q-3 -13 -15.5 -23t-28.5 -13l-62 -291h-120l62 291q-35 7 -29 36q3 15 20 26l-98 301h126l71 -219l165 219h126z" />
    <glyph glyph-name="Z" unicode="Z" horiz-adv-x="500" 
d="M148 535l26 120h430l-30 -140l-190 -198q14 -29 -6 -49q-20 -21 -48 -7l-135 -140h295l-25 -120h-430l29 140l185 193q-9 12 -8 27.5t11 25.5q10 11 25.5 12t28.5 -7l137 143h-295z" />
    <glyph glyph-name="bracketleft" unicode="[" horiz-adv-x="260" 
d="M112 318l81 379h170l-19 -90h-80l-62 -289l-61 -289h80l-19 -90h-170z" />
    <glyph glyph-name="backslash" unicode="\" horiz-adv-x="327" 
d="M184 655h64l21 -713h-65z" />
    <glyph glyph-name="bracketright" unicode="]" horiz-adv-x="261" 
d="M364 697l-81 -379l-80 -379h-171l19 90h81l61 289l62 289h-81l19 90h171z" />
    <glyph glyph-name="asciicircum" unicode="^" horiz-adv-x="412" 
d="M345 655h40l30 -429h-64l-22 356l-172 -356h-64l212 429h40z" />
    <glyph glyph-name="underscore" unicode="_" horiz-adv-x="427" 
d="M34 -49l11 50h337l-11 -50h-337z" />
    <glyph glyph-name="grave" unicode="`" horiz-adv-x="277" 
d="M338 500h-94l-77 78l78 64z" />
    <glyph glyph-name="a" unicode="a" 
d="M470 442l7 33h110l-100 -474h-110l7 33q-18 -10 -28 -14q-45 -19 -93 -19q-47 0 -84 19q-36 18 -60 52q-49 68 -29 166q20 95 99 166q37 32 82 51q48 20 92 20q47 0 85 -20q16 -8 22 -13zM286 111q47 0 88.5 37t52.5 90t-14.5 90t-72.5 37t-88 -37.5t-52 -89.5t14 -89.5
t72 -37.5z" />
    <glyph glyph-name="b" unicode="b" 
d="M452 455q37 -18 61 -51q49 -69 29 -166q-20 -96 -99 -166q-41 -35 -83 -52q-45 -19 -92 -19t-84 19q-8 4 -22 14l-7 -33h-110l139 654h110l-46 -213q18 9 28 13q48 20 92 20q46 0 84 -20zM291 111q47 0 88.5 37t52.5 90t-14.5 90t-72.5 37t-88 -37t-52 -90t14 -90t72 -37
z" />
    <glyph glyph-name="c" unicode="c" horiz-adv-x="519" 
d="M300 111q71 0 121 61l82 -58q-43 -52 -103 -82q-60 -31 -123 -31q-98 0 -154 69q-53 70 -33 168t105 167q84 70 182 70q64 0 111 -32q44 -27 67 -82l-106 -57q-11 28 -36.5 44.5t-58.5 16.5q-52 0 -97.5 -37t-56.5 -90q-11 -52 18 -89.5t82 -37.5z" />
    <glyph glyph-name="d" unicode="d" 
d="M470 442l46 213h110l-139 -654h-110l7 33q-18 -10 -28 -14q-45 -19 -92 -19q-48 0 -85 19q-34 16 -60 52q-49 68 -29 166q20 95 99 166q39 33 82 51q48 20 93 20q46 0 84 -20q16 -8 22 -13zM287 111q47 0 88 37.5t52 89.5t-14 89.5t-72 37.5t-88.5 -37t-52.5 -90
t14.5 -90t72.5 -37z" />
    <glyph glyph-name="e" unicode="e" horiz-adv-x="530" 
d="M377 475q91 0 139 -62.5t28 -156.5l-12 -55h-55h-55h-224q3 -39 31.5 -64.5t70.5 -25.5q59 0 107 46l70 -71q-90 -85 -200 -85q-98 0 -153 69q-54 70 -34 168t106 167q82 70 181 70zM354 365q-38 0 -73.5 -20.5t-57.5 -53.5h214q-2 34 -24.5 54t-58.5 20z" />
    <glyph glyph-name="f" unicode="f" horiz-adv-x="395" 
d="M327 503l-6 -28h107l-19 -90h-107l-81 -384h-110l81 384h-66l19 90h66l6 28q13 63 67.5 107.5t117.5 44.5q59 0 93 -40l-91 -81q-11 11 -26 11q-17 0 -32 -12.5t-19 -29.5z" />
    <glyph glyph-name="g" unicode="g" 
d="M287 111q47 0 88 37.5t52 89.5t-14 89.5t-72 37.5t-88.5 -37t-52.5 -90t14.5 -90t72.5 -37zM470 442l7 33h110l-100 -474q-20 -95 -100 -166q-34 -31 -82 -52q-47 -19 -92 -19q-66 0 -113 38q-45 35 -59 95l109 46q8 -32 31.5 -50.5t55.5 -18.5q47 0 88 37.5t52 89.5
l7 33q-18 -10 -28 -14q-45 -19 -92 -19q-48 0 -85 19q-34 16 -60 52q-49 68 -29 166q20 95 99 166q39 33 82 51q48 20 93 20q46 0 84 -20q16 -8 22 -13z" />
    <glyph glyph-name="h" unicode="h" horiz-adv-x="512" 
d="M356 475q87 0 136 -62t31 -149l-56 -263h-110l56 263q8 42 -15 71.5t-65 29.5q-39 0 -76 -37q-40 -38 -51 -84l-51 -243h-110l139 654h110l-45 -210q3 1 8.5 3.5t8.5 4.5q47 22 90 22z" />
    <glyph glyph-name="i" unicode="i" horiz-adv-x="200" 
d="M45 1l100 474h110l-100 -474h-110zM239 655q22 0 35 -16t8 -39t-24.5 -39t-42.5 -16t-35.5 16t-7.5 39q4 22 24 38.5t43 16.5z" />
    <glyph glyph-name="j" unicode="j" horiz-adv-x="200" 
d="M32 -59l113 534h110l-113 -534q-23 -110 -125 -156q-45 -21 -89 -21l24 110h-1q21 1 42 11q30 15 39 56zM239 655q22 0 35 -16t8 -39t-24.5 -39t-42.5 -16t-35.5 16t-7.5 39q4 22 24 38.5t43 16.5z" />
    <glyph glyph-name="k" unicode="k" horiz-adv-x="537" 
d="M561 475l-172 -140l103 -334h-124l-79 254l-97 -79l-37 -175h-110l139 654h110l-69 -325l178 145h158z" />
    <glyph glyph-name="l" unicode="l" horiz-adv-x="200" 
d="M45 1l139 654h110l-139 -654h-110z" />
    <glyph glyph-name="m" unicode="m" horiz-adv-x="732" 
d="M599 475q78 0 121.5 -55.5t27.5 -132.5l-61 -286h-110l61 286q7 32 -11.5 55t-50.5 23t-59.5 -23t-34.5 -55l-61 -286h-110l61 286q7 32 -11.5 55t-50.5 23t-59.5 -23t-34.5 -55l-61 -286h-110l61 286q16 77 82.5 132.5t144.5 55.5q79 0 122 -56q66 56 144 56z" />
    <glyph glyph-name="n" unicode="n" horiz-adv-x="511" 
d="M355 475q87 0 136 -62t31 -149l-56 -263h-110l56 263q8 42 -15 71.5t-65 29.5q-41 0 -77 -30t-44 -71l-56 -263h-110l56 263q18 87 92.5 149t161.5 62z" />
    <glyph glyph-name="o" unicode="o" horiz-adv-x="553" 
d="M377 475q97 0 153 -70q54 -67 33 -167q-20 -99 -105 -168t-181 -69q-98 0 -154 69q-53 69 -33 168q21 99 105 167q84 70 182 70zM300 111q52 0 97 37t56 90t-18 90t-81 37t-97.5 -37t-56.5 -90q-11 -52 18 -89.5t82 -37.5z" />
    <glyph glyph-name="p" unicode="p" 
d="M513 404q49 -69 29 -166q-20 -96 -99 -166q-39 -34 -82 -52q-45 -19 -92 -19q-48 0 -85 19q-12 7 -22 14l-58 -270h-109l150 711h110l-7 -33q10 5 28 13q48 20 93 20q46 0 84 -20q37 -18 60 -51zM292 111q47 0 88 37.5t52 89.5t-14 89.5t-72 37.5t-88.5 -37t-52.5 -90
t14.5 -90t72.5 -37z" />
    <glyph glyph-name="q" unicode="q" 
d="M470 442l7 33h110l-151 -711h-110l58 270q-14 -8 -28 -14q-45 -19 -93 -19q-47 0 -84 19q-36 18 -60 52q-49 68 -29 166q20 95 99 166q37 32 82 51q48 20 92 20q47 0 85 -20q20 -12 22 -13zM286 111q47 0 88.5 37t52.5 90t-14.5 90t-72.5 37t-88 -37.5t-52 -89.5
t14 -89.5t72 -37.5z" />
    <glyph glyph-name="r" unicode="r" horiz-adv-x="381" 
d="M317 472q33 6 64.5 -2.5t47.5 -31.5l-94 -73l-5 7.5t-14.5 10t-23.5 1.5q-59 -15 -96 -188l-41 -195h-110l100 474h110l-7 -37q30 27 69 34z" />
    <glyph glyph-name="s" unicode="s" horiz-adv-x="469" 
d="M410 266q31 -17 43 -45q16 -33 7 -74q-17 -79 -91 -118q-52 -28 -126 -28h-17q-56 0 -98 17.5t-55 31t-17 21.5l99 69v2q0 -2 7.5 -9t31 -14.5t55.5 -7.5h17q42 0 66 12q15 8 18 24q2 13 -9 20q-19 10 -77 18q-73 10 -105 27q-31 17 -43 44q-16 30 -7 73q16 68 76 108
q59 38 141 38h5q114 0 170 -88l-99 -70q-31 48 -94 48h-5q-76 0 -84 -36q-1 -12 9 -18q18 -9 75 -17q76 -12 107 -28z" />
    <glyph glyph-name="t" unicode="t" horiz-adv-x="410" 
d="M286 111q16 0 30 11l57 -81q-51 -40 -110 -40q-63 0 -98 44.5t-22 107.5l49 232h-66l19 90h66l26 119l123 61l-39 -180h107l-19 -90h-107l-49 -232q-4 -17 6 -29.5t27 -12.5z" />
    <glyph glyph-name="u" unicode="u" horiz-adv-x="512" 
d="M402 212l55 263h110l-55 -263q-19 -87 -94 -149t-162 -62t-136 62t-30 149l55 263h110l-55 -263q-9 -42 14.5 -71.5t64.5 -29.5q42 0 78 29.5t45 71.5z" />
    <glyph glyph-name="v" unicode="v" horiz-adv-x="529" 
d="M287 111l182 364h115l-247 -474h-146l-46 474h115z" />
    <glyph glyph-name="w" unicode="w" horiz-adv-x="797" 
d="M572 111l166 364h114l-229 -474h-71h-69l-31 250l-138 -250h-68h-72l-29 474h114l12 -364l187 364h81z" />
    <glyph glyph-name="x" unicode="x" horiz-adv-x="529" 
d="M453 475h131l-204 -237l104 -237h-131l-59 136l-118 -136h-131l204 237l-104 237h131l61 -136z" />
    <glyph glyph-name="y" unicode="y" horiz-adv-x="530" 
d="M470 475h115l-227 -435l-74 -142q-29 -56 -83 -93q-61 -41 -135 -41l24 110q66 0 96 56l37 71h-31l-47 474h115l33 -339z" />
    <glyph glyph-name="z" unicode="z" horiz-adv-x="454" 
d="M122 365l23 110h364l-28 -133l-280 -231h231l-23 -110h-364l28 133l280 231h-231z" />
    <glyph glyph-name="braceleft" unicode="{" horiz-adv-x="313" 
d="M394 604q-20 1 -51.5 -7t-43.5 -29q-15 -25 -8 -82q4 -58 -2 -88q-10 -48 -45 -81q21 -34 11 -81q-6 -28 -36 -88q-30 -58 -26 -82q3 -20 30 -28.5t49 -7.5l-17 -89h-3q-32 0 -64 9q-76 21 -87 86q-7 53 37 138q21 39 27 62q2 7 1 13.5t-5 11.5t-18.5 8.5t-39.5 3.5
l18 88q33 0 50.5 6.5t21 12.5t6.5 18q5 25 0 62q-9 84 22 138q39 65 123 86q37 9 71 9z" />
    <glyph glyph-name="bar" unicode="|" horiz-adv-x="140" 
d="M23 -102l174 820h50l-174 -820h-50z" />
    <glyph glyph-name="braceright" unicode="}" horiz-adv-x="313" 
d="M282 398q-3 -7 -2 -13.5t5 -11.5t19 -8.5t40 -3.5l-18 -88q-33 0 -50.5 -6t-21.5 -12.5t-6 -18.5q-3 -13 -1 -62q11 -82 -21 -138q-37 -64 -123 -86q-35 -9 -67 -9h-4l22 89q22 -1 52 7.5t42 28.5q15 26 9 82q-7 48 1 88q10 50 45 81q-21 32 -11 81q8 38 37 88
q29 57 25 82q-3 21 -30.5 29t-47.5 7l16 89q34 0 67 -9q78 -22 87 -86q7 -55 -38 -138q-24 -53 -26 -62z" />
    <glyph glyph-name="asciitilde" unicode="~" horiz-adv-x="427" 
d="M443 288q-32 27 -79.5 22.5t-88.5 -22.5t-89 -22.5t-80 22.5q5 26 17 80q32 -27 80 -22.5t89 22.5t88.5 22.5t79.5 -22.5q-12 -54 -17 -80z" />
    <glyph glyph-name="exclamdown" unicode="&#xa1;" horiz-adv-x="210" 
d="M250 471l-85 -470h-120l115 470h90zM219 535q-25 0 -38.5 17.5t-8.5 42.5t26 42.5t46 17.5t39 -17.5t9 -42.5t-26.5 -42.5t-46.5 -17.5z" />
    <glyph glyph-name="cent" unicode="&#xa2;" horiz-adv-x="529" 
d="M337 182q61 8 104 60l82 -58q-43 -51 -102 -82q-54 -27 -107 -30l-28 -132h-60l28 135q-70 14 -110 66q-54 68 -34 167q20 98 106 168q61 51 137 65l25 114h60l-24 -111q50 -3 95 -30q47 -31 66 -82l-106 -58q-21 52 -78 60zM220 308q-9 -41 7.5 -73t51.5 -46l50 238
q-40 -14 -70 -46t-39 -73z" />
    <glyph glyph-name="sterling" unicode="&#xa3;" horiz-adv-x="598" 
d="M408 95q38 10 67 51l98 -50q-31 -45 -73 -77q-41 -28 -85 -40q-32 -8 -61 -8q-75 0 -124 40q-7 5 -15.5 8.5t-17 4.5t-18 1t-18 -1.5l-17 -3t-15.5 -4t-12 -4.5t-8 -3l-3 -1l-33 106q34 17 84 26l15 3q24 29 35 61q4 21 -5 71v3h-98l12 60h77q-4 58 9 116q18 83 89 142
t154 59t129.5 -59t28.5 -142h-120q7 33 -11.5 57t-52.5 24q-33 0 -61.5 -24t-35.5 -57q-12 -59 -2 -116h164l-12 -60h-142q4 -42 -4 -77q-9 -38 -32 -75q12 -6 24 -15q37 -29 90 -16z" />
    <glyph glyph-name="yen" unicode="&#xa5;" horiz-adv-x="578" 
d="M536 655h136l-251 -334h120l-13 -60h-124l-16 -73h124l-12 -60h-124l-27 -127h-120l27 127h-124l12 60h124l16 73h-124l13 60h119l-108 334h136l65 -201z" />
    <glyph glyph-name="dieresis" unicode="&#xa8;" horiz-adv-x="320" 
d="M252 546q-5 -20 -21 -33t-35 -13t-29 13.5t-6 32.5t19.5 32t34.5 13t30 -13t7 -32zM354 591q19 0 30 -13t7 -32t-20.5 -32.5t-35.5 -13.5q-20 0 -30 13.5t-6 32.5t20 32t35 13z" />
    <glyph glyph-name="copyright" unicode="&#xa9;" horiz-adv-x="303" 
d="M288 648q44 0 69 -31.5t15 -75.5q-9 -44 -47 -75t-82 -31q-43 0 -68 31t-16 75q10 44 47.5 75.5t81.5 31.5zM248 460q34 0 63 24t36 57q7 34 -11.5 58t-52.5 24t-62.5 -24t-36.5 -58q-7 -33 11.5 -57t52.5 -24zM277 578q-14 0 -26.5 -10.5t-15.5 -24.5t5.5 -24t22.5 -10
q15 0 26 10l11 -14q-10 -8 -20 -12q-9 -4 -22 -4q-12 0 -20 4q-9 5 -15 12q-7 8 -8 17q-2 14 0 21q3 12 10 22q5 9 14 17t21 12q8 4 22 4q11 0 20 -4q7 -4 14 -12l-17 -14q-7 10 -22 10z" />
    <glyph glyph-name="registered" unicode="&#xae;" horiz-adv-x="303" 
d="M372 541q-9 -44 -47 -75t-82 -31q-43 0 -68 31t-16 75q10 44 47.5 75.5t81.5 31.5t69 -31.5t15 -75.5zM248 460q34 0 63 24t36 57q7 34 -11.5 58t-52.5 24t-62.5 -24t-36.5 -58q-7 -33 11.5 -57t52.5 -24zM309 562q-3 -15 -17 -26q-10 -9 -21 -10q1 -2 1 -5q6 -11 21 -11
l-5 -21q-14 0 -24 7q-6 4 -12 16q-2 9 -1 13h-7l-8 -36h-20l8 36l14 65l2 10h39q16 0 25 -11q8 -11 5 -27zM267 545q18 0 22 17q2 8 -2.5 13t-11.5 5h-19l-8 -35h19z" />
    <glyph glyph-name="macron" unicode="&#xaf;" horiz-adv-x="345" 
d="M419 560l-11 -50h-255l11 50h255z" />
    <glyph glyph-name="plusminus" unicode="&#xb1;" horiz-adv-x="434" 
d="M369 488l-26 -124h123l-19 -90h-123l-26 -123h-90l26 123h-124l19 90h124l26 124h90zM48 16l17 80h344l-17 -80h-344z" />
    <glyph glyph-name="acute" unicode="&#xb4;" horiz-adv-x="277" 
d="M354 578l-109 -78h-94l153 142z" />
    <glyph glyph-name="periodcentered" unicode="&#xb7;" horiz-adv-x="200" 
d="M282 600q-5 -23 -24.5 -39t-42.5 -16q-22 0 -35 16t-8 39t24.5 39t42.5 16t35.5 -16t7.5 -39z" />
    <glyph glyph-name="cedilla" unicode="&#xb8;" horiz-adv-x="224" 
d="M140 -60q20 -25 13 -61q-11 -48 -58 -77q-7 -4 -14.5 -8t-12.5 -6.5t-10 -3.5l-4 -2l-6 58q39 12 45 39q2 9 -2 16q-5 5 -15.5 6.5t-18.5 0.5l-34 -4l34 163h60l-21 -100q32 -6 44 -21z" />
    <glyph glyph-name="questiondown" unicode="&#xbf;" horiz-adv-x="441" 
d="M357 579q-25 0 -38.5 17.5t-8.5 42.5t26 42.5t46 17.5t39 -17.5t9 -42.5t-26.5 -42.5t-46.5 -17.5zM149 68q-47 33 -50 96.5t31 121.5q25 50 92 119q68 70 76 110h90q-2 -11 -5 -21.5t-8 -21.5t-8 -18.5t-10.5 -19.5t-10.5 -17t-12.5 -17.5t-11.5 -16t-13.5 -18
t-13.5 -16.5q-60 -79 -71 -133q-6 -27 8 -44t41 -17q25 0 49.5 13t30.5 39l-1 -1l100 -2q-10 -49 -46 -88t-80.5 -57t-93 -17t-83.5 26z" />
    <glyph glyph-name="Agrave" unicode="&#xc0;" horiz-adv-x="612" 
d="M576 328q-3 -17 -25 -30l26 -297h-126l-12 139h-208l-70 -139h-126l151 295q-21 12 -16 32q3 14 18 24.5t33 12.5l149 290h75h75l25 -291q16 -2 25 -12.5t6 -23.5zM277 230h154l-22 257zM547 700h-94l-77 78l78 64z" />
    <glyph glyph-name="Aacute" unicode="&#xc1;" horiz-adv-x="612" 
d="M576 328q-3 -17 -25 -30l26 -297h-126l-12 139h-208l-70 -139h-126l151 295q-21 12 -16 32q3 14 18 24.5t33 12.5l149 290h75h75l25 -291q16 -2 25 -12.5t6 -23.5zM277 230h154l-22 257zM563 778l-109 -78h-94l153 142z" />
    <glyph glyph-name="Acircumflex" unicode="&#xc2;" horiz-adv-x="612" 
d="M576 328q-3 -17 -25 -30l26 -297h-126l-12 139h-208l-70 -139h-126l151 295q-21 12 -16 32q3 14 18 24.5t33 12.5l149 290h75h75l25 -291q16 -2 25 -12.5t6 -23.5zM277 230h154l-22 257zM544 700l-74 75l-106 -75l-28 46l132 94h32l92 -94z" />
    <glyph glyph-name="Atilde" unicode="&#xc3;" horiz-adv-x="612" 
d="M576 328q-3 -17 -25 -30l26 -297h-126l-12 139h-208l-70 -139h-126l151 295q-21 12 -16 32q3 14 18 24.5t33 12.5l149 290h75h75l25 -291q16 -2 25 -12.5t6 -23.5zM277 230h154l-22 257zM576 716q-27 23 -62 20.5t-62.5 -17t-59.5 -19t-54 15.5q2 10 6.5 30t6.5 30
q25 -20 53 -22t50.5 8t48 19t45 11t41.5 -16q-2 -10 -6.5 -30t-6.5 -30z" />
    <glyph glyph-name="Adieresis" unicode="&#xc4;" horiz-adv-x="612" 
d="M576 328q-3 -17 -25 -30l26 -297h-126l-12 139h-208l-70 -139h-126l151 295q-21 12 -16 32q3 14 18 24.5t33 12.5l149 290h75h75l25 -291q16 -2 25 -12.5t6 -23.5zM277 230h154l-22 257zM440 746q-5 -20 -21 -33t-35 -13t-29 13.5t-6 32.5t19.5 32t34.5 13t30 -13t7 -32z
M542 791q19 0 30 -13t7 -32t-20.5 -32.5t-35.5 -13.5q-20 0 -30 13.5t-6 32.5t20 32t35 13z" />
    <glyph glyph-name="Aring" unicode="&#xc5;" horiz-adv-x="612" 
d="M576 328q-3 -17 -25 -30l26 -297h-126l-12 139h-208l-70 -139h-126l151 295q-21 12 -16 32q3 14 18 24.5t33 12.5l149 290h75h75l25 -291q16 -2 25 -12.5t6 -23.5zM277 230h154l-22 257zM482 832q27 0 42 -19.5t10 -46.5q-6 -28 -29.5 -47t-50.5 -19q-28 0 -43 19t-9 47
q5 27 28.5 46.5t51.5 19.5zM461 735q13 0 24 9t14 22q2 13 -5 22t-20 9t-24 -9t-13 -22q-3 -13 4 -22t20 -9z" />
    <glyph glyph-name="AE" unicode="&#xc6;" horiz-adv-x="886" 
d="M539 433l47 222h404l-26 -120h-284l-31 -147h208l-26 -120h-208l-31 -147h284l-25 -120h-274h-126h-4l3 14l-11 125h-208l-70 -139h-126l151 295q-21 12 -16 32q3 14 18 24.5t33 12.5l149 290h75h75zM277 230h154l-22 257z" />
    <glyph glyph-name="Ccedilla" unicode="&#xc7;" horiz-adv-x="654" 
d="M506 535q-76 0 -144 -49.5t-96 -122.5q33 -9 26 -35q-5 -28 -41 -35q-3 -74 44 -123t123 -49q87 0 159 61l67 -85q-56 -46 -119 -70q-66 -26 -132 -26q-65 0 -122 26q-52 24 -89 70q-36 45 -48 104q-9 42 -4 91q-17 2 -25.5 12.5t-5.5 23.5q3 14 16 24t30 12q15 45 43 91
q38 59 92 104q54 44 119 70q67 26 133 26t121 -26t89 -70l-103 -85q-47 61 -133 61zM437 -60q20 -25 13 -61q-11 -48 -58 -77q-7 -4 -14.5 -8t-12.5 -6.5t-9 -3.5l-5 -2l-6 58q39 12 45 39q2 9 -2 16q-5 5 -15.5 6.5t-18.5 0.5l-34 -4l34 163h60l-21 -100q32 -6 44 -21z" />
    <glyph glyph-name="Egrave" unicode="&#xc8;" horiz-adv-x="510" 
d="M149 364l62 291h403l-26 -120h-283l-31 -147h208l-26 -120h-208l-31 -147h283l-25 -120h-403l56 267l6 24q-36 7 -30 36q7 29 45 36zM496 700h-94l-77 78l78 64z" />
    <glyph glyph-name="Eacute" unicode="&#xc9;" horiz-adv-x="510" 
d="M149 364l62 291h403l-26 -120h-283l-31 -147h208l-26 -120h-208l-31 -147h283l-25 -120h-403l56 267l6 24q-36 7 -30 36q7 29 45 36zM512 778l-109 -78h-94l153 142z" />
    <glyph glyph-name="Ecircumflex" unicode="&#xca;" horiz-adv-x="510" 
d="M149 364l62 291h403l-26 -120h-283l-31 -147h208l-26 -120h-208l-31 -147h283l-25 -120h-403l56 267l6 24q-36 7 -30 36q7 29 45 36zM493 700l-74 75l-106 -75l-28 46l132 94h32l92 -94z" />
    <glyph glyph-name="Edieresis" unicode="&#xcb;" horiz-adv-x="510" 
d="M149 364l62 291h403l-26 -120h-283l-31 -147h208l-26 -120h-208l-31 -147h283l-25 -120h-403l56 267l6 24q-36 7 -30 36q7 29 45 36zM389 746q-5 -20 -21 -33t-35 -13t-29 13.5t-6 32.5t19.5 32t34.5 13t30 -13t7 -32zM491 791q19 0 30 -13t7 -32t-20.5 -32.5
t-35.5 -13.5q-20 0 -30 13.5t-6 32.5t20 32t35 13z" />
    <glyph glyph-name="Igrave" unicode="&#xcc;" horiz-adv-x="262" 
d="M268 364q15 -3 23 -13t5 -23t-15 -23t-28 -13l-62 -291h-120l62 291q-35 7 -29 36q7 29 44 36l62 291h120zM373 700h-94l-77 78l78 64z" />
    <glyph glyph-name="Iacute" unicode="&#xcd;" horiz-adv-x="262" 
d="M268 364q15 -3 23 -13t5 -23t-15 -23t-28 -13l-62 -291h-120l62 291q-35 7 -29 36q7 29 44 36l62 291h120zM389 778l-109 -78h-94l153 142z" />
    <glyph glyph-name="Icircumflex" unicode="&#xce;" horiz-adv-x="262" 
d="M268 364q15 -3 23 -13t5 -23t-15 -23t-28 -13l-62 -291h-120l62 291q-35 7 -29 36q7 29 44 36l62 291h120zM369 700l-74 75l-106 -75l-28 46l132 94h32l92 -94z" />
    <glyph glyph-name="Idieresis" unicode="&#xcf;" horiz-adv-x="262" 
d="M268 364q15 -3 23 -13t5 -23t-15 -23t-28 -13l-62 -291h-120l62 291q-35 7 -29 36q7 29 44 36l62 291h120zM265 746q-5 -20 -21 -33t-35 -13t-29 13.5t-6 32.5t19.5 32t34.5 13t30 -13t7 -32zM367 791q19 0 30 -13t7 -32t-20.5 -32.5t-35.5 -13.5q-20 0 -30 13.5t-6 32.5
t20 32t35 13z" />
    <glyph glyph-name="Eth" unicode="&#xd0;" horiz-adv-x="639" 
d="M70 286l17 80h70l62 289h166q64 0 121 -26q55 -26 89 -70q36 -45 48 -104q9 -42 4 -91h2q15 -3 23.5 -13t5.5 -23q-3 -14 -16 -25t-28 -11h-2q-14 -44 -43 -91q-38 -59 -92 -104q-56 -46 -119 -70q-67 -26 -132 -26h-166l60 285h-70zM271 121q76 0 144 49t96 123
q-31 7 -26 35q7 26 41 35q3 73 -44 122.5t-123 49.5h-46l-36 -169h104l-17 -80h-104l-35 -165h46z" />
    <glyph glyph-name="Ntilde" unicode="&#xd1;" horiz-adv-x="633" 
d="M639 364q15 -3 23 -13t5 -23t-15 -23t-28 -13l-62 -291h-189l-76 494l-105 -494h-120l62 291q-36 7 -30 36q7 29 45 36l62 291h189l76 -494l105 494h120zM586 716q-27 23 -62 20.5t-62.5 -17t-59.5 -19t-54 15.5q2 10 6.5 30t6.5 30q25 -20 53 -22t50.5 8t48 19t45 11
t41.5 -16q-2 -10 -6.5 -30t-6.5 -30z" />
    <glyph glyph-name="Ograve" unicode="&#xd2;" horiz-adv-x="768" 
d="M777 364q15 -2 24 -12.5t6 -23.5t-16 -23.5t-29 -12.5q-36 -112 -133 -195q-51 -44 -116 -70q-64 -26 -129 -26q-63 0 -120 26q-52 26 -86 70q-60 80 -48 195q-17 2 -25.5 12.5t-5.5 23.5q3 14 16 24t30 12q35 112 131 194q52 44 116 71q67 26 131 26t118 -26
q50 -24 86 -71q61 -81 50 -194zM409 121q72 0 138 49t94 123q-32 7 -27 35q7 27 42 35q3 73 -42 122.5t-117 49.5q-73 0 -138.5 -49.5t-92.5 -122.5q14 -4 21 -13.5t4 -21.5q-5 -28 -40 -35q-4 -74 40.5 -123t117.5 -49zM625 700h-94l-77 78l78 64z" />
    <glyph glyph-name="Oacute" unicode="&#xd3;" horiz-adv-x="768" 
d="M777 364q15 -2 24 -12.5t6 -23.5t-16 -23.5t-29 -12.5q-36 -112 -133 -195q-51 -44 -116 -70q-64 -26 -129 -26q-63 0 -120 26q-52 26 -86 70q-60 80 -48 195q-17 2 -25.5 12.5t-5.5 23.5q3 14 16 24t30 12q35 112 131 194q52 44 116 71q67 26 131 26t118 -26
q50 -24 86 -71q61 -81 50 -194zM409 121q72 0 138 49t94 123q-32 7 -27 35q7 27 42 35q3 73 -42 122.5t-117 49.5q-73 0 -138.5 -49.5t-92.5 -122.5q14 -4 21 -13.5t4 -21.5q-5 -28 -40 -35q-4 -74 40.5 -123t117.5 -49zM641 778l-109 -78h-94l153 142z" />
    <glyph glyph-name="Ocircumflex" unicode="&#xd4;" horiz-adv-x="768" 
d="M777 364q15 -2 24 -12.5t6 -23.5t-16 -23.5t-29 -12.5q-36 -112 -133 -195q-51 -44 -116 -70q-64 -26 -129 -26q-63 0 -120 26q-52 26 -86 70q-60 80 -48 195q-17 2 -25.5 12.5t-5.5 23.5q3 14 16 24t30 12q35 112 131 194q52 44 116 71q67 26 131 26t118 -26
q50 -24 86 -71q61 -81 50 -194zM409 121q72 0 138 49t94 123q-32 7 -27 35q7 27 42 35q3 73 -42 122.5t-117 49.5q-73 0 -138.5 -49.5t-92.5 -122.5q14 -4 21 -13.5t4 -21.5q-5 -28 -40 -35q-4 -74 40.5 -123t117.5 -49zM622 700l-74 75l-106 -75l-28 46l132 94h32l92 -94z
" />
    <glyph glyph-name="Otilde" unicode="&#xd5;" horiz-adv-x="768" 
d="M777 364q15 -2 24 -12.5t6 -23.5t-16 -23.5t-29 -12.5q-36 -112 -133 -195q-51 -44 -116 -70q-64 -26 -129 -26q-63 0 -120 26q-52 26 -86 70q-60 80 -48 195q-17 2 -25.5 12.5t-5.5 23.5q3 14 16 24t30 12q35 112 131 194q52 44 116 71q67 26 131 26t118 -26
q50 -24 86 -71q61 -81 50 -194zM409 121q72 0 138 49t94 123q-32 7 -27 35q7 27 42 35q3 73 -42 122.5t-117 49.5q-73 0 -138.5 -49.5t-92.5 -122.5q14 -4 21 -13.5t4 -21.5q-5 -28 -40 -35q-4 -74 40.5 -123t117.5 -49zM654 716q-27 23 -62 20.5t-62.5 -17t-59.5 -19
t-54 15.5q2 10 6.5 30t6.5 30q25 -20 53 -22t50.5 8t48 19t45 11t41.5 -16q-2 -10 -6.5 -30t-6.5 -30z" />
    <glyph glyph-name="Odieresis" unicode="&#xd6;" horiz-adv-x="768" 
d="M777 364q15 -2 24 -12.5t6 -23.5t-16 -23.5t-29 -12.5q-36 -112 -133 -195q-51 -44 -116 -70q-64 -26 -129 -26q-63 0 -120 26q-52 26 -86 70q-60 80 -48 195q-17 2 -25.5 12.5t-5.5 23.5q3 14 16 24t30 12q35 112 131 194q52 44 116 71q67 26 131 26t118 -26
q50 -24 86 -71q61 -81 50 -194zM409 121q72 0 138 49t94 123q-32 7 -27 35q7 27 42 35q3 73 -42 122.5t-117 49.5q-73 0 -138.5 -49.5t-92.5 -122.5q14 -4 21 -13.5t4 -21.5q-5 -28 -40 -35q-4 -74 40.5 -123t117.5 -49zM518 746q-5 -20 -21 -33t-35 -13t-29 13.5t-6 32.5
t19.5 32t34.5 13t30 -13t7 -32zM620 791q19 0 30 -13t7 -32t-20.5 -32.5t-35.5 -13.5q-20 0 -30 13.5t-6 32.5t20 32t35 13z" />
    <glyph glyph-name="Oslash" unicode="&#xd8;" horiz-adv-x="769" 
d="M777 364q16 -2 25 -12.5t6 -23.5t-16 -23.5t-30 -12.5q-35 -112 -132 -195q-51 -44 -116 -70q-64 -26 -129 -26q-63 0 -120 26q-21 10 -42 26l-76 -77l-40 37l77 78q-1 1 -2.5 3t-2.5 3q-60 80 -48 195q-17 2 -26 12.5t-6 23.5t16.5 23.5t30.5 12.5q35 112 131 194
q52 44 116 71q67 26 131 26t118 -26q27 -14 42 -27l76 78l40 -37l-77 -79q4 -4 5 -6q61 -81 49 -194zM252 293q-4 -60 26 -105l313 319q-41 28 -93 28q-73 0 -138.5 -49.5t-92.5 -122.5q14 -4 21 -13.5t4 -21.5q-5 -28 -40 -35zM410 121q72 0 137.5 49t93.5 123
q-31 7 -26 35q7 26 41 35q3 59 -27 105l-313 -319q39 -28 94 -28z" />
    <glyph glyph-name="Ugrave" unicode="&#xd9;" horiz-adv-x="573" 
d="M578 364q15 -3 23.5 -13t5.5 -23t-15.5 -23t-28.5 -13l-17 -76q-19 -90 -95 -152q-75 -63 -165 -63t-139 63q-49 65 -31 152l17 76q-35 7 -29 36q7 29 44 36l62 291h120l-62 -291q15 -3 23.5 -13t5.5 -23t-15.5 -23t-28.5 -13l-17 -76q-8 -39 14 -67t61 -28q40 0 73.5 28
t41.5 67l17 76q-35 7 -29 36q7 29 44 36l62 291h120zM528 700h-94l-77 78l78 64z" />
    <glyph glyph-name="Uacute" unicode="&#xda;" horiz-adv-x="573" 
d="M578 364q15 -3 23.5 -13t5.5 -23t-15.5 -23t-28.5 -13l-17 -76q-19 -90 -95 -152q-75 -63 -165 -63t-139 63q-49 65 -31 152l17 76q-35 7 -29 36q7 29 44 36l62 291h120l-62 -291q15 -3 23.5 -13t5.5 -23t-15.5 -23t-28.5 -13l-17 -76q-8 -39 14 -67t61 -28q40 0 73.5 28
t41.5 67l17 76q-35 7 -29 36q7 29 44 36l62 291h120zM544 778l-109 -78h-94l153 142z" />
    <glyph glyph-name="Ucircumflex" unicode="&#xdb;" horiz-adv-x="573" 
d="M578 364q15 -3 23.5 -13t5.5 -23t-15.5 -23t-28.5 -13l-17 -76q-19 -90 -95 -152q-75 -63 -165 -63t-139 63q-49 65 -31 152l17 76q-35 7 -29 36q7 29 44 36l62 291h120l-62 -291q15 -3 23.5 -13t5.5 -23t-15.5 -23t-28.5 -13l-17 -76q-8 -39 14 -67t61 -28q40 0 73.5 28
t41.5 67l17 76q-35 7 -29 36q7 29 44 36l62 291h120zM524 700l-74 75l-106 -75l-28 46l132 94h32l92 -94z" />
    <glyph glyph-name="Udieresis" unicode="&#xdc;" horiz-adv-x="573" 
d="M578 364q15 -3 23.5 -13t5.5 -23t-15.5 -23t-28.5 -13l-17 -76q-19 -90 -95 -152q-75 -63 -165 -63t-139 63q-49 65 -31 152l17 76q-35 7 -29 36q7 29 44 36l62 291h120l-62 -291q15 -3 23.5 -13t5.5 -23t-15.5 -23t-28.5 -13l-17 -76q-8 -39 14 -67t61 -28q40 0 73.5 28
t41.5 67l17 76q-35 7 -29 36q7 29 44 36l62 291h120zM420 746q-5 -20 -21 -33t-35 -13t-29 13.5t-6 32.5t19.5 32t34.5 13t30 -13t7 -32zM522 791q19 0 30 -13t7 -32t-20.5 -32.5t-35.5 -13.5q-20 0 -30 13.5t-6 32.5t20 32t35 13z" />
    <glyph glyph-name="Yacute" unicode="&#xdd;" horiz-adv-x="558" 
d="M436 354q12 -12 9 -26q-3 -13 -15.5 -23t-28.5 -13l-62 -291h-120l62 291q-35 7 -29 36q3 15 20 26l-98 301h126l71 -219l165 219h126zM536 778l-109 -78h-94l153 142z" />
    <glyph glyph-name="Thorn" unicode="&#xde;" 
d="M453 455q36 -18 60 -51q49 -69 29 -166q-20 -96 -99 -166q-40 -34 -82 -52q-45 -19 -93 -19q-47 0 -84 19q-8 4 -22 14l-58 -270h-109l189 891h110l-46 -213q18 9 28 13q48 20 92 20q47 0 85 -20zM291 111q47 0 88.5 37t52.5 90t-14.5 90t-72.5 37t-88 -37.5t-52 -89.5
t14 -89.5t72 -37.5z" />
    <glyph glyph-name="germandbls" unicode="&#xdf;" horiz-adv-x="540" 
d="M435 288q45 -25 63 -50q37 -48 22 -117q-17 -81 -81 -131q-61 -49 -141 -49h-79l25 120h79q65 0 77 60q4 20 -4 31.5t-38 28.5t-40 28q-30 31 -22 73q7 31 24 58t31 40.5t36 30.5q23 19 32.5 30t15.5 29q11 28 -2 47q-11 18 -39 18q-15 0 -25 -1t-31 -9t-36 -22.5
t-31 -44.5t-25 -73l-81 -384h-120l81 384q27 127 105 198.5t189 71.5q37 0 71 -16q32 -15 50 -44q39 -59 10 -142q-11 -31 -30.5 -58t-32.5 -39t-35 -30q-27 -24 -31 -30q2 -1 6.5 -3.5t6.5 -4.5z" />
    <glyph glyph-name="agrave" unicode="&#xe0;" 
d="M470 442l7 33h110l-100 -474h-110l7 33q-18 -10 -28 -14q-45 -19 -93 -19q-47 0 -84 19q-36 18 -60 52q-49 68 -29 166q20 95 99 166q37 32 82 51q48 20 92 20q47 0 85 -20q16 -8 22 -13zM286 111q47 0 88.5 37t52.5 90t-14.5 90t-72.5 37t-88 -37.5t-52 -89.5t14 -89.5
t72 -37.5zM465 500h-94l-77 78l78 64z" />
    <glyph glyph-name="aacute" unicode="&#xe1;" 
d="M470 442l7 33h110l-100 -474h-110l7 33q-18 -10 -28 -14q-45 -19 -93 -19q-47 0 -84 19q-36 18 -60 52q-49 68 -29 166q20 95 99 166q37 32 82 51q48 20 92 20q47 0 85 -20q16 -8 22 -13zM286 111q47 0 88.5 37t52.5 90t-14.5 90t-72.5 37t-88 -37.5t-52 -89.5t14 -89.5
t72 -37.5zM481 578l-109 -78h-94l153 142z" />
    <glyph glyph-name="acircumflex" unicode="&#xe2;" 
d="M470 442l7 33h110l-100 -474h-110l7 33q-18 -10 -28 -14q-45 -19 -93 -19q-47 0 -84 19q-36 18 -60 52q-49 68 -29 166q20 95 99 166q37 32 82 51q48 20 92 20q47 0 85 -20q16 -8 22 -13zM286 111q47 0 88.5 37t52.5 90t-14.5 90t-72.5 37t-88 -37.5t-52 -89.5t14 -89.5
t72 -37.5zM462 500l-74 75l-106 -75l-28 46l132 94h32l92 -94z" />
    <glyph glyph-name="atilde" unicode="&#xe3;" 
d="M470 442l7 33h110l-100 -474h-110l7 33q-18 -10 -28 -14q-45 -19 -93 -19q-47 0 -84 19q-36 18 -60 52q-49 68 -29 166q20 95 99 166q37 32 82 51q48 20 92 20q47 0 85 -20q16 -8 22 -13zM286 111q47 0 88.5 37t52.5 90t-14.5 90t-72.5 37t-88 -37.5t-52 -89.5t14 -89.5
t72 -37.5zM494 516q-27 23 -62 20.5t-62.5 -17t-59.5 -19t-54 15.5q2 10 6.5 30t6.5 30q25 -20 53 -22t50.5 8t48 19t45 11t41.5 -16q-2 -10 -6.5 -30t-6.5 -30z" />
    <glyph glyph-name="adieresis" unicode="&#xe4;" 
d="M470 442l7 33h110l-100 -474h-110l7 33q-18 -10 -28 -14q-45 -19 -93 -19q-47 0 -84 19q-36 18 -60 52q-49 68 -29 166q20 95 99 166q37 32 82 51q48 20 92 20q47 0 85 -20q16 -8 22 -13zM286 111q47 0 88.5 37t52.5 90t-14.5 90t-72.5 37t-88 -37.5t-52 -89.5t14 -89.5
t72 -37.5zM358 546q-5 -20 -21 -33t-35 -13t-29 13.5t-6 32.5t19.5 32t34.5 13t30 -13t7 -32zM460 591q19 0 30 -13t7 -32t-20.5 -32.5t-35.5 -13.5q-20 0 -30 13.5t-6 32.5t20 32t35 13z" />
    <glyph glyph-name="aring" unicode="&#xe5;" 
d="M470 442l7 33h110l-100 -474h-110l7 33q-18 -10 -28 -14q-45 -19 -93 -19q-47 0 -84 19q-36 18 -60 52q-49 68 -29 166q20 95 99 166q37 32 82 51q48 20 92 20q47 0 85 -20q16 -8 22 -13zM286 111q47 0 88.5 37t52.5 90t-14.5 90t-72.5 37t-88 -37.5t-52 -89.5t14 -89.5
t72 -37.5zM400 632q27 0 42 -19.5t10 -46.5q-6 -28 -29.5 -47t-50.5 -19q-28 0 -43 19t-9 47q5 27 28.5 46.5t51.5 19.5zM379 535q13 0 24 9t14 22q2 13 -5 22t-20 9t-24 -9t-13 -22q-3 -13 4 -22t20 -9z" />
    <glyph glyph-name="ae" unicode="&#xe6;" horiz-adv-x="872" 
d="M873 208l-56 -1l-281 -5q5 -39 33.5 -63.5t69.5 -24.5h2q61 2 106 48l71 -69q-86 -86 -199 -89h-4q-68 0 -115 35l-8 -37l-110 -2l7 33l-28 -14q-47 -21 -93 -21h-4q-94 0 -143 69q-51 68 -31 164q19 97 96 167q39 34 81 53q48 20 93 20q63 2 107 -30l6 33l111 2l-7 -37
q66 37 134 39q95 2 143 -62q46 -61 29 -153zM375 145q40 36 53 92q10 51 -16 87.5t-72 36.5h-2q-46 0 -86 -37q-43 -38 -52 -91q-10 -52 15 -88.5t72 -36.5h2q44 0 86 37zM690 368q-53 -2 -98 -39q-20 -18 -32 -37l214 4q-1 25 -15 43q-23 31 -69 29z" />
    <glyph glyph-name="ccedilla" unicode="&#xe7;" horiz-adv-x="519" 
d="M300 111q71 0 121 61l82 -58q-43 -52 -103 -82q-60 -31 -123 -31q-98 0 -154 69q-53 70 -33 168t105 167q84 70 182 70q64 0 111 -32q44 -27 67 -82l-106 -57q-11 28 -36.5 44.5t-58.5 16.5q-52 0 -97.5 -37t-56.5 -90q-11 -52 18 -89.5t82 -37.5zM345 -60q20 -25 13 -61
q-11 -48 -58 -77q-7 -4 -14.5 -8t-12.5 -6.5t-9 -3.5l-5 -2l-6 58q39 12 45 39q2 9 -2 16q-5 5 -15.5 6.5t-18.5 0.5l-34 -4l34 163h60l-21 -100q32 -6 44 -21z" />
    <glyph glyph-name="egrave" unicode="&#xe8;" horiz-adv-x="530" 
d="M377 475q91 0 139 -62.5t28 -156.5l-12 -55h-55h-55h-224q3 -39 31.5 -64.5t70.5 -25.5q59 0 107 46l70 -71q-90 -85 -200 -85q-98 0 -153 69q-54 70 -34 168t106 167q82 70 181 70zM354 365q-38 0 -73.5 -20.5t-57.5 -53.5h214q-2 34 -24.5 54t-58.5 20zM464 500h-94
l-77 78l78 64z" />
    <glyph glyph-name="eacute" unicode="&#xe9;" horiz-adv-x="530" 
d="M377 475q91 0 139 -62.5t28 -156.5l-12 -55h-55h-55h-224q3 -39 31.5 -64.5t70.5 -25.5q59 0 107 46l70 -71q-90 -85 -200 -85q-98 0 -153 69q-54 70 -34 168t106 167q82 70 181 70zM354 365q-38 0 -73.5 -20.5t-57.5 -53.5h214q-2 34 -24.5 54t-58.5 20zM480 578
l-109 -78h-94l153 142z" />
    <glyph glyph-name="ecircumflex" unicode="&#xea;" horiz-adv-x="530" 
d="M377 475q91 0 139 -62.5t28 -156.5l-12 -55h-55h-55h-224q3 -39 31.5 -64.5t70.5 -25.5q59 0 107 46l70 -71q-90 -85 -200 -85q-98 0 -153 69q-54 70 -34 168t106 167q82 70 181 70zM354 365q-38 0 -73.5 -20.5t-57.5 -53.5h214q-2 34 -24.5 54t-58.5 20zM461 500l-74 75
l-106 -75l-28 46l132 94h32l92 -94z" />
    <glyph glyph-name="edieresis" unicode="&#xeb;" horiz-adv-x="530" 
d="M377 475q91 0 139 -62.5t28 -156.5l-12 -55h-55h-55h-224q3 -39 31.5 -64.5t70.5 -25.5q59 0 107 46l70 -71q-90 -85 -200 -85q-98 0 -153 69q-54 70 -34 168t106 167q82 70 181 70zM354 365q-38 0 -73.5 -20.5t-57.5 -53.5h214q-2 34 -24.5 54t-58.5 20zM357 546
q-5 -20 -21 -33t-35 -13t-29 13.5t-6 32.5t19.5 32t34.5 13t30 -13t7 -32zM459 591q19 0 30 -13t7 -32t-20.5 -32.5t-35.5 -13.5q-20 0 -30 13.5t-6 32.5t20 32t35 13z" />
    <glyph glyph-name="igrave" unicode="&#xec;" horiz-adv-x="200" 
d="M45 1l100 474h110l-100 -474h-110zM300 500h-94l-77 78l78 64z" />
    <glyph glyph-name="iacute" unicode="&#xed;" horiz-adv-x="200" 
d="M45 1l100 474h110l-100 -474h-110zM316 578l-109 -78h-94l153 142z" />
    <glyph glyph-name="icircumflex" unicode="&#xee;" horiz-adv-x="200" 
d="M45 1l100 474h110l-100 -474h-110zM296 500l-74 75l-106 -75l-28 46l132 94h32l92 -94z" />
    <glyph glyph-name="idieresis" unicode="&#xef;" horiz-adv-x="200" 
d="M45 1l100 474h110l-100 -474h-110zM192 546q-5 -20 -21 -33t-35 -13t-29 13.5t-6 32.5t19.5 32t34.5 13t30 -13t7 -32zM294 591q19 0 30 -13t7 -32t-20.5 -32.5t-35.5 -13.5q-20 0 -30 13.5t-6 32.5t20 32t35 13z" />
    <glyph glyph-name="ntilde" unicode="&#xf1;" horiz-adv-x="511" 
d="M355 475q87 0 136 -62t31 -149l-56 -263h-110l56 263q8 42 -15 71.5t-65 29.5q-41 0 -77 -30t-44 -71l-56 -263h-110l56 263q18 87 92.5 149t161.5 62zM483 516q-27 23 -62 20.5t-62.5 -17t-59.5 -19t-54 15.5q2 10 6.5 30t6.5 30q25 -20 53 -22t50.5 8t48 19t45 11
t41.5 -16q-2 -10 -6.5 -30t-6.5 -30z" />
    <glyph glyph-name="ograve" unicode="&#xf2;" horiz-adv-x="553" 
d="M377 475q97 0 153 -70q54 -67 33 -167q-20 -99 -105 -168t-181 -69q-98 0 -154 69q-53 69 -33 168q21 99 105 167q84 70 182 70zM300 111q52 0 97 37t56 90t-18 90t-81 37t-97.5 -37t-56.5 -90q-11 -52 18 -89.5t82 -37.5zM476 500h-94l-77 78l78 64z" />
    <glyph glyph-name="oacute" unicode="&#xf3;" horiz-adv-x="553" 
d="M377 475q97 0 153 -70q54 -67 33 -167q-20 -99 -105 -168t-181 -69q-98 0 -154 69q-53 69 -33 168q21 99 105 167q84 70 182 70zM300 111q52 0 97 37t56 90t-18 90t-81 37t-97.5 -37t-56.5 -90q-11 -52 18 -89.5t82 -37.5zM492 578l-109 -78h-94l153 142z" />
    <glyph glyph-name="ocircumflex" unicode="&#xf4;" horiz-adv-x="553" 
d="M377 475q97 0 153 -70q54 -67 33 -167q-20 -99 -105 -168t-181 -69q-98 0 -154 69q-53 69 -33 168q21 99 105 167q84 70 182 70zM300 111q52 0 97 37t56 90t-18 90t-81 37t-97.5 -37t-56.5 -90q-11 -52 18 -89.5t82 -37.5zM472 500l-74 75l-106 -75l-28 46l132 94h32
l92 -94z" />
    <glyph glyph-name="otilde" unicode="&#xf5;" horiz-adv-x="553" 
d="M377 475q97 0 153 -70q54 -67 33 -167q-20 -99 -105 -168t-181 -69q-98 0 -154 69q-53 69 -33 168q21 99 105 167q84 70 182 70zM300 111q52 0 97 37t56 90t-18 90t-81 37t-97.5 -37t-56.5 -90q-11 -52 18 -89.5t82 -37.5zM504 516q-27 23 -62 20.5t-62.5 -17t-59.5 -19
t-54 15.5q2 10 6.5 30t6.5 30q25 -20 53 -22t50.5 8t48 19t45 11t41.5 -16q-2 -10 -6.5 -30t-6.5 -30z" />
    <glyph glyph-name="odieresis" unicode="&#xf6;" horiz-adv-x="553" 
d="M377 475q97 0 153 -70q54 -67 33 -167q-20 -99 -105 -168t-181 -69q-98 0 -154 69q-53 69 -33 168q21 99 105 167q84 70 182 70zM300 111q52 0 97 37t56 90t-18 90t-81 37t-97.5 -37t-56.5 -90q-11 -52 18 -89.5t82 -37.5zM368 546q-5 -20 -21 -33t-35 -13t-29 13.5
t-6 32.5t19.5 32t34.5 13t30 -13t7 -32zM470 591q19 0 30 -13t7 -32t-20.5 -32.5t-35.5 -13.5q-20 0 -30 13.5t-6 32.5t20 32t35 13z" />
    <glyph glyph-name="oslash" unicode="&#xf8;" horiz-adv-x="553" 
d="M529 406q1 0 1 -1q54 -67 33 -167q-20 -99 -105 -168t-181 -69q-66 0 -113 32l-62 -63l-40 36l62 64h-1q-53 69 -33 168q21 99 105 167q84 70 182 70q62 0 113 -32l61 63l40 -37zM200 238q-9 -46 11 -80l192 196q-24 11 -49 11q-52 0 -97.5 -37t-56.5 -90zM300 111
q52 0 97 37.5t56 89.5q9 46 -11 79l-192 -195q24 -11 50 -11z" />
    <glyph glyph-name="ugrave" unicode="&#xf9;" horiz-adv-x="512" 
d="M402 212l55 263h110l-55 -263q-19 -87 -94 -149t-162 -62t-136 62t-30 149l55 263h110l-55 -263q-9 -42 14.5 -71.5t64.5 -29.5q42 0 78 29.5t45 71.5zM455 500h-94l-77 78l78 64z" />
    <glyph glyph-name="uacute" unicode="&#xfa;" horiz-adv-x="512" 
d="M402 212l55 263h110l-55 -263q-19 -87 -94 -149t-162 -62t-136 62t-30 149l55 263h110l-55 -263q-9 -42 14.5 -71.5t64.5 -29.5q42 0 78 29.5t45 71.5zM471 578l-109 -78h-94l153 142z" />
    <glyph glyph-name="ucircumflex" unicode="&#xfb;" horiz-adv-x="512" 
d="M402 212l55 263h110l-55 -263q-19 -87 -94 -149t-162 -62t-136 62t-30 149l55 263h110l-55 -263q-9 -42 14.5 -71.5t64.5 -29.5q42 0 78 29.5t45 71.5zM452 500l-74 75l-106 -75l-28 46l132 94h32l92 -94z" />
    <glyph glyph-name="udieresis" unicode="&#xfc;" horiz-adv-x="512" 
d="M402 212l55 263h110l-55 -263q-19 -87 -94 -149t-162 -62t-136 62t-30 149l55 263h110l-55 -263q-9 -42 14.5 -71.5t64.5 -29.5q42 0 78 29.5t45 71.5zM348 546q-5 -20 -21 -33t-35 -13t-29 13.5t-6 32.5t19.5 32t34.5 13t30 -13t7 -32zM450 591q19 0 30 -13t7 -32
t-20.5 -32.5t-35.5 -13.5q-20 0 -30 13.5t-6 32.5t20 32t35 13z" />
    <glyph glyph-name="yacute" unicode="&#xfd;" horiz-adv-x="530" 
d="M470 475h115l-227 -435l-74 -142q-29 -56 -83 -93q-61 -41 -135 -41l24 110q66 0 96 56l37 71h-31l-47 474h115l33 -339zM480 578l-109 -78h-94l153 142z" />
    <glyph glyph-name="thorn" unicode="&#xfe;" horiz-adv-x="550" 
d="M413 537q85 0 132.5 -60t29.5 -146q-18 -85 -91 -145.5t-159 -60.5h-97l-26 -124h-120l26 124l34 158q-15 3 -23.5 13t-6.5 23q3 13 15.5 23t29.5 13l39 182l26 124h120l-26 -124h97zM351 245q36 0 66 25.5t38 60.5q8 36 -12 61t-56 25h-97l-36 -172h97z" />
    <glyph glyph-name="ydieresis" unicode="&#xff;" horiz-adv-x="530" 
d="M470 475h115l-227 -435l-74 -142q-29 -56 -83 -93q-61 -41 -135 -41l24 110q66 0 96 56l37 71h-31l-47 474h115l33 -339zM357 546q-5 -20 -21 -33t-35 -13t-29 13.5t-6 32.5t19.5 32t34.5 13t30 -13t7 -32zM459 591q19 0 30 -13t7 -32t-20.5 -32.5t-35.5 -13.5
q-20 0 -30 13.5t-6 32.5t20 32t35 13z" />
    <glyph glyph-name="Amacron" unicode="&#x100;" horiz-adv-x="612" 
d="M576 328q-3 -17 -25 -30l26 -297h-126l-12 139h-208l-70 -139h-126l151 295q-21 12 -16 32q3 14 18 24.5t33 12.5l149 290h75h75l25 -291q16 -2 25 -12.5t6 -23.5zM277 230h154l-22 257zM594 760l-11 -50h-255l11 50h255z" />
    <glyph glyph-name="amacron" unicode="&#x101;" 
d="M470 442l7 33h110l-100 -474h-110l7 33q-18 -10 -28 -14q-45 -19 -93 -19q-47 0 -84 19q-36 18 -60 52q-49 68 -29 166q20 95 99 166q37 32 82 51q48 20 92 20q47 0 85 -20q16 -8 22 -13zM286 111q47 0 88.5 37t52.5 90t-14.5 90t-72.5 37t-88 -37.5t-52 -89.5t14 -89.5
t72 -37.5zM513 560l-11 -50h-255l11 50h255z" />
    <glyph glyph-name="Abreve" unicode="&#x102;" horiz-adv-x="612" 
d="M576 328q-3 -17 -25 -30l26 -297h-126l-12 139h-208l-70 -139h-126l151 295q-21 12 -16 32q3 14 18 24.5t33 12.5l149 290h75h75l25 -291q16 -2 25 -12.5t6 -23.5zM277 230h154l-22 257zM526 778v-1l47 -9q0 -13 -27 -36q-36 -32 -92 -32q-59 0 -78 32q-13 16 -13 36
l51 9v1q0 -4 2 -9t14.5 -12t33.5 -7q22 0 37 6.5t20 12.5t5 9z" />
    <glyph glyph-name="abreve" unicode="&#x103;" 
d="M470 442l7 33h110l-100 -474h-110l7 33q-18 -10 -28 -14q-45 -19 -93 -19q-47 0 -84 19q-36 18 -60 52q-49 68 -29 166q20 95 99 166q37 32 82 51q48 20 92 20q47 0 85 -20q16 -8 22 -13zM286 111q47 0 88.5 37t52.5 90t-14.5 90t-72.5 37t-88 -37.5t-52 -89.5t14 -89.5
t72 -37.5zM444 578v-1l47 -9q0 -13 -27 -36q-36 -32 -92 -32q-59 0 -78 32q-13 16 -13 36l51 9v1q0 -4 2 -9t14.5 -12t33.5 -7q22 0 37 6.5t20 12.5t5 9z" />
    <glyph glyph-name="Cacute" unicode="&#x106;" horiz-adv-x="654" 
d="M506 535q-76 0 -144 -49.5t-96 -122.5q33 -9 26 -35q-5 -28 -41 -35q-3 -74 44 -123t123 -49q87 0 159 61l67 -85q-56 -46 -119 -70q-66 -26 -132 -26q-65 0 -122 26q-52 24 -89 70q-36 45 -48 104q-9 42 -4 91q-17 2 -25.5 12.5t-5.5 23.5q3 14 16 24t30 12q15 45 43 91
q38 59 92 104q54 44 119 70q67 26 133 26t121 -26t89 -70l-103 -85q-47 61 -133 61zM584 778l-109 -78h-94l153 142z" />
    <glyph glyph-name="cacute" unicode="&#x107;" horiz-adv-x="519" 
d="M300 111q71 0 121 61l82 -58q-43 -52 -103 -82q-60 -31 -123 -31q-98 0 -154 69q-53 70 -33 168t105 167q84 70 182 70q64 0 111 -32q44 -27 67 -82l-106 -57q-11 28 -36.5 44.5t-58.5 16.5q-52 0 -97.5 -37t-56.5 -90q-11 -52 18 -89.5t82 -37.5zM475 578l-109 -78h-94
l153 142z" />
    <glyph glyph-name="Ccircumflex" unicode="&#x108;" horiz-adv-x="654" 
d="M506 535q-76 0 -144 -49.5t-96 -122.5q33 -9 26 -35q-5 -28 -41 -35q-3 -74 44 -123t123 -49q87 0 159 61l67 -85q-56 -46 -119 -70q-66 -26 -132 -26q-65 0 -122 26q-52 24 -89 70q-36 45 -48 104q-9 42 -4 91q-17 2 -25.5 12.5t-5.5 23.5q3 14 16 24t30 12q15 45 43 91
q38 59 92 104q54 44 119 70q67 26 133 26t121 -26t89 -70l-103 -85q-47 61 -133 61zM565 700l-74 75l-106 -75l-28 46l132 94h32l92 -94z" />
    <glyph glyph-name="ccircumflex" unicode="&#x109;" horiz-adv-x="519" 
d="M300 111q71 0 121 61l82 -58q-43 -52 -103 -82q-60 -31 -123 -31q-98 0 -154 69q-53 70 -33 168t105 167q84 70 182 70q64 0 111 -32q44 -27 67 -82l-106 -57q-11 28 -36.5 44.5t-58.5 16.5q-52 0 -97.5 -37t-56.5 -90q-11 -52 18 -89.5t82 -37.5zM455 500l-74 75
l-106 -75l-28 46l132 94h32l92 -94z" />
    <glyph glyph-name="Cdotaccent" unicode="&#x10a;" horiz-adv-x="654" 
d="M506 535q-76 0 -144 -49.5t-96 -122.5q33 -9 26 -35q-5 -28 -41 -35q-3 -74 44 -123t123 -49q87 0 159 61l67 -85q-56 -46 -119 -70q-66 -26 -132 -26q-65 0 -122 26q-52 24 -89 70q-36 45 -48 104q-9 42 -4 91q-17 2 -25.5 12.5t-5.5 23.5q3 14 16 24t30 12q15 45 43 91
q38 59 92 104q54 44 119 70q67 26 133 26t121 -26t89 -70l-103 -85q-47 61 -133 61zM541 755q-5 -23 -24 -39t-42 -16t-36 16t-8 39t24.5 39t42.5 16t35.5 -16t7.5 -39z" />
    <glyph glyph-name="cdotaccent" unicode="&#x10b;" horiz-adv-x="519" 
d="M300 111q71 0 121 61l82 -58q-43 -52 -103 -82q-60 -31 -123 -31q-98 0 -154 69q-53 70 -33 168t105 167q84 70 182 70q64 0 111 -32q44 -27 67 -82l-106 -57q-11 28 -36.5 44.5t-58.5 16.5q-52 0 -97.5 -37t-56.5 -90q-11 -52 18 -89.5t82 -37.5zM431 555
q-5 -23 -24 -39t-42 -16t-36 16t-8 39t24.5 39t42.5 16t35.5 -16t7.5 -39z" />
    <glyph glyph-name="Ccaron" unicode="&#x10c;" horiz-adv-x="654" 
d="M506 535q-76 0 -144 -49.5t-96 -122.5q33 -9 26 -35q-5 -28 -41 -35q-3 -74 44 -123t123 -49q87 0 159 61l67 -85q-56 -46 -119 -70q-66 -26 -132 -26q-65 0 -122 26q-52 24 -89 70q-36 45 -48 104q-9 42 -4 91q-17 2 -25.5 12.5t-5.5 23.5q3 14 16 24t30 12q15 45 43 91
q38 59 92 104q54 44 119 70q67 26 133 26t121 -26t89 -70l-103 -85q-47 61 -133 61zM487 764l106 75l30 -46l-133 -94h-32l-92 94l48 46z" />
    <glyph glyph-name="ccaron" unicode="&#x10d;" horiz-adv-x="519" 
d="M300 111q71 0 121 61l82 -58q-43 -52 -103 -82q-60 -31 -123 -31q-98 0 -154 69q-53 70 -33 168t105 167q84 70 182 70q64 0 111 -32q44 -27 67 -82l-106 -57q-11 28 -36.5 44.5t-58.5 16.5q-52 0 -97.5 -37t-56.5 -90q-11 -52 18 -89.5t82 -37.5zM378 564l106 75l30 -46
l-133 -94h-32l-92 94l48 46z" />
    <glyph glyph-name="Dcaron" unicode="&#x10e;" horiz-adv-x="631" 
d="M641 364q15 -3 23.5 -13t5.5 -23q-3 -14 -16 -25t-28 -11h-2q-14 -44 -43 -91q-38 -59 -92 -104q-56 -46 -119 -70q-67 -26 -132 -26h-166l62 291q-36 7 -30 36q7 29 45 36l62 291h166q64 0 121 -26q55 -26 89 -70q36 -45 48 -104q9 -42 4 -91h2zM263 121q76 0 144 49
t96 123q-31 7 -26 35q7 26 41 35q3 73 -44 122.5t-123 49.5h-46l-36 -171q15 -3 23 -13t5 -23t-15 -23t-28 -13l-37 -171h46zM476 764l106 75l30 -46l-133 -94h-32l-92 94l48 46z" />
    <glyph glyph-name="dcaron" unicode="&#x10f;" horiz-adv-x="779" 
d="M470 442l46 213h110l-139 -654h-110l7 33q-18 -10 -28 -14q-45 -19 -92 -19q-48 0 -85 19q-34 16 -60 52q-49 68 -29 166q20 95 99 166q39 33 82 51q48 20 93 20q46 0 84 -20q16 -8 22 -13zM287 111q47 0 88 37.5t52 89.5t-14 89.5t-72 37.5t-88.5 -37t-52.5 -90
t14.5 -90t72.5 -37zM677 475l102 180h94l-139 -180h-57z" />
    <glyph glyph-name="Dcroat" unicode="&#x110;" horiz-adv-x="631" 
d="M641 364q15 -3 23.5 -13t5.5 -23q-3 -14 -16 -25t-28 -11h-2q-14 -44 -43 -91q-38 -59 -92 -104q-56 -46 -119 -70q-67 -26 -132 -26h-166l139 654h166q64 0 121 -26q55 -26 89 -70q36 -45 48 -104q9 -42 4 -91h2zM263 121q76 0 144 49t96 123q-31 7 -26 35q7 26 41 35
q3 73 -44 122.5t-123 49.5h-46l-88 -414h46zM353 413l-11 -50h-255l11 50h255z" />
    <glyph glyph-name="dcroat" unicode="&#x111;" 
d="M470 442l46 213h110l-139 -654h-110l7 33q-18 -10 -28 -14q-45 -19 -92 -19q-48 0 -85 19q-34 16 -60 52q-49 68 -29 166q20 95 99 166q39 33 82 51q48 20 93 20q46 0 84 -20q16 -8 22 -13zM287 111q47 0 88 37.5t52 89.5t-14 89.5t-72 37.5t-88.5 -37t-52.5 -90
t14.5 -90t72.5 -37zM416 515l17 80h233l-17 -80h-233z" />
    <glyph glyph-name="Emacron" unicode="&#x112;" horiz-adv-x="510" 
d="M149 364l62 291h403l-26 -120h-283l-31 -147h208l-26 -120h-208l-31 -147h283l-25 -120h-403l56 267l6 24q-36 7 -30 36q7 29 45 36zM543 760l-11 -50h-255l11 50h255z" />
    <glyph glyph-name="emacron" unicode="&#x113;" horiz-adv-x="530" 
d="M377 475q91 0 139 -62.5t28 -156.5l-12 -55h-55h-55h-224q3 -39 31.5 -64.5t70.5 -25.5q59 0 107 46l70 -71q-90 -85 -200 -85q-98 0 -153 69q-54 70 -34 168t106 167q82 70 181 70zM354 365q-38 0 -73.5 -20.5t-57.5 -53.5h214q-2 34 -24.5 54t-58.5 20zM511 560
l-11 -50h-255l11 50h255z" />
    <glyph glyph-name="Ebreve" unicode="&#x114;" horiz-adv-x="510" 
d="M149 364l62 291h403l-26 -120h-283l-31 -147h208l-26 -120h-208l-31 -147h283l-25 -120h-403l56 267l6 24q-36 7 -30 36q7 29 45 36zM475 778v-1l47 -9q0 -13 -27 -36q-36 -32 -92 -32q-59 0 -78 32q-13 16 -13 36l51 9v1q0 -4 2 -9t14.5 -12t33.5 -7q22 0 37 6.5
t20 12.5t5 9z" />
    <glyph glyph-name="ebreve" unicode="&#x115;" horiz-adv-x="530" 
d="M377 475q91 0 139 -62.5t28 -156.5l-12 -55h-55h-55h-224q3 -39 31.5 -64.5t70.5 -25.5q59 0 107 46l70 -71q-90 -85 -200 -85q-98 0 -153 69q-54 70 -34 168t106 167q82 70 181 70zM354 365q-38 0 -73.5 -20.5t-57.5 -53.5h214q-2 34 -24.5 54t-58.5 20zM443 578v-1
l47 -9q0 -13 -27 -36q-36 -32 -92 -32q-59 0 -78 32q-13 16 -13 36l51 9v1q0 -4 2 -9t14.5 -12t33.5 -7q22 0 37 6.5t20 12.5t5 9z" />
    <glyph glyph-name="Edotaccent" unicode="&#x116;" horiz-adv-x="510" 
d="M149 364l62 291h403l-26 -120h-283l-31 -147h208l-26 -120h-208l-31 -147h283l-25 -120h-403l56 267l6 24q-36 7 -30 36q7 29 45 36zM469 755q-5 -23 -24 -39t-42 -16t-36 16t-8 39t24.5 39t42.5 16t35.5 -16t7.5 -39z" />
    <glyph glyph-name="edotaccent" unicode="&#x117;" horiz-adv-x="530" 
d="M377 475q91 0 139 -62.5t28 -156.5l-12 -55h-55h-55h-224q3 -39 31.5 -64.5t70.5 -25.5q59 0 107 46l70 -71q-90 -85 -200 -85q-98 0 -153 69q-54 70 -34 168t106 167q82 70 181 70zM354 365q-38 0 -73.5 -20.5t-57.5 -53.5h214q-2 34 -24.5 54t-58.5 20zM437 555
q-5 -23 -24 -39t-42 -16t-36 16t-8 39t24.5 39t42.5 16t35.5 -16t7.5 -39z" />
    <glyph glyph-name="Ecaron" unicode="&#x11a;" horiz-adv-x="510" 
d="M149 364l62 291h403l-26 -120h-283l-31 -147h208l-26 -120h-208l-31 -147h283l-25 -120h-403l56 267l6 24q-36 7 -30 36q7 29 45 36zM415 764l106 75l30 -46l-133 -94h-32l-92 94l48 46z" />
    <glyph glyph-name="ecaron" unicode="&#x11b;" horiz-adv-x="530" 
d="M377 475q91 0 139 -62.5t28 -156.5l-12 -55h-55h-55h-224q3 -39 31.5 -64.5t70.5 -25.5q59 0 107 46l70 -71q-90 -85 -200 -85q-98 0 -153 69q-54 70 -34 168t106 167q82 70 181 70zM354 365q-38 0 -73.5 -20.5t-57.5 -53.5h214q-2 34 -24.5 54t-58.5 20zM383 564l106 75
l30 -46l-133 -94h-32l-92 94l48 46z" />
    <glyph glyph-name="Gcircumflex" unicode="&#x11c;" horiz-adv-x="677" 
d="M436 283l19 90h266l-16 -73l-3 -17l-36 -169l-22 -17q-56 -46 -119 -70q-66 -26 -132 -26q-65 0 -122 26q-52 24 -89 70q-36 45 -48 104q-9 37 -4 91q-17 2 -25.5 12.5t-5.5 23.5q3 14 16 24t30 12q16 50 43 91q38 59 92 104q54 44 119 70q67 26 133 26t121 -26t89 -70
l-103 -85q-47 61 -133 61q-76 0 -144 -49.5t-96 -122.5q33 -9 26 -35q-5 -28 -41 -35q-3 -74 44 -123t123 -49q72 0 139 45l25 117h-146zM576 700l-74 75l-106 -75l-28 46l132 94h32l92 -94z" />
    <glyph glyph-name="gcircumflex" unicode="&#x11d;" 
d="M287 111q47 0 88 37.5t52 89.5t-14 89.5t-72 37.5t-88.5 -37t-52.5 -90t14.5 -90t72.5 -37zM470 442l7 33h110l-100 -474q-20 -95 -100 -166q-34 -31 -82 -52q-47 -19 -92 -19q-66 0 -113 38q-45 35 -59 95l109 46q8 -32 31.5 -50.5t55.5 -18.5q47 0 88 37.5t52 89.5
l7 33q-18 -10 -28 -14q-45 -19 -92 -19q-48 0 -85 19q-34 16 -60 52q-49 68 -29 166q20 95 99 166q39 33 82 51q48 20 93 20q46 0 84 -20q16 -8 22 -13zM462 500l-74 75l-106 -75l-28 46l132 94h32l92 -94z" />
    <glyph glyph-name="Gbreve" unicode="&#x11e;" horiz-adv-x="677" 
d="M436 283l19 90h266l-16 -73l-3 -17l-36 -169l-22 -17q-56 -46 -119 -70q-66 -26 -132 -26q-65 0 -122 26q-52 24 -89 70q-36 45 -48 104q-9 37 -4 91q-17 2 -25.5 12.5t-5.5 23.5q3 14 16 24t30 12q16 50 43 91q38 59 92 104q54 44 119 70q67 26 133 26t121 -26t89 -70
l-103 -85q-47 61 -133 61q-76 0 -144 -49.5t-96 -122.5q33 -9 26 -35q-5 -28 -41 -35q-3 -74 44 -123t123 -49q72 0 139 45l25 117h-146zM558 778v-1l47 -9q0 -13 -27 -36q-36 -32 -92 -32q-59 0 -78 32q-13 16 -13 36l51 9v1q0 -4 2 -9t14.5 -12t33.5 -7q22 0 37 6.5
t20 12.5t5 9z" />
    <glyph glyph-name="gbreve" unicode="&#x11f;" 
d="M287 111q47 0 88 37.5t52 89.5t-14 89.5t-72 37.5t-88.5 -37t-52.5 -90t14.5 -90t72.5 -37zM470 442l7 33h110l-100 -474q-20 -95 -100 -166q-34 -31 -82 -52q-47 -19 -92 -19q-66 0 -113 38q-45 35 -59 95l109 46q8 -32 31.5 -50.5t55.5 -18.5q47 0 88 37.5t52 89.5
l7 33q-18 -10 -28 -14q-45 -19 -92 -19q-48 0 -85 19q-34 16 -60 52q-49 68 -29 166q20 95 99 166q39 33 82 51q48 20 93 20q46 0 84 -20q16 -8 22 -13zM444 578v-1l47 -9q0 -13 -27 -36q-36 -32 -92 -32q-59 0 -78 32q-13 16 -13 36l51 9v1q0 -4 2 -9t14.5 -12t33.5 -7
q22 0 37 6.5t20 12.5t5 9z" />
    <glyph glyph-name="Gdotaccent" unicode="&#x120;" horiz-adv-x="677" 
d="M436 283l19 90h266l-16 -73l-3 -17l-36 -169l-22 -17q-56 -46 -119 -70q-66 -26 -132 -26q-65 0 -122 26q-52 24 -89 70q-36 45 -48 104q-9 37 -4 91q-17 2 -25.5 12.5t-5.5 23.5q3 14 16 24t30 12q16 50 43 91q38 59 92 104q54 44 119 70q67 26 133 26t121 -26t89 -70
l-103 -85q-47 61 -133 61q-76 0 -144 -49.5t-96 -122.5q33 -9 26 -35q-5 -28 -41 -35q-3 -74 44 -123t123 -49q72 0 139 45l25 117h-146zM552 755q-5 -23 -24 -39t-42 -16q-22 0 -35 16t-9 39q5 23 24.5 39t42.5 16t35.5 -16t7.5 -39z" />
    <glyph glyph-name="gdotaccent" unicode="&#x121;" 
d="M287 111q47 0 88 37.5t52 89.5t-14 89.5t-72 37.5t-88.5 -37t-52.5 -90t14.5 -90t72.5 -37zM470 442l7 33h110l-100 -474q-20 -95 -100 -166q-34 -31 -82 -52q-47 -19 -92 -19q-66 0 -113 38q-45 35 -59 95l109 46q8 -32 31.5 -50.5t55.5 -18.5q47 0 88 37.5t52 89.5
l7 33q-18 -10 -28 -14q-45 -19 -92 -19q-48 0 -85 19q-34 16 -60 52q-49 68 -29 166q20 95 99 166q39 33 82 51q48 20 93 20q46 0 84 -20q16 -8 22 -13zM438 555q-5 -23 -24 -39t-42 -16q-22 0 -35 16t-9 39q5 23 24.5 39t42.5 16t35.5 -16t7.5 -39z" />
    <glyph glyph-name="Hcircumflex" unicode="&#x124;" horiz-adv-x="572" 
d="M578 364q15 -3 23 -13t5 -23t-15 -23t-28 -13l-62 -291h-120l60 282h-190l-60 -282h-120l62 291q-35 7 -29 36q7 29 44 36l62 291h120l-60 -282h190l60 282h120zM524 700l-74 75l-106 -75l-28 46l132 94h32l92 -94z" />
    <glyph glyph-name="hcircumflex" unicode="&#x125;" horiz-adv-x="512" 
d="M356 475q87 0 136 -62t31 -149l-56 -263h-110l56 263q8 42 -15 71.5t-65 29.5q-39 0 -76 -37q-40 -38 -51 -84l-51 -243h-110l139 654h110l-45 -210q3 1 8.5 3.5t8.5 4.5q47 22 90 22zM452 500l-74 75l-106 -75l-28 46l132 94h32l92 -94z" />
    <glyph glyph-name="Hbar" unicode="&#x126;" horiz-adv-x="572" 
d="M578 364q15 -3 23 -13t5 -23t-15 -23t-28 -13l-62 -291h-120l60 282h-190l-60 -282h-120l62 291q-35 7 -29 36q7 29 44 36l20 93h-49l22 52h38l31 146h120l-31 -146h190l31 146h120l-31 -146h50l-22 -52h-39zM270 373h190l18 84h-190z" />
    <glyph glyph-name="hbar" unicode="&#x127;" horiz-adv-x="512" 
d="M356 475q87 0 136 -62t31 -149l-56 -263h-110l56 263q8 42 -15 71.5t-65 29.5q-39 0 -76 -37q-40 -38 -51 -84l-51 -243h-110l139 654h110l-45 -210q3 1 8.5 3.5t8.5 4.5q47 22 90 22zM371 560l-11 -50h-255l11 50h255z" />
    <glyph glyph-name="Itilde" unicode="&#x128;" horiz-adv-x="262" 
d="M268 364q15 -3 23 -13t5 -23t-15 -23t-28 -13l-62 -291h-120l62 291q-35 7 -29 36q7 29 44 36l62 291h120zM401 716q-27 23 -62 20.5t-62.5 -17t-59.5 -19t-54 15.5q2 10 6.5 30t6.5 30q25 -20 53 -22t50.5 8t48 19t45 11t41.5 -16q-2 -10 -6.5 -30t-6.5 -30z" />
    <glyph glyph-name="itilde" unicode="&#x129;" horiz-adv-x="200" 
d="M45 1l100 474h110l-100 -474h-110zM328 516q-27 23 -62 20.5t-62.5 -17t-59.5 -19t-54 15.5q2 10 6.5 30t6.5 30q25 -20 53 -22t50.5 8t48 19t45 11t41.5 -16q-2 -10 -6.5 -30t-6.5 -30z" />
    <glyph glyph-name="Imacron" unicode="&#x12a;" horiz-adv-x="262" 
d="M268 364q15 -3 23 -13t5 -23t-15 -23t-28 -13l-62 -291h-120l62 291q-35 7 -29 36q7 29 44 36l62 291h120zM420 760l-11 -50h-255l11 50h255z" />
    <glyph glyph-name="imacron" unicode="&#x12b;" horiz-adv-x="200" 
d="M45 1l100 474h110l-100 -474h-110zM347 560l-11 -50h-255l11 50h255z" />
    <glyph glyph-name="Idotaccent" unicode="&#x130;" horiz-adv-x="262" 
d="M268 364q15 -3 23 -13t5 -23t-15 -23t-28 -13l-62 -291h-120l62 291q-35 7 -29 36q7 29 44 36l62 291h120zM345 755q-5 -23 -24 -39t-42 -16t-36 16t-8 39t24.5 39t42.5 16t35.5 -16t7.5 -39z" />
    <glyph glyph-name="Jcircumflex" unicode="&#x134;" horiz-adv-x="506" 
d="M512 364q15 -3 23 -13t5 -23t-15 -23t-28 -13l-19 -89q-18 -83 -90 -142.5t-155 -59.5q-72 0 -118.5 46.5t-45.5 116.5l123 23q-1 -29 18 -47.5t48 -18.5q34 0 63 24t37 58l19 89q-35 7 -29 36q7 29 44 36l62 291h120zM593 700l-74 75l-106 -75l-28 46l132 94h32l92 -94z
" />
    <glyph glyph-name="jcircumflex" unicode="&#x135;" horiz-adv-x="200" 
d="M32 -59l113 534h110l-113 -534q-23 -110 -125 -156q-45 -21 -89 -21l24 110h-1q21 1 42 11q30 15 39 56zM296 500l-74 75l-106 -75l-28 46l132 94h32l92 -94z" />
    <glyph glyph-name="Lacute" unicode="&#x139;" horiz-adv-x="416" 
d="M253 292l-37 -171h190l-25 -120h-310l62 291q-35 7 -29 36q7 29 44 36l62 291h120l-62 -291q15 -3 23 -13t5 -23t-15 -23t-28 -13zM465 778l-109 -78h-94l153 142z" />
    <glyph glyph-name="lacute" unicode="&#x13a;" horiz-adv-x="200" 
d="M45 1l139 654h110l-139 -654h-110zM357 773l-109 -78h-94l153 142z" />
    <glyph glyph-name="Lcaron" unicode="&#x13d;" horiz-adv-x="416" 
d="M253 292l-37 -171h190l-25 -120h-310l62 291q-35 7 -29 36q7 29 44 36l62 291h120l-62 -291q15 -3 23 -13t5 -23t-15 -23t-28 -13zM271 675l102 180h94l-139 -180h-57z" />
    <glyph glyph-name="lcaron" unicode="&#x13e;" horiz-adv-x="362" 
d="M45 1l139 654h110l-139 -654h-110zM281 475l102 180h94l-139 -180h-57z" />
    <glyph glyph-name="Lslash" unicode="&#x141;" horiz-adv-x="500" 
d="M347 340l-47 -219h190l-25 -120h-310l39 183l-93 -94l-40 36l153 156l3 10q-36 7 -30 36q7 29 45 36l62 291h120l-46 -216l117 120l39 -37z" />
    <glyph glyph-name="lslash" unicode="&#x142;" horiz-adv-x="406" 
d="M420 496l37 -40l-145 -133l-68 -322h-110l41 195l-54 -50l-37 39l111 103l78 367h110l-52 -241z" />
    <glyph glyph-name="Nacute" unicode="&#x143;" horiz-adv-x="633" 
d="M639 364q15 -3 23 -13t5 -23t-15 -23t-28 -13l-62 -291h-189l-76 494l-105 -494h-120l62 291q-36 7 -30 36q7 29 45 36l62 291h189l76 -494l105 494h120zM574 778l-109 -78h-94l153 142z" />
    <glyph glyph-name="nacute" unicode="&#x144;" horiz-adv-x="511" 
d="M355 475q87 0 136 -62t31 -149l-56 -263h-110l56 263q8 42 -15 71.5t-65 29.5q-41 0 -77 -30t-44 -71l-56 -263h-110l56 263q18 87 92.5 149t161.5 62zM471 578l-109 -78h-94l153 142z" />
    <glyph glyph-name="Ncaron" unicode="&#x147;" horiz-adv-x="633" 
d="M639 364q15 -3 23 -13t5 -23t-15 -23t-28 -13l-62 -291h-189l-76 494l-105 -494h-120l62 291q-36 7 -30 36q7 29 45 36l62 291h189l76 -494l105 494h120zM477 764l106 75l30 -46l-133 -94h-32l-92 94l48 46z" />
    <glyph glyph-name="ncaron" unicode="&#x148;" horiz-adv-x="511" 
d="M355 475q87 0 136 -62t31 -149l-56 -263h-110l56 263q8 42 -15 71.5t-65 29.5q-41 0 -77 -30t-44 -71l-56 -263h-110l56 263q18 87 92.5 149t161.5 62zM374 564l106 75l30 -46l-133 -94h-32l-92 94l48 46z" />
    <glyph glyph-name="Omacron" unicode="&#x14c;" horiz-adv-x="768" 
d="M777 364q15 -2 24 -12.5t6 -23.5t-16 -23.5t-29 -12.5q-36 -112 -133 -195q-51 -44 -116 -70q-64 -26 -129 -26q-63 0 -120 26q-52 26 -86 70q-60 80 -48 195q-17 2 -25.5 12.5t-5.5 23.5q3 14 16 24t30 12q35 112 131 194q52 44 116 71q67 26 131 26t118 -26
q50 -24 86 -71q61 -81 50 -194zM409 121q72 0 138 49t94 123q-32 7 -27 35q7 27 42 35q3 73 -42 122.5t-117 49.5q-73 0 -138.5 -49.5t-92.5 -122.5q14 -4 21 -13.5t4 -21.5q-5 -28 -40 -35q-4 -74 40.5 -123t117.5 -49zM672 760l-11 -50h-255l11 50h255z" />
    <glyph glyph-name="omacron" unicode="&#x14d;" horiz-adv-x="553" 
d="M377 475q97 0 153 -70q54 -67 33 -167q-20 -99 -105 -168t-181 -69q-98 0 -154 69q-53 69 -33 168q21 99 105 167q84 70 182 70zM300 111q52 0 97 37t56 90t-18 90t-81 37t-97.5 -37t-56.5 -90q-11 -52 18 -89.5t82 -37.5zM523 560l-11 -50h-255l11 50h255z" />
    <glyph glyph-name="Obreve" unicode="&#x14e;" horiz-adv-x="768" 
d="M777 364q15 -2 24 -12.5t6 -23.5t-16 -23.5t-29 -12.5q-36 -112 -133 -195q-51 -44 -116 -70q-64 -26 -129 -26q-63 0 -120 26q-52 26 -86 70q-60 80 -48 195q-17 2 -25.5 12.5t-5.5 23.5q3 14 16 24t30 12q35 112 131 194q52 44 116 71q67 26 131 26t118 -26
q50 -24 86 -71q61 -81 50 -194zM409 121q72 0 138 49t94 123q-32 7 -27 35q7 27 42 35q3 73 -42 122.5t-117 49.5q-73 0 -138.5 -49.5t-92.5 -122.5q14 -4 21 -13.5t4 -21.5q-5 -28 -40 -35q-4 -74 40.5 -123t117.5 -49zM604 778v-1l47 -9q0 -13 -27 -36q-36 -32 -92 -32
q-59 0 -78 32q-13 16 -13 36l51 9v1q0 -4 2 -9t14.5 -12t33.5 -7q22 0 37 6.5t20 12.5t5 9z" />
    <glyph glyph-name="obreve" unicode="&#x14f;" horiz-adv-x="553" 
d="M377 475q97 0 153 -70q54 -67 33 -167q-20 -99 -105 -168t-181 -69q-98 0 -154 69q-53 69 -33 168q21 99 105 167q84 70 182 70zM300 111q52 0 97 37t56 90t-18 90t-81 37t-97.5 -37t-56.5 -90q-11 -52 18 -89.5t82 -37.5zM454 578v-1l47 -9q0 -13 -27 -36
q-36 -32 -92 -32q-59 0 -78 32q-13 16 -13 36l51 9v1q0 -4 2 -9t14.5 -12t33.5 -7q22 0 37 6.5t20 12.5t5 9z" />
    <glyph glyph-name="OE" unicode="&#x152;" horiz-adv-x="1046" 
d="M721 584l15 71h404l-26 -120h-284l-31 -147h208l-26 -120h-208l-31 -147h284l-25 -120h-404l15 71q-38 -26 -83 -45q-66 -26 -130 -26t-119 26q-52 26 -86 70q-61 81 -49 195q-17 2 -25.5 12.5t-5.5 23.5q3 14 16 24t30 12q35 111 132 194q52 44 116 71q66 26 130 26
t119 -26q35 -17 64 -45zM424 121q82 0 153 61t89 146q18 86 -27 146.5t-127 60.5q-72 0 -138 -49.5t-93 -122.5q33 -9 26 -35q-5 -28 -41 -35q-4 -74 41 -123t117 -49z" />
    <glyph glyph-name="oe" unicode="&#x153;" horiz-adv-x="898" 
d="M740 475q91 0 139.5 -62.5t28.5 -156.5l-12 -55h-55h-55h-225q4 -40 32 -65t70 -25q60 0 108 46l69 -71q-90 -85 -200 -85q-97 0 -153 69q-2 2 -10 16q-3 -3 -9.5 -8t-9.5 -8q-83 -69 -181 -69t-154 69q-53 70 -33 168t105 167q84 70 182 70q99 0 153 -70q2 -3 5.5 -8
t5.5 -7q2 2 5 4.5t7 5.5t6 5q84 70 181 70zM717 365q-37 0 -73 -20.5t-58 -53.5h214q-2 34 -24 54t-59 20zM300 111q52 0 97.5 37t56.5 90q11 52 -18 89.5t-82 37.5q-52 0 -97.5 -37t-56.5 -90q-11 -52 18 -89.5t82 -37.5z" />
    <glyph glyph-name="Racute" unicode="&#x154;" horiz-adv-x="563" 
d="M619 432q-19 -92 -98 -157q-57 -46 -122 -60q0 -7 6 -25q22 -69 121 -69l-25 -120q-93 0 -150 42q-49 36 -65 95q-12 33 -12 72h-39l-44 -209h-120l44 209l16 73q-15 3 -23 13t-6 23q6 29 44 36l51 240l13 60h235q92 0 143 -65t31 -158zM376 330q42 0 78 30t45 72
q9 43 -14.5 73t-65.5 30h-115l-43 -205h115zM539 778l-109 -78h-94l153 142z" />
    <glyph glyph-name="racute" unicode="&#x155;" horiz-adv-x="381" 
d="M317 472q33 6 64.5 -2.5t47.5 -31.5l-94 -73l-5 7.5t-14.5 10t-23.5 1.5q-59 -15 -96 -188l-41 -195h-110l100 474h110l-7 -37q30 27 69 34zM406 578l-109 -78h-94l153 142z" />
    <glyph glyph-name="Rcaron" unicode="&#x158;" horiz-adv-x="563" 
d="M619 432q-19 -92 -98 -157q-57 -46 -122 -60q0 -7 6 -25q22 -69 121 -69l-25 -120q-93 0 -150 42q-49 36 -65 95q-12 33 -12 72h-39l-44 -209h-120l44 209l16 73q-15 3 -23 13t-6 23q6 29 44 36l51 240l13 60h235q92 0 143 -65t31 -158zM376 330q42 0 78 30t45 72
q9 43 -14.5 73t-65.5 30h-115l-43 -205h115zM442 764l106 75l30 -46l-133 -94h-32l-92 94l48 46z" />
    <glyph glyph-name="rcaron" unicode="&#x159;" horiz-adv-x="381" 
d="M317 472q33 6 64.5 -2.5t47.5 -31.5l-94 -73l-5 7.5t-14.5 10t-23.5 1.5q-59 -15 -96 -188l-41 -195h-110l100 474h110l-7 -37q30 27 69 34zM309 564l106 75l30 -46l-133 -94h-32l-92 94l48 46z" />
    <glyph glyph-name="Sacute" unicode="&#x15a;" horiz-adv-x="545" 
d="M503 329q33 -24 45 -58q16 -38 5 -89q-7 -37 -33 -76q-27 -37 -62 -62q-74 -53 -170 -53h-40q-85 0 -137 54q-46 51 -46 124l123 25q0 -34 22 -58.5t63 -24.5h40q53 0 87 25q29 21 33 46q6 29 -18 47q-21 16 -79 37q-14 -17 -31.5 -23t-28.5 1q-20 13 -5 45
q-47 19 -73 39q-32 26 -44 58q-16 39 -6 87q18 83 97 135q71 47 167 47h10q83 0 136 -48q47 -46 49 -121l-123 -24q0 34 -23.5 53.5t-64.5 19.5h-10q-42 0 -76.5 -15t-41.5 -47q-6 -26 17 -45q17 -12 67 -32q13 14 28 18.5t26 -2.5q17 -11 8 -38q62 -23 89 -45zM530 778
l-109 -78h-94l153 142z" />
    <glyph glyph-name="sacute" unicode="&#x15b;" horiz-adv-x="469" 
d="M410 266q31 -17 43 -45q16 -33 7 -74q-17 -79 -91 -118q-52 -28 -126 -28h-17q-56 0 -98 17.5t-55 31t-17 21.5l99 69v2q0 -2 7.5 -9t31 -14.5t55.5 -7.5h17q42 0 66 12q15 8 18 24q2 13 -9 20q-19 10 -77 18q-73 10 -105 27q-31 17 -43 44q-16 30 -7 73q16 68 76 108
q59 38 141 38h5q114 0 170 -88l-99 -70q-31 48 -94 48h-5q-76 0 -84 -36q-1 -12 9 -18q18 -9 75 -17q76 -12 107 -28zM450 578l-109 -78h-94l153 142z" />
    <glyph glyph-name="Scircumflex" unicode="&#x15c;" horiz-adv-x="545" 
d="M503 329q33 -24 45 -58q16 -38 5 -89q-7 -37 -33 -76q-27 -37 -62 -62q-74 -53 -170 -53h-40q-85 0 -137 54q-46 51 -46 124l123 25q0 -34 22 -58.5t63 -24.5h40q53 0 87 25q29 21 33 46q6 29 -18 47q-21 16 -79 37q-14 -17 -31.5 -23t-28.5 1q-20 13 -5 45
q-47 19 -73 39q-32 26 -44 58q-16 39 -6 87q18 83 97 135q71 47 167 47h10q83 0 136 -48q47 -46 49 -121l-123 -24q0 34 -23.5 53.5t-64.5 19.5h-10q-42 0 -76.5 -15t-41.5 -47q-6 -26 17 -45q17 -12 67 -32q13 14 28 18.5t26 -2.5q17 -11 8 -38q62 -23 89 -45zM510 700
l-74 75l-106 -75l-28 46l132 94h32l92 -94z" />
    <glyph glyph-name="scircumflex" unicode="&#x15d;" horiz-adv-x="469" 
d="M410 266q31 -17 43 -45q16 -33 7 -74q-17 -79 -91 -118q-52 -28 -126 -28h-17q-56 0 -98 17.5t-55 31t-17 21.5l99 69v2q0 -2 7.5 -9t31 -14.5t55.5 -7.5h17q42 0 66 12q15 8 18 24q2 13 -9 20q-19 10 -77 18q-73 10 -105 27q-31 17 -43 44q-16 30 -7 73q16 68 76 108
q59 38 141 38h5q114 0 170 -88l-99 -70q-31 48 -94 48h-5q-76 0 -84 -36q-1 -12 9 -18q18 -9 75 -17q76 -12 107 -28zM430 500l-74 75l-106 -75l-28 46l132 94h32l92 -94z" />
    <glyph glyph-name="Scedilla" unicode="&#x15e;" horiz-adv-x="545" 
d="M503 329q33 -24 45 -58q16 -38 5 -89q-7 -37 -33 -76q-27 -37 -62 -62q-74 -53 -170 -53h-40q-85 0 -137 54q-46 51 -46 124l123 25q0 -34 22 -58.5t63 -24.5h40q53 0 87 25q29 21 33 46q6 29 -18 47q-21 16 -79 37q-14 -17 -31.5 -23t-28.5 1q-20 13 -5 45
q-47 19 -73 39q-32 26 -44 58q-16 39 -6 87q18 83 97 135q71 47 167 47h10q83 0 136 -48q47 -46 49 -121l-123 -24q0 34 -23.5 53.5t-64.5 19.5h-10q-42 0 -76.5 -15t-41.5 -47q-6 -26 17 -45q17 -12 67 -32q13 14 28 18.5t26 -2.5q17 -11 8 -38q62 -23 89 -45zM352 -60
q20 -25 13 -61q-11 -48 -58 -77q-7 -4 -14.5 -8t-12.5 -6.5t-10 -3.5l-4 -2l-6 58q39 12 45 39q2 9 -2 16q-5 5 -15.5 6.5t-18.5 0.5l-34 -4l34 163h60l-21 -100q32 -6 44 -21z" />
    <glyph glyph-name="scedilla" unicode="&#x15f;" horiz-adv-x="469" 
d="M410 266q31 -17 43 -45q16 -33 7 -74q-17 -79 -91 -118q-52 -28 -126 -28h-17q-56 0 -98 17.5t-55 31t-17 21.5l99 69v2q0 -2 7.5 -9t31 -14.5t55.5 -7.5h17q42 0 66 12q15 8 18 24q2 13 -9 20q-19 10 -77 18q-73 10 -105 27q-31 17 -43 44q-16 30 -7 73q16 68 76 108
q59 38 141 38h5q114 0 170 -88l-99 -70q-31 48 -94 48h-5q-76 0 -84 -36q-1 -12 9 -18q18 -9 75 -17q76 -12 107 -28zM328 -60q20 -25 13 -61q-11 -48 -58 -77q-7 -4 -14.5 -8t-12.5 -6.5t-10 -3.5l-4 -2l-6 58q39 12 45 39q2 9 -2 16q-5 5 -15.5 6.5t-18.5 0.5l-34 -4
l34 163h60l-21 -100q32 -6 44 -21z" />
    <glyph glyph-name="Scaron" unicode="&#x160;" horiz-adv-x="545" 
d="M503 329q33 -24 45 -58q16 -38 5 -89q-7 -37 -33 -76q-27 -37 -62 -62q-74 -53 -170 -53h-40q-85 0 -137 54q-46 51 -46 124l123 25q0 -34 22 -58.5t63 -24.5h40q53 0 87 25q29 21 33 46q6 29 -18 47q-21 16 -79 37q-14 -17 -31.5 -23t-28.5 1q-20 13 -5 45
q-47 19 -73 39q-32 26 -44 58q-16 39 -6 87q18 83 97 135q71 47 167 47h10q83 0 136 -48q47 -46 49 -121l-123 -24q0 34 -23.5 53.5t-64.5 19.5h-10q-42 0 -76.5 -15t-41.5 -47q-6 -26 17 -45q17 -12 67 -32q13 14 28 18.5t26 -2.5q17 -11 8 -38q62 -23 89 -45zM433 764
l106 75l30 -46l-133 -94h-32l-92 94l48 46z" />
    <glyph glyph-name="scaron" unicode="&#x161;" horiz-adv-x="469" 
d="M410 266q31 -17 43 -45q16 -33 7 -74q-17 -79 -91 -118q-52 -28 -126 -28h-17q-56 0 -98 17.5t-55 31t-17 21.5l99 69v2q0 -2 7.5 -9t31 -14.5t55.5 -7.5h17q42 0 66 12q15 8 18 24q2 13 -9 20q-19 10 -77 18q-73 10 -105 27q-31 17 -43 44q-16 30 -7 73q16 68 76 108
q59 38 141 38h5q114 0 170 -88l-99 -70q-31 48 -94 48h-5q-76 0 -84 -36q-1 -12 9 -18q18 -9 75 -17q76 -12 107 -28zM353 564l106 75l30 -46l-133 -94h-32l-92 94l48 46z" />
    <glyph glyph-name="Tcaron" unicode="&#x164;" horiz-adv-x="500" 
d="M148 535l26 120h430l-26 -120h-155l-36 -171q15 -3 23 -13t5 -23t-15 -23t-28 -13l-62 -291h-120l62 291q-34 7 -29 36q6 27 44 36l36 171h-155zM410 764l106 75l30 -46l-133 -94h-32l-92 94l48 46z" />
    <glyph glyph-name="tcaron" unicode="&#x165;" horiz-adv-x="455" 
d="M286 111q16 0 30 11l57 -81q-51 -40 -110 -40q-63 0 -98 44.5t-22 107.5l49 232h-66l19 90h66l26 119l123 61l-39 -180h107l-19 -90h-107l-49 -232q-4 -17 6 -29.5t27 -12.5zM371 527l102 180h94l-139 -180h-57z" />
    <glyph glyph-name="Tbar" unicode="&#x166;" horiz-adv-x="500" 
d="M148 535l26 120h430l-26 -120h-155l-11 -49h155l-19 -63h-149l-12 -59q15 -3 23 -13t5 -23t-15 -23t-28 -13l-62 -291h-120l62 291q-34 7 -29 36q6 27 44 36l12 59h-161l19 63h155l11 49h-155z" />
    <glyph glyph-name="tbar" unicode="&#x167;" horiz-adv-x="410" 
d="M286 111q16 0 30 11l57 -81q-51 -40 -110 -40q-63 0 -98 44.5t-22 107.5l25 121h-61l12 54h61l12 57h-66l19 90h66l26 119l123 61l-39 -180h107l-19 -90h-107l-12 -57h120l-12 -54h-120l-25 -121q-4 -17 6 -29.5t27 -12.5z" />
    <glyph glyph-name="Utilde" unicode="&#x168;" horiz-adv-x="573" 
d="M578 364q15 -3 23.5 -13t5.5 -23t-15.5 -23t-28.5 -13l-17 -76q-19 -90 -95 -152q-75 -63 -165 -63t-139 63q-49 65 -31 152l17 76q-35 7 -29 36q7 29 44 36l62 291h120l-62 -291q15 -3 23.5 -13t5.5 -23t-15.5 -23t-28.5 -13l-17 -76q-8 -39 14 -67t61 -28q40 0 73.5 28
t41.5 67l17 76q-35 7 -29 36q7 29 44 36l62 291h120zM556 716q-27 23 -62 20.5t-62.5 -17t-59.5 -19t-54 15.5q2 10 6.5 30t6.5 30q25 -20 53 -22t50.5 8t48 19t45 11t41.5 -16q-2 -10 -6.5 -30t-6.5 -30z" />
    <glyph glyph-name="utilde" unicode="&#x169;" horiz-adv-x="512" 
d="M402 212l55 263h110l-55 -263q-19 -87 -94 -149t-162 -62t-136 62t-30 149l55 263h110l-55 -263q-9 -42 14.5 -71.5t64.5 -29.5q42 0 78 29.5t45 71.5zM484 516q-27 23 -62 20.5t-62.5 -17t-59.5 -19t-54 15.5q2 10 6.5 30t6.5 30q25 -20 53 -22t50.5 8t48 19t45 11
t41.5 -16q-2 -10 -6.5 -30t-6.5 -30z" />
    <glyph glyph-name="Umacron" unicode="&#x16a;" horiz-adv-x="573" 
d="M578 364q15 -3 23.5 -13t5.5 -23t-15.5 -23t-28.5 -13l-17 -76q-19 -90 -95 -152q-75 -63 -165 -63t-139 63q-49 65 -31 152l17 76q-35 7 -29 36q7 29 44 36l62 291h120l-62 -291q15 -3 23.5 -13t5.5 -23t-15.5 -23t-28.5 -13l-17 -76q-8 -39 14 -67t61 -28q40 0 73.5 28
t41.5 67l17 76q-35 7 -29 36q7 29 44 36l62 291h120zM575 760l-11 -50h-255l11 50h255z" />
    <glyph glyph-name="umacron" unicode="&#x16b;" horiz-adv-x="512" 
d="M402 212l55 263h110l-55 -263q-19 -87 -94 -149t-162 -62t-136 62t-30 149l55 263h110l-55 -263q-9 -42 14.5 -71.5t64.5 -29.5q42 0 78 29.5t45 71.5zM502 560l-11 -50h-255l11 50h255z" />
    <glyph glyph-name="Ubreve" unicode="&#x16c;" horiz-adv-x="573" 
d="M578 364q15 -3 23.5 -13t5.5 -23t-15.5 -23t-28.5 -13l-17 -76q-19 -90 -95 -152q-75 -63 -165 -63t-139 63q-49 65 -31 152l17 76q-35 7 -29 36q7 29 44 36l62 291h120l-62 -291q15 -3 23.5 -13t5.5 -23t-15.5 -23t-28.5 -13l-17 -76q-8 -39 14 -67t61 -28q40 0 73.5 28
t41.5 67l17 76q-35 7 -29 36q7 29 44 36l62 291h120zM506 778v-1l47 -9q0 -13 -27 -36q-36 -32 -92 -32q-59 0 -78 32q-13 16 -13 36l51 9v1q0 -4 2 -9t14.5 -12t33.5 -7q22 0 37 6.5t20 12.5t5 9z" />
    <glyph glyph-name="ubreve" unicode="&#x16d;" horiz-adv-x="512" 
d="M402 212l55 263h110l-55 -263q-19 -87 -94 -149t-162 -62t-136 62t-30 149l55 263h110l-55 -263q-9 -42 14.5 -71.5t64.5 -29.5q42 0 78 29.5t45 71.5zM434 578v-1l47 -9q0 -13 -27 -36q-36 -32 -92 -32q-59 0 -78 32q-13 16 -13 36l51 9v1q0 -4 2 -9t14.5 -12t33.5 -7
q22 0 37 6.5t20 12.5t5 9z" />
    <glyph glyph-name="Uring" unicode="&#x16e;" horiz-adv-x="573" 
d="M578 364q15 -3 23.5 -13t5.5 -23t-15.5 -23t-28.5 -13l-17 -76q-19 -90 -95 -152q-75 -63 -165 -63t-139 63q-49 65 -31 152l17 76q-35 7 -29 36q7 29 44 36l62 291h120l-62 -291q15 -3 23.5 -13t5.5 -23t-15.5 -23t-28.5 -13l-17 -76q-8 -39 14 -67t61 -28q40 0 73.5 28
t41.5 67l17 76q-35 7 -29 36q7 29 44 36l62 291h120zM462 832q27 0 42 -19.5t10 -46.5q-6 -28 -29.5 -47t-50.5 -19q-28 0 -43 19t-9 47q5 27 28.5 46.5t51.5 19.5zM441 735q13 0 24 9t14 22q2 13 -5 22t-20 9t-24 -9t-13 -22q-3 -13 4 -22t20 -9z" />
    <glyph glyph-name="uring" unicode="&#x16f;" horiz-adv-x="512" 
d="M402 212l55 263h110l-55 -263q-19 -87 -94 -149t-162 -62t-136 62t-30 149l55 263h110l-55 -263q-9 -42 14.5 -71.5t64.5 -29.5q42 0 78 29.5t45 71.5zM390 632q27 0 42 -19.5t10 -46.5q-6 -28 -29.5 -47t-50.5 -19q-28 0 -43 19t-9 47q5 27 28.5 46.5t51.5 19.5z
M369 535q13 0 24 9t14 22q2 13 -5 22t-20 9t-24 -9t-13 -22q-3 -13 4 -22t20 -9z" />
    <glyph glyph-name="Wcircumflex" unicode="&#x174;" horiz-adv-x="937" 
d="M917 655h124l-137 -293q27 -10 22 -34q-3 -15 -19.5 -26t-35.5 -11l-134 -290h-72h-93l-16 409l-190 -409h-73h-92l-13 290q-19 0 -30 11t-8 26q5 23 35 34l-11 293h124l20 -490l228 490h124v0l20 -490zM706 700l-74 75l-106 -75l-28 46l132 94h32l92 -94z" />
    <glyph glyph-name="wcircumflex" unicode="&#x175;" horiz-adv-x="797" 
d="M572 111l166 364h114l-229 -474h-71h-69l-31 250l-138 -250h-68h-72l-29 474h114l12 -364l187 364h81zM594 500l-74 75l-106 -75l-28 46l132 94h32l92 -94z" />
    <glyph glyph-name="Ycircumflex" unicode="&#x176;" horiz-adv-x="558" 
d="M436 354q12 -12 9 -26q-3 -13 -15.5 -23t-28.5 -13l-62 -291h-120l62 291q-35 7 -29 36q3 15 20 26l-98 301h126l71 -219l165 219h126zM517 700l-74 75l-106 -75l-28 46l132 94h32l92 -94z" />
    <glyph glyph-name="ycircumflex" unicode="&#x177;" horiz-adv-x="530" 
d="M470 475h115l-227 -435l-74 -142q-29 -56 -83 -93q-61 -41 -135 -41l24 110q66 0 96 56l37 71h-31l-47 474h115l33 -339zM461 500l-74 75l-106 -75l-28 46l132 94h32l92 -94z" />
    <glyph glyph-name="Ydieresis" unicode="&#x178;" horiz-adv-x="558" 
d="M436 354q12 -12 9 -26q-3 -13 -15.5 -23t-28.5 -13l-62 -291h-120l62 291q-35 7 -29 36q3 15 20 26l-98 301h126l71 -219l165 219h126zM413 746q-5 -20 -21 -33t-35 -13t-29 13.5t-6 32.5t19.5 32t34.5 13t30 -13t7 -32zM515 791q19 0 30 -13t7 -32t-20.5 -32.5
t-35.5 -13.5q-20 0 -30 13.5t-6 32.5t20 32t35 13z" />
    <glyph glyph-name="Zacute" unicode="&#x179;" horiz-adv-x="500" 
d="M148 535l26 120h430l-30 -140l-190 -198q14 -29 -6 -49q-20 -21 -48 -7l-135 -140h295l-25 -120h-430l29 140l185 193q-9 12 -8 27.5t11 25.5q10 11 25.5 12t28.5 -7l137 143h-295zM507 778l-109 -78h-94l153 142z" />
    <glyph glyph-name="zacute" unicode="&#x17a;" horiz-adv-x="454" 
d="M122 365l23 110h364l-28 -133l-280 -231h231l-23 -110h-364l28 133l280 231h-231zM442 578l-109 -78h-94l153 142z" />
    <glyph glyph-name="Zdotaccent" unicode="&#x17b;" horiz-adv-x="500" 
d="M148 535l26 120h430l-30 -140l-190 -198q14 -29 -6 -49q-20 -21 -48 -7l-135 -140h295l-25 -120h-430l29 140l185 193q-9 12 -8 27.5t11 25.5q10 11 25.5 12t28.5 -7l137 143h-295zM464 755q-5 -23 -24 -39t-42 -16q-22 0 -35 16t-9 39q5 23 24.5 39t42.5 16t35.5 -16
t7.5 -39z" />
    <glyph glyph-name="zdotaccent" unicode="&#x17c;" horiz-adv-x="454" 
d="M122 365l23 110h364l-28 -133l-280 -231h231l-23 -110h-364l28 133l280 231h-231zM399 555q-5 -23 -24 -39t-42 -16t-36 16t-8 39t24.5 39t42.5 16t35.5 -16t7.5 -39z" />
    <glyph glyph-name="Zcaron" unicode="&#x17d;" horiz-adv-x="500" 
d="M148 535l26 120h430l-30 -140l-190 -198q14 -29 -6 -49q-20 -21 -48 -7l-135 -140h295l-25 -120h-430l29 140l185 193q-9 12 -8 27.5t11 25.5q10 11 25.5 12t28.5 -7l137 143h-295zM410 764l106 75l30 -46l-133 -94h-32l-92 94l48 46z" />
    <glyph glyph-name="zcaron" unicode="&#x17e;" horiz-adv-x="454" 
d="M122 365l23 110h364l-28 -133l-280 -231h231l-23 -110h-364l28 133l280 231h-231zM345 564l106 75l30 -46l-133 -94h-32l-92 94l48 46z" />
    <glyph glyph-name="circumflex" unicode="&#x2c6;" horiz-adv-x="346" 
d="M369 500l-74 75l-106 -75l-28 46l132 94h32l92 -94z" />
    <glyph glyph-name="caron" unicode="&#x2c7;" horiz-adv-x="347" 
d="M292 564l106 75l30 -46l-133 -94h-32l-92 94l48 46z" />
    <glyph glyph-name="breve" unicode="&#x2d8;" horiz-adv-x="300" 
d="M328 578v-1l47 -9q0 -13 -27 -36q-36 -32 -92 -32q-59 0 -78 32q-13 16 -13 36l51 9v1q0 -4 2 -9t14.5 -12t33.5 -7q22 0 37 6.5t20 12.5t5 9z" />
    <glyph glyph-name="dotaccent" unicode="&#x2d9;" horiz-adv-x="200" 
d="M272 555q-5 -23 -24 -39t-42 -16q-22 0 -35 16t-9 39q5 23 24.5 39t42.5 16t35.5 -16t7.5 -39z" />
    <glyph glyph-name="ring" unicode="&#x2da;" horiz-adv-x="222" 
d="M245 632q27 0 42 -19.5t10 -46.5q-6 -28 -29.5 -47t-50.5 -19q-28 0 -43 19t-9 47q5 27 28.5 46.5t51.5 19.5zM224 535q13 0 24 9t14 22q2 13 -5 22t-20 9t-24 -9t-13 -22q-3 -13 4 -22t20 -9z" />
    <glyph glyph-name="tilde" unicode="&#x2dc;" horiz-adv-x="328" 
d="M392 516q-27 23 -62 20.5t-62.5 -17t-59.5 -19t-54 15.5q2 10 6.5 30t6.5 30q25 -20 53 -22t50.5 8t48 19t45 11t41.5 -16q-2 -10 -6.5 -30t-6.5 -30z" />
    <glyph glyph-name="Wgrave" unicode="&#x1e80;" horiz-adv-x="937" 
d="M917 655h124l-137 -293q27 -10 22 -34q-3 -15 -19.5 -26t-35.5 -11l-134 -290h-72h-93l-16 409l-190 -409h-73h-92l-13 290q-19 0 -30 11t-8 26q5 23 35 34l-11 293h124l20 -490l228 490h124v0l20 -490zM710 700h-94l-77 78l78 64z" />
    <glyph glyph-name="wgrave" unicode="&#x1e81;" horiz-adv-x="797" 
d="M572 111l166 364h114l-229 -474h-71h-69l-31 250l-138 -250h-68h-72l-29 474h114l12 -364l187 364h81zM598 500h-94l-77 78l78 64z" />
    <glyph glyph-name="Wacute" unicode="&#x1e82;" horiz-adv-x="937" 
d="M917 655h124l-137 -293q27 -10 22 -34q-3 -15 -19.5 -26t-35.5 -11l-134 -290h-72h-93l-16 409l-190 -409h-73h-92l-13 290q-19 0 -30 11t-8 26q5 23 35 34l-11 293h124l20 -490l228 490h124v0l20 -490zM726 778l-109 -78h-94l153 142z" />
    <glyph glyph-name="wacute" unicode="&#x1e83;" horiz-adv-x="797" 
d="M572 111l166 364h114l-229 -474h-71h-69l-31 250l-138 -250h-68h-72l-29 474h114l12 -364l187 364h81zM614 578l-109 -78h-94l153 142z" />
    <glyph glyph-name="Wdieresis" unicode="&#x1e84;" horiz-adv-x="937" 
d="M917 655h124l-137 -293q27 -10 22 -34q-3 -15 -19.5 -26t-35.5 -11l-134 -290h-72h-93l-16 409l-190 -409h-73h-92l-13 290q-19 0 -30 11t-8 26q5 23 35 34l-11 293h124l20 -490l228 490h124v0l20 -490zM602 746q-5 -20 -21 -33t-35 -13t-29 13.5t-6 32.5t19.5 32
t34.5 13t30 -13t7 -32zM704 791q19 0 30 -13t7 -32t-20.5 -32.5t-35.5 -13.5q-20 0 -30 13.5t-6 32.5t20 32t35 13z" />
    <glyph glyph-name="wdieresis" unicode="&#x1e85;" horiz-adv-x="797" 
d="M572 111l166 364h114l-229 -474h-71h-69l-31 250l-138 -250h-68h-72l-29 474h114l12 -364l187 364h81zM490 546q-5 -20 -21 -33t-35 -13t-29 13.5t-6 32.5t19.5 32t34.5 13t30 -13t7 -32zM592 591q19 0 30 -13t7 -32t-20.5 -32.5t-35.5 -13.5q-20 0 -30 13.5t-6 32.5
t20 32t35 13z" />
    <glyph glyph-name="endash" unicode="&#x2013;" horiz-adv-x="380" 
d="M93 226l17 80h290l-17 -80h-290z" />
    <glyph glyph-name="emdash" unicode="&#x2014;" horiz-adv-x="458" 
d="M93 226l17 80h368l-17 -80h-368z" />
    <glyph glyph-name="quoteleft" unicode="&#x2018;" horiz-adv-x="247" 
d="M239 475h-94l140 180h56z" />
    <glyph glyph-name="quoteright" unicode="&#x2019;" horiz-adv-x="247" 
d="M145 475l102 180h94l-139 -180h-57z" />
    <glyph glyph-name="quotesinglbase" unicode="&#x201a;" horiz-adv-x="246" 
d="M30 -69l101 180h93l-138 -180h-56z" />
    <glyph glyph-name="quotedblleft" unicode="&#x201c;" horiz-adv-x="367" 
d="M265 475l139 180h57l-102 -180h-94zM284 655h57l-102 -180h-94z" />
    <glyph glyph-name="quotedblright" unicode="&#x201d;" horiz-adv-x="367" 
d="M341 655l-139 -180h-57l102 180h94zM265 475l102 180h94l-139 -180h-57z" />
    <glyph glyph-name="quotedblbase" unicode="&#x201e;" horiz-adv-x="367" 
d="M131 111h94l-138 -180h-57zM150 -69l101 180h94l-138 -180h-57z" />
    <glyph glyph-name="bullet" unicode="&#x2022;" horiz-adv-x="268" 
d="M222 416q37 0 57.5 -25.5t12.5 -62.5q-7 -37 -39 -63t-69 -26t-57.5 26t-12.5 63t39.5 62.5t68.5 25.5z" />
    <glyph glyph-name="perthousand" unicode="&#x2030;" horiz-adv-x="722" 
d="M599 545l26 -30l-465 -285l-25 30zM258 395q-54 0 -83.5 38t-18.5 92q11 53 57.5 91t100.5 38q53 0 82.5 -38t18.5 -91q-11 -54 -57.5 -92t-99.5 -38zM301 594q-29 0 -54 -20t-31 -49t10 -49.5t45 -20.5t53.5 20.5t30.5 49.5t-10 49t-44 20zM603 260q53 0 82.5 -38
t18.5 -91t-57 -91t-99 -38t-83 38t-19 91t57.5 91t99.5 38zM561 62q28 0 52.5 20t30.5 49t-10 49t-44 20q-29 0 -53.5 -20.5t-30.5 -48.5t10 -48.5t45 -20.5zM317 260q54 0 83.5 -38t18.5 -91t-57 -91t-100 -38q-53 0 -83 38t-19 91t57.5 91t99.5 38zM275 62q29 0 53.5 20
t30.5 49t-10 49t-45 20t-53.5 -20.5t-30.5 -48.5t10 -48.5t45 -20.5z" />
    <glyph glyph-name="fraction" unicode="&#x2044;" horiz-adv-x="435" 
d="M32 -58l433 713h64l-432 -713h-65z" />
    <glyph glyph-name="Euro" unicode="&#x20ac;" horiz-adv-x="723" 
d="M560 535q-58 0 -113.5 -30.5t-92.5 -80.5h149l-13 -60h-169q-7 -18 -12 -36q-1 -6 -4 -37h169l-12 -60h-149q16 -50 58.5 -80t100.5 -30q87 0 160 61l66 -85q-56 -46 -119 -70q-66 -26 -132 -26q-65 0 -122 26q-52 24 -89 70q-34 42 -48 104q-4 20 -4 30h-90l12 60h77
q1 6 3 18.5t3 18.5q6 24 10 36h-77l13 60h90q5 11 17 31q41 61 92 104q54 44 119 70q67 26 133 26t121 -26t89 -70l-102 -85q-48 61 -134 61z" />
    <glyph glyph-name="trademark" unicode="&#x2122;" horiz-adv-x="403" 
d="M380 514l59 111h51l-37 -174h-32l28 129l-71 -129h-25l-15 129l-28 -129h-32l37 174h51zM171 593l6 32h115l-6 -32h-41l-31 -142h-32l31 142h-42z" />
    <glyph glyph-name="minus" unicode="&#x2212;" horiz-adv-x="380" 
d="M93 226l17 80h290l-17 -80h-290z" />
    <glyph glyph-name="notequal" unicode="&#x2260;" horiz-adv-x="464" 
d="M500 385h-118l-44 -74h147l-20 -90h-183l-134 -220h-64l133 220h-126l20 90h162l44 74h-191l19 90h227l111 180h64l-110 -180h82z" />
    <glyph glyph-name="A.1" unicode="&#xe001;" horiz-adv-x="611" 
d="M686 -151q115 -45 313 62l41 -102q-126 -69 -235 -87q-35 -6 -69 -6q-62 0 -114 21q-75 30 -120 98q-41 64 -50 149v2l-14 154h-208l-70 -139h-125l150 295q-21 12 -16 32q3 14 18 24.5t33 12.5l149 290h150l25 -291q17 -2 26 -12.5t6 -23.5q-3 -18 -26 -30l24 -277
q15 -131 112 -172zM276 230h154l-22 257z" />
    <glyph glyph-name="B.1" unicode="&#xe002;" horiz-adv-x="805" 
d="M777 338q52 -57 34 -144q-17 -80 -86 -136.5t-149 -56.5h-256l62 291q-36 7 -30 36q7 29 45 36l36 171q-70 -3 -128 -52t-73 -118q-4 -20 -4.5 -38t3 -32t8 -25.5t10.5 -19.5t11 -14t8 -9l4 -3l-82 -104q-4 2 -11 7.5t-20 20t-23 32.5q-47 81 -24 185q12 58 47 113
q33 50 82 92q48 39 106 62q57 22 112 23h236q80 0 124.5 -57t27.5 -137q-13 -68 -70 -123zM553 535l-31 -147h116q31 0 57 21.5t32 51.5q7 31 -10 52.5t-48 21.5h-116zM601 121q31 0 57 21.5t33 51.5q6 31 -11 52.5t-48 21.5h-136l-31 -147h136z" />
    <glyph glyph-name="C.1" unicode="&#xe003;" horiz-adv-x="369" 
d="M694 -223q229 0 424 161l67 -85q-116 -94 -243 -144q-135 -52 -273 -52q-139 0 -250 52q-110 51 -183 144q-72 91 -98 214q-23 110 -4 225q-36 7 -30 36q7 29 45 36q29 114 100 225q78 123 189 213q110 92 244 144q136 53 272 53t251 -53q109 -51 182 -144l-103 -84
q-62 78 -153.5 119.5t-202.5 41.5q-144 0 -281.5 -68.5t-238 -187t-139.5 -260.5q15 -3 23 -12.5t5 -22.5q-5 -27 -43 -36q-21 -142 29 -260t159 -186.5t252 -68.5z" />
    <glyph glyph-name="D.1" unicode="&#xe004;" horiz-adv-x="836" 
d="M829 559q36 -45 48 -104q13 -59 -2 -127q-14 -69 -52 -127q-38 -59 -92 -104q-56 -46 -119 -70q-67 -26 -133 -26h-165l62 291q-36 7 -30 36q7 29 45 36l36 171h-27q-49 0 -100 -46q-52 -51 -68 -124q-4 -20 -4.5 -38t3 -32t8 -25.5t10.5 -19.5t11 -14t8 -9l4 -3
l-82 -104q-32 22 -54 60q-47 81 -24 185q25 120 117.5 205t196.5 85h192q65 0 122 -26q55 -26 89 -70zM504 121q86 0 159.5 60.5t91.5 146.5t-29.5 146.5t-133.5 60.5h-45l-36 -171q15 -3 23 -13t5 -23t-15 -23t-28 -13l-37 -171h45z" />
    <glyph glyph-name="E.1" unicode="&#xe005;" horiz-adv-x="509" 
d="M479 -50q41 -38 66 -59t58 -42t59 -25.5t58.5 -1.5t66.5 22.5t75 53.5l68 -84q-88 -75 -174 -102q-44 -13 -84 -13q-34 0 -69 9q-39 11 -81 37t-67.5 48t-68.5 62q-40 37 -61 55t-57 43.5t-69 36.5t-68 11h-60l56 267l6 24q-15 3 -23.5 13t-5.5 23t15.5 23t28.5 13
l62 291h404l-26 -120h-284l-31 -147h208l-26 -120h-208l-32 -153q65 -12 127 -52q50 -32 137 -113z" />
    <glyph glyph-name="F.1" unicode="&#xe006;" horiz-adv-x="794" 
d="M778 254h-250l-53 -253q-19 -88 -94 -151q-77 -63 -166 -63t-137 63q-50 61 -31 151q22 104 115 167l55 -94q-41 -28 -50 -73q-8 -39 13.5 -66.5t60.5 -27.5t72.5 27.5t41.5 66.5l62 291q-35 7 -29 36q7 29 44 36l36 171q-115 -2 -173 -51q-46 -39 -61 -108h-120
q26 120 113 192q100 85 267 87h404l-26 -120h-284l-34 -161h250z" />
    <glyph glyph-name="G.1" unicode="&#xe007;" horiz-adv-x="676" 
d="M1214 -116q65 -60 46 -152q-10 -45 -37 -81q-26 -38 -69 -67q-85 -58 -205 -58q-133 0 -226 45q-92 46 -141 131q-5 9 -6 11q-9 -4 -26 -11.5t-26 -11.5q-106 -46 -167 -69.5t-155 -47t-172 -23.5q-79 0 -138 25q-55 25 -84 67q-43 59 -41 148q0 19 2.5 37.5t4.5 29.5
l3 11l119 -8v-1q-20 -85 18 -136q38 -53 141 -53q66 0 147 20.5t138.5 43t155.5 65.5q14 6 44 18q-10 42 -11 81q-5 64 4 132q-6 -2 -8 -3q-67 -26 -132 -26t-123 26q-52 24 -89 70q-34 42 -48 104q-9 43 -3 91q-17 2 -26 12.5t-6 23.5t16.5 23.5t30.5 12.5q13 44 42 91
q41 61 92 104q54 44 119 70q69 26 134 26q64 0 121 -26q55 -26 89 -70l-103 -85q-47 61 -133 61q-77 0 -145 -49.5t-95 -122.5q14 -4 21 -13.5t4 -21.5q-5 -28 -40 -35q-4 -74 43 -123t124 -49q73 0 138 45l25 117h-145l19 90h265l-50 -234q-34 -160 -11 -273q210 80 364 80
q123 0 191 -62zM974 -354q71 0 115 25.5t51 60.5q7 38 -29.5 66t-112.5 28q-124 0 -297 -63q78 -117 273 -117z" />
    <glyph glyph-name="H.1" unicode="&#xe008;" horiz-adv-x="844" 
d="M850 364q15 -3 23 -13t5 -23t-15 -23t-28 -13l-62 -291h-120l60 282h-190l-60 -282q-19 -89 -95 -151q-75 -63 -165 -63q-89 0 -138 63q-49 61 -30 151q22 104 115 167l55 -94q-41 -28 -50 -73q-8 -39 13.5 -66.5t60.5 -27.5t72.5 27.5t41.5 66.5l62 291q-36 7 -30 36
q7 29 45 36l36 170q-50 -6 -87 -20q-95 -36 -133 -120l-111 28q38 83 105 136q51 44 123 69q77 28 141 28h108l-60 -282h190l60 282h120z" />
    <glyph glyph-name="J.1" unicode="&#xe009;" horiz-adv-x="708" 
d="M714 364q15 -3 23 -13t5 -23t-15 -23t-28 -13l-19 -89q-14 -63 -49 -117q-33 -52 -85 -96q-51 -42 -109 -64q-61 -24 -122 -24q-125 0 -195 73q-74 80 -48 203q17 78 85 137q69 58 149 58t124.5 -56t27.5 -136h-120q6 30 -11 51t-47 21q-29 0 -55 -22t-33 -53
q-16 -76 29 -116t119 -40q75 0 139 53t81 128l19 89q-36 7 -30 36q7 29 45 36l36 171h-103l26 120h223z" />
    <glyph glyph-name="K.1" unicode="&#xe010;" horiz-adv-x="600" 
d="M966 -125q18 12 34 25.5t23 21.5l7 7l86 -66q-4 -5 -18.5 -20t-47 -40.5t-71 -48t-93 -39t-108.5 -16.5q-75 0 -135 24q-53 19 -98 59q-70 64 -95 159l-104 381l-107 -100l-47 -221h-120l62 291q-36 7 -30 36q7 29 45 36l62 291h120l-53 -250l269 250h159l-253 -234
l117 -429q3 -14 9.5 -30t24 -43t41.5 -48t65.5 -36.5t92.5 -15.5q81 0 163 56z" />
    <glyph glyph-name="L.1" unicode="&#xe011;" horiz-adv-x="701" 
d="M691 -4q40 -29 62.5 -45t63.5 -43t69.5 -41t70.5 -33.5t76 -25.5t77 -11.5t82.5 2t83.5 21t89 40.5t91 65l67 -84q-139 -115 -282 -151q-63 -15 -127 -15q-63 0 -126 15q-53 13 -105.5 35t-106 54.5t-85.5 54t-86 60.5q-96 67 -117 79q-47 28 -72 28q-88 0 -136 -40
q-6 -5 -11 -10.5t-8 -10t-5 -8t-3 -6.5l-1 -2l1 2l-118 11q21 56 66 98q36 36 97 61q37 15 82 21l38 175q-35 7 -29 36q7 29 44 36l36 170q-42 -2 -88 -17q-93 -32 -132 -107q-33 -65 -10 -115q6 -12 14.5 -23t14.5 -16l6 -4l-82 -104l-5 4q-5 4 -11.5 10t-14.5 14.5
t-16.5 20.5t-15.5 25q-23 45 -22 94q0 59 34 129q71 135 229 186q24 8 85.5 14t110.5 8l49 2l-62 -291q15 -3 23 -13t5 -23t-15 -23t-28 -13l-39 -181q27 -9 62 -29t58 -35.5t72 -50.5z" />
    <glyph glyph-name="M.1" unicode="&#xe012;" horiz-adv-x="1099" 
d="M1074 -153q40 -24 100.5 -15.5t126.5 48.5l46 -100q-99 -59 -192 -68q-12 -2 -36 -2q-72 0 -124 31q-58 34 -83 103q-23 70 -4 157l103 485l-263 -485h-96l-57 485l-103 -485h-120l62 291q-35 7 -29 36q7 29 44 36l36 171h-8q-139 0 -200 -73q-33 -38 -43.5 -95t4.5 -121
l-120 -49q-21 84 -5 169q17 92 77 161q108 128 313 128h199l48 -416l226 416h191l-62 -291q15 -3 23 -13t5 -23t-15 -23t-28 -13l-62 -291q-25 -112 46 -154z" />
    <glyph glyph-name="O.1" unicode="&#xe013;" horiz-adv-x="1113" 
d="M1123 364q15 -3 23.5 -13t5.5 -23t-15.5 -23.5t-28.5 -12.5q-23 -82 -71 -160q-57 -90 -140 -161t-179 -109q-100 -40 -199 -40q-98 0 -184 40q-78 39 -133 109q-52 70 -69 161q-16 76 -3 160q-17 2 -25.5 12.5t-5.5 23.5q7 29 46 36q23 83 71 160q57 92 138 160
q83 71 179 109q99 40 201 40t182 -40q79 -37 133 -109q53 -70 71 -160q15 -77 3 -160zM544 -58q143 0 271 101t172 249q-33 9 -28 36q7 28 43 35q18 148 -66.5 249t-227.5 101q-144 0 -271.5 -101t-171.5 -249q15 -3 22.5 -12.5t4.5 -22.5q-5 -27 -42 -36
q-19 -148 65.5 -249t228.5 -101z" />
    <glyph glyph-name="P.1" unicode="&#xe014;" horiz-adv-x="837" 
d="M862 590q51 -65 31 -158q-19 -92 -98 -157t-172 -65h-114l-44 -209h-120l44 209l16 73q-15 3 -23.5 13t-6.5 23q3 13 15.5 23t29.5 13l38 179q-123 -4 -181 -72q-33 -38 -43 -95t5 -121l-121 -49q-19 84 -5 169q19 94 77 161q101 121 294 127v1h234q93 0 144 -65z
M649 330q43 0 79 30t45 72q9 43 -14.5 73t-66.5 30h-114l-43 -205h114z" />
    <glyph glyph-name="R.1" unicode="&#xe015;" horiz-adv-x="872" 
d="M1488 -44l97 -52q-5 -8 -15 -20t-38 -39.5t-61 -51.5q-62 -45 -139 -73q-91 -32 -191 -32q-172 0 -296 91q-103 73 -166 194q-61 114 -85 237h-50l-44 -209h-120l44 209l16 73q-15 3 -23 13t-6 23q6 29 44 36l38 179q-109 -10 -186 -79q-85 -79 -97 -214l-122 -14
q7 93 48 176q38 76 99 131q69 63 154 93q62 22 130 27l235 1q92 0 143 -65t31 -158q-19 -92 -98 -157q-50 -41 -107 -56q24 -96 67 -177q128 -234 377 -234q135 0 241 73q24 16 44 35t28 30zM613 535l-43 -205h115q42 0 78 30t45 72q9 43 -14.5 73t-65.5 30h-115z" />
    <glyph glyph-name="Q.1" unicode="&#xe016;" horiz-adv-x="769" 
d="M1054 -117q21 -32 17.5 -75.5t-29.5 -84.5q-33 -48 -87 -76q-58 -29 -125 -29q-80 0 -150 33q-41 19 -103 67q-42 31 -66 46.5t-70 30.5t-97 15h-50l42 195q-39 6 -71 22q-52 26 -86 70q-60 80 -48 195q-17 2 -26 12.5t-6 23.5t16.5 23.5t30.5 12.5q35 112 131 194
q52 44 116 71q67 26 131 26t118 -26q50 -24 86 -71q61 -81 49 -194q16 -2 25 -12.5t6 -23.5t-16 -23.5t-30 -12.5q-35 -112 -132 -195q-51 -44 -116 -70q-36 -15 -78 -22l-21 -98q51 -5 98 -24t71.5 -35t63.5 -46q40 -30 61.5 -43.5t60.5 -27t82 -13.5q75 0 107 46
q20 32 6 53q-20 28 -83 11l-9 95q62 18 110 7t71 -47zM252 293q-3 -61 27 -105.5t83 -59.5l42 200h100l-42 -200q59 15 108 60t72 105q-32 7 -27 35q7 27 42 35q2 74 -42.5 123t-116.5 49q-73 0 -138.5 -49.5t-92.5 -122.5q14 -4 21 -13.5t4 -21.5q-5 -28 -40 -35z" />
    <glyph glyph-name="S.1" unicode="&#xe017;" horiz-adv-x="662" 
d="M470 365q226 -110 177 -337q-32 -154 -145 -245q-104 -85 -236 -85q-130 0 -200 72q-78 76 -53 201q20 91 76 154q73 82 173 82q59 0 99 -32.5t47 -87.5q8 -53 -19.5 -106.5t-79.5 -87.5l-53 94q35 24 31 61q-1 7 -4 14.5t-15 16t-31 8.5q-26 0 -47 -14.5t-32.5 -37
t-16.5 -37.5t-8 -27q-15 -74 34 -113.5t125 -39.5q79 0 146 51.5t89 158.5q6 28 6 53t-4.5 44.5t-15.5 37t-22.5 30t-29.5 25.5t-33.5 22t-37.5 20q-31 -31 -55 -17q-20 14 -5 46q-48 23 -78 49q-59 54 -42 135q19 84 97 135q70 47 167 47h10q84 0 135 -48q49 -46 49 -121
l-122 -24q-1 34 -24 53.5t-64 19.5h-10q-42 0 -76.5 -15t-41.5 -47q-4 -21 14.5 -38t65.5 -41q13 14 28.5 19.5t26.5 -1.5q21 -13 5 -47z" />
    <glyph glyph-name="T.1" unicode="&#xe018;" horiz-adv-x="262" 
d="M268 364q15 -3 23 -13t5 -23t-15 -23t-28 -13l-62 -291h-120l62 291q-34 7 -29 36q6 27 44 36l81 383q-79 -19 -157 -19q-134 0 -219 74q-37 32 -60 78l115 63v1q11 -25 40 -49q58 -47 150 -47q51 0 99 10t76.5 20.5t79.5 32.5q54 23 88 35.5t95 25t123 12.5
q86 0 145 -25q50 -21 84 -59q41 -50 41 -96l-121 -32l-1 -1q1 1 -0.5 7t-8 17.5t-15.5 21.5q-44 47 -150 47q-50 0 -98 -10t-75 -20t-79 -32q-8 -3 -22 -9z" />
    <glyph glyph-name="U.1" unicode="&#xe019;" horiz-adv-x="861" 
d="M867 364q15 -3 23 -13t5 -23t-15 -23t-28 -13l-17 -76q-19 -88 -95 -152q-77 -63 -165 -63q-91 0 -139 63q-50 64 -31 152l17 76q-36 7 -30 36q7 29 45 36l36 171h-34q-71 0 -131.5 -50t-75.5 -120q-20 -92 39 -140l1 -1l-82 -104q-4 2 -11 7.5t-20 20t-23 32.5
q-47 81 -24 185q13 61 47 113q31 50 82 92q48 39 106 62t118 23h154l-62 -291q15 -3 23 -13t5 -23t-15 -23t-28 -13l-17 -76q-8 -39 13.5 -67t61.5 -28q39 0 73 28t42 67l17 76q-36 7 -30 36q7 29 45 36l62 291h120z" />
    <glyph glyph-name="V.1" unicode="&#xe020;" horiz-adv-x="612" 
d="M1481 696q-76 -6 -159 12q-64 12 -146 45q-7 1 -14 5q-114 45 -164 54q-75 13 -130 -12q-52 -24 -101 -83q-44 -54 -86 -130l-117 -229q17 -12 12 -30q-7 -30 -47 -37l-148 -290h-75h-75l-26 290q-17 2 -27.5 12.5t-7.5 24.5q5 21 30 31l-26 296h126l41 -486l249 486h2
q43 74 88 126q72 87 155 125q95 45 208 24q66 -12 184 -59q2 -1 6.5 -3t6.5 -3q147 -58 258 -50q131 11 210 113l92 -60q-67 -84 -152 -127q-76 -39 -167 -45z" />
    <glyph glyph-name="W.1" unicode="&#xe021;" horiz-adv-x="936" 
d="M1639 1079q46 -28 63 -78q16 -46 2.5 -100t-52.5 -100q-40 -49 -101 -76q-64 -27 -133 -23q-46 3 -84.5 16.5t-51 22.5t-19.5 16l96 94h-1q3 -3 10 -7.5t30.5 -12t51.5 -9.5q76 -5 114 43q33 40 20 78q-14 45 -89 45q-113 0 -240 -95q-156 -119 -262 -340l-89 -191
q26 -10 21 -34q-3 -15 -19 -26t-35 -11l-135 -290h-72h-93l-16 409l-190 -409h-73h-92l-12 290q-19 0 -30.5 11t-8.5 26q5 24 36 34l-11 293h124l19 -490l228 490h124v0l20 -490l178 383q74 157 153 261q82 103 174 173q88 66 174 96q78 30 152 30q70 0 119 -29z" />
    <glyph glyph-name="X.1" unicode="&#xe022;" horiz-adv-x="621" 
d="M798 -148q123 0 217 102l83 -70q-72 -78 -160 -117q-79 -35 -158 -35h-10q-46 0 -88 15t-73.5 38.5t-59 52t-46 57.5t-32 52.5t-19.5 38.5l-6 15l-90 214l-179 -214h-142l251 298q-15 12 -12 29q5 19 27 30l-107 297h138l74 -207l163 207h138l-233 -297q17 -12 13 -30
q-3 -18 -24 -29l66 -159q2 -6 6 -16.5t18 -40.5t29.5 -57t40 -60t50 -57t58.5 -40.5t67 -16.5z" />
    <glyph glyph-name="Y.1" unicode="&#xe023;" horiz-adv-x="796" 
d="M764 655h136l-226 -301q11 -11 8 -26q-3 -13 -15 -23t-28 -13l-62 -291h-120l62 291q-36 7 -30 36q3 14 21 26l-60 181h-39q-73 0 -117 -30q-39 -27 -49 -79q-10 -45 19 -71q7 -6 15 -10t13 -5l5 -2l-49 -118q-41 10 -75 38q-27 23 -44 63q-16 46 -4 105q23 109 112 171
q45 31 95 44l80 14h136l65 -201z" />
    <glyph glyph-name="Z.1" unicode="&#xe024;" horiz-adv-x="501" 
d="M1191 -151q52 -54 35 -132q-7 -36 -32 -72q-24 -34 -62 -60q-77 -51 -184 -51q-128 0 -240 82q-66 49 -167 168q-49 56 -75 83t-71 64.5t-90 53.5t-97 16h-173l29 140l186 193q-10 12 -9.5 27t11.5 26q10 11 25.5 12t28.5 -7l137 143h-295l26 120h430l-30 -140l-190 -198
q15 -28 -6 -49q-20 -21 -48 -7l-135 -140h38q129 0 241 -82q64 -48 167 -167q38 -44 59 -67t58 -57t65.5 -51t68.5 -30t82 -13q66 0 104 26q23 14 28 37q6 23 -12 40q-25 25 -77 25q-62 0 -118 -28l2 1l-59 90q8 7 27.5 18t69.5 25t104 14q98 0 148 -53z" />
    <glyph glyph-name="b.1" unicode="&#xe025;" horiz-adv-x="527" 
d="M57 825q-38 -40 -52 -104h-109q23 110 96 179t166 69q101 0 137 -85q33 -73 7 -189l-54 -253q18 9 28 13q48 20 92 20q47 0 85 -20q36 -18 60 -51q49 -69 29 -166q-20 -96 -99 -166q-40 -34 -82 -52q-45 -19 -93 -19q-47 0 -84 19q-8 4 -22 14l-7 -33h-110l147 694
q19 86 -1 129q-16 35 -56 35q-45 0 -78 -34zM345 365q-47 0 -88 -37.5t-52 -89.5t14 -89.5t72 -37.5t88.5 37t52.5 90t-14.5 90t-72.5 37z" />
    <glyph glyph-name="d.1" unicode="&#xe026;" horiz-adv-x="527" 
d="M756 859q-39 0 -70 -35q-38 -43 -57 -129l-147 -694h-110l7 33q-18 -10 -28 -14q-45 -19 -92 -19q-48 0 -85 19q-34 16 -60 52q-49 68 -29 166q20 95 99 166q39 33 82 51q48 20 93 20q46 0 84 -20q16 -8 22 -13l54 253q26 120 87 189q73 85 173 85q93 0 137.5 -69.5
t21.5 -178.5h-110q14 65 -8 104q-18 34 -64 34zM282 111q47 0 88 37.5t52 89.5t-14 89.5t-72 37.5t-88.5 -37t-52.5 -90t14.5 -90t72.5 -37z" />
    <glyph glyph-name="g.1" unicode="&#xe027;" 
d="M1509 -167q24 -30 31 -67q8 -39 -1 -78q-9 -42 -35 -82q-27 -41 -68 -71q-88 -65 -214 -65q-149 0 -328 61q-101 33 -307 127q-120 54 -177 77q-35 -57 -87 -101q-105 -85 -226 -85q-107 0 -163 63q-52 60 -35 143q15 71 76 119q58 49 145 49t185 -27l-45 -108
q-88 25 -163 25q-42 0 -64 -19q-18 -14 -25 -39q-6 -35 17 -62q28 -34 95 -34q76 0 141.5 53.5t81.5 129.5l41 192q-15 -9 -29 -14q-44 -19 -92 -19q-47 0 -84 19q-36 18 -60 52q-50 66 -29 166q20 97 99 166q37 32 82 51q48 20 92 20q47 0 84 -20q19 -9 23 -13l7 33h110
l-133 -630q77 -30 196 -86q100 -45 152.5 -67t138.5 -53.5t159.5 -45t144.5 -13.5q84 0 136 38q39 28 48 70q8 40 -16 69.5t-80 29.5q-68 0 -151 -27.5t-120.5 -47t-60.5 -33.5l-1 -1l-45 89q15 11 64 37t150 59.5t188 33.5q49 0 89 -17q38 -16 63 -47zM286 111
q47 0 88.5 37t52.5 90t-14.5 90t-72.5 37t-88 -37t-52 -90t14 -90t72 -37z" />
    <glyph glyph-name="j.1" unicode="&#xe028;" horiz-adv-x="199" 
d="M44 1l100 474h110l-100 -474q-50 -232 -195 -350q-121 -98 -282 -98q-122 0 -187 56q-65 57 -46 142q15 78 95 132q77 51 181 51q78 0 143 -34q11 -6 21.5 -12.5t16 -11t10.5 -8.5l5 -4l-88 -85h1l-3 3l-9 6t-14.5 9t-19.5 9.5t-24 8.5t-29 6.5t-33 2.5q-67 0 -109 -28
q-30 -20 -34 -45q-6 -30 21 -53q39 -35 126 -35q114 0 198 67q104 83 145 271zM238 655q22 0 35 -16t8 -39t-24.5 -39t-42.5 -16t-35.5 16t-7.5 39t24.5 39t42.5 16z" />
    <glyph glyph-name="k.1" unicode="&#xe029;" horiz-adv-x="537" 
d="M718 -149q71 -10 141.5 11.5t125.5 69.5l64 -76q-80 -69 -178 -98q-68 -20 -132 -20q-21 0 -59 4q-109 15 -192 83q-83 70 -118 176l-80 254l-98 -79l-37 -175h-110l139 654h110l-69 -325l179 145h157l-172 -140l83 -267q29 -91 93 -147.5t153 -69.5z" />
    <glyph glyph-name="m.1" unicode="&#xe030;" horiz-adv-x="730" 
d="M1988 -183q12 -47 1 -100h-110q12 56 -24 84q-49 40 -169 29t-283 -70q-313 -114 -519 -114q-155 0 -235 65q-58 45 -76 120q-18 72 3 170l61 286q7 32 -11.5 55t-50.5 23t-59.5 -23t-34.5 -55l-61 -286h-110l61 286q7 32 -11.5 55t-50.5 23t-59.5 -23t-34.5 -55
l-61 -286h-110l61 286q16 77 82.5 132.5t144.5 55.5q79 0 122 -56q66 56 144 56t121.5 -55.5t27.5 -132.5l-61 -286q-30 -141 43 -199t235 -44q172 13 421 104q196 71 338.5 79t213.5 -49q38 -32 51 -75z" />
    <glyph glyph-name="n.1" unicode="&#xe031;" horiz-adv-x="505" 
d="M808 -124q43 -52 30 -132q-13 -77 -71 -132q-29 -29 -69 -48q-43 -19 -84 -22q-22 -2 -31 -2q-115 0 -183 77q-51 57 -65 149q-13 88 9 193l65 305q8 41 -15 71t-64 30q-42 0 -78 -30t-44 -71l-56 -263h-110l56 263q18 87 92.5 149t162.5 62q87 0 135.5 -62t30.5 -149
l-65 -305q-18 -84 -8 -152t45 -109q50 -54 136 -47q44 4 69 30t31 58q6 34 -14.5 60t-70.5 26l24 110q94 0 142 -59z" />
    <glyph glyph-name="s.1" unicode="&#xe032;" horiz-adv-x="509" 
d="M441 267q34 -15 49 -43q19 -31 10 -77q-17 -79 -91 -118q-52 -28 -126 -28h-208l23 110h208q42 0 66 12q15 8 18 24q2 12 -13 19q-18 8 -92 19q-82 10 -118 26q-34 15 -49 42q-18 32 -9 76q16 68 76 108q59 38 141 38h181l-23 -110h-181q-76 0 -84 -36q-5 -24 97 -34
q4 -1 6 -1q82 -10 119 -27z" />
    <glyph glyph-name="u.1" unicode="&#xe033;" horiz-adv-x="511" 
d="M401 212l55 263h110l-55 -263q-19 -87 -94 -149t-162 -62t-135.5 62t-29.5 149l53 253q16 73 -2 119.5t-66 57.5q-41 10 -91 -10.5t-85 -70.5l-89 47q26 39 67 73q36 31 81 49q85 39 164 20q80 -20 117 -92q40 -77 14 -193l-53 -253q-9 -42 14 -71.5t64 -29.5
q42 0 78 29.5t45 71.5z" />
    <glyph glyph-name="v.1" unicode="&#xe034;" horiz-adv-x="529" 
d="M1089 859q39 -45 25 -107q-17 -78 -82 -133q-100 -82 -293 -82h-5l23 110q152 -2 214 50q27 23 33 55q4 16 -11 30t-41 18q-68 10 -151 -47q-113 -79 -203 -254l-260 -498h-146l-47 474h115l28 -364q221 439 226 448q-68 11 -188 42q-243 66 -386 75q-123 8 -176 -27
q-35 -24 -49 -89h-110q10 55 36 97q28 47 75 79q90 60 255 50q147 -9 405 -78q103 -27 202 -45q21 29 42 54q64 77 130 121q61 44 128 62q59 17 113 9q63 -11 98 -50z" />
    <glyph glyph-name="x.1" unicode="&#xe035;" horiz-adv-x="530" 
d="M453 475h132l-205 -237l105 -237h-132l-59 136l-134 -154l-68 -79q-91 -106 -203 -148q-65 -24 -123 -24q-38 0 -73 11q-64 19 -92.5 70.5t-14.5 120.5h110q-13 -64 50 -86q54 -17 128 11.5t138 104.5l237 274l-104 237h131l61 -136z" />
    <glyph glyph-name="y.1" unicode="&#xe036;" horiz-adv-x="529" 
d="M584 475l-247 -474q-43 -76 -96 -149q-60 -80 -121 -132q-60 -53 -122 -76q-45 -18 -87 -18q-17 0 -33 3q-65 12 -91 63q-25 44 -7 105q19 59 70 101q55 46 126 46h108l-24 -110h-108q-49 0 -64 -47q-10 -42 32 -49q56 -11 137 58q83 72 163 205h-29l-47 474h115l33 -339
l176 339h116z" />
    <glyph glyph-name="o.1" unicode="&#xe037;" horiz-adv-x="553" 
d="M416 656q98 0 152 -70q55 -67 34 -167q-22 -99 -105 -168q-86 -69 -182 -69q-98 0 -153 69t-33 168q20 99 104 167q86 70 183 70zM339 292q52 0 97 37t56 90t-18 90t-81 37q-53 0 -98.5 -37.5t-55.5 -89.5q-11 -52 18 -89.5t82 -37.5zM533 107l-22 -107h-469l22 107h469z
" />
    <glyph glyph-name="N.1" horiz-adv-x="1077" 
d="M2380 856q-57 -80 -149 -116q-76 -30 -179 -27q-149 6 -414 92q-206 66 -345 -23q-138 -88 -189 -323l-20 -95q15 -3 23.5 -13t5.5 -23t-15.5 -23t-28.5 -13l-62 -291h-189l-76 494l-105 -494q-13 -53 -46 -108q-37 -56 -85 -95q-48 -41 -109 -65q-63 -23 -123 -23
q-125 0 -194 72q-76 80 -48 204q15 78 85 137q71 58 149 58q80 0 124 -56.5t27 -136.5h-120q6 30 -10.5 51.5t-46.5 21.5q-29 0 -55.5 -22t-32.5 -53q-16 -76 28.5 -116t118.5 -40q75 0 139.5 53t80.5 127l60 282q-35 7 -29 36q7 29 44 36l62 291h190l75 -494l63 298
q30 144 95 250q67 109 163 169q195 125 455 42q251 -82 385 -87q144 -5 202 77z" />
    </font>
</defs>
</svg>
