<svg xmlns="http://www.w3.org/2000/svg" width="124.506" height="66.023" viewBox="0 0 124.506 66.023">
    <defs>
        <clipPath id="wb08q3yeca">
            <path data-name="Path 107" d="M0-367.9h124.506v-66.02H0z" transform="translate(0 433.92)" style="fill:#004b3c"/>
        </clipPath>
    </defs>
    <g data-name="Group 374">
        <g data-name="Group 64">
            <path data-name="Path 104" d="M-26.475-5.524h-3.651V-2.5h3.651v.991h-3.651v3.456h-1.1v-8.462h4.751z" transform="translate(98.719 24.564)" style="fill:#004b3c"/>
        </g>
        <g data-name="Group 67" style="clip-path:url(#wb08q3yeca)">
            <g data-name="Group 65">
                <path data-name="Path 105" d="M-24.319-49.312a4.087 4.087 0 0 1-3.161-1.312 4.451 4.451 0 0 1-1.2-3.113 4.451 4.451 0 0 1 1.2-3.113 4.088 4.088 0 0 1 3.161-1.312 4.087 4.087 0 0 1 3.161 1.312 4.451 4.451 0 0 1 1.2 3.113 4.643 4.643 0 0 1-.514 2.158A4.149 4.149 0 0 1-22-49.946a4.287 4.287 0 0 1-2.321.635m0-.991A2.922 2.922 0 0 0-22-51.325a3.555 3.555 0 0 0 .889-2.412A3.556 3.556 0 0 0-22-56.148a2.923 2.923 0 0 0-2.315-1.021 2.944 2.944 0 0 0-2.327 1.015 3.55 3.55 0 0 0-.889 2.418 3.556 3.556 0 0 0 .889 2.412 2.936 2.936 0 0 0 2.323 1.024" transform="translate(101.87 76.016)" style="fill:#004b3c"/>
            </g>
            <g data-name="Group 66">
                <path data-name="Path 106" d="M0-31.864v-5.718h1.1v5.718a2 2 0 0 0 .508 1.378 1.685 1.685 0 0 0 1.318.568 1.731 1.731 0 0 0 1.348-.568 1.983 1.983 0 0 0 .514-1.378v-5.718h1.1v5.718a2.9 2.9 0 0 1-.816 2.085 2.835 2.835 0 0 1-2.146.852 2.79 2.79 0 0 1-2.11-.852A2.9 2.9 0 0 1 0-31.864" transform="translate(82.895 55.631)" style="fill:#004b3c"/>
            </g>
        </g>
        <g data-name="Group 68">
            <path data-name="Path 108" d="M-6.8 0-3 6.54V0h1.1v8.462h-1.216l-3.808-6.54v6.54h-1.1V0z" transform="translate(98.245 18.049)" style="fill:#004b3c"/>
        </g>
        <g data-name="Group 70" style="clip-path:url(#wb08q3yeca)">
            <g data-name="Group 69">
                <path data-name="Path 109" d="M0 0h2.611a4.751 4.751 0 0 1 1.862.357 3.883 3.883 0 0 1 1.39.955A4.364 4.364 0 0 1 6.7 2.666a4.285 4.285 0 0 1 0 3.134 4.366 4.366 0 0 1-.84 1.354 3.883 3.883 0 0 1-1.39.955 4.746 4.746 0 0 1-1.862.357H0zm2.611.991H1.1v6.48h1.511a3.05 3.05 0 0 0 2.37-.971 3.263 3.263 0 0 0 .882-2.273 3.263 3.263 0 0 0-.882-2.273 3.051 3.051 0 0 0-2.37-.963" style="fill:#004b3c" transform="translate(97.874 18.049)"/>
            </g>
        </g>
        <g data-name="Group 71">
            <path data-name="Path 111" d="M-26.474-5.524h-3.651v2.768h3.651v.991h-3.651V.956h3.651v.991h-4.751v-8.462h4.751z" transform="translate(137.162 24.564)" style="fill:#004b3c"/>
        </g>
        <g data-name="Group 74" style="clip-path:url(#wb08q3yeca)">
            <g data-name="Group 72">
                <path data-name="Path 112" d="M0-47.156v-8.462h2.974a2.772 2.772 0 0 1 2.1.84 2.839 2.839 0 0 1 .8 2.037 2.872 2.872 0 0 1-.508 1.668A2.707 2.707 0 0 1 4-50.033l1.777 2.877H4.521l-1.68-2.7H1.1v2.7zm2.974-3.7a1.682 1.682 0 0 0 1.305-.544 1.919 1.919 0 0 0 .5-1.342 1.913 1.913 0 0 0-.5-1.336 1.679 1.679 0 0 0-1.3-.55H1.1v3.772z" transform="translate(112.151 73.667)" style="fill:#004b3c"/>
            </g>
            <g data-name="Group 73">
                <path data-name="Path 113" d="M0-33.211h1.1a1.858 1.858 0 0 0 .52 1.384 1.891 1.891 0 0 0 1.39.514 1.819 1.819 0 0 0 1.215-.393 1.3 1.3 0 0 0 .465-1.046 1.431 1.431 0 0 0-.133-.635 1.106 1.106 0 0 0-.405-.447 2.808 2.808 0 0 0-.49-.26q-.218-.084-.58-.193-.58-.181-.889-.3a6.3 6.3 0 0 1-.731-.338 2.2 2.2 0 0 1-.635-.465 2.189 2.189 0 0 1-.369-.635A2.374 2.374 0 0 1 .3-36.91a2.037 2.037 0 0 1 .743-1.632 2.829 2.829 0 0 1 1.892-.629 2.638 2.638 0 0 1 1.9.713 2.517 2.517 0 0 1 .765 1.874H4.5a1.665 1.665 0 0 0-.423-1.16 1.457 1.457 0 0 0-1.112-.435 1.751 1.751 0 0 0-1.13.344 1.125 1.125 0 0 0-.429.925 1.089 1.089 0 0 0 .4.925 3.716 3.716 0 0 0 1.167.538q.52.169.81.278a7 7 0 0 1 .731.339 2.664 2.664 0 0 1 .677.472 2.274 2.274 0 0 1 .417.629 2 2 0 0 1 .182.858 2.314 2.314 0 0 1-.8 1.88 3.109 3.109 0 0 1-2.061.671 2.93 2.93 0 0 1-2.092-.786A2.752 2.752 0 0 1 0-33.211" transform="translate(118.715 57.026)" style="fill:#004b3c"/>
            </g>
        </g>
        <g data-name="Group 75">
            <path data-name="Path 115" d="M-26.475-5.524h-3.651V-2.5h3.651v.991h-3.651v3.456h-1.1v-8.462h4.751z" transform="translate(98.719 35.225)" style="fill:#004b3c"/>
        </g>
        <g data-name="Group 79" style="clip-path:url(#wb08q3yeca)">
            <g data-name="Group 76">
                <path data-name="Path 116" d="M-24.319-49.312a4.087 4.087 0 0 1-3.161-1.312 4.451 4.451 0 0 1-1.2-3.113 4.451 4.451 0 0 1 1.2-3.113 4.088 4.088 0 0 1 3.161-1.312 4.087 4.087 0 0 1 3.161 1.312 4.451 4.451 0 0 1 1.2 3.113 4.643 4.643 0 0 1-.514 2.158A4.149 4.149 0 0 1-22-49.946a4.287 4.287 0 0 1-2.321.635m0-.991A2.922 2.922 0 0 0-22-51.325a3.555 3.555 0 0 0 .889-2.412A3.556 3.556 0 0 0-22-56.148a2.923 2.923 0 0 0-2.315-1.021 2.944 2.944 0 0 0-2.327 1.015 3.55 3.55 0 0 0-.889 2.418 3.556 3.556 0 0 0 .889 2.412 2.936 2.936 0 0 0 2.323 1.024" transform="translate(101.87 86.678)" style="fill:#004b3c"/>
            </g>
            <g data-name="Group 77">
                <path data-name="Path 117" d="M0-47.156v-8.462h2.974a2.772 2.772 0 0 1 2.1.84 2.839 2.839 0 0 1 .8 2.037 2.872 2.872 0 0 1-.508 1.668A2.707 2.707 0 0 1 4-50.033l1.777 2.877H4.521l-1.68-2.7H1.1v2.7zm2.974-3.7a1.682 1.682 0 0 0 1.305-.544 1.919 1.919 0 0 0 .5-1.342 1.913 1.913 0 0 0-.5-1.336 1.679 1.679 0 0 0-1.3-.55H1.1v3.772z" transform="translate(82.98 84.328)" style="fill:#004b3c"/>
            </g>
            <g data-name="Group 78">
                <path data-name="Path 118" d="M0-31.864v-5.718h1.1v5.718a2 2 0 0 0 .508 1.378 1.685 1.685 0 0 0 1.318.568 1.731 1.731 0 0 0 1.348-.568 1.983 1.983 0 0 0 .514-1.378v-5.718h1.1v5.718a2.9 2.9 0 0 1-.816 2.085 2.836 2.836 0 0 1-2.146.852 2.791 2.791 0 0 1-2.11-.852A2.9 2.9 0 0 1 0-31.864" transform="translate(89.858 66.292)" style="fill:#004b3c"/>
            </g>
        </g>
        <g data-name="Group 80">
            <path data-name="Path 120" d="M-44.191 0v8.462H-45.3v-5.9l-2.43 5.9h-.846l-2.442-5.9v5.9h-1.1V0h1.064l2.9 6.77 2.9-6.77z" transform="translate(149.306 28.71)" style="fill:#004b3c"/>
        </g>
        <g data-name="Group 86" style="clip-path:url(#wb08q3yeca)">
            <g data-name="Group 81">
                <path data-name="Path 121" d="M-29.1-31.055v-.991h4.074v.991h-.907a3.858 3.858 0 0 1-1.294 2.394 4.116 4.116 0 0 1-2.756.882 4.527 4.527 0 0 1-1.85-.369 3.854 3.854 0 0 1-1.372-.985 4.452 4.452 0 0 1-.828-1.408 4.794 4.794 0 0 1-.29-1.662 4.451 4.451 0 0 1 1.2-3.113 4.059 4.059 0 0 1 3.137-1.312 3.9 3.9 0 0 1 2.394.737 2.708 2.708 0 0 1 1.148 1.813h-1.112a1.892 1.892 0 0 0-.84-1.112 2.8 2.8 0 0 0-1.59-.447 2.939 2.939 0 0 0-2.333 1.015A3.564 3.564 0 0 0-33.2-32.2a3.551 3.551 0 0 0 .882 2.43 3.111 3.111 0 0 0 2.466 1 2.733 2.733 0 0 0 1.9-.641 2.593 2.593 0 0 0 .846-1.644z" transform="translate(101.371 75.807)" style="fill:#004b3c"/>
            </g>
            <g data-name="Group 82">
                <path data-name="Path 122" d="M0-47.156v-8.462h2.974a2.772 2.772 0 0 1 2.1.84 2.839 2.839 0 0 1 .8 2.037 2.872 2.872 0 0 1-.508 1.668A2.707 2.707 0 0 1 4-50.033l1.777 2.877H4.521l-1.68-2.7H1.1v2.7zm2.974-3.7a1.682 1.682 0 0 0 1.305-.544 1.919 1.919 0 0 0 .5-1.342 1.913 1.913 0 0 0-.5-1.336 1.679 1.679 0 0 0-1.3-.55H1.1v3.772z" transform="translate(77.237 94.99)" style="fill:#004b3c"/>
            </g>
            <g data-name="Group 83">
                <path data-name="Path 123" d="M-24.319-49.312a4.086 4.086 0 0 1-3.161-1.312 4.45 4.45 0 0 1-1.2-3.113 4.451 4.451 0 0 1 1.2-3.113 4.087 4.087 0 0 1 3.161-1.312 4.087 4.087 0 0 1 3.161 1.312 4.451 4.451 0 0 1 1.2 3.113 4.643 4.643 0 0 1-.514 2.158A4.149 4.149 0 0 1-22-49.946a4.287 4.287 0 0 1-2.321.635m0-.991A2.922 2.922 0 0 0-22-51.325a3.555 3.555 0 0 0 .889-2.412A3.556 3.556 0 0 0-22-56.148a2.923 2.923 0 0 0-2.315-1.021 2.944 2.944 0 0 0-2.327 1.015 3.55 3.55 0 0 0-.889 2.418 3.556 3.556 0 0 0 .889 2.412 2.936 2.936 0 0 0 2.323 1.024" transform="translate(112.436 97.34)" style="fill:#004b3c"/>
            </g>
            <g data-name="Group 84">
                <path data-name="Path 124" d="M0-31.864v-5.718h1.1v5.718a2 2 0 0 0 .508 1.378 1.685 1.685 0 0 0 1.318.568 1.731 1.731 0 0 0 1.348-.568 1.983 1.983 0 0 0 .514-1.378v-5.718h1.1v5.718a2.9 2.9 0 0 1-.816 2.085 2.835 2.835 0 0 1-2.146.852 2.791 2.791 0 0 1-2.11-.852A2.9 2.9 0 0 1 0-31.864" transform="translate(93.461 76.954)" style="fill:#004b3c"/>
            </g>
            <g data-name="Group 85">
                <path data-name="Path 125" d="M0-47.156v-8.462h2.974a2.772 2.772 0 0 1 2.1.84 2.839 2.839 0 0 1 .8 2.037 2.854 2.854 0 0 1-.8 2.049 2.771 2.771 0 0 1-2.1.84H1.1v2.7zm2.974-3.7a1.682 1.682 0 0 0 1.305-.544 1.919 1.919 0 0 0 .5-1.342 1.913 1.913 0 0 0-.5-1.336 1.679 1.679 0 0 0-1.3-.55H1.1v3.772z" transform="translate(100.787 94.99)" style="fill:#004b3c"/>
            </g>
        </g>
        <g data-name="Group 87">
            <path data-name="Path 127" d="m-159.3 0-28.589 16.506v33.011l28.589 16.506 28.589-16.506V16.506zm-26.373 48.238V17.785L-159.3 2.558l26.373 15.226v30.454L-159.3 63.464z" transform="translate(187.893)" style="fill:#004b3c"/>
        </g>
        <path data-name="Path 128" d="M132.238-297.488h-2.2V-332.7h2.2z" transform="translate(-110.251 348.101)" style="fill:#004b3c"/>
        <path data-name="Path 129" d="M161.166-268.188h-2.2V-303.4h2.2z" transform="translate(-134.778 323.259)" style="fill:#004b3c"/>
        <path data-name="Path 130" d="M144.5-330.5h19.807v-2.2H144.5z" transform="translate(-122.515 348.101)" style="fill:#004b3c"/>
        <path data-name="Path 131" d="M173.429-301.571h13.2v-2.2h-13.2z" transform="translate(-147.041 323.575)" style="fill:#004b3c"/>
        <path data-name="Path 132" d="M144.5-229.251h17.606v-2.2H144.5z" transform="translate(-122.515 262.258)" style="fill:#004b3c"/>
        <path data-name="Path 133" d="M173.429-200.323h11v-2.2h-11z" transform="translate(-147.041 237.732)" style="fill:#004b3c"/>
    </g>
</svg>
