<svg data-name="Group 505" xmlns="http://www.w3.org/2000/svg" width="359.963" height="71.236" viewBox="0 0 359.963 71.236">
    <path data-name="Path 801" d="M.018 35.635c0-5.6.015-11.2-.018-16.8a1.68 1.68 0 0 1 .986-1.689Q15.625 8.762 30.219.3a1.6 1.6 0 0 1 1.85-.005q14.649 8.488 29.336 16.907a1.513 1.513 0 0 1 .87 1.516q-.029 16.922 0 33.844a1.6 1.6 0 0 1-.928 1.6c-9.827 5.631-19.634 11.3-29.469 16.917a1.754 1.754 0 0 1-1.47-.009C20.539 65.43 10.698 59.742.834 54.092a1.505 1.505 0 0 1-.832-1.534c.026-5.641.016-11.283.016-16.923zm2.516.006c0 5.08.026 10.16-.023 15.239a1.848 1.848 0 0 0 1.076 1.88q13.34 7.627 26.632 15.338a1.579 1.579 0 0 0 1.838.014q13.344-7.74 26.735-15.4a1.762 1.762 0 0 0 1.008-1.79q-.045-15.24 0-30.479a1.84 1.84 0 0 0-1.07-1.872q-13.293-7.592-26.528-15.28a1.779 1.779 0 0 0-2.062-.028Q16.852 10.981 3.51 18.607a1.747 1.747 0 0 0-1 1.793c.044 5.081.024 10.161.024 15.241z"/>
    <path data-name="Path 802" d="M192.53 54.4h-4.573c-.022-.463-.062-.922-.063-1.382-.005-4.078 0-8.158-.008-12.236a14.19 14.19 0 0 0-.1-1.673c-.317-2.6-1.783-4.185-4.01-4.35a5.029 5.029 0 0 0-5.6 3.688 8.915 8.915 0 0 0-.271 2.251c-.025 4.119-.012 8.238-.012 12.356v1.35h-4.772v-1.339c0-4.319.019-8.638-.008-12.956-.017-2.7-1.121-4.43-3.165-5.114a5.069 5.069 0 0 0-6.74 4.364c-.236 2.9-.13 5.83-.156 8.748-.018 2.07 0 4.141 0 6.29h-4.681V30.706h4.595l.166 1.94a8.542 8.542 0 0 1 6.969-2.439 8.3 8.3 0 0 1 6.336 3.535c2.7-3.541 6.241-4.181 10.169-3.148a8.08 8.08 0 0 1 6 7.823c.118 5.156.029 10.316.023 15.474a3.058 3.058 0 0 1-.099.509z"/>
    <path data-name="Path 803" d="M125.098 33.551c-1.652 0-3.134.031-4.612-.027a1.175 1.175 0 0 1-.867-.558 10.134 10.134 0 0 0-10.844-5.835 10.911 10.911 0 0 0-9.265 8.562c-1.389 5.816 1.2 11.6 6.2 13.807s11.615.416 13.873-4.922a1.286 1.286 0 0 1 .927-.645c1.475-.069 2.956-.03 4.558-.03a13.78 13.78 0 0 1-5.349 8.079c-8.9 6.565-23.377 2.562-25.31-10.493-.969-6.552.932-12.163 6.411-16.161 7.558-5.515 20.186-3.432 24 7.286.094.258.158.526.278.937z"/>
    <path data-name="Path 804" d="m215.168 33.008.107-2.236h4.792v17.312c0 1.984 0 1.984 2 2.115v4.109c-3.96.461-5.06.178-6.591-2.373a9.439 9.439 0 0 1-6.3 3.094 11.283 11.283 0 0 1-12.175-8.975c-.963-4.364-.4-8.517 2.519-12.118 3.672-4.529 11.4-5.1 15.246-1.142a1.984 1.984 0 0 0 .402.214zm-13.73 9.906c.072.542.123 1.3.281 2.04a6.814 6.814 0 0 0 6.4 5.669 6.678 6.678 0 0 0 6.894-5.321 9.848 9.848 0 0 0-.3-6.232 6.648 6.648 0 0 0-9.762-3.475c-2.599 1.64-3.384 4.216-3.513 7.319z"/>
    <path data-name="Path 805" d="m306.306 45.654 4.617 1.057a10.023 10.023 0 0 1-6.109 7.382c-7.694 3.084-17.29-1-16.631-12.33.28-4.8 2.413-8.627 6.982-10.652a11 11 0 0 1 15.752 9.117c.129 1.259.146 2.529.224 3.944h-17.878c-.468 2.735 1.63 5.536 4.546 6.246 4.082.995 7.208-.704 8.497-4.764zm-.3-5.609c-.122-3.151-2.832-5.5-6.27-5.492-3.289.011-6.25 2.524-6.4 5.492z"/>
    <path data-name="Path 806" d="M265.619 44.251h-17.886a6.033 6.033 0 0 0 5.056 6.278c3.84.781 6.61-.846 8.116-4.862l4.46 1.026c-.411 3.6-3.7 7-7.633 7.982-8.748 2.193-15.678-3.921-14.966-13.206.42-5.488 3.938-9.875 8.819-11 7.479-1.722 13.685 3.081 14.028 10.867.041.907.006 1.818.006 2.915zm-5.019-4.194a6.028 6.028 0 0 0-6.611-5.482c-3.354.268-6.2 2.833-6.019 5.482z"/>
    <path data-name="Path 807" d="M339.687 20.87h4.666v11.776c.419-.289.643-.431.853-.591a9.127 9.127 0 0 1 14.65 5.4 4.715 4.715 0 0 1 .107.949q.009 7.677 0 15.355c0 .192-.026.384-.045.644h-4.6V52.96c0-4.159.016-8.317-.007-12.476-.014-2.8-1.25-4.711-3.461-5.469a5.616 5.616 0 0 0-7.479 5.385c-.037 4.2-.008 8.4-.009 12.6v1.391h-4.675z"/>
    <path data-name="Path 808" d="m331.655 44.865 4.463 1.043c-.053 4.71-5.24 9.018-10.97 9.2a11.937 11.937 0 0 1-12.289-10.932c-.668-7.2 3.7-13.036 10.408-13.92 6.269-.825 11.737 2.945 12.893 9.031l-4.524 1.056c-.132-.176-.2-.232-.221-.3-.808-3.39-2.618-5.053-5.867-5.382a6.99 6.99 0 0 0-7.047 4.215 8.575 8.575 0 0 0 .578 8.478 6.775 6.775 0 0 0 7.154 3.133 5.88 5.88 0 0 0 5.229-5.183 2.566 2.566 0 0 1 .193-.439z"/>
    <path data-name="Path 809" d="M267.897 27.533v-4.457h22.3v4.438h-8.61v26.869h-4.889V27.534z"/>
    <path data-name="Path 810" d="M137.205 50.172h4.478v4.2h-13.679v-4.1h4.33V25.141h-4.343v-4.235h9.214z"/>
    <path data-name="Path 811" d="M233.436 34.97c0 4.481-.024 8.758.014 13.034.013 1.4.778 2.087 2.225 2.129 1.359.04 2.72.009 4.184.009v4.493a52.407 52.407 0 0 1-6.858-.63c-2.714-.6-4.266-2.83-4.333-5.782-.089-3.878-.042-7.759-.053-11.639v-1.56h-4.176v-4.3h4.379v-6.417h4.571v6.365h6.911v4.3z"/>
    <path data-name="Path 812" d="M147.625 34.989h-4.24v-4.19h8.892v23.6h-4.652z"/>
    <path data-name="Path 813" d="M91.236 16.264a4.342 4.342 0 0 1 4.7 4.452 4.455 4.455 0 0 1-4.7 4.629 4.565 4.565 0 0 1-4.706-4.554 4.469 4.469 0 0 1 4.706-4.527zm2.025 4.448a1.925 1.925 0 0 0-2.039-2 1.9 1.9 0 0 0-1.943 2.089 1.847 1.847 0 0 0 2.1 2.025 1.833 1.833 0 0 0 1.881-2.114z"/>
    <path data-name="Path 814" d="M146.827 24.256a2.931 2.931 0 0 1 3.315-2.951 3.008 3.008 0 0 1 2.974 3.215 3.1 3.1 0 0 1-3.3 3.058 3.035 3.035 0 0 1-2.989-3.322z"/>
    <path data-name="Path 815" d="M28.584 21.955v9.23h10.522v2.147H28.591v1.782h7.982v2.011h-7.99v18.508H26.33v-22.2h-1.871v19.751h-2.31V15.832h23.424v2.136H24.505v13.127h1.755V19.904h16.817v2.053z"/>
</svg>
