<svg data-name="Group 511" xmlns="http://www.w3.org/2000/svg" width="247.358" height="95.654" viewBox="0 0 247.358 95.654">
    <path data-name="Path 844" d="M60.71 24.27v-3.051H29.388v50.137h3.058v-26.62h19.622v-2.9H32.446V24.27z"/>
    <path data-name="Path 845" d="M57.382 29.536v-2.889H34.955v47.948h2.97v-24.71h10.809v-2.768h-10.81V29.536z"/>
    <path data-name="Path 846" d="m41.419 3.833 38.1 22v43.991l-38.1 22-38.1-22V25.83l38.1-22m0-3.833-1.66.958-38.1 22L0 23.914V71.74l1.66.958 38.1 22 1.66.958 1.66-.958 38.1-22 1.66-.958V23.914l-1.66-.958-38.1-22L41.419 0z"/>
    <path data-name="Path 847" d="M95.718 51.512h11.033v4.153H99.84v3.967h6.911v4.153H99.84v9.979h-4.122z"/>
    <path data-name="Path 848" d="M106.804 25.942V21.77H95.719v22.357h11.085v-4.173H99.86V34.1h6.944v-4.172H99.86v-3.986z"/>
    <path data-name="Path 849" d="M136.363 25.942V21.77h-11.085v22.357h11.085v-4.173h-6.944V34.1h6.944v-4.172h-6.944v-3.986z"/>
    <path data-name="Path 850" d="M111.566 21.77v22.357h11.085v-4.173h-6.944V21.77"/>
    <path data-name="Path 851" d="M197.236 39.954V21.77h-4.141v22.357h4.141"/>
    <path data-name="Path 852" d="M190.382 21.77h-12.6v4.172h4.2v18.185h4.2V25.942h4.2z"/>
    <path data-name="Path 853" d="M132.707 62.7a11.576 11.576 0 1 1-23.151-.093 11.576 11.576 0 1 1 23.151.093zm-18.874 0a7.3 7.3 0 1 0 14.6-.031 7.443 7.443 0 0 0-7.314-7.655c-4.001.003-7.286 3.103-7.286 7.686z"/>
    <path data-name="Path 854" d="M136.095 51.512h4.246v15.062c0 2.417 1.177 3.657 3.223 3.657a3.281 3.281 0 0 0 2.82-1.332 5.462 5.462 0 0 0 .527-2.913V51.512h4.246v14.163c0 2.448-.124 4.308-1.8 6.26a7.038 7.038 0 0 1-5.7 2.355 7.219 7.219 0 0 1-5.516-2.107c-1.8-1.859-2.045-3.874-2.045-6.756z"/>
    <path data-name="Path 855" d="M156.521 51.512h4.06l9.546 14.628V51.512h4.246v22.252h-4.091l-9.514-14.6v14.6h-4.246z"/>
    <path data-name="Path 856" d="M179.445 51.512h5.361c3.905 0 6.663.465 9.081 2.82a11.9 11.9 0 0 1 3.223 8.585c0 3.812-1.426 6.973-3.812 8.833-2.541 1.983-5.175 2.014-8.43 2.014h-5.424zm4.246 4.153v13.946h2.231c2.324 0 3.967-.31 5.269-1.7a7.511 7.511 0 0 0 1.642-5.082c0-4.649-2.572-7.159-7.407-7.159z"/>
    <path data-name="Path 857" d="M201.109 51.512h12.149v4.153h-7.9v3.967h7.9v4.153h-7.9v5.826h7.9v4.153h-12.149z"/>
    <path data-name="Path 858" d="M217.587 51.512h5.175c2.82 0 4.8.341 6.291 1.8a6.454 6.454 0 0 1 1.8 4.649 5.875 5.875 0 0 1-4.277 5.919l5.269 9.886h-4.618l-4.989-9.422h-.4v9.422h-4.251zm4.246 8.709h1.952c1.922 0 2.913-.775 2.913-2.293 0-1.457-1.022-2.262-3.037-2.262h-1.828z"/>
    <path data-name="Path 859" d="M236.945 67.349c1.022 1.921 2.2 2.913 3.688 2.913a2.362 2.362 0 0 0 2.572-2.076 3.486 3.486 0 0 0-1.426-2.479c-4.618-3.874-7.345-5.981-7.345-9.142a5.848 5.848 0 0 1 6.106-5.61c2.82 0 4.68 1.519 6.446 3.564l-3.157 2.788c-1.054-1.488-2.139-2.294-3.347-2.294-1.116 0-1.89.651-1.89 1.55 0 .868.651 1.425 1.3 1.983 4.153 3.657 7.469 5.392 7.469 9.452 0 3.719-2.789 6.322-6.818 6.322-3.254 0-5.517-1.581-7.159-4.835z"/>
    <path data-name="Path 860" d="M155.889 21.77h4.087l-8.059 22.357h-4.087l-8.108-22.357h4.582l5.581 16.671 5.575-16.671z"/>
    <path data-name="Path 861" d="M177.998 44.127h-3.979l-1.387-4.184h-8.368l-1.385 4.184h-4.564l8.1-22.357h4.075l8.107 22.357zm-6.548-7.7-3-8.975-3 8.975z"/>
    <path data-name="Path 862" d="M219.753 21.77v22.357h-4.884l-8.69-15.49v15.49h-4.375V21.77h4.8l8.778 15.49V21.77h4.376z"/>
    <path data-name="Path 863" d="M246.644 32.867h-.813v-.038h-10.257v3.748h6.083a6.854 6.854 0 0 1-6.054 3.66 7.295 7.295 0 0 1-.059-14.578 6.828 6.828 0 0 1 5.785 3.174h.219l2.753-2.753a11.124 11.124 0 1 0-8.669 18.046 10.956 10.956 0 0 0 11.015-11.1c.002-.055-.002-.107-.003-.159z"/>
</svg>
