<svg data-name="Group 528" xmlns="http://www.w3.org/2000/svg" width="309.935" height="57.445" viewBox="0 0 309.935 57.445">
    <g data-name="Group 518">
        <g data-name="Group 512">
            <path data-name="Path 864" d="M10.291 31.66h29.65v-8.106h-29.65V12.237h33.123V3.875H0v48.238h43.929v-8.359H10.291z"/>
            <path data-name="Path 865" d="M128.738 43.669V3.394h-10.393v48.719h42.625v-8.444z"/>
        </g>
        <g data-name="Group 513">
            <path data-name="Rectangle 171" d="M169.484 28.298h7.156v7.156h-7.156z"/>
            <path data-name="Rectangle 172" d="M169.484 13.985h7.156v7.156h-7.156z"/>
        </g>
        <g data-name="Group 514">
            <path data-name="Rectangle 173" d="M169.484 28.298h7.156v7.156h-7.156z"/>
            <path data-name="Rectangle 174" d="M169.484 13.985h7.156v7.156h-7.156z"/>
        </g>
        <g data-name="Group 515">
            <path data-name="Rectangle 175" d="M169.484 28.298h7.156v7.156h-7.156z"/>
            <path data-name="Rectangle 176" d="M169.484 13.985h7.156v7.156h-7.156z"/>
        </g>
        <g data-name="Group 516">
            <path data-name="Path 866" d="M106.988 23.089a23.092 23.092 0 0 0-44.913-7.553 23.1 23.1 0 0 1 35.2 26.374 23.06 23.06 0 0 0 9.713-18.821z"/>
            <path data-name="Path 867" d="M60.811 23.089a23.047 23.047 0 0 1 1.265-7.553 23.091 23.091 0 1 0 35.2 26.374A23.091 23.091 0 0 1 60.81 23.089z"/>
        </g>
        <path data-name="Path 868" d="M110.04 55.936H96.193L81.117 34.788h13.847z"/>
        <g data-name="Group 517">
            <path data-name="Path 869" d="M220.581 52.342V28.996h-24.118v23.346h-4.937V2.97h4.937v21.371h24.122V2.97h4.937v49.372z"/>
            <path data-name="Path 870" d="M237.966 52.342V2.97h28.141v4.726h-23.209v16.785h15.658v4.655h-15.658v18.48h24.757v4.726z"/>
            <path data-name="Path 871" d="M276.574 52.342V2.97H294.7q8.04 0 11.638 3.914a13.7 13.7 0 0 1 3.6 9.628 13.81 13.81 0 0 1-2.962 8.781q-2.963 3.774-9.24 4.761l10.932 22.288h-5.429l-10.58-22.076h-11.148v22.076zm4.937-26.52h13.328q5.359 0 7.865-2.644a9.043 9.043 0 0 0 2.5-6.454 9.688 9.688 0 0 0-2.433-6.453q-2.433-2.857-7.935-2.857h-13.33z"/>
        </g>
    </g>
</svg>
