<svg data-name="Group 531" xmlns="http://www.w3.org/2000/svg" width="203.636" height="95.654" viewBox="0 0 203.636 95.654">
    <path data-name="Path 844" d="M60.706 24.269v-3.052H29.388v50.136h3.057V44.737h19.622v-2.9H32.446V24.271z"/>
    <path data-name="Path 845" d="M57.382 29.536v-2.889H34.955v47.947h2.972V49.886h10.809v-2.768H37.927V29.537z"/>
    <path data-name="Path 846" d="m41.415 3.833 38.1 22v43.99l-38.1 22-38.1-22v-43.99l38.1-22m0-3.833-1.66.958-38.1 22-1.66.958v47.827l1.66.958 38.1 22 1.66.958 1.66-.958 38.1-22 1.66-.958V23.916l-1.66-.958-38.1-22z"/>
    <g data-name="Group 529">
        <path data-name="Path 955" d="M93.809 33.083h5.3v1.792h-3.4v3.668h2.684v1.789h-2.684v5.279h-1.9z"/>
        <path data-name="Path 956" d="M102.381 42.763v-6.835a3.042 3.042 0 0 1 6.084 0v6.835a3.042 3.042 0 0 1-6.084 0zm4.187 0v-6.835a1.148 1.148 0 1 0-2.29 0v6.835a1.148 1.148 0 1 0 2.29 0z"/>
        <path data-name="Path 957" d="M112.275 42.853v-9.77h1.9v9.77a1.059 1.059 0 1 0 2.111 0v-9.77h1.86v9.77a2.774 2.774 0 0 1-2.916 2.934 2.8 2.8 0 0 1-2.955-2.934z"/>
        <path data-name="Path 958" d="M122.116 33.083h2.094l2.416 8.409v-8.409h1.861v12.525h-2l-2.505-8.017v8.017h-1.861z"/>
        <path data-name="Path 959" d="M132.529 33.083h2.971a2.8 2.8 0 0 1 2.971 2.988v6.548a2.8 2.8 0 0 1-2.971 2.989h-2.971zm2.881 10.736a1.063 1.063 0 0 0 1.163-1.163v-6.621a1.063 1.063 0 0 0-1.163-1.163h-.984v8.947z"/>
        <path data-name="Path 960" d="M142.335 33.083h5.385v1.792h-3.489v3.489h2.773v1.789h-2.773v3.668h3.489v1.789h-5.385z"/>
        <path data-name="Path 961" d="m155.541 45.608-1.378-5.172h-.984v5.172h-1.9V33.083h2.971a2.8 2.8 0 0 1 2.971 2.988v1.378a2.847 2.847 0 0 1-1.306 2.558l1.592 5.6zm-2.362-6.961h.984a1.063 1.063 0 0 0 1.163-1.163v-1.449a1.063 1.063 0 0 0-1.163-1.163h-.984z"/>
        <path data-name="Path 962" d="M160.604 42.709v-.447l1.825-.2v.465c0 .912.465 1.467 1.217 1.467a1.123 1.123 0 0 0 1.217-1.2c0-.787-.322-1.359-1.735-2.7-1.879-1.772-2.415-2.738-2.415-4.115a2.887 2.887 0 1 1 5.761.018v.322l-1.825.2v-.357c0-.966-.376-1.467-1.038-1.467s-1.038.412-1.038 1.2.394 1.36 1.736 2.7c1.825 1.825 2.415 2.737 2.415 4.115a3.06 3.06 0 1 1-6.119 0z"/>
        <path data-name="Path 963" d="M93.649 59.259v-6.835a3.042 3.042 0 0 1 6.083 0v6.835a3.042 3.042 0 0 1-6.083 0zm4.187 0v-6.835a1.148 1.148 0 1 0-2.29 0v6.835a1.148 1.148 0 1 0 2.29 0z"/>
        <path data-name="Path 964" d="M103.615 49.578h5.3v1.789h-3.4v3.668h2.683v1.789h-2.683v5.279h-1.9z"/>
        <path data-name="Path 965" d="M117.285 49.578h6.048v1.789h-2.071v10.736h-1.9V51.367h-2.076z"/>
        <path data-name="Path 966" d="M126.768 62.103V49.578h1.9v5.279h2.255v-5.279h1.9v12.525h-1.9v-5.458h-2.255v5.458z"/>
        <path data-name="Path 967" d="M136.86 49.578h5.385v1.789h-3.489v3.489h2.773v1.788h-2.773v3.668h3.489v1.79h-5.385z"/>
        <path data-name="Path 968" d="M151.353 49.578h5.3v1.789h-3.4v3.668h2.683v1.789h-2.683v5.279h-1.9z"/>
        <path data-name="Path 969" d="M160.014 59.348v-9.77h1.9v9.77a1.059 1.059 0 1 0 2.111 0v-9.77h1.861v9.77a2.775 2.775 0 0 1-2.916 2.934 2.8 2.8 0 0 1-2.956-2.934z"/>
        <path data-name="Path 970" d="M169.246 49.578h6.048v1.789h-2.076v10.736h-1.9V51.367h-2.076z"/>
        <path data-name="Path 971" d="M178.658 59.348v-9.77h1.9v9.77a1.059 1.059 0 1 0 2.111 0v-9.77h1.861v9.77a2.775 2.775 0 0 1-2.917 2.934 2.8 2.8 0 0 1-2.955-2.934z"/>
        <path data-name="Path 972" d="m192.758 62.103-1.378-5.171h-.984v5.171h-1.9V49.578h2.971a2.8 2.8 0 0 1 2.971 2.988v1.378a2.847 2.847 0 0 1-1.306 2.559l1.592 5.6zm-2.362-6.961h.984a1.063 1.063 0 0 0 1.163-1.163v-1.45a1.063 1.063 0 0 0-1.163-1.163h-.984z"/>
        <path data-name="Path 973" d="M198.251 49.578h5.385v1.789h-3.488v3.489h2.772v1.788h-2.772v3.668h3.488v1.79h-5.385z"/>
    </g>
    <g data-name="Group 530">
        <path data-name="Rectangle 177" d="M93.649 23.83h8.755v1.754h-8.755z"/>
        <path data-name="Rectangle 178" d="M93.649 69.601h8.755v1.754h-8.755z"/>
    </g>
</svg>
