<svg data-name="Group 519" xmlns="http://www.w3.org/2000/svg" width="178.508" height="81.218" viewBox="0 0 178.508 81.218">
    <path data-name="Path 872" d="M155.2 80.69h7.073V67.641c0-3.37 1.375-5.981 4.652-5.981s4.509 2.565 4.509 5.935v13.1h7.073V67.451c0-6.171-1.852-11.629-8.688-11.629a8.647 8.647 0 0 0-7.546 3.846v-13.29H155.2zm-26.818-12.2c0 7.213 5.268 12.674 13.624 12.674 2.514 0 5.791-.523 9.967-3.61l-3.227-5.171a9.751 9.751 0 0 1-6.411 2.421c-4.129 0-6.88-2.611-6.88-6.314s2.751-6.314 6.88-6.314a9.751 9.751 0 0 1 6.411 2.421l3.227-5.175c-4.176-3.084-7.453-3.606-9.967-3.606-8.355 0-13.624 5.458-13.624 12.675m-7.073 4.033a10.293 10.293 0 0 1-6.741 2.9c-4.509 0-7.309-2.232-7.453-5.268h19.6c0-9.684-6.457-14.336-13.2-14.336-7.833 0-13.43 5.648-13.43 12.818 0 6.93 4.935 12.578 13.953 12.578a15.281 15.281 0 0 0 11.346-4.8zm-7.879-10.963c2.374 0 5.555 1.186 6.027 4.319h-12.2c.853-3.277 3.893-4.319 6.171-4.319m-37.118-14.1v6.171h9.355V80.69h7.259V53.637h9.448v-6.171zm-10.112-1.083v13.291a9.746 9.746 0 0 0-7.782-3.846c-7.6 0-11.726 5.744-11.726 12.578 0 7.12 4.463 12.818 11.869 12.818a8.717 8.717 0 0 0 7.639-4.083v3.554h7.073V46.378zM53.765 68.45c0-3.753 2.185-6.884 6.074-6.884 3.846 0 6.551 2.751 6.551 7.263 0 4.413-2.894 6.644-6.361 6.644-3.889 0-6.264-3.134-6.264-7.023m-9.543 12.24v-5.837H29.506v-7.55h12.771V61.47H29.506v-8.162h14.716v-5.842H22.15V80.69z"/>
    <path data-name="Path 873" d="M139.74 25.063a10.285 10.285 0 0 1-6.74 2.9c-4.509 0-7.31-2.231-7.449-5.268h19.6c0-9.684-6.454-14.336-13.194-14.336-7.833 0-13.434 5.648-13.434 12.818 0 6.93 4.935 12.578 13.957 12.578a15.273 15.273 0 0 0 11.342-4.8zM131.861 14.1c2.374 0 5.555 1.185 6.031 4.319h-12.2c.856-3.277 3.893-4.319 6.171-4.319m-22.737-5.222h-6.883v24.35h7.073V19.984c0-3.227 2.657-4.792 5.315-4.792a14.718 14.718 0 0 1 2.991.33V8.545a7.452 7.452 0 0 0-1.8-.19 6.923 6.923 0 0 0-6.694 5.838zm-12.058 0H90v13.055c0 3.37-1.378 5.981-4.652 5.981s-4.509-2.564-4.509-5.935V8.878h-7.076v13.244c0 6.171 1.852 11.629 8.685 11.629A8.659 8.659 0 0 0 90 29.9v3.324h7.07zM61.991 2.9h-5.458l-1.092 5.978h-4.176v5.555h3.653V25.16c0 7.073 4.18 8.592 8.449 8.592 5.744 0 8.119-3.656 8.119-7.263a7.167 7.167 0 0 0-.569-2.9h-5.6a7.658 7.658 0 0 1 .333 2.091c0 1.139-.476 2.278-1.852 2.278s-1.8-1.092-1.8-2.138V14.433h6.74V8.878h-6.74zM48.084 8.878h-7.073v13.055c0 3.37-1.375 5.981-4.653 5.981s-4.509-2.564-4.509-5.935V8.878h-7.073v13.244c0 6.171 1.852 11.629 8.688 11.629a8.659 8.659 0 0 0 7.547-3.851v3.324h7.073zM7.356 33.228V19.841h12.768V14H7.356V5.841h14.716V0H0v33.228z"/>
</svg>
