<svg data-name="Group 525" xmlns="http://www.w3.org/2000/svg" width="322.551" height="56.342" viewBox="0 0 322.551 56.342">
    <g data-name="Group 523">
        <path data-name="Path 900" d="M13.018.413a13.578 13.578 0 0 1 8.678 3.1l-2.651 3.96a10.129 10.129 0 0 0-5.855-2.17c-5.854 0-7.852 4.132-7.852 7.611a7.17 7.17 0 0 0 7.439 7.473 10.675 10.675 0 0 0 4.442-.9v-3.439h-6.1v-4.271h11.093v9.816a13.75 13.75 0 0 1-9.4 3.685A12.45 12.45 0 0 1 0 12.845C0 6.13 4.959.413 13.018.413z"/>
        <path data-name="Path 901" d="M25.174 24.9V0h5.13v24.9z"/>
        <path data-name="Path 902" d="M42.355 6.853c5.165 0 9.711 3.72 9.711 9.2 0 5.51-4.546 9.229-9.711 9.229-5.131 0-9.712-3.685-9.712-9.229.004-5.515 4.584-9.2 9.712-9.2zm0 14.017a4.8 4.8 0 1 0-4.718-4.821 4.748 4.748 0 0 0 4.718 4.821z"/>
        <path data-name="Path 903" d="M65.019 25.277a6.326 6.326 0 0 1-5.544-2.962V24.9h-5.132V0h5.131v9.643a7.074 7.074 0 0 1 5.648-2.79c5.51 0 8.506 4.167 8.506 9.126 0 5.166-3.237 9.298-8.609 9.298zm-.93-14.257c-2.789 0-4.753 2-4.753 5.269a4.43 4.43 0 0 0 4.615 4.821c2.824 0 4.546-2.273 4.546-5.1 0-2.717-1.585-4.99-4.409-4.99z"/>
        <path data-name="Path 904" d="M94.221 7.232v17.666H89.09v-2.587a6.326 6.326 0 0 1-5.544 2.962c-5.372 0-8.609-4.132-8.609-9.3 0-4.959 3-9.126 8.507-9.126a7.073 7.073 0 0 1 5.647 2.79V7.232zm-9.608 13.879a4.429 4.429 0 0 0 4.615-4.821c0-3.271-1.963-5.269-4.753-5.269-2.824 0-4.408 2.273-4.408 4.994 0 2.823 1.722 5.096 4.546 5.096z"/>
        <path data-name="Path 905" d="M97.669 24.9V0h5.131v24.9z"/>
        <path data-name="Path 906" d="M130.518 20.663v4.236h-16.255V.792h5.338v19.871z"/>
        <path data-name="Path 907" d="M149.183 21.799a11.081 11.081 0 0 1-8.231 3.478c-6.543 0-10.124-4.1-10.124-9.126 0-5.2 4.063-9.3 9.745-9.3 4.89 0 9.574 3.375 9.574 10.4h-14.222c.1 2.2 2.135 3.823 5.407 3.823a7.47 7.47 0 0 0 4.89-2.1zm-13.155-7.645h8.85c-.344-2.273-2.652-3.134-4.373-3.134a4.381 4.381 0 0 0-4.477 3.134z"/>
        <path data-name="Path 908" d="M170.363 7.232v17.666h-5.131v-2.587a6.326 6.326 0 0 1-5.544 2.962c-5.372 0-8.609-4.132-8.609-9.3 0-4.959 3-9.126 8.506-9.126a7.074 7.074 0 0 1 5.648 2.79V7.232zm-9.608 13.879a4.429 4.429 0 0 0 4.615-4.821c0-3.271-1.963-5.269-4.753-5.269-2.823 0-4.408 2.273-4.408 4.994 0 2.823 1.722 5.096 4.546 5.096z"/>
        <path data-name="Path 909" d="M191.989 0v24.9h-5.131v-2.585a6.326 6.326 0 0 1-5.544 2.962c-5.373 0-8.61-4.132-8.61-9.3 0-4.959 3-9.126 8.506-9.126a7.075 7.075 0 0 1 5.648 2.79V0zm-9.608 21.11a4.429 4.429 0 0 0 4.614-4.821c0-3.271-1.963-5.269-4.752-5.269-2.824 0-4.408 2.273-4.408 4.994 0 2.823 1.722 5.096 4.546 5.096z"/>
        <path data-name="Path 910" d="M212.653 21.799a11.08 11.08 0 0 1-8.231 3.478c-6.543 0-10.124-4.1-10.124-9.126 0-5.2 4.063-9.3 9.746-9.3 4.89 0 9.574 3.375 9.574 10.4h-14.223c.1 2.2 2.135 3.823 5.406 3.823a7.47 7.47 0 0 0 4.89-2.1zm-13.155-7.645h8.85c-.344-2.273-2.652-3.134-4.373-3.134a4.381 4.381 0 0 0-4.477 3.134z"/>
        <path data-name="Path 911" d="M220.574 11.089a5.023 5.023 0 0 1 4.856-4.236 5.419 5.419 0 0 1 1.308.138v5.062a10.681 10.681 0 0 0-2.17-.241c-1.929 0-3.857 1.137-3.857 3.479v9.608h-5.131V7.232h4.994z"/>
        <path data-name="Path 912" d="M230.697 18.665a3.594 3.594 0 0 0 3.72 2.652c1.136 0 2.307-.448 2.307-1.343 0-.585-.344-1-1.308-1.343l-3.1-1.308c-4.2-1.481-4.408-4.271-4.408-5.063 0-3.547 3.134-5.407 6.922-5.407a6.66 6.66 0 0 1 6.371 3.72l-3.96 1.825a2.469 2.469 0 0 0-2.514-1.687c-.965 0-1.963.551-1.963 1.447 0 .757.757 1.171 1.653 1.515l2.652 1.033c4.167 1.206 4.545 3.926 4.545 5.1 0 3.616-3.34 5.476-7.232 5.476-2.617 0-6.2-.826-7.4-4.511z"/>
    </g>
    <g data-name="Group 524">
        <path data-name="Path 913" d="M25.182 55.963h-5.338V31.857h5.338z"/>
        <path data-name="Path 914" d="M29.039 38.298h5.131v2.41a6.277 6.277 0 0 1 5.476-2.789c4.959 0 6.3 3.96 6.3 8.437v9.608h-5.13v-9.505c0-2.445-.9-4.3-3.271-4.3s-3.375 1.894-3.375 4.339v9.471h-5.131z"/>
        <path data-name="Path 915" d="M49.116 38.298h5.131v2.41a6.278 6.278 0 0 1 5.476-2.789c4.959 0 6.3 3.96 6.3 8.437v9.608h-5.129v-9.505c0-2.445-.9-4.3-3.271-4.3s-3.375 1.894-3.375 4.339v9.471h-5.132z"/>
        <path data-name="Path 916" d="M77.803 37.919c5.165 0 9.711 3.719 9.711 9.195 0 5.51-4.546 9.229-9.711 9.229-5.131 0-9.712-3.685-9.712-9.229 0-5.51 4.58-9.195 9.712-9.195zm0 14.015a4.8 4.8 0 1 0-4.718-4.821 4.748 4.748 0 0 0 4.718 4.821z"/>
        <path data-name="Path 917" d="M99.671 55.963h-5.1l-7.4-17.666h5.613l4.3 11.915 4.339-11.915h5.614z"/>
        <path data-name="Path 918" d="M126.119 38.298v17.666h-5.131v-2.583a6.326 6.326 0 0 1-5.544 2.962c-5.372 0-8.609-4.132-8.609-9.3 0-4.96 3-9.126 8.507-9.126a7.074 7.074 0 0 1 5.647 2.789v-2.41zm-9.608 13.878a4.429 4.429 0 0 0 4.615-4.821c0-3.271-1.963-5.27-4.753-5.27-2.824 0-4.408 2.273-4.408 4.994 0 2.823 1.722 5.096 4.546 5.096z"/>
        <path data-name="Path 919" d="M135.831 38.297h4.89v4.029h-4.89v8.265c0 .757.31 1.55 1.308 1.55s1.343-.827 1.343-1.653a5.577 5.577 0 0 0-.241-1.516h4.064a5.19 5.19 0 0 1 .413 2.1c0 2.617-1.721 5.269-5.889 5.269-3.1 0-6.13-1.1-6.13-6.233v-7.782h-2.652v-4.029h3.03l.792-4.34h3.96z"/>
        <path data-name="Path 920" d="M146.92 30.686a3.036 3.036 0 0 1 3.274 2.925 3.005 3.005 0 0 1-3.271 2.858 2.955 2.955 0 0 1-3.238-2.858 2.986 2.986 0 0 1 3.235-2.925zm-2.617 25.278V38.297h5.131v17.667z"/>
        <path data-name="Path 921" d="M161.484 37.919c5.166 0 9.712 3.719 9.712 9.195 0 5.51-4.546 9.229-9.712 9.229-5.131 0-9.712-3.685-9.712-9.229.003-5.51 4.583-9.195 9.712-9.195zm0 14.015a4.8 4.8 0 1 0-4.718-4.821 4.748 4.748 0 0 0 4.718 4.821z"/>
        <path data-name="Path 922" d="M173.471 38.298h5.131v2.41a6.277 6.277 0 0 1 5.476-2.789c4.959 0 6.3 3.96 6.3 8.437v9.608h-5.131v-9.505c0-2.445-.9-4.3-3.271-4.3s-3.375 1.894-3.375 4.339v9.471h-5.13z"/>
        <path data-name="Path 923" d="M204.43 48.322a4.242 4.242 0 0 0 4.374 3.3c1.894 0 3.616-.689 3.616-2.48 0-.93-.517-1.79-2.789-2.583l-2.618-.895c-5.338-1.826-6.13-5.166-6.13-7.164 0-4.339 3.409-7.025 8.127-7.025a8.216 8.216 0 0 1 8.059 5.269l-4.339 2.17a3.822 3.822 0 0 0-3.72-2.721c-1.652 0-2.927.654-2.927 2.238 0 .62.172 1.757 2.583 2.583l2.548.9c5.407 1.687 6.371 4.925 6.406 7.128 0 5.063-4.408 7.3-8.644 7.3-4.615 0-8.816-2.617-9.3-7.094z"/>
        <path data-name="Path 924" d="M236.663 55.963h-5.132v-2.411a6.279 6.279 0 0 1-5.476 2.789c-4.958 0-6.3-3.96-6.3-8.437v-9.607h5.131v9.5c0 2.445.9 4.3 3.272 4.3s3.374-1.894 3.374-4.339v-9.47h5.132z"/>
        <path data-name="Path 925" d="M256.19 46.493v9.471h-5.1v-9.505c0-2.411-.689-4.3-2.962-4.3-2.238 0-2.927 1.963-2.927 4.339v9.471h-5.132V38.298h5.14v2.41a5.888 5.888 0 0 1 10.124.173 5.848 5.848 0 0 1 5.579-2.962c4.959 0 6.3 3.96 6.3 8.437v9.608h-5.133v-9.505c0-2.411-.689-4.3-2.962-4.3-2.239-.005-2.927 1.958-2.927 4.334z"/>
        <path data-name="Path 926" d="M286.495 46.493v9.471h-5.1v-9.505c0-2.411-.689-4.3-2.962-4.3-2.239 0-2.927 1.963-2.927 4.339v9.471h-5.131V38.298h5.131v2.41a5.888 5.888 0 0 1 10.125.173 5.848 5.848 0 0 1 5.578-2.962c4.959 0 6.3 3.96 6.3 8.437v9.608h-5.131v-9.505c0-2.411-.689-4.3-2.962-4.3-2.233-.005-2.921 1.958-2.921 4.334z"/>
        <path data-name="Path 927" d="M303.369 30.686a3.036 3.036 0 0 1 3.271 2.928 3.005 3.005 0 0 1-3.271 2.858 2.955 2.955 0 0 1-3.237-2.858 2.986 2.986 0 0 1 3.237-2.928zm-2.617 25.278V38.297h5.131v17.667z"/>
        <path data-name="Path 928" d="M315.663 38.297h4.89v4.029h-4.89v8.265c0 .757.31 1.55 1.309 1.55s1.343-.827 1.343-1.653a5.578 5.578 0 0 0-.241-1.516h4.064a5.19 5.19 0 0 1 .413 2.1c0 2.617-1.722 5.269-5.889 5.269-3.1 0-6.13-1.1-6.13-6.233v-7.782h-2.652v-4.029h3.031l.791-4.34h3.961z"/>
    </g>
</svg>
