<svg data-name="Group 526" xmlns="http://www.w3.org/2000/svg" width="318.086" height="48.682" viewBox="0 0 318.086 48.682">
    <path data-name="Path 929" d="m21.073.003 21.04 12.108v24.464l-21.03 12.11L-.001 36.556V12.142zm19.285 35.523V13.163L21.073 2.07 1.726 13.211v22.274l19.353 11.134z"/>
    <path data-name="Path 930" d="M74.117 13.426h4.1v21.808h-4.061V26.08H63.013v9.163h-4.182V13.457h4.143v8.86h11.144z"/>
    <path data-name="Path 931" d="M187.02 26.085v9.154h-4.067V13.456h4.038v8.854h11.146v-8.838h4.218v21.76h-4.156v-9.148z"/>
    <path data-name="Path 932" d="M298.738 13.437h4v8.859h11.209v-8.845h4.138v21.776h-4.066v-9.131h-11.205v9.162h-4.075z"/>
    <path data-name="Path 933" d="M263.792 13.448v3.475h-11.753v5.453h10.381v3.44h-10.352v5.909h12.13v3.518h-16.322v-21.8z"/>
    <path data-name="Path 934" d="M88.553 31.734h12.185v3.524H84.405v-21.8h15.928v3.4H88.557v5.561h10.4v3.392h-10.4z"/>
    <path data-name="Path 935" d="M130.577 35.179a3.3 3.3 0 0 1-.564.136c-1.194.007-2.388 0-3.689 0l-2.26-5.06h-10.819l-2.178 4.995h-4.27l9.818-21.754h4.148zm-15.895-8.284h8l-4.034-9.286z"/>
    <path data-name="Path 936" d="m289.066 29.438 2.574 2.365c-2.181 3.19-7.723 4.632-12.408 3.282a11 11 0 0 1-7.98-9.993c-.166-5.232 2.522-9.466 7.095-11.172 4.859-1.814 10.492-.615 13.319 2.911l-2.648 2.451a7.935 7.935 0 0 0-6.937-2.492 7.414 7.414 0 0 0-4.964 2.623 7.93 7.93 0 0 0 .341 10.232c2.967 3.086 7.228 3.036 11.608-.207z"/>
    <path data-name="Path 937" d="M169.602 16.881v18.364h-4.055V16.958h-7.18v-3.42h18.373v3.343z"/>
    <path data-name="Path 938" d="M233.634 35.266h-4.16v-18.33h-7.159v-3.407h18.4v3.341h-7.081z"/>
    <path data-name="Path 939" d="M140.75 31.727h11.364v3.536h-15.465V13.471h4.1z"/>
    <path data-name="Path 940" d="M17.811 22.844h-1.293V36.21h-1.481V10.94H30.9v1.443H16.559v8.835l1.179.076v-7.681h11.457v1.538H19.37v6.107h7.048v1.5h-7.013l-.127 1.108h5.538v1.484h-5.484v12.571h-1.521z"/>
</svg>
