<svg data-name="Group 527" xmlns="http://www.w3.org/2000/svg" width="251.402" height="37.548" viewBox="0 0 251.402 37.548">
    <path data-name="Path 941" d="M6.689 3.702H0v26.314h6.689z"/>
    <path data-name="Path 942" d="M18.418 13.06V9.752h-6.5v20.263h6.5V19.302a4.773 4.773 0 0 1 1.3-2.968 3.8 3.8 0 0 1 2.837-1.13 3.384 3.384 0 0 1 2.612 1.035 3.948 3.948 0 0 1 .962 2.8v10.975h6.464v-12.78a7.851 7.851 0 0 0-2.03-5.657 7.086 7.086 0 0 0-5.375-2.124 7.491 7.491 0 0 0-6.77 3.607z"/>
    <path data-name="Path 943" d="M38.531 11.144a5.547 5.547 0 0 0-2.292 4.736 5.084 5.084 0 0 0 1.069 3.311 6.425 6.425 0 0 0 2.612 1.936 27.265 27.265 0 0 0 3.082 1.032 14.473 14.473 0 0 1 2.615.941q1.072.525 1.072 1.314 0 1.392-2.219 1.392a12.371 12.371 0 0 1-7.18-2.521l-2.067 4.135a14.489 14.489 0 0 0 9.1 2.857 10.293 10.293 0 0 0 6.165-1.708 5.536 5.536 0 0 0 2.37-4.756 5.1 5.1 0 0 0-1.093-3.308 6.376 6.376 0 0 0-2.649-1.973 26.824 26.824 0 0 0-3.139-1.035 16.03 16.03 0 0 1-2.669-.921q-1.089-.507-1.089-1.26 0-1.388 1.993-1.388a14.108 14.108 0 0 1 6.39 2.03l2.219-4.212a16.11 16.11 0 0 0-8.347-2.292 9.755 9.755 0 0 0-5.943 1.69z"/>
    <path data-name="Path 944" d="M63.191 12.421V9.752h-6.5V37.31h6.5v-10a7.332 7.332 0 0 0 6.2 2.931 8.739 8.739 0 0 0 6.8-2.817 10.657 10.657 0 0 0 2.558-7.446 10.827 10.827 0 0 0-2.612-7.574 8.872 8.872 0 0 0-6.9-2.877 7.279 7.279 0 0 0-6.046 2.894zm1.241 11.2a5.733 5.733 0 0 1-1.241-3.836 5.622 5.622 0 0 1 1.257-3.8 4.056 4.056 0 0 1 3.217-1.466 4.126 4.126 0 0 1 3.289 1.471 5.62 5.62 0 0 1 1.261 3.8 5.691 5.691 0 0 1-1.261 3.815 4.1 4.1 0 0 1-3.287 1.482 4.033 4.033 0 0 1-3.235-1.462z"/>
    <path data-name="Path 945" d="M82.101 3.927a3.4 3.4 0 0 0 .958 2.481 3.588 3.588 0 0 0 4.925 0 3.4 3.4 0 0 0 .958-2.481 3.421 3.421 0 1 0-6.841 0zm6.615 5.826h-6.464v20.263h6.464z"/>
    <path data-name="Path 946" d="M93.943 9.752v20.263h6.5V19.601a4.513 4.513 0 0 1 2.03-3.361 6.809 6.809 0 0 1 4.548-.924V9.454a7.269 7.269 0 0 0-6.578 3.721V9.753z"/>
    <path data-name="Path 947" d="M109.844 3.927a3.4 3.4 0 0 0 .958 2.481 3.588 3.588 0 0 0 4.925 0 3.4 3.4 0 0 0 .958-2.481 3.421 3.421 0 1 0-6.841 0zm6.615 5.826h-6.464v20.263h6.464z"/>
    <path data-name="Path 948" d="M128.187 13.06V9.752h-6.5v20.263h6.5V19.302a4.774 4.774 0 0 1 1.3-2.968 3.8 3.8 0 0 1 2.837-1.13 3.385 3.385 0 0 1 2.612 1.035 3.95 3.95 0 0 1 .961 2.8v10.975h6.464v-12.78a7.851 7.851 0 0 0-2.03-5.657 7.085 7.085 0 0 0-5.375-2.124 7.491 7.491 0 0 0-6.769 3.607z"/>
    <path data-name="Path 949" d="M159.877 9.728v2.481a7 7 0 0 0-5.977-2.706 7.922 7.922 0 0 0-6.2 2.652 10.015 10.015 0 0 0-2.366 6.935 10.255 10.255 0 0 0 2.424 7.106 8.057 8.057 0 0 0 6.3 2.706 6.906 6.906 0 0 0 5.826-2.706v2.141a3.777 3.777 0 0 1-1.335 3.042 5.5 5.5 0 0 1-3.664 1.129 10.837 10.837 0 0 1-6.279-2.03l-2.252 4.4a15.833 15.833 0 0 0 9.019 2.669 11.9 11.9 0 0 0 7.95-2.558 8.5 8.5 0 0 0 3.029-6.84V9.728zm-7.311 13.1a5.981 5.981 0 0 1 0-7.143 3.906 3.906 0 0 1 3.1-1.371 3.8 3.8 0 0 1 3.042 1.371 6.051 6.051 0 0 1 0 7.143 3.8 3.8 0 0 1-3.042 1.372 3.906 3.906 0 0 1-3.1-1.369z"/>
    <path data-name="Path 950" d="M191.482 4.175V1.768h-18.046v26.314h2.78V16.918h13.611v-2.406h-13.61V4.175z"/>
    <path data-name="Path 951" d="M196.668 28.082h2.669V8.309h-2.669zm2.746-24.66a1.891 1.891 0 0 0 .565-1.392 1.738 1.738 0 0 0-.565-1.294 1.923 1.923 0 0 0-1.392-.548 1.892 1.892 0 0 0-1.392.565 1.807 1.807 0 0 0-.561 1.314 1.852 1.852 0 0 0 .561 1.355 2 2 0 0 0 2.783 0z"/>
    <path data-name="Path 952" d="m216.253 3.234.9-1.993a4.958 4.958 0 0 0-1.768-.921 7.478 7.478 0 0 0-2.182-.319 5.938 5.938 0 0 0-4.417 1.58 5.833 5.833 0 0 0-1.56 4.286v2.444h-3.533v2.256h3.533v17.512h2.669V10.565h6.019V8.309h-6.091v-2.33a3.913 3.913 0 0 1 .884-2.78 3.416 3.416 0 0 1 2.612-.941 4.4 4.4 0 0 1 2.934.976z"/>
    <path data-name="Path 953" d="M228.996 24.959a4.02 4.02 0 0 1-1.334.753 4.923 4.923 0 0 1-1.6.262 3.352 3.352 0 0 1-2.538-.921 3.733 3.733 0 0 1-.884-2.689v-11.8h6.022V8.308h-6.017V3.985h-2.669v4.323h-3.533v2.256h3.533v11.955a5.235 5.235 0 0 0 5.789 5.751 7.533 7.533 0 0 0 2.313-.356 5.1 5.1 0 0 0 1.862-1.035z"/>
    <path data-name="Path 954" d="m248.77 8.309-7.442 16.8-7.442-16.8h-2.783l8.834 19.735-.864 1.916a6.812 6.812 0 0 1-1.785 2.555 3.632 3.632 0 0 1-2.313.753 4.929 4.929 0 0 1-3.61-1.5l-1.24 1.993a5.821 5.821 0 0 0 2.144 1.351 7.765 7.765 0 0 0 2.669.45 6.206 6.206 0 0 0 3.8-1.166 9.439 9.439 0 0 0 2.783-3.943l9.886-22.142z"/>
</svg>
