<svg xmlns="http://www.w3.org/2000/svg" width="219.293" height="221.953" viewBox="0 0 219.293 221.953">
    <g data-name="Group 510">
        <g data-name="Group 508">
            <path data-name="Path 832" d="M170.647 1759.37h-2.89l18.982 10.257-6.616 12.235-22.24 41.152-41.152-22.24-11.576-6.255 23.068-42.678v-2.9l-24.938 46.135 11.576 6.256 43.575 23.551 23.551-43.583 6.286-11.622.33-.606zm-25.59-13.83h-2.89l12.419 6.708v-1.556z" transform="translate(-16.418 -1602.932)" style="fill:#fff"/>
            <path data-name="Path 833" d="m74.648 1627.887.851 1.173v-.713zm0 0 .851 1.173v-.713zm0 0 .851 1.173v-.713zm0 0 .851 1.173v-.713zm0 0 .851 1.173v-.713zm0 0 .851 1.173v-.713zm13.692 7.4h-2.906l11.423 6.171a15.342 15.342 0 0 1 1.687-.652zm23.16.153-2.645 4.883c.468.107.92.238 1.372.376l3.1-5.734a7.423 7.423 0 0 1-1.827.474zm-36.852-7.551.851 1.173v-.713zm0 0 .851 1.173v-.713zm50.275-44.84-43.529-23.529-23.528 43.537-6.923 12.8-.33.606 16.7 9.031v-1.572l-14.834-8.019 7.245-13.408 22.217-41.106 41.1 22.217 12.741 6.884-18.755 34.71a6.958 6.958 0 0 1 .606 1.779l20.032-37.051zm-45.936 47.186v1.564l6.424 3.473v-1.572zm-4.339-2.346.851 1.173v-.713zm0 0 .851 1.173v-.713zm0 0 .851 1.173v-.713zm0 0 .851 1.173v-.713z" transform="translate(-4.126 -1559.52)" style="fill:#fff"/>
            <path data-name="Path 834" d="M34.829 1665.181h-.146l.031-.061z" transform="translate(-.408 -1584.164)" style="fill:#fff"/>
            <path data-name="Path 835" d="m99.577 1738.781-2.254 4.163 1.7-6.164z" transform="translate(-15.027 -1600.888)" style="fill:#fff"/>
            <path data-name="Path 836" d="m86.346 1702.538-7.076 13.071-2.062-7.49h-6.462l-6.724 24.381L58 1708.119h-8.352l9.6 34.828h5.259l-11.829 21.88-21.527-11.637-41.175-22.255 22.255-41.168 7.889-14.6h7.35v27.116h7.95v-27.113h3.112l9.291 5.021v22.094H69.68v-7.651H55.773v-6.156h7.383l12.159 6.57a17.254 17.254 0 0 0 11.031 7.49z" transform="translate(10.026 -1586.51)" style="fill:#fff"/>
            <path data-name="Path 837" d="m155.835 1649.04-1.211-1.671 1.211-2.239z" transform="translate(-28.399 -1579.499)" style="fill:#fff"/>
            <path data-name="Path 838" d="m222.205 1753-2.055 3.8-5.167-2.79v-11.46z" transform="translate(-42.486 -1602.235)" style="fill:#fff"/>
            <path data-name="Path 839" d="m241.1 1648.171-22.2 41.068-13.362 24.724-3.273-4.776 11.745-16.966h-9.054l-10.648 15.125v-15.125h-7.965v25.858l-8.993-4.86h3.028v-7.567h-12.435v-5.773h13.684v-7.658h-21.65v11.607l-7.306-3.948h2.584v-7.658H138.5l-10.924-5.9a16.711 16.711 0 0 0 9.629-7.291l-6.854-3.971a8.033 8.033 0 0 1-3.971 3.48l10.464-19.357.222-.414 3.856-7.137v34.759h7.942v-13.807h10.924v13.807h7.95v-34.759h-7.95v13.309h-10.919v-13.309h-7.942l2.837-5.243.79-1.464 1.917-3.542 3.58 5.006h2.683v-13.807h-1.51l13.8-25.529 35 18.92z" transform="translate(-21.809 -1570.612)" style="fill:#fff"/>
        </g>
        <path data-name="Path 840" d="M42.818 1627.525a4.03 4.03 0 1 0 3.825 4.025 3.81 3.81 0 0 0-3.825-4.025zm0 0a4.03 4.03 0 1 0 3.825 4.025 3.81 3.81 0 0 0-3.825-4.025zm0 0a4.03 4.03 0 1 0 3.825 4.025 3.81 3.81 0 0 0-3.825-4.025zm36.338 0h-1.832v8.05h1.832a4.025 4.025 0 1 0 0-8.05zm-36.338 0a4.03 4.03 0 1 0 3.825 4.025 3.81 3.81 0 0 0-3.825-4.025zm36.338 0h-1.832v8.05h1.832a4.025 4.025 0 1 0 0-8.05zm-36.338 0a4.03 4.03 0 1 0 3.825 4.025 3.81 3.81 0 0 0-3.825-4.025zm36.338 0h-1.832v8.05h1.832a4.025 4.025 0 1 0 0-8.05zm19.733 0a4.03 4.03 0 1 0 3.825 4.025 3.81 3.81 0 0 0-3.825-4.025zm-56.071 0a4.03 4.03 0 1 0 3.825 4.025 3.81 3.81 0 0 0-3.825-4.025zm36.338 0h-1.832v8.05h1.832a4.025 4.025 0 1 0 0-8.05zm19.733 0a4.03 4.03 0 1 0 3.825 4.025 3.81 3.81 0 0 0-3.825-4.025zm-56.071 0a4.03 4.03 0 1 0 3.825 4.025 3.81 3.81 0 0 0-3.825-4.025zm36.338 0h-1.832v8.05h1.832a4.025 4.025 0 1 0 0-8.05zm19.733 0a4.03 4.03 0 1 0 3.825 4.025 3.81 3.81 0 0 0-3.825-4.025zm-56.071 0a4.03 4.03 0 1 0 3.825 4.025 3.81 3.81 0 0 0-3.825-4.025zm36.338 0h-1.832v8.05h1.832a4.025 4.025 0 1 0 0-8.05zm19.733 0a4.03 4.03 0 1 0 3.825 4.025 3.81 3.81 0 0 0-3.825-4.025zm-56.071 0a4.03 4.03 0 1 0 3.825 4.025 3.81 3.81 0 0 0-3.825-4.025zm36.338 0h-1.832v8.05h1.832a4.025 4.025 0 1 0 0-8.05zm19.733 0a4.03 4.03 0 1 0 3.825 4.025 3.81 3.81 0 0 0-3.825-4.025zm-56.071 0a4.03 4.03 0 1 0 3.825 4.025 3.81 3.81 0 0 0-3.825-4.025zm36.338 0h-1.832v8.05h1.832a4.025 4.025 0 1 0 0-8.05zm32.313-40.754-63.316 18.89-7.245 13.408 14.834 8.019v-2.438h2.7l4.63 6.4.851 1.173v-7.574h3.488v8.747l6.424 3.465v-12.212h5.972a6.9 6.9 0 1 1 0 13.8h-3.043l10.2 5.52a19.111 19.111 0 0 1 6.087-.966 18.634 18.634 0 0 1 4.224.483l2.645-4.883a7.763 7.763 0 0 1-1.043.069 7.124 7.124 0 1 1 0-14.244 7.2 7.2 0 0 1 6.57 3.94l18.759-34.713zm-32.313 40.754h-1.832v8.05h1.832a4.025 4.025 0 1 0 0-8.05zm19.733 0a4.03 4.03 0 1 0 3.825 4.025 3.81 3.81 0 0 0-3.825-4.025zm-56.071 0a4.03 4.03 0 1 0 3.825 4.025 3.81 3.81 0 0 0-3.825-4.025zm36.338 0h-1.832v8.05h1.832a4.025 4.025 0 1 0 0-8.05zm19.733 0a4.03 4.03 0 1 0 3.825 4.025 3.81 3.81 0 0 0-3.825-4.025zm-56.071 0a4.03 4.03 0 1 0 3.825 4.025 3.81 3.81 0 0 0-3.825-4.025zm36.338 0h-1.832v8.05h1.832a4.025 4.025 0 1 0 0-8.05zm32.313-40.754-63.316 18.89-7.245 13.408 14.834 8.019v-2.438h2.7l4.63 6.4.851 1.173v-7.574h3.488v8.747l6.424 3.465v-12.212h5.972a6.9 6.9 0 1 1 0 13.8h-3.043l10.2 5.52a19.111 19.111 0 0 1 6.087-.966 18.634 18.634 0 0 1 4.224.483l2.645-4.883a7.763 7.763 0 0 1-1.043.069 7.124 7.124 0 1 1 0-14.244 7.2 7.2 0 0 1 6.57 3.94l18.759-34.713zm-12.58 40.754a4.03 4.03 0 1 0 3.825 4.025 3.81 3.81 0 0 0-3.825-4.025zm-56.071 0a4.03 4.03 0 1 0 3.825 4.025 3.81 3.81 0 0 0-3.825-4.025zm36.338 0h-1.832v8.05h1.832a4.025 4.025 0 1 0 0-8.05zm19.733 0a4.03 4.03 0 1 0 3.825 4.025 3.81 3.81 0 0 0-3.825-4.025zm-56.071 0a4.03 4.03 0 1 0 3.825 4.025 3.81 3.81 0 0 0-3.825-4.025zm36.338 0h-1.832v8.05h1.832a4.025 4.025 0 1 0 0-8.05zm32.313-40.754-63.316 18.89-7.245 13.408 14.834 8.019v-2.438h2.7l4.63 6.4.851 1.173v-7.574h3.488v8.747l6.424 3.465v-12.212h5.972a6.9 6.9 0 1 1 0 13.8h-3.043l10.2 5.52a19.111 19.111 0 0 1 6.087-.966 18.634 18.634 0 0 1 4.224.483l2.645-4.883a7.763 7.763 0 0 1-1.043.069 7.124 7.124 0 1 1 0-14.244 7.2 7.2 0 0 1 6.57 3.94l18.759-34.713zm-12.58 40.754a4.03 4.03 0 1 0 3.825 4.025 3.81 3.81 0 0 0-3.825-4.025zm-56.071 0a4.03 4.03 0 1 0 3.825 4.025 3.81 3.81 0 0 0-3.825-4.025zm36.338 0h-1.832v8.05h1.832a4.025 4.025 0 1 0 0-8.05zm19.733 0a4.03 4.03 0 1 0 3.825 4.025 3.81 3.81 0 0 0-3.825-4.025zm45 91.6h-13.17V1712l-12.419-6.708h-5.98v6.171h13.93v7.659h-21.895v-7.528l-23.068 42.678 11.576 6.256 63.392-18.913 6.616-12.235zm-101.072-91.6a4.03 4.03 0 1 0 3.825 4.025 3.81 3.81 0 0 0-3.824-4.025zm36.338 0h-1.831v8.05h1.832a4.025 4.025 0 1 0 0-8.05zm32.313-40.754-63.316 18.89-7.245 13.408 14.834 8.019v-2.438h2.7l4.63 6.4.851 1.173v-7.574h3.488v8.747l6.424 3.465v-12.212h5.972a6.9 6.9 0 1 1 0 13.8h-3.042l10.2 5.52a19.111 19.111 0 0 1 6.087-.966 18.634 18.634 0 0 1 4.224.483l2.645-4.883a7.763 7.763 0 0 1-1.043.069 7.124 7.124 0 1 1 0-14.244 7.2 7.2 0 0 1 6.57 3.94l18.759-34.713zm-12.58 40.754a4.03 4.03 0 1 0 3.825 4.025 3.81 3.81 0 0 0-3.824-4.025zm-56.071 0a4.03 4.03 0 1 0 3.825 4.025 3.81 3.81 0 0 0-3.824-4.025zm36.338 0h-1.831v8.05h1.832a4.025 4.025 0 1 0 0-8.05zm19.733 0a4.03 4.03 0 1 0 3.825 4.025 3.81 3.81 0 0 0-3.824-4.025zm45 91.6h-13.169V1712l-12.419-6.708h-5.98v6.171h13.93v7.659h-21.895v-7.528l-23.068 42.678 11.576 6.256 63.392-18.913 6.616-12.235zm-101.072-91.6a4.03 4.03 0 1 0 3.825 4.025 3.81 3.81 0 0 0-3.823-4.025zm36.338 0h-1.83v8.05h1.832a4.025 4.025 0 1 0 0-8.05zm32.313-40.754-63.316 18.89-7.245 13.408 14.834 8.019v-2.438h2.7l4.63 6.4.851 1.173v-7.574h3.488v8.747l6.424 3.465v-12.212h5.972a6.9 6.9 0 1 1 0 13.8h-3.041l10.2 5.52a19.111 19.111 0 0 1 6.087-.966 18.634 18.634 0 0 1 4.224.483l2.645-4.883a7.763 7.763 0 0 1-1.043.069 7.124 7.124 0 1 1 0-14.244 7.2 7.2 0 0 1 6.57 3.94l18.759-34.713zm-12.58 40.754a4.03 4.03 0 1 0 3.825 4.025 3.81 3.81 0 0 0-3.823-4.025zm90.753 53.786-18.874-63.27-13.416-44.963-44 13.132-1.878.56-63.316 18.89-1.863.56-45.279 13.509 13.792 46.212 18.92 63.423 13.37 44.817 43.9-13.094 1.871-.56 63.392-18.913 1.863-.56 45.315-13.516zm-70.031-16.659v13.807h-7.942V1643.7h7.942v13.309h10.924V1643.7h7.95v34.759h-7.95v-13.807zm3.864-40v13.807h-2.683l-3.58-5.006-1.917-2.668v6.21l-.79 1.464h-2.7v-13.807h2.7l4.27 5.9 1.211 1.671v-7.574zm-24.593-.222a7.2 7.2 0 0 1 6.57 3.94 7.161 7.161 0 0 1 .744 3.182 7.034 7.034 0 0 1-4.446 6.578 7.423 7.423 0 0 1-1.825.475 7.763 7.763 0 0 1-1.043.069 7.124 7.124 0 1 1 0-14.244zM93.055 1643a18.634 18.634 0 0 1 4.224.483c.468.107.92.238 1.372.376a16.876 16.876 0 0 1 9.161 6.976l-.222.414-6.493 3.764a8.979 8.979 0 0 0-8.042-4.27c-6.156 0-10.127 4.125-10.127 10.326S86.9 1671.4 93.055 1671.4a10.473 10.473 0 0 0 4.071-.789 8.032 8.032 0 0 0 3.971-3.481l6.854 3.971a16.712 16.712 0 0 1-9.629 7.291 18.525 18.525 0 0 1-5.267.751 19.561 19.561 0 0 1-4.132-.429 17.254 17.254 0 0 1-11.032-7.49 18.47 18.47 0 0 1-2.913-10.143 17.615 17.615 0 0 1 10.3-16.459 15.341 15.341 0 0 1 1.687-.652 19.111 19.111 0 0 1 6.09-.97zm-20.8 27.806v7.651H50.4V1643.7H72v7.643H58.35v5.765h12.412v7.544H58.35v6.156zm1.579-46.159h5.972a6.9 6.9 0 1 1 0 13.8h-5.947l-.023-.015zm-18.092 0h2.7l4.63 6.4.851 1.173v-7.574h3.488v13.807h-2.683l-5.5-7.674v7.674h-3.485zm-12.925-.222a7.124 7.124 0 1 1-7.314 7.122 7.124 7.124 0 0 1 7.315-7.119zm-21.128.222h3.488v10.924H31.4v2.883h-9.71zm8.356 53.809v-27.116h-8.93v-7.64h25.82v7.643H38v27.116zm46.5 20.116-1.7 6.163-.008.023-3.963 14.359h-9.051l-9.6-34.828h8.356l6.018 24.379 6.723-24.379h6.463l2.062 7.49v.008l4.653 16.881 6.026-24.379h8.356l-9.6 34.828h-9.057l-5.123-18.54zm49.7 20.545h-21.89v-34.828H126v7.659h-13.68v5.773h12.435v7.567H112.32v6.171h13.93zm4.469 0v-34.828h21.649v7.659h-13.679v5.773h12.435v7.567h-12.435v6.171h13.93v7.659zm45.476 0-3.925-5.673-7.216-10.444v16.122h-7.965v-34.828h7.965v15.126l10.648-15.126h9.054l-11.745 16.965 3.273 4.776 8.969 13.086zm-77.306-83.547a4.031 4.031 0 1 0-3.8-4.025 3.828 3.828 0 0 0 3.805 4.03zm-15.647-4.025a3.814 3.814 0 0 0-4.086-4.025h-1.827v8.05h1.832a3.814 3.814 0 0 0 4.086-4.02zm-40.424 4.025a4.031 4.031 0 1 0-3.8-4.025 3.828 3.828 0 0 0 3.805 4.03zm56.071-8.05a4.03 4.03 0 1 0 3.825 4.025 3.81 3.81 0 0 0-3.82-4.02zm12.58-40.754-63.316 18.89-7.245 13.408 14.834 8.019v-2.438h2.7l4.63 6.4.851 1.173v-7.574h3.488v8.747l6.424 3.465v-12.212h5.972a6.9 6.9 0 1 1 0 13.8h-3.038l10.2 5.52a19.111 19.111 0 0 1 6.087-.966 18.634 18.634 0 0 1 4.224.483l2.645-4.883a7.763 7.763 0 0 1-1.043.069 7.124 7.124 0 1 1 0-14.244 7.2 7.2 0 0 1 6.57 3.94l18.759-34.713zm-32.313 40.754h-1.827v8.05h1.832a4.025 4.025 0 1 0 0-8.05zm-36.338 0a4.03 4.03 0 1 0 3.825 4.025 3.81 3.81 0 0 0-3.82-4.02zm101.072 91.6h-13.166V1712l-12.419-6.708h-5.98v6.171h13.93v7.659h-21.895v-7.528l-23.068 42.678 11.576 6.256 63.392-18.913 6.616-12.235zm-45-91.6a4.03 4.03 0 1 0 3.825 4.025 3.81 3.81 0 0 0-3.821-4.02zm-19.733 0h-1.828v8.05h1.832a4.025 4.025 0 1 0 0-8.05zm-36.338 0a4.03 4.03 0 1 0 3.825 4.025 3.81 3.81 0 0 0-3.821-4.02zm56.071 0a4.03 4.03 0 1 0 3.825 4.025 3.81 3.81 0 0 0-3.821-4.02zm12.58-40.754-63.316 18.89-7.245 13.408 14.834 8.019v-2.438h2.7l4.63 6.4.851 1.173v-7.574h3.488v8.747l6.424 3.465v-12.212h5.972a6.9 6.9 0 1 1 0 13.8h-3.039l10.2 5.52a19.111 19.111 0 0 1 6.087-.966 18.634 18.634 0 0 1 4.224.483l2.645-4.883a7.763 7.763 0 0 1-1.043.069 7.124 7.124 0 1 1 0-14.244 7.2 7.2 0 0 1 6.57 3.94l18.759-34.713zm-32.313 40.754h-1.828v8.05h1.832a4.025 4.025 0 1 0 0-8.05zm-36.338 0a4.03 4.03 0 1 0 3.825 4.025 3.81 3.81 0 0 0-3.821-4.02zm56.071 0a4.03 4.03 0 1 0 3.825 4.025 3.81 3.81 0 0 0-3.821-4.02zm-19.733 0h-1.828v8.05h1.832a4.025 4.025 0 1 0 0-8.05zm-36.338 0a4.03 4.03 0 1 0 3.825 4.025 3.81 3.81 0 0 0-3.821-4.02zm56.071 0a4.03 4.03 0 1 0 3.825 4.025 3.81 3.81 0 0 0-3.821-4.02zm12.58-40.754-63.316 18.89-7.245 13.408 14.834 8.019v-2.438h2.7l4.63 6.4.851 1.173v-7.574h3.488v8.747l6.424 3.465v-12.212h5.972a6.9 6.9 0 1 1 0 13.8h-3.039l10.2 5.52a19.111 19.111 0 0 1 6.087-.966 18.634 18.634 0 0 1 4.224.483l2.645-4.883a7.763 7.763 0 0 1-1.043.069 7.124 7.124 0 1 1 0-14.244 7.2 7.2 0 0 1 6.57 3.94l18.759-34.713zm-32.313 40.754h-1.828v8.05h1.832a4.025 4.025 0 1 0 0-8.05zm-36.338 0a4.03 4.03 0 1 0 3.825 4.025 3.81 3.81 0 0 0-3.821-4.02zm56.071 0a4.03 4.03 0 1 0 3.825 4.025 3.81 3.81 0 0 0-3.821-4.02zm-19.733 0h-1.828v8.05h1.832a4.025 4.025 0 1 0 0-8.05zm-36.338 0a4.03 4.03 0 1 0 3.825 4.025 3.81 3.81 0 0 0-3.821-4.02zm56.071 0a4.03 4.03 0 1 0 3.825 4.025 3.81 3.81 0 0 0-3.821-4.02zm12.58-40.754-63.316 18.89-7.245 13.408 14.834 8.019v-2.438h2.7l4.63 6.4.851 1.173v-7.574h3.488v8.747l6.424 3.465v-12.212h5.972a6.9 6.9 0 1 1 0 13.8h-3.039l10.2 5.52a19.111 19.111 0 0 1 6.087-.966 18.634 18.634 0 0 1 4.224.483l2.645-4.883a7.763 7.763 0 0 1-1.043.069 7.124 7.124 0 1 1 0-14.244 7.2 7.2 0 0 1 6.57 3.94l18.759-34.713zm-32.313 40.754h-1.828v8.05h1.832a4.025 4.025 0 1 0 0-8.05zm-36.338 0a4.03 4.03 0 1 0 3.825 4.025 3.81 3.81 0 0 0-3.821-4.02zm56.071 0a4.03 4.03 0 1 0 3.825 4.025 3.81 3.81 0 0 0-3.821-4.02zm-19.733 0h-1.828v8.05h1.832a4.025 4.025 0 1 0 0-8.05zm-36.338 0a4.03 4.03 0 1 0 3.825 4.025 3.81 3.81 0 0 0-3.821-4.02zm56.071 0a4.03 4.03 0 1 0 3.825 4.025 3.81 3.81 0 0 0-3.821-4.02zm-19.733 0h-1.828v8.05h1.832a4.025 4.025 0 1 0 0-8.05zm-36.338 0a4.03 4.03 0 1 0 3.825 4.025 3.81 3.81 0 0 0-3.821-4.02zm56.071 0a4.03 4.03 0 1 0 3.825 4.025 3.81 3.81 0 0 0-3.821-4.02zm-19.733 0h-1.828v8.05h1.832a4.025 4.025 0 1 0 0-8.05zm-36.338 0a4.03 4.03 0 1 0 3.825 4.025 3.81 3.81 0 0 0-3.821-4.02zm56.071 0a4.03 4.03 0 1 0 3.825 4.025 3.81 3.81 0 0 0-3.821-4.02zm-19.733 0h-1.828v8.05h1.832a4.025 4.025 0 1 0 0-8.05zm-36.338 0a4.03 4.03 0 1 0 3.825 4.025 3.81 3.81 0 0 0-3.821-4.02zm56.071 0a4.03 4.03 0 1 0 3.825 4.025 3.81 3.81 0 0 0-3.821-4.02zm-19.733 0h-1.828v8.05h1.832a4.025 4.025 0 1 0 0-8.05zm-36.338 0a4.03 4.03 0 1 0 3.825 4.025 3.81 3.81 0 0 0-3.821-4.02zm36.338 0h-1.828v8.05h1.832a4.025 4.025 0 1 0 0-8.05zm-36.338 0a4.03 4.03 0 1 0 3.825 4.025 3.81 3.81 0 0 0-3.821-4.02zm36.338 0h-1.828v8.05h1.832a4.025 4.025 0 1 0 0-8.05zm-36.338 0a4.03 4.03 0 1 0 3.825 4.025 3.81 3.81 0 0 0-3.821-4.02zm0 0a4.03 4.03 0 1 0 3.825 4.025 3.81 3.81 0 0 0-3.821-4.02zm0 0a4.03 4.03 0 1 0 3.825 4.025 3.81 3.81 0 0 0-3.821-4.02zm0 0a4.03 4.03 0 1 0 3.825 4.025 3.81 3.81 0 0 0-3.821-4.02zm0 0a4.03 4.03 0 1 0 3.825 4.025 3.81 3.81 0 0 0-3.821-4.02z" transform="translate(7.45 -1562.684)" style="fill:#fff"/>
        <path data-name="Path 841" d="m140.394 1674.717-.36.207.222-.414c.054.069.092.138.138.207z" transform="translate(-24.994 -1586.356)" style="fill:#fff"/>
        <g data-name="Group 509">
            <path data-name="Path 842" d="M96 1658.33v.015h.023z" transform="translate(-14.719 -1582.579)" style="fill:#fff"/>
            <path data-name="Path 843" d="m149.054 1657.914.79-1.464v1.464z" transform="translate(-27.099 -1582.141)" style="fill:#fff"/>
        </g>
    </g>
</svg>
