<svg data-name="Group 522" xmlns="http://www.w3.org/2000/svg" width="144.729" height="97.365" viewBox="0 0 144.729 97.365">
    <path data-name="Path 897" d="M137.543 74.021h-4.128l-.827 4.525h-3.16v4.2h2.767v8.119c0 5.349 3.16 6.5 6.392 6.5 4.346 0 6.142-2.764 6.142-5.493a5.446 5.446 0 0 0-.431-2.192h-4.241a5.734 5.734 0 0 1 .253 1.58c0 .862-.359 1.724-1.4 1.724s-1.364-.825-1.364-1.614v-8.622h5.1v-4.2h-5.1zm-16.557-.359a3.082 3.082 0 0 0 3.376 2.982 3.036 3.036 0 1 0-3.376-2.982m6 4.884h-5.352v18.423h5.352zm-17.528 4.025c2.37 0 3.088 1.973 3.088 4.487v9.914h5.352v-10.02c0-4.668-1.4-8.8-6.573-8.8a6.1 6.1 0 0 0-5.817 3.088c-.934-1.867-2.839-3.088-5.64-3.088a5.817 5.817 0 0 0-4.918 2.91v-2.517h-5.352v18.427h5.352v-9.874c0-2.479.718-4.525 3.051-4.525 2.37 0 3.088 1.973 3.088 4.487v9.914h5.318v-9.876c0-2.479.718-4.525 3.051-4.525m-31.963 0c2.37 0 3.088 1.973 3.088 4.487v9.914h5.352v-10.02c0-4.668-1.4-8.8-6.573-8.8a6.093 6.093 0 0 0-5.818 3.088c-.933-1.867-2.838-3.088-5.64-3.088a5.826 5.826 0 0 0-4.921 2.91v-2.517h-5.351v18.427h5.352v-9.876c0-2.479.718-4.525 3.054-4.525 2.37 0 3.088 1.973 3.088 4.487v9.914h5.317v-9.876c0-2.479.718-4.525 3.054-4.525m-23.776-4.025h-5.354v9.877c0 2.552-1.043 4.528-3.519 4.528s-3.413-1.939-3.413-4.49v-9.914h-5.352v10.02c0 4.672 1.4 8.8 6.573 8.8a6.55 6.55 0 0 0 5.712-2.907v2.514h5.352zm-38.935 11.42c.5 4.668 4.884 7.4 9.7 7.4 4.419 0 9.015-2.333 9.015-7.613-.034-2.3-1.04-5.674-6.679-7.435l-2.658-.934c-2.513-.862-2.695-2.045-2.695-2.695 0-1.652 1.33-2.333 3.054-2.333 1.043 0 2.8.287 3.878 2.835l4.525-2.261a8.567 8.567 0 0 0-8.4-5.5c-4.921 0-8.475 2.8-8.475 7.326 0 2.086.825 5.568 6.392 7.472l2.729.934c2.37.824 2.91 1.724 2.91 2.692 0 1.87-1.8 2.588-3.772 2.588a4.423 4.423 0 0 1-4.567-3.446z"/>
    <path data-name="Path 898" d="M130.649 50.102V35.089h-5.352v25.968h5.352v-8.369l3.7 5.961a6.185 6.185 0 0 0 5.458 2.8 6.911 6.911 0 0 0 4.812-1.8l-2.011-3.769a3.95 3.95 0 0 1-1.974.647c-1.043 0-1.689-.4-2.513-1.652l-2.408-3.844 6.1-7.685v-.718h-5.921zm-13.79-7.469h-5.209v18.424h5.352V51.036c0-2.442 2.011-3.629 4.022-3.629a11.037 11.037 0 0 1 2.261.253v-5.28a5.759 5.759 0 0 0-1.365-.144 5.236 5.236 0 0 0-5.062 4.418zm-22.986 9.193a4.921 4.921 0 1 1 4.918 5.027 4.944 4.944 0 0 1-4.918-5.027m-5.209 0c0 5.783 4.778 9.624 10.127 9.624 5.39 0 10.13-3.878 10.13-9.624 0-5.712-4.74-9.59-10.13-9.59-5.349 0-10.127 3.844-10.127 9.59M74.694 36.74h-4.131l-4.631 14.583-4.7-15.407H55.55l7.9 25.14h4.416l4.746-15.229 4.74 15.229h4.418l7.9-25.14h-5.674L79.29 51.323zm-30.421 3.95c0-.79.322-1.724 1.364-1.724s1.4.755 1.4 1.617a1.207 1.207 0 0 1-.144.612h4.128a3.482 3.482 0 0 0 .181-1.009c0-2.729-1.546-5.493-5.892-5.493-3.232 0-6.392 1.508-6.392 6.861v1.221h-2.586v4.056h2.586v14.224h5.352V46.833h4.131v-4.057h-4.127zM20.139 51.826a4.921 4.921 0 1 1 4.918 5.027 4.944 4.944 0 0 1-4.918-5.027m-5.209 0c0 5.783 4.778 9.624 10.127 9.624 5.39 0 10.13-3.878 10.13-9.624 0-5.712-4.74-9.59-10.13-9.59-5.349 0-10.127 3.844-10.127 9.59"/>
    <path data-name="Path 899" d="M105.736 18.964a7.791 7.791 0 0 1-5.1 2.189c-3.413 0-5.534-1.686-5.64-3.985h14.834c0-7.329-4.884-10.848-9.983-10.848-5.927 0-10.164 4.275-10.164 9.7 0 5.243 3.735 9.518 10.558 9.518a11.555 11.555 0 0 0 8.584-3.629zm-5.961-8.3c1.8 0 4.2.9 4.559 3.266H95.1a4.575 4.575 0 0 1 4.672-3.266m-17.2-3.95h-5.208v18.427h5.352V15.12c0-2.442 2.011-3.628 4.022-3.628a11.008 11.008 0 0 1 2.262.252v-5.28a5.758 5.758 0 0 0-1.364-.144 5.236 5.236 0 0 0-5.062 4.419zm-9.125 0H68.1v9.877c0 2.548-1.04 4.525-3.519 4.525s-3.41-1.939-3.41-4.49V6.717h-5.357v10.02c0 4.668 1.4 8.8 6.573 8.8a6.544 6.544 0 0 0 5.708-2.91v2.514h5.352zM46.905 2.189h-4.128l-.827 4.528h-3.16v4.2h2.767v8.119c0 5.349 3.16 6.5 6.392 6.5 4.346 0 6.142-2.767 6.142-5.5a5.449 5.449 0 0 0-.431-2.192h-4.238a5.877 5.877 0 0 1 .25 1.58c0 .862-.359 1.724-1.4 1.724s-1.368-.825-1.368-1.614v-8.617h5.1v-4.2h-5.1zM36.382 6.717h-5.349v9.877c0 2.548-1.043 4.525-3.519 4.525s-3.414-1.94-3.414-4.491V6.717h-5.352v10.02c0 4.668 1.4 8.8 6.573 8.8a6.553 6.553 0 0 0 5.712-2.91v2.514h5.349zM5.568 25.141V15.014h9.661V10.6H5.568V4.418H16.7V0H0v25.141z"/>
</svg>
