<svg xmlns="http://www.w3.org/2000/svg" width="364.179" height="116.339" viewBox="0 0 364.179 116.339">
    <g data-name="Group 498">
        <path data-name="Path 727" d="M-510.866 1039.124c-1.117-.228-2.242-.427-3.352-.687-10.342-2.422-16.7-9-19.08-19.152-2.619-11.2.564-20.735 9.672-27.938 5.688-4.5 12.357-5.919 19.523-5.1a24.18 24.18 0 0 1 17.588 10.08 26.6 26.6 0 0 1 4.873 19.87 25.714 25.714 0 0 1-13.483 19.76 24.179 24.179 0 0 1-9.685 2.982 1.177 1.177 0 0 0-.367.183h-5.69zm16.159-26.594a17.258 17.258 0 0 0-1.154-6.381 12.579 12.579 0 0 0-21.639-3.676 16.522 16.522 0 0 0 .311 20.522 12.328 12.328 0 0 0 18.095.747 15.14 15.14 0 0 0 4.388-11.212z" transform="translate(705.273 -922.785)" style="fill:#fff"/>
        <path data-name="Path 728" d="M-984.56 1039.466c-1.055-.222-2.117-.415-3.163-.671-10.5-2.568-16.7-9.362-18.941-19.734a27.314 27.314 0 0 1 3.456-21.01 24.048 24.048 0 0 1 17.669-11.261 25.889 25.889 0 0 1 17.1 2.948 22.537 22.537 0 0 1 11.429 15.957h-14.03a9.763 9.763 0 0 0-4.767-6.677c-4.442-2.662-12.428-2.444-16.07 4.685-3.362 6.582-3.2 13.294.941 19.576a11.293 11.293 0 0 0 16.045 3.081 12.028 12.028 0 0 0 4.157-6.386c.083-.272.429-.66.656-.662 4.581-.039 9.162-.029 14.015-.029-.572 1.714-.978 3.355-1.652 4.878a24.383 24.383 0 0 1-18.723 14.863c-.81.154-1.622.3-2.432.444h-5.69z" transform="translate(1088.686 -923.127)" style="fill:#fff"/>
        <path data-name="Path 729" d="M-1435.775 994.267c.342.029.684.083 1.026.084q14.6.007 29.206 0h1.154v11.106h-18.08v9.249h17.309v10.436h-17.34v18.948h-13.278z" transform="translate(1435.775 -929.46)" style="fill:#fff"/>
        <path data-name="Path 730" d="m-1435.775 661.73 30.99-.018a3.234 3.234 0 0 1 .4.053v10.99h-18.082v9.181h17.323v10.483h-17.369v19.051H-1434.749c-.342 0-.683.054-1.025.084z" transform="translate(1435.775 -660.012)" style="fill:#fff"/>
        <path data-name="Path 731" d="M-403.313 1265.825z" transform="translate(599.237 -1149.486)" style="fill:#fff"/>
        <path data-name="Path 732" d="M-879.065 1265.825z" transform="translate(984.709 -1149.486)" style="fill:#fff"/>
        <path data-name="Path 733" d="M-1217.962 705.916a26.536 26.536 0 0 1-15.581-4.792 25.3 25.3 0 0 1-10.114-16.508 26.335 26.335 0 0 1 3.568-19.606 25.3 25.3 0 0 1 17.984-11.84 26.168 26.168 0 0 1 19.06 3.72c6.414 4.173 10.017 10.231 11.274 17.72a26.258 26.258 0 0 1-3.076 17.977 25.333 25.333 0 0 1-19.532 13.043c-1.186.156-2.388.193-3.583.286zm-12.953-26.585a15.373 15.373 0 0 0 1.4 6.8c2.078 4.51 5.494 7.382 10.513 7.881a11.7 11.7 0 0 0 11.372-5.241c3.78-5.521 3.974-11.474 1.024-17.393a12.366 12.366 0 0 0-18.8-4.159c-3.894 3.059-5.45 7.268-5.509 12.112z" transform="translate(1280.547 -652.754)" style="fill:#fff"/>
        <path data-name="Path 734" d="M-419.346 711.33v-49.717a3.9 3.9 0 0 1 .392-.04c6.35.008 12.7-.111 19.05.063a27.456 27.456 0 0 1 16.785 5.744 22.746 22.746 0 0 1 8.512 15.087 24.826 24.826 0 0 1-2.219 15c-3.284 6.569-8.7 10.551-15.64 12.6a32.446 32.446 0 0 1-9.058 1.253c-5.75.029-11.5.008-17.251.008zm13.122-11.662a68.537 68.537 0 0 0 6.908-.044 12.8 12.8 0 0 0 8.944-4.578 13.008 13.008 0 0 0 2.826-8.34c.06-4.739-1.327-8.851-5.523-11.548-4.047-2.6-8.6-2.464-13.155-2.331z" transform="translate(612.228 -659.873)" style="fill:#fff"/>
        <path data-name="Path 735" d="M-671.847 711.026h-10.7v-49.68c.2-.014.408-.042.617-.042 3.224 0 6.448-.016 9.672.019a1.32 1.32 0 0 1 .971.469q7.975 12.842 15.88 25.727c.82 1.338 1.455 2.789 2.182 4.183a5.884 5.884 0 0 0 .4.569v-31.062h10.722v49.705c-.26.012-.537.035-.813.035-3.1 0-6.2.019-9.293-.022a1.432 1.432 0 0 1-1.047-.527c-6.013-9.683-12.375-19.153-17.827-29.177a11.762 11.762 0 0 0-.759-1.059z" transform="translate(825.485 -659.604)" style="fill:#fff"/>
        <path data-name="Path 736" d="m94.909 690.6 15.282 20.754c-.384.024-.649.054-.914.054-4.488 0-8.977-.016-13.465.022a1.33 1.33 0 0 1-1.27-.714C90.7 704.979 86.835 699.261 83 693.523c-.454-.68-.886-1.231-1.921-.852v18.667H67.913v-49.62a3.9 3.9 0 0 1 .522-.068c5.942.006 11.886-.063 17.825.055a22.884 22.884 0 0 1 11.35 2.843 12.866 12.866 0 0 1 6.427 10.339 16.326 16.326 0 0 1-.981 8.171 13.518 13.518 0 0 1-8.147 7.542zm-13.846-18.987v12.013c1.525 0 3.011.1 4.477-.024 2.366-.206 4.321-1.252 4.935-3.685a10.543 10.543 0 0 0 .08-4.178 4.238 4.238 0 0 0-3.548-3.613 58.413 58.413 0 0 0-5.944-.513z" transform="translate(217.433 -659.95)" style="fill:#fff"/>
        <path data-name="Path 737" d="M-219.391 994.8a2.565 2.565 0 0 1 .352-.058c6.287.031 12.577-.011 18.862.129a21.847 21.847 0 0 1 9.837 2.445 12.458 12.458 0 0 1 6.7 8.8c.921 4.411.608 8.662-2.01 12.509a13.821 13.821 0 0 1-6.792 5.083l15.273 20.751c-.4.019-.661.042-.925.042-4.456 0-8.912-.011-13.368.016a1.427 1.427 0 0 1-1.375-.713c-3.832-5.739-7.709-11.449-11.533-17.193a1.528 1.528 0 0 0-1.93-.833v18.676h-13.086zm13.108 21.816a40.034 40.034 0 0 0 5.222-.045 4.815 4.815 0 0 0 4.341-4.016 9.769 9.769 0 0 0 .1-2.819 4.778 4.778 0 0 0-3.874-4.549 48.673 48.673 0 0 0-5.786-.424z" transform="translate(450.217 -929.848)" style="fill:#fff"/>
        <path data-name="Path 738" d="M-907.935 661.832h12.94a4.946 4.946 0 0 1 .057.538c0 10.166.03 20.331-.025 30.5a25.093 25.093 0 0 1-2.31 10.917c-2.522 5.228-6.849 8.028-12.445 8.948a25.527 25.527 0 0 1-13.611-1.146c-5.383-2.1-8.465-6.235-9.7-11.722a38.025 38.025 0 0 1-.916-7.86c-.1-9.817-.042-19.636-.042-29.454v-.692h13.137v6.952c-.007 7.67-.062 15.341.009 23.011a24.234 24.234 0 0 0 .718 5.877 5.972 5.972 0 0 0 8.842 3.673 5.539 5.539 0 0 0 2.8-4.071 31.074 31.074 0 0 0 .513-5.443c.048-9.629.023-19.258.023-28.886z" transform="translate(1029.218 -660.109)" style="fill:#fff"/>
        <path data-name="Path 739" d="M-132.082 691.241v9.249h18.882v11.2h-31.88v-49.63h31.073v10.987h-18.029v7.735h17.367v10.463z" transform="translate(390.008 -660.29)" style="fill:#fff"/>
        <path data-name="Path 740" d="M-1221.984 1044.421c-4.234 0-8.372-.012-12.509.014-.564 0-.664-.294-.8-.71-.9-2.848-1.817-5.692-2.73-8.536-.077-.238-.165-.473-.274-.783h-.734c-4.865 0-9.731.017-14.6-.019a.971.971 0 0 0-1.118.817c-.946 3.063-1.927 6.115-2.9 9.182h-13.012c.791-2.092 1.554-4.115 2.32-6.136q8.12-21.439 16.23-42.881a.906.906 0 0 1 1-.722q5.45.044 10.9 0a.891.891 0 0 1 .992.732q4.725 13.484 9.479 26.958l7.514 21.352c.082.203.141.411.242.732zm-19.093-18.767-5.274-16.855-5.3 16.855z" transform="translate(1301.986 -929.766)" style="fill:#fff"/>
        <path data-name="Path 741" d="M296.256 688.388h12.175c.188 1.122.28 2.226.566 3.277a5.218 5.218 0 0 0 6.979 3.648 4.67 4.67 0 0 0 1.578-7.856 18.973 18.973 0 0 0-4.518-2.655c-2.432-1.172-5.032-2.021-7.39-3.317a15.39 15.39 0 0 1-7.486-18.084 12.806 12.806 0 0 1 6.976-8.177 19.957 19.957 0 0 1 17.556-.357c4.731 2.114 7.2 6.038 8.067 11.035.167.959.2 1.941.287 2.913a3.1 3.1 0 0 1-.039.5h-11.74a23.7 23.7 0 0 0-1.079-3.6 4.588 4.588 0 0 0-5.736-1.971 3.78 3.78 0 0 0-2.375 4.418 3.355 3.355 0 0 0 1.644 2.437 45.475 45.475 0 0 0 5.514 2.629 29.816 29.816 0 0 1 9.473 5.17c7.845 6.881 6.83 22.3-5.431 26.395-6.116 2.044-12.231 1.775-17.855-1.7-4.217-2.6-6.3-6.663-6.981-11.484-.132-.934-.154-1.883-.22-2.826a2.709 2.709 0 0 1 .035-.395z" transform="translate(32.45 -652.957)" style="fill:#fff"/>
        <path data-name="Path 742" d="M12.931 1044.459H-.233v-1c-.024-5.935-.041-11.87-.087-17.805a2.944 2.944 0 0 0-.338-1.335q-7.907-14.505-15.85-28.991c-.086-.157-.162-.32-.308-.612h1.4c3.983 0 7.966-.009 11.948.017a1.194 1.194 0 0 1 .914.394q3.944 7.681 7.8 15.406c.515 1.036.835 2.169 1.278 3.344a3.316 3.316 0 0 0 .286-.429c1.908-4.207 3.8-8.421 5.721-12.623q1.255-2.746 2.619-5.441a1.253 1.253 0 0 1 .859-.64c4.3-.039 8.6-.025 12.9-.021a1.144 1.144 0 0 1 .262.1c-.755 1.413-1.5 2.816-2.254 4.213q-6.757 12.5-13.5 25.007a3.952 3.952 0 0 0-.454 1.778c-.033 5.841-.02 11.682-.02 17.524z" transform="translate(286.084 -929.825)" style="fill:#fff"/>
        <path data-name="Path 743" d="M-694.721 994.98V1006h-11.074v38.625h-13.114v-38.556h-11.245V994.98z" transform="translate(864.056 -930.038)" style="fill:#fff"/>
        <path data-name="Path 744" d="M225.358 1151.507a11.129 11.129 0 1 1 11.136 11.162 11.051 11.051 0 0 1-11.136-11.162z" transform="translate(89.866 -1047.878)" style="fill:#fff"/>
    </g>
</svg>
