<svg xmlns="http://www.w3.org/2000/svg" width="310.542" height="92.255" viewBox="0 0 310.542 92.255">
    <g data-name="Group 497">
        <path data-name="Path 709" d="M17.46 0c.458.583 1.252 1.136 1.306 1.754a13.12 13.12 0 0 1-.33 4.014c-.082.362-1.04.651-1.633.751-3.91.659-4.747 1.46-5.342 5.3a20.143 20.143 0 0 0-.211 1.674 4.176 4.176 0 0 0 .211.933h2.335c4.043 0 8.086-.015 12.128.007 2.18.011 2.514.324 2.518 2.532q.03 14.267 0 28.535c0 2.256-.445 2.649-2.695 2.714-4.171.12-4.226.068-4.225-4.038V23.622c0-.783-.065-1.567-.1-2.469H11.239V59.182a5.754 5.754 0 0 1-.071 1.916c-.191.513-.763.893-1.2 1.3-.091.086-.311.047-.472.048-5.419.024-5.1.43-5.083-4.586.029-11.365.009-22.731.009-34.1v-2.638c-1.14-.067-2.026-.087-2.9-.178a1.527 1.527 0 0 1-1.492-1.6c-.016-.322-.007-.645-.005-.967.019-3.417-.538-4.169 3.724-3.984.139.006.284-.112.515-.209.173-1.369.313-2.794.538-4.205.731-4.573 3.057-7.891 7.579-9.463a3.1 3.1 0 0 0 .722-.522z"/>
        <path data-name="Path 710" d="M310.539 83.203h-3.248V53.695h3.248z"/>
        <path data-name="Path 711" d="M115.857 16.067c6.256-4.082 12.7-3.332 17.695 1.978a35.481 35.481 0 0 1 2.678-2.328c5.991-4.279 18.512-3.221 19.973 8.773a89.571 89.571 0 0 1 .329 9.649c.05 3.788.034 7.578 0 11.366-.018 2.261-.456 2.666-2.686 2.712-4.408.093-4.372-.1-4.33-4.2.053-5.158.014-10.318.012-15.477 0-.725.012-1.452-.026-2.176-.211-4.021-2.322-6.257-6.083-6.466a6.793 6.793 0 0 0-7.056 5.7 17.749 17.749 0 0 0-.179 3.132c-.016 5.481 0 10.963-.01 16.445 0 2.724-.326 3.031-3.058 3.051-3.853.028-3.879 0-3.879-3.917v-15.96c0-.886-.014-1.775-.1-2.655-.3-3.036-1.789-4.834-4.541-5.549a6.743 6.743 0 0 0-7.261 2.621 8.725 8.725 0 0 0-1.464 5.255c.032 5.723.016 11.447.009 17.17 0 2.751-.279 3.015-3.06 3.035-3.854.029-3.938-.053-3.939-3.88v-26.6a7.507 7.507 0 0 1 .084-1.921c.133-.491.512-1.209.891-1.285a28.1 28.1 0 0 1 3.6-.287 2.14 2.14 0 0 1 2.401 1.814z"/>
        <path data-name="Path 712" d="M275.027 33.435a10.164 10.164 0 0 0 7.738 8.9 9.468 9.468 0 0 0 10.547-4.027 3.018 3.018 0 0 1 3.144-1.64c.8.082 1.616-.021 2.421.024 1.81.1 2.307.834 1.63 2.506a14.505 14.505 0 0 1-6.514 7.531c-11.273 6.179-25.5-.738-26.193-14.584a17.739 17.739 0 0 1 12.741-18.1 16.69 16.69 0 0 1 19.329 9.161 18.693 18.693 0 0 1 1.953 7.655c.076 2.219-.208 2.557-2.412 2.564-6.3.021-12.6.008-18.9.008zm19.058-6.4c-1.944-4.9-5.672-7.448-10.022-7.18-3 .185-7.827 3.134-8.463 7.18z"/>
        <path data-name="Path 713" d="M70.063 48.983a15.809 15.809 0 0 1-10.686-3.412 11.809 11.809 0 0 1-4.136-6.645c-.4-1.723.122-2.419 1.85-2.525.725-.045 1.458.036 2.182-.017a2.5 2.5 0 0 1 2.945 1.829 6.608 6.608 0 0 0 4.673 3.878 10.97 10.97 0 0 0 6.912-.106 7.235 7.235 0 0 0 2.938-1.994 2.762 2.762 0 0 0-1.153-4.692 41.426 41.426 0 0 0-5.6-1.45c-2.663-.628-5.4-1.027-7.991-1.865-7.843-2.535-7.324-11.65-2.33-15.442a14.328 14.328 0 0 1 4.475-2.314 18.438 18.438 0 0 1 11.673.292 11.059 11.059 0 0 1 7.387 8c.488 1.875-.019 2.54-1.948 2.614-.888.034-1.782-.041-2.668.018a2 2 0 0 1-2.259-1.395c-.811-2.221-2.595-3.149-4.756-3.64a9.7 9.7 0 0 0-6.148.65 5.261 5.261 0 0 0-1.609 1.046c-1.382 1.379-1.115 3.185.736 3.83a54.969 54.969 0 0 0 6.1 1.458c2.2.494 4.446.834 6.6 1.472 9.189 2.717 8.239 13.009 3.545 16.97-3.072 2.593-6.658 3.486-10.732 3.44z"/>
        <path data-name="Path 714" d="M235.766 46.288a46.541 46.541 0 0 1-6.081 2.214 12.434 12.434 0 0 1-15.224-10.2 27.2 27.2 0 0 1-.426-4.557c-.05-5.562-.027-11.125-.017-16.688 0-2.635.281-2.9 2.91-2.924 3.893-.038 3.893-.038 3.893 3.846v16.2a7.9 7.9 0 0 0 3.195 6.713 7.183 7.183 0 0 0 11.356-3.99 14.19 14.19 0 0 0 .365-3.343c.035-5.562.008-11.125.02-16.688.005-2.522.215-2.708 2.805-2.742 4.033-.053 4.033-.053 4.033 3.973v26.6c0 .564.014 1.13-.016 1.693a1.432 1.432 0 0 1-1.5 1.543c-1.212.031-2.426 0-3.638.012-1.314.014-1.447-1.054-1.675-1.662z"/>
        <path data-name="Path 715" d="M185.519 16.405a13.582 13.582 0 0 1 12.035-2.483 11.507 11.507 0 0 1 8.531 7.823 18.681 18.681 0 0 1 1.01 5.669c.128 6.044.063 12.092.049 18.138 0 2.27-.377 2.608-2.693 2.657-4.055.087-4.1.047-4.1-3.9V29.072c0-.564.013-1.129-.006-1.693-.15-4.57-2.923-7.476-7.144-7.5a7.472 7.472 0 0 0-7.746 7.594c-.1 5.642-.023 11.286-.024 16.929 0 .645-.01 1.29 0 1.935.014 1.2-.653 1.745-1.778 1.858-.08.008-.161.008-.243.01-5.355.105-4.854-.049-4.84-4.395.028-8.868 0-17.736.011-26.6 0-2.631.283-2.909 2.878-2.955.485-.009.972-.023 1.456 0 1.729.088 1.801.149 2.604 2.15z"/>
        <path data-name="Path 716" d="M89.962 20.981c-.935-.044-1.645-.066-2.353-.115-.4-.028-.9.037-1.177-.175-1.661-1.3-.765-3.139-.86-4.741-.068-1.141.834-1.651 1.947-1.695.714-.028 1.428-.062 2.442-.107 0-1.421-.02-2.76 0-4.1.042-2.338.382-2.676 2.645-2.72.4-.008.808 0 1.212 0 2.685.019 2.987.328 3.009 3.105.01 1.186 0 2.372 0 3.819 1.747 0 3.258-.028 4.769.007 2.146.049 2.511.433 2.578 2.562v.242c.062 3.744 0 3.807-3.685 3.808h-3.482c-.071.622-.166 1.076-.167 1.528q-.016 6.405 0 12.81a16.231 16.231 0 0 0 .13 2.169 4.618 4.618 0 0 0 4.244 4.25c3.079.427 3.079.427 3.067 3.572 0 .242.007.484 0 .725-.068 1.834-.48 2.31-2.281 2.346-6.569.13-10.875-3.929-11.7-9.606a53.483 53.483 0 0 1-.319-6.985c-.055-3.521-.019-7.046-.019-10.699z"/>
        <path data-name="Path 717" d="M258.122 20.874c0 5.38-.09 10.45.032 15.515.082 3.383 1.68 4.9 5.063 5.286 2.055.237 2.258.461 2.3 2.557.007.322 0 .645 0 .967-.01 2.81-.435 3.219-3.206 3.081-6.264-.311-10.7-4.8-10.939-11.3-.163-4.5-.055-9.019-.068-13.529v-2.578h-2.57c-1.172 0-1.722-.532-1.83-1.74-.4-4.4-.221-4.65 4.4-5.029 0-1.458-.025-2.954.006-4.448.038-1.853.427-2.283 2.272-2.314 4.5-.074 4.633-.185 4.518 4.21-.021.8 0 1.592 0 2.7 1.632 0 3.128-.024 4.623.005 2.39.047 2.663.328 2.7 2.622.059 3.991.059 3.991-3.919 3.991z"/>
        <path data-name="Path 718" d="M42.953 16.387a12.786 12.786 0 0 1 8.042-2.9c1.923.019 2.317.344 2.333 2.2a10.445 10.445 0 0 1-.269 3.795c-.581 1.471-2.3.778-3.491 1.058-4.317 1.016-6.484 3.519-6.529 8.008-.055 5.476-.013 10.952-.016 16.428a4.127 4.127 0 0 1-.071 1.669c-.285.587-.824 1.375-1.352 1.458a18.124 18.124 0 0 1-4.1.053 1.594 1.594 0 0 1-1.486-1.635c-.013-.16-.01-.322-.01-.483 0-9.9-.015-19.81.015-29.714 0-1.521.5-1.941 2.072-2.065a20.134 20.134 0 0 1 2.18-.01c1.888.051 1.962.119 2.682 2.138z"/>
        <path data-name="Path 719" d="M237.298 62.912h3.1l.605 2.19c2.884-2.3 5.907-3.534 9.466-2.63a9.992 9.992 0 0 1 5.608 3.98 11.186 11.186 0 0 1-.3 13.469 7.89 7.89 0 0 1-4.441 3.193 13.1 13.1 0 0 1-5.222.42c-1.724-.32-3.3-1.445-5.105-2.3-.588 1.774-.215 3.6-.28 5.388-.067 1.834-.015 3.671-.015 5.631h-3.382c-.063-9.671-.013-19.373-.034-29.341zm9.917 2.41a11.859 11.859 0 0 0-1.6.44 7.794 7.794 0 0 0-2.873 12.4 6.288 6.288 0 0 0 9.7.421 8.021 8.021 0 0 0 2.179-4.443 7.526 7.526 0 0 0-7.406-8.818z"/>
        <path data-name="Path 720" d="M163.929 30.979c0-4.743-.011-9.485 0-14.229.008-2.381.234-2.586 2.637-2.622 4.17-.063 4.17-.063 4.17 4.068v27.011c0 2.738-.267 2.986-3.068 3.006h-.726c-2.83-.022-3.01-.194-3.014-3q-.006-7.119.001-14.234z"/>
        <path data-name="Path 721" d="M301.518 83.101c-1.53.331-3.041.488-3.895-1.482-3.369 2.569-6.987 2.616-10.667 1.545a5.462 5.462 0 0 1-4.071-5.344c-.109-2.941.948-4.758 3.669-5.827a20.925 20.925 0 0 1 3.949-.891c1.8-.325 3.624-.569 5.433-.872a2.1 2.1 0 0 0 1.965-1.825 2.341 2.341 0 0 0-1.64-2.43 7.727 7.727 0 0 0-7.17.376 2.082 2.082 0 0 0-.91 1.069c-.633 1.993-2.075 1.865-3.753 1.575a4.606 4.606 0 0 1 2.2-4.979 11.953 11.953 0 0 1 11.532-.692 5.211 5.211 0 0 1 3.131 5.025c.065 3.3 0 6.6.028 9.892.012 1.579.125 3.157.199 4.86zm-3.6-10.176c-2.559.395-4.747.719-6.931 1.075a14.983 14.983 0 0 0-2.8.589 2.935 2.935 0 0 0-1.917 3.02 3.025 3.025 0 0 0 2.318 2.7 8.729 8.729 0 0 0 6.736-.627 4.538 4.538 0 0 0 2.567-3.787 19.658 19.658 0 0 0 .026-2.97z"/>
        <path data-name="Path 722" d="M231.918 83.131h-3.066l-.829-1.594c-2.625 2.268-5.657 2.4-8.76 2.145-4.528-.367-7.363-4.516-5.724-8.508 1.141-2.781 3.639-3.676 6.381-4.037 1.591-.21 3.2-.3 4.788-.5a7.612 7.612 0 0 0 1.848-.474 2.162 2.162 0 0 0 1.565-2.181 2.007 2.007 0 0 0-1.731-2.034 16.161 16.161 0 0 0-4.5-.531c-2.121.139-3.492 1.5-4.166 3.6h-3.16a5.39 5.39 0 0 1 3.234-5.527 11.377 11.377 0 0 1 10.626-.142 5.171 5.171 0 0 1 3.079 5.045 274.804 274.804 0 0 0 0 10.151c.031 1.48.263 2.965.415 4.587zm-3.822-10.02c-2.824.347-5.348.614-7.856.992a9.337 9.337 0 0 0-2.235.827 2.53 2.53 0 0 0-1.515 2.512 2.683 2.683 0 0 0 1.578 2.482c2.872 1.444 5.6.9 8.193-.612a3.668 3.668 0 0 0 1.832-3.2c.015-.952.001-1.895.001-3.001z"/>
        <path data-name="Path 723" d="M206.605 77.016h2.973a3.875 3.875 0 0 1-.087 1.437 9.545 9.545 0 0 1-7.829 5.277 10.23 10.23 0 0 1-11.281-8.048c-1.467-6.889 2.747-12.853 9.759-13.575 3.508-.362 7.769 2.174 9.295 5.393a5.56 5.56 0 0 1 .21 1.518h-3.069c-.437-.5-.932-1.129-1.49-1.694a6.272 6.272 0 0 0-9.091-.164 7.691 7.691 0 0 0-2.281 7.736 7.023 7.023 0 0 0 5.089 5.586A6.213 6.213 0 0 0 204.82 79a19.3 19.3 0 0 0 1.785-1.984z"/>
        <path data-name="Path 724" d="M280.354 82.977c-4.268.553-7.082-1.363-7.675-5.393a69.149 69.149 0 0 1-.413-7.414c-.051-1.353-.009-2.709-.009-4.184l-2.37-.347v-3.1l2.37-.22c0-.807-.016-1.508 0-2.208.053-1.921.149-2.013 2.083-2.038.315 0 .631.047 1.223.095v4.179h4.693v3.446c-1.045 0-2.071.015-3.1 0-.831-.015-1.5.234-1.481 1.166.08 3.359.222 6.716.33 10.074.05 1.546 1.085 2.272 2.353 2.72 2.144.753 2.156.719 1.996 3.224z"/>
        <path data-name="Path 725" d="M29.628 57.459a4.764 4.764 0 0 1-4.624 4.855 5.043 5.043 0 0 1-5.02-4.812 4.872 4.872 0 0 1 4.967-4.8 4.671 4.671 0 0 1 4.677 4.757z"/>
        <path data-name="Path 726" d="M265.665 83.127h-3.038c-.051-.682-.144-1.365-.146-2.049q-.018-8.086 0-16.172c0-2.572.29-2.761 3.045-2.121.45 1.686.58 16.829.139 20.342z"/>
    </g>
</svg>
