<svg xmlns="http://www.w3.org/2000/svg" width="489.747" height="82.321" viewBox="0 0 489.747 82.321">
    <g data-name="Group 290">
        <path data-name="Path 231" d="M-947.321 1164.954c-2.91.03-5.82.09-8.73.081-3.769-.012-5.03-2.029-3.168-5.262 5.747-9.976 11.591-19.9 17.354-29.865 4.465-7.723 3.685-6.74 12.083-6.789 1.5-.009 2.992.049 4.487.077a31.163 31.163 0 0 1-1.485 4.116c-1.22 2.344-2.69 4.558-3.964 6.877q-4.831 8.8-9.577 17.638c-2.353 4.366-4.668 8.751-7 13.127z" transform="translate(960.069 -1123.102)" style="fill:#fe878e"/>
        <path data-name="Path 232" d="M-863.923 1267.414c-1.516 4.191-4.674 5.547-8.938 5.512-11.988-.1-23.978-.03-35.966-.034-4.389 0-5.574-1.936-3.494-5.794 1.216-2.255 2.554-4.444 3.838-6.663l19.013-.067c5.546-.325 11.329 1.342 16.523-1.948.445 1.915 1.813 2.855 3.457 3.818 2.19 1.281 5.277 1.807 5.567 5.176z" transform="translate(936.747 -1190.606)" style="fill:#fee9ec"/>
        <path data-name="Path 233" d="m-930.384 1228.735-8.2-.04c-4.381-.015-5.508-1.963-3.324-5.763a7.089 7.089 0 0 1 .6-.775c1.561-.165 3.12-.458 4.682-.472 6.09-.055 12.18-.023 18.271-.019.332 0 .663.053 1 .066 3.394.136 6.788.322 10.184.39 4.45.09 8.9.081 13.354.141.2 0 .394.272.592.416l-4 5.527a25.98 25.98 0 0 1-3.152.422c-4.291.067-8.583.059-12.875.079z" transform="translate(951.551 -1172.265)" style="fill:#fe94a1"/>
        <path data-name="Path 234" d="M-823.738 1248.584c-.291-3.369-3.379-3.895-5.567-5.176-1.644-.963-3.012-1.9-3.457-3.817l.058-.958 2.976-4.983 4.485-7.494 3.507-5.482 10.014 6.977q-4.97 8.8-9.947 17.6c-.646 1.133-1.377 2.222-2.069 3.333z" transform="translate(896.562 -1171.776)" style="fill:#feeff2"/>
        <path data-name="Path 235" d="M-891.568 1217.223c-.2-.145-.393-.413-.592-.416-4.451-.06-8.9-.051-13.354-.141-3.4-.068-6.79-.254-10.184-.39-.332-.013-.664-.066-1-.066-6.09 0-12.181-.037-18.271.019-1.562.014-3.121.307-4.682.472l3.5-5.986q2.189 0 4.379.007c12.092 0 24.183-.027 36.275.023 2.48.01 4.958.311 7.437.478l-3.041 5.972q-.232.005-.467.028z" transform="translate(949.88 -1166.807)" style="fill:#fe9ca8"/>
        <path data-name="Path 236" d="m-876.466 1246.142-.058.958c-5.193 3.289-10.977 1.623-16.522 1.948-.6-.647-1.078-1.621-1.817-1.891-7.462-2.737-14.959-5.379-22.468-7.987a17.983 17.983 0 0 0-3.156-.511l1.331-2.9 17.117-.028c.155 2.229 2.182 2.309 3.582 2.812 7.299 2.619 14.657 5.081 21.991 7.599z" transform="translate(940.323 -1179.285)" style="fill:#fec5cc"/>
        <path data-name="Path 237" d="M-823.778 1176.887q3.514.259 7.027.521a12.649 12.649 0 0 1 2.93.274c2.561.836 3.207 2.754 1.867 5.052-1.282 2.2-2.54 4.414-3.808 6.622l-3.981 5.991-12.069-4.495.531-1.492 3.039-5.437 4.012-7.013a3.838 3.838 0 0 0 .452-.023z" transform="translate(896.087 -1149.933)" style="fill:#fee3e7"/>
        <path data-name="Path 238" d="M-832.277 1164.46a3.892 3.892 0 0 1-.451.024c-1.531 0-3.064.037-4.593-.02-3.844-.142-7.686-.328-11.528-.5l6.534-11.961.194-.031.2.018c3.561.01 7.122-.007 10.682.035 3.67.043 4.848 2.183 3.006 5.376-1.357 2.351-2.698 4.707-4.044 7.059z" transform="translate(904.587 -1137.505)" style="fill:#febec6"/>
        <path data-name="Path 239" d="M-934.632 1165.047c2.332-4.376 4.648-8.761 7-13.126q4.761-8.834 9.577-17.638c1.274-2.319 2.744-4.533 3.964-6.877a31.158 31.158 0 0 0 1.485-4.116h8.511c-.455 1.054-.864 2.131-1.373 3.16-1.862 3.759-3.758 7.5-5.64 11.251-2.2.068-4.84-.569-6.184 1.6-3.929 6.352-7.581 12.874-11.341 19.329l-3.493 6.473-1.015.013z" transform="translate(947.38 -1123.196)" style="fill:#fe8088"/>
        <path data-name="Path 240" d="M-924.092 1241.579a17.983 17.983 0 0 1 3.156.511c7.508 2.608 15.005 5.25 22.468 7.987.739.271 1.217 1.244 1.817 1.891l-19.014.066c-2.649-.009-5.3.038-7.947-.039-3.88-.112-5.07-2.1-3.3-5.483.877-1.677 1.876-3.291 2.82-4.933z" transform="translate(943.928 -1182.205)" style="fill:#febec6"/>
        <path data-name="Path 241" d="m-809.241 1207.76 3.981-5.991a8 8 0 0 0 2.338.955c2.07.137 4.158-.019 6.233.065 2.665.108 3.956 1.94 2.711 4.213-2.1 3.826-4.5 7.487-6.768 11.218l-10.014-6.977z" transform="translate(885.586 -1162.345)" style="fill:#fef5f6"/>
        <path data-name="Path 242" d="m-932.161 1203.279 1.015-.014 10.015-.045c5.392.021 10.792-.129 16.173.126 3.263.155 5.629-.855 7.325-3.566 1.8.168 3.6.388 5.4.492 3.545.2 7.094.342 10.641.508l-.53 1.492-2.454 3.5c-2.479-.167-4.957-.468-7.437-.478-12.092-.05-24.183-.023-36.275-.023q-2.189 0-4.379-.007l.506-1.985z" transform="translate(946.399 -1161.354)" style="fill:#fea2ae"/>
        <path data-name="Path 243" d="M-887.692 1137.7c1.883-3.749 3.778-7.492 5.641-11.251.509-1.028.918-2.105 1.373-3.16h9.513c-.955 1.895-1.933 3.778-2.858 5.687-1.4 2.9-2.772 5.815-4.156 8.724l-1.5.006z" transform="translate(923.964 -1123.197)" style="fill:#fe7882"/>
        <path data-name="Path 244" d="M-868.71 1137.7c1.384-2.909 2.751-5.825 4.156-8.724.925-1.909 1.9-3.792 2.858-5.687h8.511c-.916 1.835-1.8 3.685-2.755 5.5-1.564 2.981-3.171 5.941-4.759 8.909z" transform="translate(914.494 -1123.196)" style="fill:#fe6e7c"/>
        <path data-name="Path 245" d="m-839.87 1137.688-.2-.019-.194.031-4.469.009c.526-1.111 1.04-2.228 1.58-3.333q2.708-5.542 5.432-11.077c3.587-.047 4.852 1.912 3.163 4.976-1.735 3.156-3.542 6.277-5.312 9.413z" transform="translate(902.532 -1123.2)" style="fill:#fe626c"/>
        <path data-name="Path 246" d="M-841.706 1123.3q-2.717 5.538-5.432 11.077c-.54 1.1-1.054 2.222-1.58 3.333h-1l-3.008-.006c1.589-2.969 3.2-5.928 4.759-8.909.953-1.817 1.839-3.667 2.755-5.5z" transform="translate(906.521 -1123.196)" style="fill:#fe6a73"/>
        <path data-name="Path 247" d="M-858.1 1245.645c-7.336-2.518-14.692-4.98-21.99-7.6-1.4-.5-3.427-.584-3.582-2.812 4.292-.019 8.584-.012 12.875-.078a25.89 25.89 0 0 0 3.151-.422 20.361 20.361 0 0 0 2.936 1.944c3.163 1.4 6.387 2.669 9.587 3.988q-1.491 2.488-2.977 4.98z" transform="translate(921.96 -1178.787)" style="fill:#fecad0"/>
        <path data-name="Path 248" d="M-839.173 1235.132c-3.2-1.32-6.424-2.586-9.587-3.988a20.361 20.361 0 0 1-2.936-1.944l4-5.526q.235-.022.47-.029a22.385 22.385 0 0 1 2.6.553c3.324 1.115 6.628 2.288 9.939 3.44z" transform="translate(906.007 -1173.258)" style="fill:#fed0d6"/>
        <path data-name="Path 249" d="M-830.237 1218.214c-3.312-1.152-6.616-2.325-9.939-3.44a22.412 22.412 0 0 0-2.6-.553l3.041-5.972 2.454-3.5 12.068 4.495-1.52 3.483z" transform="translate(901.556 -1163.834)" style="fill:#fed8de"/>
        <path data-name="Path 250" d="M-852.3 1175.9c3.842.168 7.684.355 11.528.5 1.529.057 3.061.016 4.593.02l-4.012 7.013a8.39 8.39 0 0 0-2.559-.993c-3.565-.113-7.135-.016-10.7-.072a11.275 11.275 0 0 1-2.311-.521z" transform="translate(908.035 -1149.443)" style="fill:#feb1bb"/>
        <path data-name="Path 251" d="M-859.253 1187.762a11.283 11.283 0 0 0 2.311.521c3.568.056 7.138-.041 10.7.072a8.387 8.387 0 0 1 2.559.993l-3.039 5.437c-3.547-.166-7.1-.3-10.641-.508-1.8-.1-3.6-.324-5.4-.492z" transform="translate(911.527 -1155.358)" style="fill:#fea9b4"/>
        <path data-name="Path 252" d="m-882.644 1169.94-3.508 6.023c-1.7 2.711-4.063 3.721-7.325 3.566-5.38-.255-10.781-.105-16.173-.126.142-.453.142-1.07.448-1.334 4.515-3.894 8.99-7.841 13.639-11.573 5.294-4.248 10.768-8.272 16.117-12.453a7.733 7.733 0 0 0 1.331-2h1l4.469-.008-6.533 11.965z" transform="translate(934.917 -1137.536)" style="fill:#fe5964"/>
        <path data-name="Path 253" d="M-888.083 1152.053a7.734 7.734 0 0 1-1.331 2c-5.349 4.181-10.823 8.206-16.117 12.454-4.65 3.731-9.124 7.679-13.639 11.573-.306.265-.306.882-.448 1.334l-10.015.044 3.494-6.473a61.868 61.868 0 0 0 5.952-3.74c5.625-4.452 11.167-9.011 16.658-13.626a24.561 24.561 0 0 0 2.93-3.561l1.5-.006h8.01z" transform="translate(944.886 -1137.541)" style="fill:#fe626c"/>
        <path data-name="Path 254" d="M-897.122 1152.017a24.56 24.56 0 0 1-2.93 3.561c-5.491 4.615-11.033 9.175-16.658 13.626a61.875 61.875 0 0 1-5.952 3.74c3.761-6.455 7.412-12.977 11.341-19.329 1.344-2.174 3.987-1.536 6.184-1.6z" transform="translate(941.409 -1137.505)" style="fill:#fe6a73"/>
        <path data-name="Path 255" d="m-326.163 1197.781 8.4-28.038h6.919l8.737 28.969c2.883-9.985 5.6-19.385 8.348-28.918h7.594l-12.3 36.717h-7.318l-8.533-27.642-8.558 27.633h-7.312l-11.594-36.654h7.492l7.638 28z" transform="translate(651.634 -1146.369)" style="fill:#fff"/>
        <path data-name="Path 256" d="M-492.119 1206.193h-6.692v-36.381h6.709l11.962 18.6 11.986-18.631h6.666v36.334h-6.719v-24.747l-9.144 14.39h-5.568l-9.2-14.523z" transform="translate(729.97 -1146.387)" style="fill:#fff"/>
        <path data-name="Path 257" d="m-633.612 1190.117 10.888 15.855h-8.463l-9.746-14.529h-6.019v14.586h-7.255v-36.41c4.667 0 9.381-.073 14.09.034a25.987 25.987 0 0 1 5.93.761c4.273 1.115 6.78 4.033 7.174 7.952.566 5.623-1.081 9.025-5.439 11.227-.288.146-.587.266-1.16.524zm-13.273-4.205a71.1 71.1 0 0 0 8.251-.066c3.07-.365 4.424-2.261 4.441-5.319.017-3.012-1.361-5.056-4.349-5.438a66.317 66.317 0 0 0-8.342-.074z" transform="translate(807.49 -1146.295)" style="fill:#fff"/>
        <path data-name="Path 258" d="M-112.594 1191.379h-5.933v14.67h-7.316V1169.6c4.576 0 9.2-.037 13.819.021a25.906 25.906 0 0 1 4.713.452c5.3 1.056 8.206 3.859 8.7 8.229.656 5.832-1.159 9.208-6.593 11.832l10.907 15.908h-8.451zm-6.011-5.051c3.15-.191 6.055-.162 8.887-.6 2.64-.407 3.764-2.151 3.856-5.009.1-2.941-1.013-4.992-3.629-5.449a84.883 84.883 0 0 0-9.114-.661v11.717z" transform="translate(543.915 -1146.291)" style="fill:#fff"/>
        <path data-name="Path 259" d="M-201.67 1206.19c-11.3.079-18.906-7.469-19.018-18.863-.111-11.358 7.357-19 18.727-19.155 11.266-.156 19.014 7.436 19.137 18.754.124 11.52-7.371 19.183-18.846 19.264zm11.843-18.991c-.472-6.948-4.4-14.084-12.169-13.615a10.855 10.855 0 0 0-10.489 8.075c-6.322 20.397 20.768 28.071 22.658 5.541z" transform="translate(591.228 -1145.584)" style="fill:#fff"/>
        <path data-name="Path 260" d="M-570.478 1168.778h7.124l14.131 36.83h-7.427l-3.461-9.694h-13.579l-3.486 9.713h-7.356zm8.535 21.879-4.981-14.285-4.974 14.285z" transform="translate(772.732 -1145.888)" style="fill:#fff"/>
        <path data-name="Path 261" d="M-392.041 1201.121h16.2v5.05h-23.468v-36.2h22.409v4.909H-392v9.481h12.851v5.157h-12.893z" transform="translate(680.333 -1146.482)" style="fill:#fff"/>
        <path data-name="Path 262" d="M-692.9 1169.836v5.048h-15.07v10.916h12.851v5.377h-12.931v14.962h-7.277v-36.3z" transform="translate(837.979 -1146.416)" style="fill:#fff"/>
        <path data-name="Path 263" d="m-30.58 1185.725 13.588-15.929h8.609l-15.352 16.7 17.09 19.55h-8.963l-14.9-18.4z" transform="translate(496.393 -1146.395)" style="fill:#fff"/>
        <path data-name="Path 264" d="m-38.454 1185.775.077 1.929a8.313 8.313 0 0 0-.705 2.27c-.062 5.378-.033 10.758-.033 16.237h-7.249V1169.9h7.249c0 4.39-.035 8.831.03 13.271a11.878 11.878 0 0 0 .631 2.604z" transform="translate(504.267 -1146.445)" style="fill:#fff"/>
    </g>
</svg>
