<svg data-name="Group 443" xmlns="http://www.w3.org/2000/svg" width="130.616" height="41.988" viewBox="0 0 130.616 41.988">
    <path data-name="Path 329" d="M67.397 9.776h9.341c.026.508.069.989.069 1.471q.007 12.518 0 25.035a10.416 10.416 0 0 1-.169 1.618c-.479 2.977-2.129 3.947-4.92 4.014-5.767.139-11.54.041-17.465.041-.078-2.1-.016-4.167-.042-6.346.45-.037.865-.1 1.281-.1 3.409-.008 6.817 0 10.225-.006a5.027 5.027 0 0 0 1.149-.041c.2-.048.352-.324.516-.507.029-.031.01-.105.017-.16.259-2.361.011-2.635-2.393-2.637-2.2 0-4.4.016-6.6-.007a3.953 3.953 0 0 1-4.255-3.651 18.271 18.271 0 0 1-.253-2.758c-.026-4.722-.012-9.443-.012-14.165V9.772c1.584-.011 3.1-.025 4.611-.03h4.725c.028.528.074 1.008.074 1.487q.008 6.588 0 13.176a10.145 10.145 0 0 0 .018 1.152 1.48 1.48 0 0 0 1.4 1.355c2.533.323 2.687.189 2.687-2.34v-14.8z"/>
    <path data-name="Path 330" d="M40.616 0h9.1v32.063a6.125 6.125 0 0 1-.756.091q-8.743.008-17.487 0a3.918 3.918 0 0 1-4.119-2.856 4.147 4.147 0 0 1-.229-1.436c-.017-4.612-.027-9.225 0-13.838a4.115 4.115 0 0 1 4.207-4.268c1.588-.029 3.176-.006 4.857-.006.036.5.093.925.093 1.348q.01 6.589 0 13.18a7.736 7.736 0 0 0 .023 1.151 1.563 1.563 0 0 0 1.358 1.443 12.971 12.971 0 0 0 2.466 0c.171-.012.423-.332.459-.54a7.792 7.792 0 0 0 .028-1.314V0z"/>
    <path data-name="Path 331" d="M130.597 32.124h-9.334c-.026-.491-.072-.968-.072-1.447q-.008-6.583 0-13.164a10.96 10.96 0 0 0-.017-1.151 1.386 1.386 0 0 0-1.213-1.341c-.868-.054-1.744.032-2.615.058a20.248 20.248 0 0 0-.245 2.222c-.023 4.333-.011 8.666-.011 13v1.613a49 49 0 0 1-9.091.1V9.741h1.323c5.437 0 10.877.086 16.312-.031 3.336-.072 4.787 2.01 4.955 4.819.065 1.093.008 2.193.008 3.29v12.507z"/>
    <path data-name="Path 332" d="M.414 9.742h3.3c4.944 0 9.889.021 14.832-.01a4 4 0 0 1 3.065 1.291 3.911 3.911 0 0 1 1.175 2.943c-.03 3.949-.008 7.9-.007 11.849v6.244c-.508.035-.975.1-1.443.1-5.439.006-10.878-.066-16.315.032-2.772.049-4.555-1.348-4.847-4.2a18.663 18.663 0 0 1 .191-6.366 4.129 4.129 0 0 1 3.967-3.277c1.647-.029 3.295-.007 5.058-.007.038.442.1.856.1 1.27.011 1.811-.011 3.621.01 5.431.018 1.412.465 1.875 1.877 1.873 2.535-.006 2.2.321 2.217-2.142q.023-3.868 0-7.736c-.008-1.55-.478-2.035-2.077-2.047-3.625-.023-7.249-.007-11.043-.007-.12-1.699-.009-3.366-.06-5.241z"/>
    <path data-name="Path 333" d="M81.017 9.799c.281-.022.494-.054.708-.054 5.828 0 11.656-.012 17.483 0a3.9 3.9 0 0 1 4.126 2.843 4.247 4.247 0 0 1 .236 1.434c.027 1.757-.066 3.518.03 5.27a4.361 4.361 0 0 1-4.272 4.286c-1.58-.083-3.168-.017-4.915-.017v-5.5c0-2.855-.343-3.181-3.244-3.087-.164.006-.33 0-.494.008a.562.562 0 0 0-.589.634c0 .384-.006.768-.006 1.153 0 2.416.089 4.836-.027 7.246-.1 2.151.611 3.034 3.011 2.928 2.8-.123 5.607-.029 8.411-.029h1.7V32.1c-.339.02-.6.05-.869.05-5.662 0-11.326-.02-16.988.013a4.115 4.115 0 0 1-4.147-2.841 3.445 3.445 0 0 1-.247-1.265q-.022-8.894 0-17.789a3.168 3.168 0 0 1 .093-.469z"/>
</svg>
