<svg data-name="Group 444" xmlns="http://www.w3.org/2000/svg" width="182.864" height="44.252" viewBox="0 0 182.864 44.252">
    <path data-name="Path 411" d="M0 10.399c.12-.648.217-1.3.362-1.943a11.03 11.03 0 0 1 18.6-5.084c.512.505 1 1.033 1.538 1.514a1.06 1.06 0 0 0 .631.192c.674.028 1.352.034 2.027.013a1.029 1.029 0 0 0 .625-.2c.663-.613 1.266-1.3 1.94-1.9A10.645 10.645 0 0 1 36.731.614a10.38 10.38 0 0 1 7.316 8.413 10.606 10.606 0 0 1-3.007 9.742c-.63.649-1.293 1.267-1.908 1.928a1.184 1.184 0 0 0-.243.662 9.787 9.787 0 0 1 .009.991 1.46 1.46 0 0 0 .554 1.485 25.265 25.265 0 0 1 2.446 2.559 10.965 10.965 0 0 1-6.759 17.573 10.7 10.7 0 0 1-9.571-2.948c-.668-.637-1.3-1.316-1.974-1.941a1.257 1.257 0 0 0-.712-.266 8.73 8.73 0 0 0-1.481 0 1.272 1.272 0 0 0-.712.278c-.9.825-1.7 1.759-2.647 2.516a11 11 0 0 1-17.8-6.53c-.088-.446-.167-.894-.249-1.341v-1.106a2.988 2.988 0 0 0 .132-.528 10.627 10.627 0 0 1 1.159-4 14.54 14.54 0 0 1 3.409-4.107 2.322 2.322 0 0 0 .979-2.322 1.772 1.772 0 0 0-.324-.809c-.715-.771-1.485-1.489-2.217-2.245a10.512 10.512 0 0 1-2.785-5.127c-.139-.625-.236-1.259-.352-1.888zm21.909 3.2.023-.225c-.349.1-.8.088-1.029.309-2.248 2.188-4.456 4.416-6.682 6.625a.757.757 0 0 0-.191.727 10.255 10.255 0 0 1 .007 2.071.9.9 0 0 0 .259.866 506.63 506.63 0 0 1 5.912 5.908 1.416 1.416 0 0 0 1.53.519 6.164 6.164 0 0 1 1.257.051 1.14 1.14 0 0 0 .71-.226q3.293-3.243 6.539-6.532a1.275 1.275 0 0 0 .236-.768c.032-.527-.05-1.064.016-1.584a.963.963 0 0 0-.3-.923q-3.013-2.974-6-5.979c-.619-.626-1.155-1.423-2.287-.844zm18.2-2.692a8.569 8.569 0 0 0-.1-1.042A6.883 6.883 0 0 0 28.362 6.21c-.481.457-.918.964-1.42 1.4a1.419 1.419 0 0 0-.585 1.426 2.617 2.617 0 0 1-.064 1.04.811.811 0 0 0 .25.878q3.367 3.327 6.7 6.686a.836.836 0 0 0 .828.257 4.783 4.783 0 0 1 1.371.038.88.88 0 0 0 .878-.276c.605-.648 1.256-1.25 1.87-1.889a6.848 6.848 0 0 0 1.92-4.871zM4.177 32.645c0 3.276 1.607 5.8 4.16 6.819a6.709 6.709 0 0 0 7.447-1.323 26.974 26.974 0 0 0 1.912-1.922 1.3 1.3 0 0 0 .236-.767 12.853 12.853 0 0 1-.01-1.481.853.853 0 0 0-.29-.864q-3.241-3.218-6.464-6.455a1.073 1.073 0 0 0-.873-.346c-.51.013-1.023-.094-1.535-.1a.95.95 0 0 0-.616.187 49.556 49.556 0 0 0-2.119 2.108 6.484 6.484 0 0 0-1.848 4.144zm29.05 7.326h.83a1.215 1.215 0 0 0 .22-.019 6.865 6.865 0 0 0 4.083-11.345c-.674-.778-1.442-1.476-2.184-2.194a.729.729 0 0 0-.475-.17 16.308 16.308 0 0 0-1.7.075 1.343 1.343 0 0 0-.759.273c-2.222 2.184-4.42 4.393-6.633 6.587a.843.843 0 0 0-.278.815c.067.484-.036.989-.017 1.482a1.1 1.1 0 0 0 .214.668 47.393 47.393 0 0 0 1.911 1.92 6.515 6.515 0 0 0 4.788 1.908zM4.177 10.746a6.92 6.92 0 0 0 1.786 4.859 48.325 48.325 0 0 0 2.227 2.232.857.857 0 0 0 .575.154c.549-.022 1.1-.072 1.643-.146a1.228 1.228 0 0 0 .663-.246q3.367-3.323 6.691-6.689a1.128 1.128 0 0 0 .206-.715c.007-.548-.031-1.1-.078-1.645a.994.994 0 0 0-.177-.573c-.646-.682-1.291-1.374-2-1.991a6.9 6.9 0 0 0-11.538 4.759z"/>
    <path data-name="Path 412" d="M104.238 16h4.72v3.461h-4.741v16.4h-4.013V19.524h-9.146v16.359h-4.009V19.489h-3.645v-3.487h3.637c0-.261-.008-.472 0-.683a34.768 34.768 0 0 1 .218-4.461c.614-3.579 3.677-5.32 6.977-5.042 1.669.141 1.665.176 1.665 1.846v1.822a18.015 18.015 0 0 0-2.415.019 2.627 2.627 0 0 0-2.353 2.486c-.1 1.209-.064 2.43-.1 3.646-.01.421.29.348.537.348q3.491.005 6.983 0h1.627c0-.327-.009-.6 0-.864a28.512 28.512 0 0 1 .211-4.35c.728-3.711 3.861-5.2 6.945-4.957a6.988 6.988 0 0 1 1.354.255.561.561 0 0 1 .336.4c.029 1.029.016 2.06.016 3.084-.627-.053-1.21-.148-1.793-.142a2.786 2.786 0 0 0-2.994 2.59 39.158 39.158 0 0 0-.017 4.001z"/>
    <path data-name="Path 413" d="M76.574 18.066v-2.1h3.957v19.849h-3.953v-2.014a10.164 10.164 0 0 1-8.709 1.994 9.859 9.859 0 0 1-5.777-3.744 10.121 10.121 0 0 1 .466-12.794 10.26 10.26 0 0 1 14.016-1.191zm-.073 7.927a6.333 6.333 0 1 0-6.384 6.286 6.348 6.348 0 0 0 6.384-6.286z"/>
    <path data-name="Path 414" d="M124.158 35.884h-3.836V16.037h3.723v2.78c.2-.252.3-.37.387-.494a7.013 7.013 0 0 1 7.6-2.712c2.9.588 4.461 2.563 5.084 5.346a10.152 10.152 0 0 1 .233 2.136c.021 4.093.011 8.185.01 12.278 0 .161-.017.322-.028.513h-3.844v-.663c0-3.705.008-7.411-.008-11.116a8.813 8.813 0 0 0-.18-1.863 3.959 3.959 0 0 0-3.987-3.323c-3.073-.146-5.1 1.831-5.14 5.115-.044 3.723-.013 7.447-.016 11.171z"/>
    <path data-name="Path 415" d="M165.694 44.241c.122-.289.2-.49.292-.684 1.457-3.08 2.91-6.163 4.385-9.235a1.2 1.2 0 0 0 0-1.173q-4.024-8.243-8.013-16.5c-.088-.182-.17-.367-.29-.624.218-.013.391-.031.566-.032 1.108 0 2.217.019 3.325-.012a.716.716 0 0 1 .776.516q2.817 6.276 5.663 12.539c.089.2.191.391.337.69.129-.263.224-.443.305-.63q2.729-6.284 5.449-12.573a.735.735 0 0 1 .811-.544c1.156.037 2.315.012 3.56.012-.1.252-.16.417-.233.576q-6.239 13.583-12.471 27.167a.747.747 0 0 1-.821.523c-1.176-.04-2.358-.016-3.641-.016z"/>
    <path data-name="Path 416" d="M152.004 19.463h-3.771v-3.48c.339 0 .664.007.989 0 2.09-.049 3.108-1.087 3.115-3.176V9.686h3.52v6.283h4.319v3.493h-4.262c-.013.249-.031.443-.031.637v9.845c.038 1.814.84 2.636 2.653 2.675.532.011 1.066-.064 1.664-.1 0 1.014.009 2.023-.015 3.031 0 .1-.189.263-.314.292a8.071 8.071 0 0 1-4.532-.083c-2.1-.729-3.308-2.58-3.326-5.162-.022-3.466-.007-6.932-.008-10.4z"/>
    <path data-name="Path 417" d="M116.355 16.035v19.841h-3.79V16.035z"/>
    <path data-name="Path 418" d="M144.66 35.915c-1.191 0-2.316.011-3.439-.016-.121 0-.253-.216-.348-.352-.044-.064-.009-.18-.009-.272V16.037h3.8z"/>
    <path data-name="Path 419" d="M114.485 5.635a2.772 2.772 0 1 1-2.826 2.78 2.771 2.771 0 0 1 2.826-2.78z"/>
    <path data-name="Path 420" d="M140.004 8.417a2.779 2.779 0 1 1 2.769 2.761 2.73 2.73 0 0 1-2.769-2.761z"/>
</svg>
