<svg data-name="Group 445" xmlns="http://www.w3.org/2000/svg" width="182.864" height="25.501" viewBox="0 0 182.864 25.501">
    <path data-name="Path 513" d="M9.714 0c1.223.717 2.445 1.436 3.67 2.147 1.894 1.1 3.793 2.189 5.681 3.3a.533.533 0 0 1 .217.391q.016 9.156.008 18.312a1.661 1.661 0 0 1-.019.177c-.1.01-.2.029-.3.029-1.034 0-2.07-.012-3.106.006-.327.006-.428-.092-.426-.423.012-2.284 0-4.568.016-6.853 0-.358-.084-.455-.452-.453-3.629.016-7.258.01-10.887.012-.069 0-.14.012-.247.022-.007.133-.019.258-.019.384 0 2.285-.007 4.57.008 6.854 0 .361-.1.466-.463.46-1.13-.021-2.26 0-3.391 0V5.572l.891-.513 6.055-3.5C7.83 1.048 8.7.521 9.576.001zm-.056 12.784h5.425c.275 0 .368-.074.366-.362-.014-1.452-.012-2.9 0-4.355a.446.446 0 0 0-.263-.446q-2.6-1.493-5.19-3a.569.569 0 0 0-.632-.026Q6.727 6.132 4.08 7.648a.4.4 0 0 0-.236.415c.008 1.439.014 2.879 0 4.318 0 .313.077.406.394.4 1.802-.005 3.612.002 5.42.003z"/>
    <path data-name="Path 514" d="M81.289 0c.268.182.528.38.809.542 2.692 1.559 5.382 3.12 8.087 4.657a1.067 1.067 0 0 1 .624 1.079q-.037 8.819-.007 17.639c0 .346-.09.448-.436.442-1.023-.02-2.047-.01-3.07 0-.269 0-.365-.065-.362-.362.016-2.321.007-4.642.018-6.963 0-.305-.079-.4-.4-.4q-5.392.017-10.783 0c-.357 0-.454.126-.453.443.011 2.3.011 4.594.03 6.89 0 .289-.062.4-.369.4a106.09 106.09 0 0 0-3.141 0c-.266 0-.348-.083-.348-.347q.01-9.07 0-18.14a.46.46 0 0 1 .258-.457c1.059-.6 2.109-1.22 3.165-1.828q2.885-1.664 5.771-3.326a2.59 2.59 0 0 0 .32-.258zm5.656 10.287c0-.7-.015-1.4.007-2.106a.593.593 0 0 0-.369-.611c-.378-.2-.739-.422-1.108-.635-1.332-.768-2.666-1.533-3.995-2.307a.615.615 0 0 0-.7.009c-.311.193-.634.367-.952.55l-4.185 2.417a.52.52 0 0 0-.34.488 321.98 321.98 0 0 1 0 4.284c0 .29.083.415.409.414q5.41-.017 10.82 0c.353 0 .417-.129.41-.433-.007-.689.003-1.379.003-2.07z"/>
    <path data-name="Path 515" d="M182.864 24.359q-1.679 0-3.356-.007c-.493 0-.494 0-.494-.481V6.668c-.814.434-1.551.83-2.29 1.222-1.253.665-2.5 1.334-3.762 1.984a.541.541 0 0 1-.433-.015c-1.863-.985-3.72-1.984-5.578-2.977-.114-.061-.238-.1-.408-.172-.01.188-.025.347-.025.505v16.674c0 .464 0 .464-.468.464-1 0-2-.01-3 0-.292 0-.43-.078-.36-.393a1.708 1.708 0 0 0 .01-.356V.056c.643.343 1.227.65 1.805.966q2.194 1.2 4.383 2.413c1.235.679 2.467 1.361 3.707 2.028a.459.459 0 0 0 .37-.025q2.439-1.312 4.866-2.646c1.579-.863 3.155-1.731 4.734-2.591a.985.985 0 0 1 .3-.059z"/>
    <path data-name="Path 516" d="M54.359 25.501c-.773-.456-1.543-.916-2.319-1.368q-2.916-1.7-5.836-3.383c-.378-.219-.755-.443-1.14-.649a.5.5 0 0 1-.286-.512q.012-6.928.008-13.855c0-1.381.013-2.762-.01-4.142-.007-.37.105-.456.461-.447 1.011.025 2.024.008 3.035.009.1 0 .208.01.357.017v.545q0 7.821-.007 15.641a.51.51 0 0 0 .283.513c1.767 1.01 3.523 2.038 5.291 3.043a.576.576 0 0 0 .48.008c1.768-1.009 3.524-2.038 5.289-3.052a.469.469 0 0 0 .273-.475q-.008-7.678 0-15.355v-.867h3.846v.465q0 8.856.011 17.713a.876.876 0 0 1-.51.889c-1.968 1.111-3.92 2.251-5.877 3.381-.982.566-1.966 1.13-2.946 1.7a1.04 1.04 0 0 0-.191.187z"/>
    <path data-name="Path 517" d="m112.433 16.066 4.734 8.252c-.159.017-.261.035-.361.035-1.25 0-2.5-.007-3.75 0a.474.474 0 0 1-.483-.266c-1.36-2.361-2.737-4.712-4.09-7.075a.658.658 0 0 0-.672-.379c-1.88.013-3.761 0-5.642 0h-.439v7.716h-.434c-1 0-2-.015-3 .009-.348.009-.438-.1-.437-.437q.015-5.821.007-11.642V1.153h.354c3.786 0 7.571-.026 11.357.009a7.472 7.472 0 0 1 5.891 2.9 7.377 7.377 0 0 1 1.637 5.889 7.568 7.568 0 0 1-3.461 5.427c-.37.259-.78.448-1.211.688zM101.75 5.057v7.72c.124.006.219.012.313.013 2.391.018 4.783.04 7.174.053a3.9 3.9 0 0 0 3.118-1.366 3.94 3.94 0 0 0 .5-4.353 3.772 3.772 0 0 0-3.479-2.069q-3.607.007-7.212 0z"/>
    <path data-name="Path 518" d="M155.029 1.182v.9c-.007 4.463.01 8.927-.034 13.39a8.16 8.16 0 0 1-1.435 4.407 9.4 9.4 0 0 1-4.814 3.878 9.5 9.5 0 0 1-8.148-.652 9.242 9.242 0 0 1-4.552-5.959 10.593 10.593 0 0 1-.3-2.467c-.028-4.392-.013-8.784-.012-13.175 0-.1.011-.209.018-.332h3.836v13.56a5.788 5.788 0 0 0 11.575-.167c-.013-4.32 0-8.64 0-12.962v-.422z"/>
    <path data-name="Path 519" d="M41.584 20.447v3.023c0 .882 0 .882-.9.882H26.65c-.491 0-.492 0-.492-.488V1.174h3.85v19.273z"/>
    <path data-name="Path 520" d="M124.144 24.322V1.153h.79c.869 0 1.738.02 2.606-.01.375-.013.453.11.452.461q-.015 8.906-.008 17.814c0 1.523-.007 3.046.008 4.57 0 .282-.075.372-.359.369-1.095-.013-2.19 0-3.285-.006a1.6 1.6 0 0 1-.204-.029z"/>
</svg>
