<svg data-name="Group 462" xmlns="http://www.w3.org/2000/svg" width="130.617" height="73.442" viewBox="0 0 130.617 73.442">
    <path data-name="Path 354" d="M9.854 49.168a12.251 12.251 0 0 0-.186 23.993c.464.1.93.185 1.4.277h2.249l.942-.163a12.254 12.254 0 1 0-4.4-24.107zM12.4 70.51a9.32 9.32 0 1 1 9.171-9.32 9.379 9.379 0 0 1-9.167 9.323z"/>
    <path data-name="Path 355" d="m86.817 55.113 2.28-1.78c-.047-.063-.079-.113-.12-.156a11.875 11.875 0 0 0-12.017-3.891 12.207 12.207 0 0 0 .819 23.948l1.4.209h1.018a.658.658 0 0 1 .181-.069 11.925 11.925 0 0 0 6.953-2.643c.617-.492 1.164-1.069 1.76-1.624l-2.327-1.821a9.313 9.313 0 1 1 .05-12.173z"/>
    <path data-name="Path 356" d="m130.545 17.681-.13-1.238-.23-1.372-.452-1.811-.861-2.249-1.572-2.768-2.2-2.671a11.031 11.031 0 0 0-.909-.864c-.814-.626-1.653-1.22-2.482-1.828-.838-.448-1.65-.956-2.517-1.334a18.706 18.706 0 0 0-18.666 2.215c-.762.581-1.435 1.277-2.149 1.92l-.125.1.03.03.136-.081c.757-.469 1.492-.98 2.277-1.4a15.2 15.2 0 0 1 5.845-1.748 16.053 16.053 0 0 1 3.93.075c.594.093 1.184.206 1.776.31a18.269 18.269 0 0 1 5.96 2.906c.325.284.667.551.974.854.58.573 1.142 1.166 1.711 1.751.238.328.49.645.712.983.372.566.726 1.143 1.087 1.714l.951 2.165q.257.864.511 1.729l.245 1.377.172 1.815-.057 1.879-.727 3.05a12.616 12.616 0 0 1-6.444 7.055c-.111.045-.223.089-.332.136a12.63 12.63 0 0 1-8.409.647 13.66 13.66 0 0 1-3.653-1.609l-.148-.066-.009.007.1.118c.546.475 1.062.99 1.643 1.418a14.973 14.973 0 0 0 10.178 2.939 14.315 14.315 0 0 0 6.618-2.174c.575-.353 1.094-.8 1.637-1.2a10.446 10.446 0 0 0 .849-.683c.42-.409.826-.838 1.207-1.284.355-.416.669-.867 1-1.3.115-.168.236-.332.344-.5a15.422 15.422 0 0 0 1.555-3.485l.6-3.049.032-.359.034-.008h.035v-2.1z"/>
    <path data-name="Path 357" d="M104.679 60.176a.42.42 0 0 1-.011-.565c.545-.767 1.066-1.552 1.6-2.329l5.238-7.7c-1.284 0-2.5.007-3.717-.007a.507.507 0 0 0-.491.271q-5.356 8.156-10.725 16.3c-.063.094-.132.185-.256.355v-28.5h-3.321v34.868c.8 0 1.587-.008 2.371.006a.486.486 0 0 0 .464-.255q2.617-3.868 5.246-7.729l1.315-1.925c.088.124.153.209.212.3q3.093 4.617 6.18 9.24a.715.715 0 0 0 .7.362c1.087-.021 2.175-.008 3.263-.008h.356c-.1-.158-.16-.258-.225-.357q-4.096-6.164-8.199-12.327z"/>
    <path data-name="Path 358" d="M31.728 52.904v-3.253h-3.339v23.187h3.341V60.209a8.2 8.2 0 0 1 6.255-7.936c.64-.152 1.3-.209 1.962-.312v-2.887c-3.269.135-6.095 1.137-8.219 3.83z"/>
    <path data-name="Path 359" d="M47.193 52.936v-3.3h-3.307v23.2h3.319V60.249a8.228 8.228 0 0 1 6.3-7.982c.63-.149 1.282-.2 1.928-.3v-2.89c-3.275.131-6.112 1.139-8.24 3.859z"/>
    <path data-name="Path 360" d="M59.362 72.833h3.332V49.644h-3.332z"/>
    <path data-name="Path 361" d="M124.851 32.106a16.013 16.013 0 0 1-9.984 2.937c-.505-.02-1.01-.071-1.515-.107l-2.831-.646-3.4-1.539-2.761-2.089-2.016-2.286a19.851 19.851 0 0 1-1.985-3.659c-.036-.113-.072-.228-.11-.341a15.073 15.073 0 0 1-.729-8.008 29.367 29.367 0 0 1 .924-2.959 8.807 8.807 0 0 1 .473-.848c.589-.833 1.2-1.653 1.8-2.477a15.05 15.05 0 0 1 2.513-2.041l2.829-1.305 3.553-.586c.91.086 1.83.116 2.728.273a12.8 12.8 0 0 1 4.82 1.988 14.507 14.507 0 0 0-7.547-4.334 12.96 12.96 0 0 0-3.628-.387l-2.912.314-2.529.778-2.369 1.2-1.906 1.4-1.943 2a14.561 14.561 0 0 0-3.27 7.973 17.771 17.771 0 0 0 1.017 7.75 16.54 16.54 0 0 0 2.3 4.4l1.893 2.306 1.888 1.721 1.978 1.365 2.156 1.114 2.755.955a14 14 0 0 0 3.484.57l2.829-.013a17.4 17.4 0 0 0 4.508-.937 18.465 18.465 0 0 0 7.285-4.583l.092-.107-.14.054c-.086.057-.171.101-.25.154z"/>
    <path data-name="Path 362" d="m104.782 29.298-.041.026.05.033.009-.007z"/>
    <path data-name="Path 363" d="m125.245 31.844.009.044.039-.037z"/>
    <path data-name="Path 364" d="m125.248 31.894-.011.012.019-.008v-.01l-.006.006z"/>
    <path data-name="Path 365" d="m98.158 5.902.034-.039a.119.119 0 0 0-.03.016s-.004.014-.004.023z"/>
    <path data-name="Path 366" d="m98.189 5.861.093-.051-.03-.03z"/>
</svg>
