<svg data-name="Group 446" xmlns="http://www.w3.org/2000/svg" width="182.863" height="52.999" viewBox="0 0 182.863 52.999">
    <g data-name="Group 442">
        <path data-name="Path 627" d="M15.676 11.891a18.63 18.63 0 0 1 2.262 1.54c2.213 2.016 2.406 5.927.478 8.513a6.66 6.66 0 0 1-5.316 2.751c-4.165.125-8.334.068-12.5.087a.336.336 0 0 1-.122-.006c-.615-.248-.443-.831-.427-1.254.013-.355-.2-1 .537-1.022.551-.018 1.1-.021 1.655 0 .354.015.486-.125.442-.464a1.46 1.46 0 0 1 0-.183q0-8.966.011-17.932c0-.492-.1-.7-.63-.65-.465.046-.941-.01-1.409.016A.457.457 0 0 1 .1 2.808c-.017-.182-.064-.362-.079-.545C-.067 1.194.128.978 1.18.98c3.677 0 7.355-.026 11.033.029A5.981 5.981 0 0 1 18 4.771a5.8 5.8 0 0 1-2.324 7.12zM5.604 17.925c0 1.305.007 2.61-.005 3.914 0 .319.05.475.427.472 2.041-.022 4.084.031 6.124-.037a4.243 4.243 0 0 0 4.364-5.262 3.85 3.85 0 0 0-3.81-3.273c-2.236-.145-4.486-.089-6.729-.135-.372-.007-.374.2-.372.469.008 1.284.001 2.568.001 3.852zm0-10.658c0 1.142-.012 2.285.014 3.428 0 .151.2.428.311.427 2.042-.016 4.089.011 6.122-.134a3.287 3.287 0 0 0 2.844-1.867c1.31-2.69-.114-5.323-3.091-5.556-1.93-.151-3.878-.082-5.818-.124-.36-.008-.387.181-.385.459.012 1.122.003 2.244.003 3.367z"/>
        <path data-name="Path 628" d="M59.013 10.084c.008-.112.028-.268.028-.424 0-2.326-.01-4.651.011-6.976 0-.475-.125-.668-.615-.609-.322.037-.659-.034-.979.016-.6.089-.747-.256-.791-.73a4.116 4.116 0 0 1-.006-.55c.025-.535.2-.837.848-.807 1.244.057 2.493.037 3.737.007.455-.011.594.113.588.576-.023 2.142-.01 4.283-.01 6.425 0 5 .01 10-.012 14.993 0 .585.148.826.746.745a4.108 4.108 0 0 1 .8 0c.3.02.747-.142.768.353a8.8 8.8 0 0 1-.13 1.593c-.007.05-.292.087-.448.088-1.266.008-2.533-.011-3.8.012-.442.009-.569-.157-.545-.57.028-.476.005-.956.005-1.43-.1 0-.134-.007-.139 0-1.849 3.508-8.118 3.243-10.25-.582a11.341 11.341 0 0 1-.3-11.131 6.219 6.219 0 0 1 8.417-2.631 16.471 16.471 0 0 1 2.077 1.632zm.155 6.512a9.782 9.782 0 0 0-.776-4.046 4.083 4.083 0 0 0-7.384-.1 9.617 9.617 0 0 0 0 8.053 3.744 3.744 0 0 0 3.476 2.4 4.031 4.031 0 0 0 3.766-2.183 8.041 8.041 0 0 0 .918-4.124z"/>
        <path data-name="Path 629" d="M125.721 10.288a17.817 17.817 0 0 1 2.329-1.822 6.246 6.246 0 0 1 5.278-.3 4.434 4.434 0 0 1 2.975 4.056c.161 1.657.115 3.337.134 5.008q.029 2.478 0 4.957c0 .409.092.608.539.563a8.985 8.985 0 0 1 .918-.006c.843 0 .9.054.964.869.076.984-.1 1.173-1.087 1.173-1.818 0-3.637-.019-5.455.012-.527.009-.758-.171-.76-.68 0-.163-.022-.327-.017-.489.031-.818.105-.885.927-.886 1.194 0 1.2 0 1.193-1.19q-.007-3.763-.019-7.527a6.092 6.092 0 0 0-.053-.792c-.251-1.786-.915-2.666-2.21-2.939a3.9 3.9 0 0 0-4.321 1.681 7.015 7.015 0 0 0-.9 3.7c-.03 2.182 0 4.365-.018 6.548 0 .4.124.561.524.525a2.105 2.105 0 0 1 .61 0c.31.063.849.136.871.273a6.287 6.287 0 0 1-.037 1.605c-.006.064-.273.144-.418.145-2.043.009-4.086.017-6.129-.013-.18 0-.39-.248-.521-.428-.081-.113-.053-.314-.057-.478-.029-1.029.056-1.116 1.061-1.116 1.344 0 1.344 0 1.344-1.353 0-3.488-.012-6.976.012-10.463 0-.549-.154-.737-.689-.671-.3.037-.617-.029-.918.015-.615.089-.8-.226-.805-.76 0-.062-.005-.123-.007-.183-.021-1.02.057-1.1 1.058-1.1s2 .041 3-.015c.6-.034.733.2.692.726-.037.478-.008.961-.008 1.355z"/>
        <path data-name="Path 630" d="M23.047 12.136c0-.822-.025-1.517.014-2.208a.834.834 0 0 1 .327-.577 9.938 9.938 0 0 1 8.283-1.185 4.44 4.44 0 0 1 3.25 4.415c.063 3.079.021 6.16.03 9.241 0 1-.133.911.917.919a1.114 1.114 0 0 1 .183 0c.36.062.99.057 1.028.2a5.184 5.184 0 0 1 .041 1.608c-.005.085-.271.216-.417.218-1.307.017-2.616 0-3.923.016-.352 0-.465-.139-.452-.473a8.782 8.782 0 0 0-.059-1.455 5.454 5.454 0 0 1-2.5 1.92 7.637 7.637 0 0 1-4.989.1 4.344 4.344 0 0 1-3.178-3.942 4.963 4.963 0 0 1 2.163-5.056 7.338 7.338 0 0 1 3.291-1.053c1.543-.161 3.087-.325 4.633-.447.44-.036.567-.208.521-.606-.051-.444-.048-.9-.14-1.335a2.8 2.8 0 0 0-2.68-2.278 7.993 7.993 0 0 0-5.76 1.582c-.16.114-.325.223-.583.396zm9.223 5.916-.061-.007c0-.387-.01-.774 0-1.161.01-.325-.063-.475-.451-.426-1.112.139-2.239.177-3.342.362a10.543 10.543 0 0 0-2.625.718 2.98 2.98 0 0 0-1.413 3.253 2.529 2.529 0 0 0 2.142 2.069 5.449 5.449 0 0 0 1.817.035 4.143 4.143 0 0 0 3.691-2.856 10.985 10.985 0 0 0 .242-1.987z"/>
        <path data-name="Path 631" d="M78.395 21.213c0 .788.012 1.6-.012 2.407a.531.531 0 0 1-.274.353 9.717 9.717 0 0 1-8.842.384 6.55 6.55 0 0 1-3.394-3.706 11.167 11.167 0 0 1 .4-9.365 6.294 6.294 0 0 1 6.244-3.518 6.052 6.052 0 0 1 5.89 4.093 13.516 13.516 0 0 1 .812 4.982c0 .492-.285.438-.6.438h-9.871c-.757 0-.785.037-.647.807.659 3.692 3.636 5.494 7.354 4.385a27.47 27.47 0 0 0 2.94-1.26zm-6.188-5.942c1.2 0 2.407-.01 3.61.006.38 0 .542-.138.457-.5a13.579 13.579 0 0 0-.631-2.53 3.73 3.73 0 0 0-6.462-.627 6.418 6.418 0 0 0-1.133 3.059c-.057.446.072.618.549.607 1.203-.033 2.408-.014 3.61-.014z"/>
        <path data-name="Path 632" d="M120.077 17.123a8.948 8.948 0 0 1-2.63 6.2c-2.859 2.82-9.17 2.844-11.581-1.914a10.39 10.39 0 0 1-.088-9.66 6.82 6.82 0 0 1 6.579-3.981 7 7 0 0 1 6.617 3.95 10.873 10.873 0 0 1 1.103 5.405zm-2.865-.551a8.635 8.635 0 0 0-1-4.213 4.339 4.339 0 0 0-7.532-.186 8.332 8.332 0 0 0 .031 8.691 4.308 4.308 0 0 0 7.289.094 8.081 8.081 0 0 0 1.21-4.386z"/>
        <path data-name="Path 633" d="M126.2 33.711a5.03 5.03 0 0 1 3.547-2.947c3.191-.819 6.349.337 7.676 3.679a12.683 12.683 0 0 1 .252 9.207c-1.521 4.207-5.4 5.111-8.881 3.732a4.774 4.774 0 0 1-2.074-1.76c-.153-.212-.3-.431-.511-.743a4.15 4.15 0 0 0-.066.478c0 1.98.01 3.959-.011 5.937-.006.45.112.629.581.6.528-.036 1.063.009 1.592-.011.431-.017.449.248.44.557-.01.29.018.567-.431.563-1.86-.017-3.72-.013-5.58 0-.462 0-.4-.312-.407-.585s-.009-.544.4-.53c.428.015.861-.03 1.287.009.546.05.749-.116.733-.7-.042-1.447-.015-2.9-.015-4.346 0-4.672-.01-9.345.014-14.017 0-.595-.167-.8-.754-.737-.4.045-.819-.017-1.225.015-.463.036-.485-.249-.485-.577s.068-.571.512-.556c.919.032 1.84.03 2.759 0 .428-.013.513.167.5.541-.021.709-.005 1.418-.005 2.127zm10.686 5.728a10.87 10.87 0 0 0-1.05-4.971 4.911 4.911 0 0 0-8.829.059 9.019 9.019 0 0 0-.927 3.705 11.609 11.609 0 0 0 .842 5.62 4.631 4.631 0 0 0 4.486 2.916 4.868 4.868 0 0 0 4.684-3.036 10.376 10.376 0 0 0 .794-4.293z"/>
        <path data-name="Path 634" d="M44.249 11.386c0 3.57.01 7.141-.011 10.712 0 .5.127.711.646.651a7.871 7.871 0 0 1 .919-.007c.765 0 .836.055.873.816a2.281 2.281 0 0 1-.091.842.623.623 0 0 1-.434.366c-2.186.024-4.373.021-6.56 0-.139 0-.389-.161-.4-.263a9.023 9.023 0 0 1 0-1.506c.008-.1.26-.234.409-.246a6.986 6.986 0 0 1 1.223-.006c.5.046.672-.122.662-.642-.031-1.632-.011-3.263-.011-4.9 0-4.816-.01-9.63.012-14.446 0-.57-.163-.765-.716-.69a2.827 2.827 0 0 1-.8 0c-.27-.041-.745-.133-.755-.238A9.051 9.051 0 0 1 39.266.1c0-.045.33-.082.507-.083C41.06.01 42.347.036 43.635.002c.48-.012.616.12.613.605l.001 10.779z"/>
        <path data-name="Path 635" d="M99.175 2.279c0 1.878.017 3.611-.011 5.342-.008.488.139.631.621.612.938-.037 1.88.01 2.818-.02.414-.013.607.13.634.531.012.182.062.363.058.545-.015.872-.119.972-.979.972-.878 0-1.757.011-2.635-.006-.35-.007-.515.077-.513.472.012 3.324-.01 6.648.016 9.971a1.866 1.866 0 0 0 2.2 2.028 8.841 8.841 0 0 0 1.784-.375c.274-.075.382-.05.38.242 0 .51.029 1.023-.017 1.529a.666.666 0 0 1-.355.47 6.111 6.111 0 0 1-4.428.039c-1.862-.758-2.37-2.363-2.386-4.179-.029-3.16-.02-6.321 0-9.481 0-.546-.121-.785-.7-.718-.424.047-.861-.027-1.285.018-.489.053-.668-.176-.7-.607a4.721 4.721 0 0 1-.034-.486c.021-.875.105-.946.988-.956.548-.006 1.333.173 1.579-.107.293-.334.134-1.072.145-1.637.015-.734.017-1.468 0-2.2a.668.668 0 0 1 .415-.72c.774-.387 1.532-.814 2.405-1.279z"/>
        <path data-name="Path 636" d="M85.588 10.964a19.831 19.831 0 0 1 1.623-1.653 4.887 4.887 0 0 1 4.386-.932c.378.088.554.237.484.663-.1.583-.13 1.175-.178 1.765-.025.3-.11.352-.422.247a3.677 3.677 0 0 0-5.13 2.654 8.457 8.457 0 0 0-.324 2.167c-.043 2.08 0 4.16-.023 6.242-.006.465.113.675.612.632.426-.037.859.017 1.286-.015a.516.516 0 0 1 .64.54 5.325 5.325 0 0 1 .042.548c-.016.872-.109.961-.986.961-2 0-4-.018-6.006.012-.533.008-.752-.186-.765-.684 0-.163-.026-.327-.018-.489.036-.812.111-.88.939-.881 1.474 0 1.474 0 1.474-1.464 0-3.448-.011-6.895.011-10.341 0-.528-.123-.756-.678-.682-.3.039-.617-.03-.917.015-.607.092-.807-.214-.821-.748 0-.122-.016-.244-.012-.366.024-.857.1-.932.939-.933 1.1 0 2.206.021 3.309-.009.442-.012.559.141.541.557-.027.709-.006 1.423-.006 2.194z"/>
        <path data-name="Path 637" d="M107.817 33.367c-.149-1.381-.141-1.433.992-1.94a10.244 10.244 0 0 1 6.641-.645c2.023.467 3.289 2.26 3.312 4.657.034 3.425.028 6.852 0 10.278 0 .574.169.764.722.7.322-.039.654.01.98-.011.406-.028.654.044.644.546-.01.464-.19.584-.628.567a38.059 38.059 0 0 0-2.573 0c-.385.012-.494-.125-.479-.49.025-.544.007-1.087.007-1.817-.259.276-.411.422-.546.582-2 2.4-6.057 2.539-7.975 1.779-1.986-.786-2.959-2.741-2.6-5.19.35-2.4 1.8-3.8 4.6-4.268 1.951-.323 3.925-.508 5.894-.715.452-.047.608-.2.567-.635s-.022-.856-.047-1.283c-.139-2.416-1.433-3.646-3.858-3.772a8.685 8.685 0 0 0-5.014 1.3c-.189.106-.384.212-.639.357zm9.552 7.327c0-.55-.018-1.1.006-1.651.017-.376-.107-.507-.492-.461-1.761.212-3.533.355-5.285.622-2.828.432-4.055 1.86-3.915 4.44a2.9 2.9 0 0 0 2.107 2.85 7.425 7.425 0 0 0 2.7.272c2.354-.192 5.081-1.84 4.883-5.338-.016-.243-.004-.49-.004-.733z"/>
        <path data-name="Path 638" d="M160.777 33.291c-.26-1.114-.182-1.324.775-1.777a10.333 10.333 0 0 1 6.806-.741 4.267 4.267 0 0 1 3.286 4.148c.072 3.078.041 6.157.054 9.235 0 .592.017 1.183 0 1.774-.015.379.135.5.5.483.448-.025.9.025 1.348-.015.489-.042.46.253.457.574 0 .3.034.558-.423.544-.938-.03-1.879-.02-2.817 0-.319.006-.434-.1-.423-.419.02-.563.005-1.126.005-1.795-.255.246-.439.4-.59.573-1.936 2.27-5.916 2.466-7.889 1.7a4.335 4.335 0 0 1-2.673-4.627c.252-2.8 1.666-4.341 4.631-4.833 1.969-.328 3.964-.508 5.952-.72.422-.045.571-.182.535-.6-.047-.527-.029-1.059-.087-1.585-.252-2.284-1.463-3.366-3.781-3.5a8.672 8.672 0 0 0-5.072 1.311c-.157.094-.316.186-.479.272-.031.012-.077-.002-.115-.002zm9.5 7.317h.03c0-.509-.027-1.021.009-1.528.032-.467-.168-.548-.577-.491-.727.1-1.465.127-2.189.245-1.545.252-3.108.442-4.614.843a3.146 3.146 0 0 0-2.276 2.766 3.42 3.42 0 0 0 1.795 3.967 5.566 5.566 0 0 0 3.054.38 5.126 5.126 0 0 0 4.756-4.35 14.926 14.926 0 0 0 .008-1.832z"/>
        <path data-name="Path 639" d="M103.131 44.906c0 .472.016.9-.01 1.317a.478.478 0 0 1-.208.33 8.437 8.437 0 0 1-8.126.729c-2.558-1.168-3.686-3.427-4.064-6.086a12.17 12.17 0 0 1 .777-6.6 6.356 6.356 0 0 1 8.935-3.216 13.556 13.556 0 0 1 1.6 1.21c0-.423.018-.821 0-1.218-.027-.47.291-.472.6-.469s.607.006.6.475a248.46 248.46 0 0 0 0 5.322c.007.475-.294.481-.594.481s-.645.035-.614-.453a5.225 5.225 0 0 0-.035-.793c-.255-2.985-2.247-4.519-5.214-4.053a4.694 4.694 0 0 0-3.74 2.828 10.581 10.581 0 0 0-.3 8.39 5.492 5.492 0 0 0 6.139 3.5 9.529 9.529 0 0 0 2.175-.569 19.283 19.283 0 0 0 2.079-1.125z"/>
        <path data-name="Path 640" d="M152.157 25.556c0 1.7.016 3.271-.01 4.84-.007.451.112.608.58.593 1.041-.034 2.085.016 3.126-.02.526-.019.48.287.478.621s.058.642-.475.623c-1.061-.039-2.126 0-3.187-.02-.4-.009-.52.115-.519.516.015 3.53 0 7.059.015 10.589a6.532 6.532 0 0 0 .132 1.215 2.234 2.234 0 0 0 2.358 1.969 20.325 20.325 0 0 0 2.137-.213c-.017-.032 0-.016 0 0 .127 1.171.1 1.225-1.07 1.382a7 7 0 0 1-1.279.075 3.442 3.442 0 0 1-3.612-3.593c-.086-3.689-.059-7.382-.08-11.074-.007-1 .077-.845-.84-.858a10.278 10.278 0 0 0-1.286.008c-.527.058-.617-.2-.618-.64s.129-.632.6-.6c.549.037 1.1-.009 1.654.015.376.017.5-.127.5-.494-.016-1.123.033-2.247-.021-3.366a1.031 1.031 0 0 1 .7-1.179 7.045 7.045 0 0 0 .717-.389z"/>
        <path data-name="Path 641" d="M180.411 34.59c0 3.713.01 7.427-.011 11.14 0 .528.121.746.678.686.445-.047.9.012 1.348-.015s.446.253.436.55c-.009.276.037.567-.423.563q-2.728-.03-5.457 0c-.463 0-.409-.286-.417-.564-.009-.3-.017-.575.43-.55.53.029 1.064-.007 1.594.01.319.01.44-.11.428-.427-.018-.49 0-.98 0-1.469 0-6.631-.008-13.261.013-19.893 0-.59-.153-.8-.746-.737-.424.047-.859-.015-1.286.015-.449.03-.435-.258-.43-.551s-.042-.573.419-.561c1 .026 2 .023 3 0 .384-.009.433.172.428.482-.012.755 0 1.51 0 2.265z"/>
        <path data-name="Path 642" d="M144.506 38.699c0 2.365.011 4.731-.009 7.095 0 .467.112.67.612.621.425-.041.86.025 1.285-.017.466-.047.554.2.555.572 0 .389-.134.556-.575.549a161.396 161.396 0 0 0-5.207 0c-.459.007-.545-.181-.544-.578 0-.377.092-.568.514-.538.447.03.9-.027 1.347.016.5.047.615-.144.613-.618-.018-3.691-.01-7.381-.01-11.072 0-.714-.016-1.427.006-2.141.011-.363-.1-.517-.482-.5-.509.028-1.022-.013-1.531.011-.488.023-.436-.3-.45-.607-.013-.338.067-.531.471-.521.96.021 1.92.029 2.879 0 .455-.015.537.171.534.573-.015 2.383-.008 4.769-.008 7.155z"/>
        <path data-name="Path 643" d="M145.863 22.359a2.476 2.476 0 1 1-2.462-2.488 2.45 2.45 0 0 1 2.462 2.488z"/>
    </g>
</svg>
