<svg data-name="Group 447" xmlns="http://www.w3.org/2000/svg" width="78.369" height="47.59" viewBox="0 0 78.369 47.59">
    <path data-name="Path 334" d="M.022 26.044V.222C.257.206.462.18.666.181 4.445.19 8.224.142 12.001.235a17.364 17.364 0 0 1 8.844 2.264 11.709 11.709 0 0 1 5.865 9.531 12.445 12.445 0 0 1-9.874 13.316 27.553 27.553 0 0 1-5.481.689c-3.621.107-7.247.037-10.87.038-.134-.001-.266-.018-.463-.029zm5.285-4.369a3.559 3.559 0 0 0 .425.049c1.7 0 3.4.065 5.087-.032a23.012 23.012 0 0 0 4.393-.575c2.871-.738 5.086-2.338 5.78-5.416a12.883 12.883 0 0 0 .278-3.263 7.019 7.019 0 0 0-3.481-6.206 11.062 11.062 0 0 0-5.146-1.548c-2.289-.108-4.583-.1-6.875-.135a4.4 4.4 0 0 0-.462.04z"/>
    <path data-name="Path 335" d="m51.693 3.252-2.052 3.9c-.176-.105-.31-.172-.428-.258a14.5 14.5 0 0 0-7.468-2.468 10.771 10.771 0 0 0-4.454.374 5.744 5.744 0 0 0-1.674.877 2.147 2.147 0 0 0 .289 3.627 17.2 17.2 0 0 0 3.5 1.079c2.507.582 5.042 1.045 7.541 1.651a9.584 9.584 0 0 1 2.357 1.064 6.167 6.167 0 0 1 2.3 8.208 8.729 8.729 0 0 1-5.119 4.161 16.6 16.6 0 0 1-7.166.888 42.372 42.372 0 0 1-5.087-.649 14.831 14.831 0 0 1-5.91-2.928l2.553-4.076c.21.148.394.271.57.4a14.615 14.615 0 0 0 12.578 2.5 6.115 6.115 0 0 0 1.662-.774c1.435-.842 1.62-3.479-.365-4.117a42.274 42.274 0 0 0-4.627-1.16 33.731 33.731 0 0 1-6.5-1.52 11.285 11.285 0 0 1-2.231-1.194A6.325 6.325 0 0 1 31.7 2.611a11.754 11.754 0 0 1 5.861-2.4 23.216 23.216 0 0 1 8.886.488 21.126 21.126 0 0 1 3.778 1.679c.506.248.968.572 1.468.874z"/>
    <path data-name="Path 336" d="M63.158 4.568h-9.881V.14h25.068v4.413h-9.872v21.446h-5.315z"/>
    <path data-name="Path 337" d="M41.536 34.467c1.14 0 2.2-.013 3.251 0a45.059 45.059 0 0 1 4.553.146 4.766 4.766 0 0 1 2.234.957 2.886 2.886 0 0 1-.484 4.958c-.1.054-.2.112-.365.207l.494.252a3.071 3.071 0 0 1 .835 4.817 4.857 4.857 0 0 1-3.617 1.4c-2.176.042-4.354.015-6.531.012a2.228 2.228 0 0 1-.371-.07zm2.543 5.568c1.609-.07 3.162-.1 4.706-.233a2.14 2.14 0 0 0 1.088-.6 1.344 1.344 0 0 0 .4-1.475 1.6 1.6 0 0 0-1.461-1.223c-1.533-.087-3.074-.06-4.612-.077-.029 0-.059.044-.123.093zm-.006 5.281c1.278 0 2.486.013 3.693-.007a4.356 4.356 0 0 0 1.078-.167c.965-.266 1.427-.828 1.4-1.646a1.644 1.644 0 0 0-1.51-1.634c-1.509-.113-3.03-.058-4.546-.069-.029 0-.058.045-.115.092z"/>
    <path data-name="Path 338" d="M32.028 34.077c2.875.1 4.943.856 6.5 2.694a6.4 6.4 0 0 1-1.89 9.753 8.267 8.267 0 0 1-7.775.185 6.142 6.142 0 0 1-3.733-6.5 6.079 6.079 0 0 1 4.212-5.484 17.461 17.461 0 0 1 2.686-.648zm-4.43 6.764a4.294 4.294 0 0 0 2.816 4.165 6.2 6.2 0 0 0 3.059.339 4.479 4.479 0 0 0 3.831-5.767 4.812 4.812 0 0 0-5.493-3.272 4.5 4.5 0 0 0-4.212 4.535z"/>
    <path data-name="Path 339" d="M12.983 45.219c-2.681 1.858-5.578 2.865-8.857 1.645a6.347 6.347 0 0 1-4.108-6.68 6.261 6.261 0 0 1 5.012-5.7 9.113 9.113 0 0 1 7.513 1.528c.139.1.262.218.436.366l-1.062 1.577c-.672-.326-1.313-.664-1.976-.952a7.171 7.171 0 0 0-4.237-.492 4.036 4.036 0 0 0-3.241 4.362c.117 3.078 2.562 4.9 5.671 4.178a14.6 14.6 0 0 0 2.142-.823.749.749 0 0 0 .475-.832c-.029-.434-.007-.872-.007-1.372h-4.1V40.17c.177-.012.325-.031.474-.031h5.867z"/>
    <path data-name="Path 340" d="M58.716 34.468h2.218c1.842 4.205 3.691 8.422 5.568 12.709h-2.587l-1.248-2.807h-6.005L55.4 47.184h-2.508zm1.066 3.092-.174.011-2.089 4.737h4.308l-2.045-4.748z"/>
    <path data-name="Path 341" d="M14.843 34.495h2.572v10.568h7.993v2.113H14.843z"/>
    <path data-name="Path 342" d="M67.8 47.178V34.514h2.606V45.07h7.964v2.1z"/>
</svg>
