<svg data-name="Group 464" xmlns="http://www.w3.org/2000/svg" width="130.617" height="64.759" viewBox="0 0 130.617 64.759">
    <path data-name="Path 425" d="M80.268 42.306V.346c0-.34 0-.34.337-.34 6.112 0 12.222-.016 18.334.007a25.188 25.188 0 0 1 7.781 1.121 12.721 12.721 0 0 1 4.673 2.591 9.584 9.584 0 0 1 2.975 5.113 11.494 11.494 0 0 1-.057 5.969 9.563 9.563 0 0 1-5.031 5.922c-.106.055-.214.107-.367.186.254.109.467.191.674.289a9.968 9.968 0 0 1 5.832 7.214 11.278 11.278 0 0 1-.02 4.212 10.093 10.093 0 0 1-2.652 5.491 11.736 11.736 0 0 1-4.411 2.822 20.7 20.7 0 0 1-5.989 1.249 50.422 50.422 0 0 1-3.344.11q-9.168.015-18.334.006zm15.156-17.008v-.043h-4.759c-.226 0-.319.041-.318.3q.014 4.014 0 8.029c0 .228.061.3.293.3 2.938-.013 5.875-.01 8.813-.024a9.137 9.137 0 0 0 3.257-.537 3.448 3.448 0 0 0 2.361-2.728 6.591 6.591 0 0 0 .072-1.612 3.407 3.407 0 0 0-1.915-2.919 7.1 7.1 0 0 0-3.152-.746c-1.549-.048-3.101-.02-4.652-.02zm-.551-8.46c1.142 0 2.285.028 3.426-.009a19.6 19.6 0 0 0 2.441-.221 4.407 4.407 0 0 0 2.383-1.11 3.8 3.8 0 0 0 1.085-3.1 3.508 3.508 0 0 0-2.5-3.407 8.408 8.408 0 0 0-2.822-.48c-2.763-.018-5.527-.008-8.29-.019-.239 0-.243.114-.243.29 0 2.589.006 5.178 0 7.767 0 .253.085.3.314.3 1.398-.016 2.802-.011 4.206-.011z"/>
    <path data-name="Path 426" d="M37.321.005h.305c6.023 0 12.048-.017 18.072.008a24.208 24.208 0 0 1 10.35 2.19 18.712 18.712 0 0 1 10.221 11.62 24.091 24.091 0 0 1 1.054 8.747 22.046 22.046 0 0 1-2.047 8.451 18.664 18.664 0 0 1-9.272 9.117 22.69 22.69 0 0 1-7.54 2c-1.092.1-2.191.156-3.288.158-5.849.016-11.7.008-17.548.008h-.306zm10.062 9.347v23.323c0 .258.079.317.323.315 2.467-.008 4.933 0 7.4-.005a14.812 14.812 0 0 0 4.259-.564 9.634 9.634 0 0 0 6.2-5.185 12.462 12.462 0 0 0 1.16-4.235 15.619 15.619 0 0 0-.646-6.709 9.555 9.555 0 0 0-4.309-5.388 11.913 11.913 0 0 0-5.877-1.548c-2.753-.049-5.508-.02-8.262-.023-.073.001-.141.011-.248.02z"/>
    <path data-name="Path 427" d="M32.277 16.42v9.049H11.804c-.473 0-.4-.009-.4.389v7.345c.132.007.242.017.351.017H33.44c.211 0 .284.048.283.273q-.01 4.263-.006 8.527c0 .085-.007.17-.012.273H1.325V.344c0-.339 0-.339.341-.339h31.9v9.082H11.845c-.5 0-.441-.07-.442.446v6.488c0 .455-.045.395.386.395h20.485z"/>
    <path data-name="Path 428" d="M35.55 64.489c-1.039 0-2.06-.035-3.077.014a1.125 1.125 0 0 1-1.079-.557c-1.971-2.715-3.969-5.411-5.96-8.111a.545.545 0 0 0-.215-.186v8.816h-3.744V49.374h.294c1.055 0 2.11.008 3.165 0a.51.51 0 0 1 .471.241q3.087 4.205 6.182 8.4a.642.642 0 0 0 .222.2v-8.827h3.74z"/>
    <path data-name="Path 429" d="M106.94 59.759v4.708h-3.74V49.389c.082 0 .164-.014.247-.014 2.309 0 4.619-.014 6.929.006a6.035 6.035 0 0 1 3.638 1.189 5.092 5.092 0 0 1-.964 8.592l-.315.151 3.629 5.162c-.111.007-.177.013-.242.013h-3.766a.41.41 0 0 1-.385-.2c-1.012-1.45-2.033-2.894-3.044-4.345a.385.385 0 0 0-.361-.193c-.526.015-1.06.009-1.626.009zm.013-6.955v3.509c1.114 0 2.211.036 3.3-.019a2.362 2.362 0 0 0 1.131-.415 1.6 1.6 0 0 0-.125-2.723 2.594 2.594 0 0 0-1.345-.352h-2.456z"/>
    <path data-name="Path 430" d="M93.615 64.759a8.3 8.3 0 0 1-8.184-5.493 7.12 7.12 0 0 1 1.424-7.194 8.018 8.018 0 0 1 6.636-2.954 8.114 8.114 0 0 1 7.71 6.643 7.22 7.22 0 0 1-1.79 6.116 7.931 7.931 0 0 1-5.796 2.882zm3.818-7.82a4.28 4.28 0 1 0-4.289 4.421 4.423 4.423 0 0 0 4.287-4.421z"/>
    <path data-name="Path 431" d="m51.208 51.318-2.571 2.7a11.618 11.618 0 0 0-1.058-.786 4.146 4.146 0 0 0-5.3.975 4.92 4.92 0 0 0 .178 5.737 4.031 4.031 0 0 0 4.316 1.173 2.934 2.934 0 0 0 2.189-2.045c.017-.049.03-.1.044-.15a.472.472 0 0 0-.006-.083h-3.528v-2.976h6.88c.447 0 .461 0 .5.445a8.042 8.042 0 0 1-1.595 5.755 6.762 6.762 0 0 1-5.532 2.685 7.935 7.935 0 0 1-5.637-1.963 7.754 7.754 0 0 1 3.873-13.529 8.851 8.851 0 0 1 5.169.585 6.393 6.393 0 0 1 2.078 1.477z"/>
    <path data-name="Path 432" d="M130.081 64.473h-11.875V49.39h11.867v3.342h-7.79c-.347 0-.347 0-.347.358v2h7.379v3.365h-7.355v2.683h8.121z"/>
    <path data-name="Path 433" d="M52.975 64.469c.2-.51.4-1 .591-1.492l4.3-10.857c.337-.851.677-1.7 1.006-2.552a.259.259 0 0 1 .284-.2q1.909.01 3.818 0a.259.259 0 0 1 .281.2q2.894 7.326 5.8 14.647c.031.079.056.161.091.259-.087.006-.154.013-.221.013-1.247 0-2.493 0-3.74.007a.308.308 0 0 1-.338-.237c-.229-.593-.473-1.18-.7-1.774a.261.261 0 0 0-.289-.195q-2.785.007-5.569 0a.279.279 0 0 0-.305.21c-.23.6-.475 1.2-.711 1.8a.247.247 0 0 1-.261.2c-1.289-.007-2.58 0-3.871-.006a1.475 1.475 0 0 1-.166-.023zm9.919-5.122-1.8-4.576-.068.009-1.793 4.567z"/>
    <path data-name="Path 434" d="M70.852 49.375h.5c2.213 0 4.428-.013 6.641.005a6.028 6.028 0 0 1 3.685 1.2 5.082 5.082 0 0 1-1.084 8.615 6.521 6.521 0 0 1-2.612.558c-1.02.008-2.04 0-3.06 0h-.339v4.714h-3.73zm3.742 6.945c1.113 0 2.192.018 3.271-.012a2.345 2.345 0 0 0 .9-.256 1.565 1.565 0 0 0 .961-1.469 1.587 1.587 0 0 0-.886-1.465 2.617 2.617 0 0 0-1.306-.313h-2.666c-.085 0-.17.009-.27.016z"/>
    <path data-name="Path 435" d="m0 62.224 2.092-2.506c.183.135.356.265.529.39A7.452 7.452 0 0 0 7.23 61.62a2.635 2.635 0 0 0 1.421-.372 1.166 1.166 0 0 0 .563-.924.919.919 0 0 0-.576-1.014 15.529 15.529 0 0 0-1.581-.528c-1.1-.312-2.208-.574-3.3-.908a5.011 5.011 0 0 1-2.021-1.167 3.5 3.5 0 0 1-1.057-2.431 4.564 4.564 0 0 1 3.723-4.891 9.223 9.223 0 0 1 7.926 1.6c.076.056.147.12.243.2l-1.862 2.612c-.7-.368-1.345-.763-2.035-1.062a5.271 5.271 0 0 0-2.806-.444 1.761 1.761 0 0 0-1.1.5 1.118 1.118 0 0 0 .258 1.781 7.454 7.454 0 0 0 2.082.663 16.714 16.714 0 0 1 3.5 1.045 3.7 3.7 0 0 1 2.184 2.225 4.567 4.567 0 0 1-2.218 5.465 7.589 7.589 0 0 1-3.613.793 10.368 10.368 0 0 1-6.129-1.849c-.256-.18-.493-.386-.739-.581A1.184 1.184 0 0 1 0 62.224z"/>
    <path data-name="Path 436" d="M120.044 7.057a5.287 5.287 0 1 1 5.269 5.273 5.3 5.3 0 0 1-5.269-5.273z"/>
    <path data-name="Path 437" d="M125.322 40.544a5.284 5.284 0 1 1 5.3-5.283 5.28 5.28 0 0 1-5.3 5.283z"/>
    <path data-name="Path 438" d="M130.593 21.185a5.266 5.266 0 1 1-5.169-5.291 5.281 5.281 0 0 1 5.169 5.291z"/>
    <path data-name="Path 439" d="M18.806 64.479h-3.725V49.39h3.725z"/>
</svg>
