<svg data-name="Group 448" xmlns="http://www.w3.org/2000/svg" width="130.617" height="42.52" viewBox="0 0 130.617 42.52">
    <g data-name="EMERALD GREEN">
        <path data-name="Path 421" d="M53.291 37.034a3.879 3.879 0 0 0-.483 0 .341.341 0 0 0-.216.144 9.12 9.12 0 0 1-7.1 5.143 11.074 11.074 0 0 1-5.531-.387 10.088 10.088 0 0 1-5.185-4.149 16.393 16.393 0 0 1-2.4-6.457 21.383 21.383 0 0 1-.158-5.829 16.576 16.576 0 0 1 4.008-9.642 11.627 11.627 0 0 1 7.05-3.848 13.656 13.656 0 0 1 7.8 1.221c.614.274 1.207.607 1.8.923.342.188.418.158.418-.25V.303c0-.2.085-.309.294-.3h8.532c.422 0 .435 0 .435.45v35.809c0 1.666.031 3.336.045 5.007 0 .374-.024.4-.39.4h-8.508c-.374 0-.41-.04-.415-.422v-4.214zm0-9.793v-7.44c0-.24-.03-.436-.294-.542a11.2 11.2 0 0 0-4.42-.9 6.8 6.8 0 0 0-6.4 4.156 10.607 10.607 0 0 0-.943 4.269 12.3 12.3 0 0 0 .72 4.887 6.513 6.513 0 0 0 6.137 4.334 13.517 13.517 0 0 0 4.818-.85.5.5 0 0 0 .392-.559c-.013-2.448-.01-4.904-.01-7.355z"/>
        <path data-name="Path 422" d="M87.512 37.051c-.609-.048-.6-.04-.863.453a9.048 9.048 0 0 1-6.131 4.674 11.5 11.5 0 0 1-5.731-.041 9.792 9.792 0 0 1-5.465-3.847 15.747 15.747 0 0 1-2.662-6.466 21.5 21.5 0 0 1-.271-6.036 17.061 17.061 0 0 1 3.361-9.1 11.81 11.81 0 0 1 7.591-4.637 13.176 13.176 0 0 1 6.557.639 18.315 18.315 0 0 1 3.162 1.461c.37.216.452.168.452-.254V.443c0-.435 0-.442.44-.442h8.315c.494 0 .5 0 .5.5v34.044c0 2.219.035 4.438.055 6.655 0 .44-.024.47-.45.47h-8.421c-.425 0-.443 0-.443-.438v-4.18zm0-9.673v-7.49c0-.47-.027-.525-.48-.686s-.863-.312-1.306-.435a9.238 9.238 0 0 0-4.31-.264 6.667 6.667 0 0 0-5.143 4.324 12.112 12.112 0 0 0-.251 8.378 6.646 6.646 0 0 0 6.385 4.8 15.025 15.025 0 0 0 4.78-.621.394.394 0 0 0 .346-.437v-.019c-.025-2.516-.021-5.033-.021-7.55z"/>
        <path data-name="Path 423" d="M123.49 34.657h-.617c-.1.395-.181.789-.3 1.173a9.214 9.214 0 0 1-3.995 5.394 8.815 8.815 0 0 1-3.7 1.2 12.3 12.3 0 0 1-6.474-.991 11.594 11.594 0 0 1-5.829-6.1 16.092 16.092 0 0 1-1.351-5.565c-.065-1.029-.045-2.088-.045-3.134 0-.46.045-.488.5-.488h20.094c.607 0 .627.041.524-.586a8.086 8.086 0 0 0-2.362-4.725 7.3 7.3 0 0 0-4.235-1.93 13.526 13.526 0 0 0-8.943 1.93 10.187 10.187 0 0 0-.863.6c-.186.141-.312.141-.433-.075q-1.491-2.637-2.986-5.271a.275.275 0 0 1 .048-.389.224.224 0 0 1 .038-.026 17.1 17.1 0 0 1 7.6-3.452 24.574 24.574 0 0 1 5.96-.322 14.956 14.956 0 0 1 10.288 4.674 14.751 14.751 0 0 1 3.645 7.307 18.659 18.659 0 0 1 .342 3.429q.1 6.858.217 13.716c0 .607.1.624-.611.624h-6.245c-.412 0-.438-.023-.428-.422q.075-3.127.158-6.25c.003-.087.003-.193.003-.321zm-8.126 1.571c.233-.025.644-.056 1.052-.124a7.127 7.127 0 0 0 5.877-6.693c0-.384-.048-.428-.438-.374l-5.789.8-6.542.871c-.192.028-.305.1-.23.322.169.5.292 1.029.5 1.509a5.684 5.684 0 0 0 5.57 3.69z"/>
        <path data-name="Path 424" d="M18.593 28.32h-10.1c-.439 0-.463 0-.388.438a8.092 8.092 0 0 0 3.518 5.689 7.536 7.536 0 0 0 3.467 1.163 13.722 13.722 0 0 0 8.916-2.215c.126-.083.251-.174.377-.264.312-.223.343-.216.531.113q.659 1.163 1.314 2.332c.518.919 1.028 1.841 1.552 2.743a.321.321 0 0 1-.035.454.336.336 0 0 1-.064.042 17.941 17.941 0 0 1-6.982 3.19 20.176 20.176 0 0 1-5.538.476 15.851 15.851 0 0 1-9.621-3.474 14.691 14.691 0 0 1-5.1-8.288 15.523 15.523 0 0 1 1.914-11.96 14.025 14.025 0 0 1 6.858-5.658 15.157 15.157 0 0 1 6.08-1.245 13.317 13.317 0 0 1 12.081 7.3 14.712 14.712 0 0 1 1.759 6.248c.055.815.04 1.638.04 2.458 0 .436-.04.46-.466.46zm-3.411-10.057h-.323c-.181 0-.342.025-.541.041a6.86 6.86 0 0 0-4.283 1.927 7.13 7.13 0 0 0-1.927 5.072c0 .206.113.257.3.229l3.027-.408q4.68-.664 9.345-1.3c.226-.03.294-.133.261-.342a6.556 6.556 0 0 0-1.629-3.591 5.468 5.468 0 0 0-4.23-1.627z"/>
    </g>
</svg>
