<svg data-name="Group 449" xmlns="http://www.w3.org/2000/svg" width="182.864" height="52.635" viewBox="0 0 182.864 52.635">
    <path data-name="Path 521" d="M182.864 18.892c-.089.654-.185 1.307-.266 1.962-.064.5-.111 1-.168 1.532h-11.501v-.649c.3-.025.607-.038.91-.075a.9.9 0 0 0 .9-.878 4.189 4.189 0 0 0 .027-.578V9.455c0-.149 0-.3-.012-.445a.948.948 0 0 0-1.005-1.019c-.264-.027-.53-.039-.82-.06v-.62h6.458v.617c-.3.023-.6.038-.9.074a.855.855 0 0 0-.865.848 4.316 4.316 0 0 0-.035.577v10.839a4.749 4.749 0 0 0 .037.578.716.716 0 0 0 .718.718 33.317 33.317 0 0 0 3.377-.124 2.3 2.3 0 0 0 1.869-1.427c.259-.564.439-1.162.649-1.747.05-.138.082-.281.12-.418l.516.064z"/>
    <path data-name="Path 522" d="M104.923 44.616v.656h-6.447v-.641c.291-.029.6-.043.9-.094.638-.111.863-.39.807-1.053-.079-.963-.192-1.923-.291-2.883q-.432-4.169-.866-8.336a.913.913 0 0 0-.146-.444c-.273.786-.549 1.571-.818 2.36q-1.874 5.5-3.748 10.993a1.965 1.965 0 0 1-.214.358 1.624 1.624 0 0 1-.251-.367q-2.161-6.524-4.308-13.053a.678.678 0 0 0-.192-.313c-.077.749-.156 1.5-.23 2.248l-.886 9.006c-.106 1.061.159 1.408 1.225 1.522.263.028.529.027.81.04v.659h-5.02v-.64c.3-.036.6-.059.9-.112a1.027 1.027 0 0 0 .989-1.024c.217-1.994.421-3.99.626-5.985q.255-2.461.506-4.922c.019-.192.038-.385.045-.578.03-.838-.229-1.116-1.086-1.158-.234-.011-.47 0-.733 0v-.715h.468c1.474 0 2.949.013 4.423-.011.354-.006.478.124.574.437q1.427 4.682 2.882 9.356c.037.121.087.237.176.475l3.419-10.236h5.236v.651c-.368.027-.726.025-1.072.084a.831.831 0 0 0-.777 1c.237 2.335.489 4.67.735 7 .154 1.463.3 2.927.466 4.388.115 1 .394 1.245 1.4 1.3.158.011.319.022.498.032z"/>
    <path data-name="Path 523" d="M96.093 17.432V9.601c0-1.146-.339-1.517-1.476-1.613-.249-.021-.5-.036-.767-.055v-.641h5.47v.641c-.328.023-.636.037-.944.068a1.182 1.182 0 0 0-1.238 1.368v13.395a2.731 2.731 0 0 1-.5-.36q-4.823-5.969-9.635-11.946c-.138-.171-.279-.34-.491-.6v10.154c0 1.215.314 1.56 1.52 1.664.235.02.47.03.731.046v.674h-5.468v-.665c.33-.025.653-.038.973-.075a1.176 1.176 0 0 0 1.211-1.351c0-3.763 0-7.525.008-11.289 0-.29-.072-.525-.327-.62-.583-.218-1.182-.393-1.776-.586l-.074.122v-.661h.408c1.325 0 2.652.01 3.976-.007a.852.852 0 0 1 .778.37c2.506 3.237 5.023 6.46 7.621 9.798z"/>
    <path data-name="Path 524" d="M118.692 9.856v10.091c0 1.288.311 1.628 1.6 1.736.206.018.413.021.651.032v.677h-5.332v-.664c.32-.026.631-.037.938-.077a1.125 1.125 0 0 0 1.114-1.116 4.251 4.251 0 0 0 .034-.533c0-3.629 0-7.258.009-10.887a.767.767 0 0 0-.36-.7 2.907 2.907 0 0 0-1.693-.459h-.508v-.668c.143-.007.287-.018.431-.018 1.445 0 2.89.009 4.334-.009a.817.817 0 0 1 .742.356q3.615 4.677 7.253 9.335c.1.124.2.245.37.46V9.514c0-1.061-.349-1.436-1.421-1.524-.265-.022-.53-.036-.818-.055v-.642h5.463v.637c-.3.022-.595.037-.887.065-.928.087-1.292.484-1.292 1.411v13.358a3.207 3.207 0 0 1-.515-.4q-4.937-6.106-9.862-12.221c-.062-.062-.118-.129-.251-.287z"/>
    <path data-name="Path 525" d="M106.027 30.854v-.683h11.468v3.726c-.38.129-.551.036-.625-.444-.288-1.881-.917-2.427-2.841-2.493-1.1-.038-2.2-.007-3.315-.007v6.178c1.188-.049 2.359-.074 3.524-.159a.966.966 0 0 0 .867-.891c.053-.274.087-.551.132-.848h.519v4.506h-.51c-.038-.233-.077-.478-.12-.72-.12-.69-.343-.994-1.022-1.031-1.123-.059-2.251-.016-3.4-.016 0 1.849-.015 3.72.009 5.591.008.611.271.9.88.906 1.216 0 2.437-.029 3.648-.141a2.3 2.3 0 0 0 1.919-1.424c.312-.683.546-1.4.831-2.152l.506.037-.528 4.494h-11.924v-.649c.3-.031.624-.047.941-.1a.889.889 0 0 0 .871-.9 4.056 4.056 0 0 0 .02-.535v-11.11c-.043-.782-.346-1.086-1.137-1.13-.225-.015-.447-.005-.713-.005z"/>
    <path data-name="Path 526" d="M108.44 22.398v-.667c.4-.023.8-.035 1.191-.074.626-.062.791-.3.567-.892a219.223 219.223 0 0 0-1.616-4.144.427.427 0 0 0-.312-.22c-1.489-.015-2.977-.009-4.5-.009-.5 1.412-1.015 2.817-1.492 4.234a.66.66 0 0 0 .524.923 14.813 14.813 0 0 0 1.477.208v.641h-5.433v-.67c.253-.019.515-.043.777-.057a1.794 1.794 0 0 0 1.693-1.285q1.49-3.979 2.99-7.953 1-2.644 1.989-5.282a1.035 1.035 0 0 1 .146-.027c1.247-.031 1.244-.03 1.712 1.134 1.631 4.059 3.27 8.114 4.888 12.178.319.8.721 1.415 1.738 1.247v.715zm-.278-6.87-2.125-5.351-1.948 5.351z"/>
    <path data-name="Path 527" d="M169.868 21.729v.661h-6.321v-.662c.378-.021.761-.031 1.141-.066.642-.058.811-.312.579-.925q-.782-2.06-1.607-4.1a.46.46 0 0 0-.344-.233c-1.474-.016-2.947-.01-4.463-.01l-1.2 3.333c-.105.293-.217.585-.3.886a.679.679 0 0 0 .544.945c.459.106.936.134 1.438.2v.64h-5.057v-.707c1.38.165 1.9-.7 2.312-1.812 1.522-4.132 3.093-8.247 4.631-12.373a.5.5 0 0 1 .576-.39c.967.017.966 0 1.332.914l4.967 12.342c.077.192.164.38.249.569a1.186 1.186 0 0 0 1.152.762c.124 0 .24.016.371.026zm-8.753-11.552-1.94 5.33h4.058z"/>
    <path data-name="Path 528" d="M71.94 16.842h-.525c-.031-.2-.066-.4-.093-.6-.11-.8-.434-1.146-1.247-1.178-.965-.037-1.932-.009-2.945-.009-.006.1-.021.223-.022.35v5.042c0 .843.277 1.138 1.136 1.211.383.034.767.047 1.168.07v.662h-6.947v-.661c.274-.02.552-.034.829-.064a.936.936 0 0 0 .966-1.049c.009-.282 0-.565 0-.848V9.462c0-1.225-.249-1.475-1.489-1.5h-.306v-.73h11.668v4.156h-.482c-.09-.479-.156-.963-.272-1.435a2.094 2.094 0 0 0-2.224-1.852c-1.321-.049-2.645-.011-4-.011v6.048c1.037 0 2.075.049 3.106-.017.7-.044.955-.391 1.065-1.107.034-.218.062-.437.093-.661h.531z"/>
    <path data-name="Path 529" d="M67.906 30.856c-.924.058-1.815.084-2.7.179a2 2 0 0 0-1.818 1.542c-.181.639-.285 1.3-.427 1.962h-.493v-4.448h13.709v4.438h-.512c-.079-.478-.142-.946-.237-1.407a2.274 2.274 0 0 0-2.3-2.138 23.45 23.45 0 0 0-2.388-.015v12.158c0 1.059.211 1.305 1.264 1.433.337.04.678.042 1.037.063v.65h-7.448v-.637c.444-.038.9-.062 1.352-.122a.964.964 0 0 0 .962-1.024c.01-.1.016-.208.016-.312V31.131c.002-.059-.006-.117-.017-.275z"/>
    <path data-name="Path 530" d="M129.227 30.192c.071 1.378.144 2.755.218 4.165l-.5.06c-.174-.5-.3-.983-.511-1.435a3.667 3.667 0 0 0-4.178-2.128 2.118 2.118 0 0 0-1.745 1.643 2.044 2.044 0 0 0 .838 2.28c.852.588 1.784 1.061 2.681 1.585.757.441 1.538.847 2.268 1.326a4.081 4.081 0 0 1-.24 6.984 5.871 5.871 0 0 1-5.558.348c-.261-.109-.51-.242-.772-.347-.465-.187-.7-.113-.894.343-.125.292-.276.393-.591.259l-.3-4.479.537-.057c.123.416.216.819.36 1.2a4.265 4.265 0 0 0 5.219 2.592 2.444 2.444 0 0 0 .977-4.158 17 17 0 0 0-2.164-1.395c-.86-.5-1.774-.909-2.616-1.437a3.814 3.814 0 0 1-2-4.283 4.366 4.366 0 0 1 3.723-3.31 5.707 5.707 0 0 1 3.3.492c.189.086.38.166.572.248a.574.574 0 0 0 .791-.271 1.9 1.9 0 0 1 .461-.37z"/>
    <path data-name="Path 531" d="M145.001 11.71c-.462.18-.608.051-.688-.39a3.8 3.8 0 0 0-3.137-3.387 4.663 4.663 0 0 0-4.935 2.1 7.5 7.5 0 0 0-.988 4.932 7.35 7.35 0 0 0 2.2 4.794 5.347 5.347 0 0 0 7.041.418c.182-.152.349-.322.568-.527l.433.53a13.115 13.115 0 0 1-1.109 1.07 7.657 7.657 0 0 1-9.285-.32 7.466 7.466 0 0 1-2.475-8.24 7.341 7.341 0 0 1 6.311-5.6 6.923 6.923 0 0 1 3.931.481c.191.082.381.167.578.233a.615.615 0 0 0 .847-.344c.065-.134.244-.212.475-.4l.233 4.65z"/>
    <path data-name="Path 532" d="M153.219 7.304v.626c-.323.023-.631.035-.937.073a.879.879 0 0 0-.879.935c-.026.594-.012 1.189-.014 1.784v9.457c0 1.26.241 1.5 1.507 1.522h.3v.688h-6.464v-.658c.3-.023.61-.036.914-.073a.9.9 0 0 0 .889-.933c.021-.281.019-.564.019-.847V9.44c0-1.2-.261-1.452-1.467-1.483h-.343v-.654z"/>
    <path data-name="Path 533" d="M77.65 45.285v-.65c.324-.036.66-.056.99-.114a.863.863 0 0 0 .812-.9c.018-.221.017-.445.017-.668V32.428c0-1.324-.217-1.544-1.549-1.585h-.261v-.675h6.466v.639c-.356.036-.706.058-1.051.11a.844.844 0 0 0-.757.854c-.013.148-.016.3-.016.446v11.015a3.6 3.6 0 0 0 .02.49.837.837 0 0 0 .763.8c.338.045.677.077 1.036.116v.652z"/>
    <path data-name="Path 534" d="M82.106 21.731v.651h-6.483v-.652c.313-.023.608-.034.9-.069a.874.874 0 0 0 .889-.877 4.023 4.023 0 0 0 .031-.532V9.413a4.217 4.217 0 0 0-.03-.532.875.875 0 0 0-.89-.879c-.292-.036-.588-.047-.9-.07v-.635h6.479v.634c-.3.023-.584.037-.863.068a.916.916 0 0 0-.952.925 4.053 4.053 0 0 0-.022.535v10.75c0 .118 0 .237.009.356.047.767.294 1.029 1.052 1.111.246.023.496.035.78.055z"/>
    <path data-name="Path 535" d="M52.728 52.144V0H0v52.635h52.732a40.021 40.021 0 0 1-.004-.491zM24.365 14.42a.484.484 0 0 1-.126.051c-.825.056-.817.055-.952-.743-.126-.746-.239-1.5-.415-2.232a3.38 3.38 0 0 0-3.249-2.872c-1.968-.133-3.945-.158-5.963-.231v9.809h3.9c.045 0 .088-.008.133-.011 1.594-.112 2.085-.593 2.242-2.189.023-.235.059-.467.09-.71h.885v7.128h-.878c-.06-.4-.112-.809-.183-1.213a1.611 1.611 0 0 0-1.682-1.582c-1.482-.1-2.97-.1-4.5-.15-.014.206-.029.348-.029.489v8.167c0 1.317.431 1.788 1.763 1.913.619.058 1.239.085 1.875.126v1.033H6.027v-1.03c.563-.04 1.109-.065 1.653-.121a1.419 1.419 0 0 0 1.465-1.523c.011-.149.009-.3.009-.446V10.411c0-1.51-.431-1.966-1.945-2.042-.384-.019-.768 0-1.179 0V7.297c6.1-.107 12.211.118 18.336-.147zm23.841.022h-.945c-.164-.924-.278-1.839-.5-2.729-.518-2.106-1.435-2.931-3.607-3.144-1.073-.1-2.164-.018-3.31-.018v19.471c0 .163 0 .328.015.49a1.391 1.391 0 0 0 1.264 1.442c.773.129 1.561.165 2.373.245v1H31.689v-1.026c.574-.035 1.163-.058 1.749-.113a5.226 5.226 0 0 0 .916-.182 1.26 1.26 0 0 0 .951-1.068 5.241 5.241 0 0 0 .085-.886q.007-9.528 0-19.057c0-.116-.01-.234-.017-.4a15.267 15.267 0 0 0-4.65.381 2.786 2.786 0 0 0-1.923 1.845c-.325 1.057-.5 2.162-.735 3.247a5.094 5.094 0 0 0-.059.509h-1V7.174c7.057.157 14.1.154 21.2 0z"/>
</svg>
