<svg data-name="Group 450" xmlns="http://www.w3.org/2000/svg" width="130.618" height="32.684" viewBox="0 0 130.618 32.684">
    <path data-name="Path 644" d="M64.307 2.667v-.89L74.232.002l-.105 10.632c.148-.062.247-.1.339-.144a10.421 10.421 0 0 1 6.3-1.109 8.093 8.093 0 0 1 5.261 2.984 10.9 10.9 0 0 1 2.44 5.902 14.82 14.82 0 0 1-.829 7.077 10.632 10.632 0 0 1-6.206 6.325 14.28 14.28 0 0 1-4.544.969 27.116 27.116 0 0 1-5.711-.33c-1.195-.182-2.378-.428-3.567-.646-.051-.01-.1-.026-.185-.046.01-.211.027-.418.03-.624.028-1.719.065-3.438.076-5.157q.039-6.059.055-12.121c0-1.419 0-2.838-.029-4.258-.025-1.245-.041-2.494-.153-3.732a5.769 5.769 0 0 0-.5-1.8 2.219 2.219 0 0 0-1.963-1.181c-.202-.02-.408-.048-.634-.076zm9.986 28.257a6.381 6.381 0 0 0 2.722-.007 4.46 4.46 0 0 0 2.476-2.033 12.38 12.38 0 0 0 1.713-4.646 20.584 20.584 0 0 0 .276-5.243 12.138 12.138 0 0 0-1.123-4.518 5.361 5.361 0 0 0-1.7-2.1 4.588 4.588 0 0 0-4.506-.249c-.107 6.262-.092 12.508.142 18.794z"/>
    <path data-name="Path 645" d="m26.403.599.153 8.806-1.467.45c-.146-.39-.283-.78-.435-1.164a11.629 11.629 0 0 0-2.34-3.934 5.8 5.8 0 0 0-3.977-1.879c-2.028-.091-4.062-.053-6.093-.069a.291.291 0 0 0-.074.02c-.166.788-.41 11.8-.3 12.693.6 0 1.2.011 1.8 0 .638-.016 1.274-.067 1.91-.082a3.158 3.158 0 0 0 2.823-1.792 8.305 8.305 0 0 0 .821-2.523h1.314v10.562h-1.3c-.045-.2-.093-.417-.145-.635a6.027 6.027 0 0 0-1.2-2.625 2.9 2.9 0 0 0-2.119-1.037c-1.2-.058-2.4-.107-3.6-.159h-.309c0 .79-.02 1.552 0 2.313.063 1.983.131 3.965.226 5.945a10.814 10.814 0 0 0 .528 3.106 2.678 2.678 0 0 0 2.378 1.99c.578.059 1.15.179 1.724.274a2 2 0 0 1 .215.065v1.142H.036a.867.867 0 0 1-.027-.158v-1a13.761 13.761 0 0 1 1.485-.285 2.769 2.769 0 0 0 2.623-2.276 12.734 12.734 0 0 0 .411-2.549c.119-2.444.182-4.891.235-7.336q.057-2.661.028-5.323a107.188 107.188 0 0 0-.157-4.91 32.874 32.874 0 0 0-.378-3.354 4.632 4.632 0 0 0-.543-1.446A2.812 2.812 0 0 0 1.366 2.05C.924 2.001.482 1.96.025 1.914V.607z"/>
    <path data-name="Path 646" d="M23.267 20.872a12.9 12.9 0 0 1 1.218-5.633 10.515 10.515 0 0 1 7.99-6.028 13.483 13.483 0 0 1 6.561.37 9.479 9.479 0 0 1 5.578 4.491 12.586 12.586 0 0 1 1.535 5.158 14.138 14.138 0 0 1-.5 5.583 10.644 10.644 0 0 1-5.574 6.667 11.772 11.772 0 0 1-4.133 1.132 13.7 13.7 0 0 1-5.218-.448 9.62 9.62 0 0 1-6.386-5.7 13.108 13.108 0 0 1-.994-4.226c-.036-.458-.052-.912-.077-1.366zm15.95-.44c-.048-.648-.108-1.892-.241-3.129a13.119 13.119 0 0 0-1.1-4.2 4.524 4.524 0 0 0-2.158-2.4 3.063 3.063 0 0 0-3.446.748 6.978 6.978 0 0 0-1.391 3.043 26.963 26.963 0 0 0-.57 5.984 25.774 25.774 0 0 0 .308 4.537 12.875 12.875 0 0 0 1.2 3.972 4.187 4.187 0 0 0 1.6 1.82 3.1 3.1 0 0 0 4.142-1.075 8.323 8.323 0 0 0 1.163-3.035 33.541 33.541 0 0 0 .493-6.265z"/>
    <path data-name="Path 647" d="M111.408 19.75h-13.97c0 .436-.021.851 0 1.264a11.437 11.437 0 0 0 .779 3.719 7.026 7.026 0 0 0 5.943 4.586 9.29 9.29 0 0 0 3.969-.294 8.319 8.319 0 0 0 2.194-1.143c.053-.036.105-.069.177-.119l.579.712a7.92 7.92 0 0 1-1.6 1.667 11.393 11.393 0 0 1-5.923 2.438 11.885 11.885 0 0 1-8.156-1.844 10.542 10.542 0 0 1-4.276-5.81 12.814 12.814 0 0 1-.572-4.524 12.479 12.479 0 0 1 2.786-7.593 9.838 9.838 0 0 1 4.085-2.96 11.763 11.763 0 0 1 7.91-.367 7.741 7.741 0 0 1 4.52 3.722 11.957 11.957 0 0 1 1.464 5.062c.048.48.063.961.091 1.484zm-6.925-1.758c.009-.081.019-.133.019-.186a19.2 19.2 0 0 0-.313-3.771 6.831 6.831 0 0 0-.909-2.521 2.111 2.111 0 0 0-3.128-.621 4.1 4.1 0 0 0-1.245 1.425 12.016 12.016 0 0 0-1.36 4.483c-.056.436-.087.876-.132 1.342z"/>
    <path data-name="Path 648" d="M129.26 10.186c.051 1.946.1 3.881.155 5.825l-1 .291c-.254-.621-.48-1.223-.745-1.808a7.241 7.241 0 0 0-2.181-2.95 4.589 4.589 0 0 0-3.558-.872 3.1 3.1 0 0 0-2.573 2.941 3.148 3.148 0 0 0 1.539 2.963 18.257 18.257 0 0 0 3.61 1.792 18.539 18.539 0 0 1 3.339 1.594 5.5 5.5 0 0 1 2.617 3.572 7.044 7.044 0 0 1-3.473 7.751 10.961 10.961 0 0 1-4.71 1.341 24.009 24.009 0 0 1-8.125-.918c-.365-.1-.718-.245-1.079-.369l-.153-6.592 1.019-.287c.172.418.327.814.5 1.2a10.088 10.088 0 0 0 2.162 3.347 5.251 5.251 0 0 0 5.589 1.286 3.377 3.377 0 0 0 2.127-3.589 3.184 3.184 0 0 0-1.593-2.319 15.088 15.088 0 0 0-3.244-1.477 15.165 15.165 0 0 1-3.364-1.542 5.667 5.667 0 0 1-2.718-4.633 6.624 6.624 0 0 1 3.591-6.433 9.6 9.6 0 0 1 4.416-1.269 18.6 18.6 0 0 1 7.57 1.04c.089.035.179.074.282.115z"/>
    <path data-name="Path 649" d="M60.338 30.9v1.16H46.422v-1.155c.338-.053.667-.119 1-.152a2.135 2.135 0 0 0 2-1.946 7.859 7.859 0 0 0 .159-1.352c.056-1.827.092-3.655.131-5.483.015-.691.042-1.382.025-2.073-.037-1.59-.069-3.183-.16-4.771a8.845 8.845 0 0 0-.351-1.892 1.675 1.675 0 0 0-1.391-1.2c-.462-.089-.931-.148-1.41-.221v-.876l10.014-1.944-.139 5.085.066.025c.074-.144.148-.287.22-.432a9.474 9.474 0 0 1 2.854-3.494 6.177 6.177 0 0 1 4.169-1.246 4.952 4.952 0 0 1 2.136.653l-2.374 6.083c-.485-.228-.938-.484-1.42-.659a6.231 6.231 0 0 0-4.761.041c-.092.04-.178.089-.266.136a1.127 1.127 0 0 0-.673 1.121c.018 2.383-.065 4.769-.025 7.151.029 1.716.191 3.429.305 5.142a2.861 2.861 0 0 0 .145.663 2 2 0 0 0 2.082 1.514c.514.032 1.03.077 1.58.122z"/>
</svg>
