<svg data-name="Group 451" xmlns="http://www.w3.org/2000/svg" width="182.864" height="35.853" viewBox="0 0 182.864 35.853">
    <path data-name="Path 403" d="M182.865 18.3c-.246.8-.942 1.18-1.544 1.638q-8.666 6.6-17.343 13.184-1.607 1.221-3.213 2.444a1.275 1.275 0 0 1-1.43.125 1.21 1.21 0 0 1-.721-1.235 1.351 1.351 0 0 1 .211-.6c1.075-1.656 2.224-3.268 3.233-4.964a20.753 20.753 0 0 0 2.755-8.326 22.117 22.117 0 0 0-3.952-15.537c-.684-.994-1.35-2-2.022-3.005a1.245 1.245 0 0 1 .162-1.641 1.349 1.349 0 0 1 1.737-.12c1.218.916 2.428 1.842 3.64 2.765l13.406 10.2c1.431 1.089 2.876 2.161 4.283 3.28a5.311 5.311 0 0 1 .8 1.053z"/>
    <path data-name="Path 404" d="M27.392 11.19h-6.2c-.076-.289-.13-.584-.23-.863a5.917 5.917 0 0 0-3.884-3.633 7.4 7.4 0 0 0-9.527 4.06 14.451 14.451 0 0 0 0 11.97 7.23 7.23 0 0 0 4.823 4.329 9.336 9.336 0 0 0 5.822-.333 5.131 5.131 0 0 0 3.317-4.391c.085-.55.1-1.109.157-1.7h-6.541v-4.9h12.264a1.62 1.62 0 0 1 .031.231c-.012 2.016.008 4.033-.051 6.048a12.454 12.454 0 0 1-1.1 4.9 8.534 8.534 0 0 1-5.14 4.632 17.487 17.487 0 0 1-10.535.46 13.708 13.708 0 0 1-8.936-7.748 17.756 17.756 0 0 1-1.523-9.855 16.676 16.676 0 0 1 2.108-6.682 12.542 12.542 0 0 1 8.092-6.075 16.009 16.009 0 0 1 10.329.7 10.74 10.74 0 0 1 6.091 6.017 9.332 9.332 0 0 1 .633 2.833z"/>
    <path data-name="Path 405" d="M64.449 31.528V1.791h5.662v10.7c.45-.479.834-.936 1.266-1.343a7.383 7.383 0 0 1 5.871-1.946 8.021 8.021 0 0 1 7.357 5.724 15.549 15.549 0 0 1-.325 11.861 8.723 8.723 0 0 1-10.528 5.027 6.425 6.425 0 0 1-3.724-2.861v2.579zm15.263-10.85c-.04-.56-.069-1.121-.124-1.68a8.2 8.2 0 0 0-.16-.929c-.464-2.119-1.621-3.669-4.062-3.94a4.3 4.3 0 0 0-4.779 2.786 10.283 10.283 0 0 0-.654 3.487 8.328 8.328 0 0 0 .7 4.164 4.507 4.507 0 0 0 4.1 2.836 4.4 4.4 0 0 0 4.121-2.711 8.746 8.746 0 0 0 .858-4.013z"/>
    <path data-name="Path 406" d="m102.595 31.55-.327-1.743a22.421 22.421 0 0 1-1.872 1.26 10.09 10.09 0 0 1-5.994 1.013 10.34 10.34 0 0 1-2.319-.51 5.133 5.133 0 0 1-3.637-4.624 9.086 9.086 0 0 1 .334-3.621 5.655 5.655 0 0 1 3.675-3.713 24 24 0 0 1 4.684-1.074 30.23 30.23 0 0 0 3.546-.689 1.889 1.889 0 0 0 1.09-2.973 2.728 2.728 0 0 0-1.126-.843 5.838 5.838 0 0 0-3.876-.151 3.064 3.064 0 0 0-2.162 2.421c-.045.183-.078.369-.119.563h-5.36c-.007-3.441 1.557-6.088 5.085-7.087a16.005 16.005 0 0 1 8.825-.017 6.32 6.32 0 0 1 4.746 5.376 16.276 16.276 0 0 1 .238 2.739c.025 4.4.011 8.809.011 13.213v.46zm-.348-10.6a7.034 7.034 0 0 1-2.766 1.055 32.868 32.868 0 0 0-3.37.881 2.622 2.622 0 0 0-1.918 2.945 2.049 2.049 0 0 0 1.562 2.021 5.243 5.243 0 0 0 6.112-2.971c.511-1.248.257-2.559.38-3.931z"/>
    <path data-name="Path 407" d="M61.77 20.645a13.6 13.6 0 0 1-1.388 5.963 9.6 9.6 0 0 1-6.276 5.048 12.909 12.909 0 0 1-8.016-.3 9.783 9.783 0 0 1-6.4-7.688 12.363 12.363 0 0 1 .409-7.322 10.814 10.814 0 0 1 8.1-6.955 11.956 11.956 0 0 1 7.68.88 9.849 9.849 0 0 1 5.563 7.525c.177.935.221 1.898.328 2.849zm-5.808.067c-.131-.974-.188-1.895-.387-2.785a4.5 4.5 0 0 0-2.95-3.56 6.763 6.763 0 0 0-2.6-.271 4.412 4.412 0 0 0-4.166 3.112 11.2 11.2 0 0 0-.348 5.482 7.629 7.629 0 0 0 .668 2.139 4.486 4.486 0 0 0 4.283 2.458 4.621 4.621 0 0 0 5.065-3.75c.231-.933.297-1.911.435-2.825z"/>
    <path data-name="Path 408" d="M131.724 31.555h-5.815v-.481c0-4.308.007-8.616-.009-12.924a8.853 8.853 0 0 0-.183-1.793 2.372 2.372 0 0 0-2.355-2.172 8.737 8.737 0 0 0-2.493.049 3.6 3.6 0 0 0-2.991 3.284 10.185 10.185 0 0 0-.124 1.553q-.015 6.009-.006 12.019v.463h-5.786V9.802h5.5v3.014c.388-.5.724-.994 1.126-1.429a7.023 7.023 0 0 1 4.679-2.135 9.435 9.435 0 0 1 3.869.32 6.218 6.218 0 0 1 4.413 5 9.6 9.6 0 0 1 .172 1.878c.013 4.885.007 9.769.007 14.654z"/>
    <path data-name="Path 409" d="M153.647 23.407a7.96 7.96 0 0 1-6.485 8.55 11.9 11.9 0 0 1-5.585-.225 7.324 7.324 0 0 1-5.387-5.935 12.6 12.6 0 0 1-.248-2.529c-.02-6.3-.01-12.6-.01-18.893V3.91h5.7v5.278h8.915v4.667h-8.853c-.036.064-.06.086-.06.109 0 3.115-.016 6.229.019 9.343a6.273 6.273 0 0 0 .332 1.851 2.85 2.85 0 0 0 3.1 1.981 3.088 3.088 0 0 0 3.135-3.021l.085-.709z"/>
    <path data-name="Path 410" d="M36.716 31.532h-5.715V1.782h5.715z"/>
</svg>
