<svg data-name="Group 452" xmlns="http://www.w3.org/2000/svg" width="182.864" height="40.408" viewBox="0 0 182.864 40.408">
    <g data-name="Group 409">
        <path data-name="Path 496" d="M.064 19.956c0-3.909.007-7.816-.01-11.725a.828.828 0 0 1 .564-.887c4.985-2.3 9.952-4.629 14.941-6.917a4.374 4.374 0 0 1 3.718-.023c2.422 1.095 4.818 2.249 7.225 3.38 2.176 1.021 4.358 2.029 6.521 3.078.286.14.669.494.656.731a1.208 1.208 0 0 1-.64.805 265.045 265.045 0 0 1-6.24 2.952.891.891 0 0 1-.665-.02 625.68 625.68 0 0 1-7.831-3.661 1.694 1.694 0 0 0-1.662-.011 252.467 252.467 0 0 1-7.628 3.6 1.033 1.033 0 0 0-.7 1.123c.038 4.027.05 8.054.069 12.082.006 1.211-.009 2.423.019 3.635a.728.728 0 0 0 .3.551c2.373 1.122 4.743 2.252 7.149 3.3a4.206 4.206 0 0 0 3.485-.1c2.544-1.16 5.07-2.361 7.594-3.563.185-.087.429-.313.433-.479.022-1.175.051-2.357-.041-3.527s-.859-1.57-1.948-1.076c-1.412.641-2.815 1.3-4.224 1.953-.494.229-.986.469-1.493.667a.84.84 0 0 1-1.21-.632 4.359 4.359 0 0 1-.126-.961c-.012-1.707.006-3.413-.013-5.12a.792.792 0 0 1 .526-.826q6.952-3.243 13.893-6.506a7.45 7.45 0 0 1 .419-.188c1-.4 1.714.058 1.72 1.133.015 2.713.01 5.427.009 8.141 0 3.055-.026 6.11-.006 9.165a3.375 3.375 0 0 1-2.085 3.334q-5.419 2.538-10.848 5.051c-1.344.626-2.691 1.246-4.029 1.882a.913.913 0 0 1-.866.008c-3.144-1.483-6.3-2.948-9.446-4.42Q4.142 34.273.687 32.663A.99.99 0 0 1 0 31.63c.032-3.891.018-7.781.018-11.672z"/>
        <path data-name="Path 497" d="m138.325 24.352 3.807-12.779h3.181l3.826 12.788.112.021 3.815-12.829h3.465l-5.767 17.258h-3.3l-3.743-12.3h-.107q-1.889 6.138-3.785 12.29h-3.326c-1.9-5.743-3.8-11.478-5.716-17.249h3.583l3.826 12.786z"/>
        <path data-name="Path 498" d="M182.864 28.83c-1.01 0-1.965.014-2.918-.013a.746.746 0 0 1-.47-.305q-3.763-5.043-7.509-10.1c-.24-.324-.489-.643-.81-1.064v11.436h-3.318V11.535a18.061 18.061 0 0 0 2.058-.017 1.713 1.713 0 0 1 1.747.876c2.438 3.349 4.933 6.658 7.41 9.979.141.189.29.371.529.678v-11.48h3.286z"/>
        <path data-name="Path 499" d="M113.519 28.802V11.569c.15-.012.281-.033.412-.033 2.389 0 4.778-.017 7.166 0a8.5 8.5 0 0 1 8.1 5.935 8.6 8.6 0 0 1-8.091 11.346c-2.422.042-4.846.011-7.269.011-.095.002-.194-.015-.318-.026zm3.355-14.309v11.294H120.723a5.327 5.327 0 0 0 5.465-4.769 5.406 5.406 0 0 0-4.09-6.206 37.14 37.14 0 0 0-5.224-.319z"/>
        <path data-name="Path 500" d="M100.744 29.03a9.074 9.074 0 0 1-8.968-6.945 8.607 8.607 0 0 1 6.935-10.433c3.769-.667 7.055.276 9.45 3.37a8.66 8.66 0 0 1-5.144 13.677c-.744.173-1.515.223-2.273.331zm-.123-3.109a5.757 5.757 0 0 0 5.872-5.586 5.675 5.675 0 0 0-5.487-5.839 5.718 5.718 0 1 0-.386 11.425z"/>
        <path data-name="Path 501" d="M79.608 29.053a9.107 9.107 0 0 1-9.032-7.085 8.669 8.669 0 0 1 7.629-10.435 9.3 9.3 0 0 1 8.34 2.946 8.66 8.66 0 0 1-4.279 14.106c-.863.238-1.771.316-2.658.468zm-.177-3.133a5.785 5.785 0 0 0 5.9-5.628 5.715 5.715 0 0 0-5.492-5.8 5.719 5.719 0 1 0-.408 11.426z"/>
        <path data-name="Path 502" d="M63.758 22.77h-3.466v-2.65h6.395a4 4 0 0 1 .047.439c0 1.911.009 3.821-.01 5.733a.773.773 0 0 1-.261.548c-3.219 2.315-8.1 3.092-11.762.554a8.3 8.3 0 0 1-3.713-8.7 8.17 8.17 0 0 1 6.261-6.839 10.07 10.07 0 0 1 9.31 1.851c.12.091.223.2.351.321l-1.908 2.479a7.551 7.551 0 0 0-3.09-1.78 5.934 5.934 0 0 0-7.319 3.446 5.74 5.74 0 0 0 4.708 7.694 7.11 7.11 0 0 0 4.142-.84.6.6 0 0 0 .3-.4c.035-.591.015-1.187.015-1.856z"/>
        <path data-name="Path 503" d="M163.001 28.814h-3.267V11.567h3.267z"/>
    </g>
</svg>
