<svg data-name="Group 453" xmlns="http://www.w3.org/2000/svg" width="182.864" height="60.032" viewBox="0 0 182.864 60.032">
    <g data-name="Group 416">
        <path data-name="Path 615" d="M38.761 27.634H23.733v-6.42h20.021c1.551 0 1.331-.093 1.473 1.286.681 6.675-.715 12.743-5.444 17.743a19.914 19.914 0 0 1-11.66 5.98c-7.153 1.136-13.789-.229-19.371-4.963C1.502 35.111-1.594 27.206.796 17.881 3.182 8.574 9.39 2.63 18.837.581a22.319 22.319 0 0 1 20.308 5.38c.132.116.244.256.506.534l-4.825 4.223a16.414 16.414 0 0 0-5.644-3.349 16.622 16.622 0 0 0-21.91 13.119c-1.312 8.94 3.542 16.845 12.011 19.059 5.965 1.56 11.515.54 16.055-3.961a12.366 12.366 0 0 0 3.423-7.952z"/>
        <path data-name="Path 616" d="m114.004 51.156 5.46-2.277a27.691 27.691 0 0 0 3.07 3.5 7.764 7.764 0 0 0 8.44.949c2.844-1.226 4.007-3.688 4.2-6.656.073-1.117.012-2.242.012-3.41-.12.04-.218.045-.268.1-3.308 3.419-7.337 3.9-11.636 2.608-10.2-3.061-13.882-16.015-6.879-24.146 3.679-4.271 8.308-6.032 13.905-4.774a9.572 9.572 0 0 1 4.857 2.923v-2.342h6.387v.962c0 8.719.019 17.437-.01 26.157a17.528 17.528 0 0 1-2.041 8.713c-2.535 4.5-6.605 6.367-11.592 6.558a14.331 14.331 0 0 1-13.905-8.865zm21.721-18.853a10.92 10.92 0 0 0-1.136-5.476 7.7 7.7 0 0 0-11.6-2.672c-4.135 3.06-4.791 9.66-1.362 13.691a7.842 7.842 0 0 0 11.388.659 8.765 8.765 0 0 0 2.71-6.203z"/>
        <path data-name="Path 617" d="M95.163 46.519a14.947 14.947 0 1 1 15.012-14.789 14.811 14.811 0 0 1-15.012 14.789zm8.4-15.314c-.045-.386-.085-1.147-.232-1.888a8.308 8.308 0 0 0-13.161-5.085c-3.861 2.875-4.627 8.937-1.645 13.022a8.127 8.127 0 0 0 11.11 2.017c2.712-1.826 3.906-4.464 3.924-8.066z"/>
        <path data-name="Path 618" d="M62.531 46.516a14.939 14.939 0 1 1 0-29.876 14.938 14.938 0 1 1 0 29.876zm-.759-5.884a8.476 8.476 0 0 0 6.387-2.289 9.358 9.358 0 0 0 2.6-8.636 8.565 8.565 0 0 0-6.317-6.956 8.328 8.328 0 0 0-8.7 3.272 9.792 9.792 0 0 0-.282 10.686 7.876 7.876 0 0 0 6.312 3.923z"/>
        <path data-name="Path 619" d="m182.864 27.831-20 8.3a7.517 7.517 0 0 0 5.055 4.265c3.618.9 6.212-.138 9.584-3.817.115.068.244.136.365.217l4.768 3.185a15.453 15.453 0 0 1-10.26 6.435 14.743 14.743 0 0 1-15.1-7.228c-3.212-5.806-2.219-13.911 2.263-18.448a13.388 13.388 0 0 1 21.909 3.795c.487 1.044.911 2.117 1.416 3.296zm-7.736-2.28a5.672 5.672 0 0 0-3.5-2.865c-3.7-1.107-7.908 1.2-9.4 5.163a5.7 5.7 0 0 0-.4 3.258z"/>
        <path data-name="Path 620" d="M145.857 1.63h6.547v43.96h-6.547z"/>
    </g>
</svg>
