<svg data-name="Group 456" xmlns="http://www.w3.org/2000/svg" width="104.298" height="104.298" viewBox="0 0 104.298 104.298">
    <g data-name="Group 408">
        <path data-name="Path 486" d="M0 104.298V-.002h104.3v104.3zm103.259-52.11v-50.6c0-.548 0-.548-.546-.548H1.584c-.548 0-.548 0-.548.548v101.128c0 .546 0 .546.548.546h101.132a.76.76 0 0 0 .3-.009.5.5 0 0 0 .238-.24 1.113 1.113 0 0 0 .01-.374z"/>
        <path data-name="Path 487" d="M75.746 68.074a9.687 9.687 0 0 1 1.262.643 2.673 2.673 0 0 1 1.052 2.081c.149 1.972.223 3.949.332 5.993-.527 0-.948.012-1.365-.015-.058 0-.144-.208-.146-.322-.012-.978.027-1.959-.018-2.935a17.856 17.856 0 0 0-.271-2.719 2.365 2.365 0 0 0-2.645-2.131c-.8-.009-1.607.016-2.41-.01-.365-.012-.442.133-.441.458.009 2.373.006 4.744 0 7.115 0 .668.013.559-.567.564h-.835V60.128c.135-.008.268-.021.4-.021 1.569 0 3.136-.016 4.7.016a6.7 6.7 0 0 1 1.591.235 2.345 2.345 0 0 1 1.755 2.033 9.462 9.462 0 0 1 0 3.364 2.614 2.614 0 0 1-1.877 2.137zm-4.642-3.725v2.785c0 .174-.015.366.258.359 1.115-.031 2.234-.009 3.343-.1a2.076 2.076 0 0 0 1.991-1.749 6.22 6.22 0 0 0 .079-2.572 1.747 1.747 0 0 0-1.88-1.716c-1.137-.079-2.28-.042-3.42-.077-.314-.009-.381.116-.377.394.013.894.005 1.785.005 2.676z"/>
        <path data-name="Path 488" d="M63.996 76.799c-.455 0-.881.018-1.3-.015-.094-.007-.213-.181-.25-.3-.384-1.214-.771-2.427-1.116-3.652a.535.535 0 0 0-.631-.456q-2.86.02-5.721 0a.438.438 0 0 0-.515.385c-.347 1.252-.735 2.49-1.1 3.736-.06.2-.141.323-.387.308-.36-.022-.723-.006-1.14-.006.266-.854.513-1.664.768-2.471q2.179-6.91 4.355-13.822c.091-.292.208-.441.542-.408a7.089 7.089 0 0 0 1.052 0 .323.323 0 0 1 .372.274q1.148 3.724 2.3 7.443c.652 2.1 1.313 4.193 1.968 6.29q.375 1.2.747 2.4c.026.086.026.166.056.294zm-3.2-5.639-2.847-9.436h-.118l-2.82 9.433z"/>
        <path data-name="Path 489" d="M49.861 43.881c-.472 0-.886.018-1.3-.013-.1-.007-.237-.158-.272-.271a142.773 142.773 0 0 1-1.127-3.691.537.537 0 0 0-.622-.466 294.87 294.87 0 0 1-5.721 0 .454.454 0 0 0-.53.381c-.354 1.235-.732 2.465-1.091 3.7-.077.268-.2.391-.5.366-.332-.03-.668-.007-1.049-.007l.985-3.118 4.074-12.906c.217-.688.223-.686.933-.686.99 0 1 0 1.308.981q2.094 6.666 4.173 13.334c.25.773.481 1.549.739 2.396zm-9.019-5.644h5.793l-2.858-9.467-.109.013z"/>
        <path data-name="Path 490" d="M57.434 34.886c.318-.4.583-.719.839-1.051q2.458-3.181 4.91-6.37a.653.653 0 0 1 .6-.3c.42.019.841 0 1.357 0-.583.729-1.1 1.381-1.624 2.033q-2.21 2.755-4.425 5.507a.357.357 0 0 0 0 .519q3.056 4.213 6.095 8.44c.036.049.068.1.143.208-.585 0-1.116.013-1.646-.01-.1-.006-.226-.138-.3-.241q-1.527-2.141-3.042-4.292-1.375-1.949-2.748-3.9a.811.811 0 0 1-.062-.14l-.116.052v8.5h-1.444v-.4c0-5.272 0-10.542-.01-15.814 0-.4.124-.481.487-.473.935.019.933 0 .935.926q0 3.231.012 6.459c-.001.091.017.171.039.347z"/>
        <path data-name="Path 491" d="M78.49 52.456H25.823a.33.33 0 0 1-.048-.086c-.085-.874-.085-.874.771-.874h51.24c.844 0 .883.051.704.96z"/>
        <path data-name="Path 492" d="M34.96 64.27h-1.454c-.062-.445-.11-.89-.188-1.328a2.172 2.172 0 0 0-2.008-1.923 4.56 4.56 0 0 0-2.332.214 2.238 2.238 0 0 0-1.351 2.194 3.216 3.216 0 0 0 1.761 3.222c1.191.689 2.317 1.487 3.487 2.212a4.256 4.256 0 0 1 2.081 4.236 4.992 4.992 0 0 1-.628 2.328 3.561 3.561 0 0 1-2.777 1.64 6.732 6.732 0 0 1-2.94-.2 3.554 3.554 0 0 1-2.527-2.98c-.082-.453-.077-.921-.116-1.383-.022-.247.058-.369.333-.356.372.019.747 0 1.127 0 .037.485.043.936.11 1.377a2.376 2.376 0 0 0 2.38 2.352 5.23 5.23 0 0 0 1.749-.092 2.5 2.5 0 0 0 1.869-2.435c.168-1.857-.838-2.963-2.282-3.858-1.17-.725-2.359-1.435-3.447-2.27a4.494 4.494 0 0 1-.853-5.991 3.4 3.4 0 0 1 1.855-1.21 6.952 6.952 0 0 1 3.309-.1 3.214 3.214 0 0 1 2.645 2.728c.106.526.131 1.064.197 1.623z"/>
        <path data-name="Path 493" d="M78.156 28.368h-.46c-1.731 0-3.463.008-5.194-.006-.324 0-.458.06-.454.427.019 1.831.016 3.663 0 5.493 0 .342.119.427.436.424 1.668-.01 3.338.006 5.005-.014.341 0 .442.115.418.421-.019.246-.031.493-.048.784h-.422c-1.655 0-3.312.01-4.968-.009-.342 0-.417.107-.415.429q.022 2.974 0 5.946c0 .332.094.429.424.427 1.793-.015 3.588 0 5.382-.015.385 0 .522.113.479.491a6.611 6.611 0 0 0 0 .689h-7.672c-.007-.143-.019-.277-.019-.411q0-7.9-.007-15.806c0-.347.069-.479.448-.476q3.313.025 6.625 0c.375 0 .488.121.448.473-.025.224-.006.451-.006.733z"/>
        <path data-name="Path 494" d="M48.833 60.133v1.136c-.14.007-.274.019-.406.019h-3.048c-.67 0-.633-.112-.633.615v13.545c0 .339-.012.679 0 1.017.012.266-.1.351-.353.338-.336-.018-.676 0-1.073 0V61.784c0-.494 0-.494-.484-.494h-3.563v-1.156z"/>
        <path data-name="Path 495" d="M27.393 42.66c.219.01.38.024.54.024h4.406c.583 0 .583 0 .583.6v.573h-6.925c-.01-.155-.028-.3-.028-.445V27.674c0-.5 0-.5.491-.5.935 0 .935 0 .935.912v14.577z"/>
    </g>
</svg>
