<svg data-name="Group 457" xmlns="http://www.w3.org/2000/svg" width="182.864" height="54.158" viewBox="0 0 182.864 54.158">
    <path data-name="Path 542" d="M0 31.204c.37.091.592-.126.8-.377a2.04 2.04 0 0 1 2.661-.6 2.276 2.276 0 0 1 1.292 2.5 15.512 15.512 0 0 1-.645 2.023 4.935 4.935 0 0 0-.423 2.535c.02.124.047.248.078.37a1.118 1.118 0 0 0 .849.924.973.973 0 0 0 1.045-.511 20.94 20.94 0 0 0 1.163-2.469c.368-.936.643-1.909.967-2.864a.756.756 0 0 1 .628-.551 4.754 4.754 0 0 0 .924-.378.086.086 0 0 1 .042.035c.454.852.846.9 1.434.117a5.117 5.117 0 0 0 .47-1.036l-.135-.061a4.694 4.694 0 0 1-.447.769 5.169 5.169 0 0 1-.735.595l-.481-1a10.489 10.489 0 0 1-.98.621c-.523.261-.7.158-.82-.4-.032-.153-.054-.309-.084-.485-.338.076-.65.168-.967.215-.535.078-.717-.077-.747-.623-.019-.329 0-.66 0-1.045a2.363 2.363 0 0 1-1.956-.573l1.045-1.115c-1.258.189-2.4.166-3.09-1.1l2.086-.67.018-.13a4.492 4.492 0 0 1-3.248-2.841l2.176.107.057-.115C1.688 22.552.651 21.834.635 20.282l1.607.557.078-.09c-.892-1.305-1.775-2.612-1.107-4.444a3.829 3.829 0 0 0 1.326 2.013c-.447-1.754-.7-3.471.416-5.089a7.837 7.837 0 0 0 1.376 3.384c.058-1.071-.028-2.067.9-2.776.075.558.117 1.07.216 1.571a14.085 14.085 0 0 0 1.927 4.7q.461.745.882 1.514a2.345 2.345 0 0 1 .047 2.315 1.491 1.491 0 0 0 .211 1.757 1.743 1.743 0 0 0 1.821.748c.331-.081.6-.455.863-.728.043-.044-.047-.274-.13-.372-.429-.5-.877-.991-1.356-1.527.615-.416.544-1.044.141-1.733l-.451.488a3.432 3.432 0 0 1-.125-2.534l-.474-.159a2.949 2.949 0 0 1 1.061-2.284 5.743 5.743 0 0 1-1.133-.535 4.807 4.807 0 0 1-.738-.9l.111-.1.446.069a4.719 4.719 0 0 1-.805-.969A2.968 2.968 0 0 1 7.61 13.9a6.363 6.363 0 0 0 2.8 1.582 1.228 1.228 0 0 1 .266-1.911 3.237 3.237 0 0 0 .908 1.759.75.75 0 0 0 .859.3c.2-.04.4-.107.6-.134s.491-.1.595 0c.389.369.847.262 1.3.316a1.07 1.07 0 0 1 .777 1.527c-.61-.531-.9-.5-1.461.075a4.27 4.27 0 0 1-.811.535 5.271 5.271 0 0 0-.942.7c.86-.035 1.654.718 2.509.066.007.918-.5 1.348-1.373 1.155a2.278 2.278 0 0 0-1.191.029 1.073 1.073 0 0 1-1.488-.91.935.935 0 0 0 .88 1.311 9.036 9.036 0 0 1 1.063.045 5.825 5.825 0 0 1 .97.381c-.043-.431.162-.6.964-.788.263.527.552 1.051.789 1.6a.944.944 0 0 0 .7.6 3.94 3.94 0 0 1 2.232 1.468h-.646c.568.348 1.246.587 1.391 1.305a2.971 2.971 0 0 1-.133 1.344l-.714-1.15-.117.065a7.835 7.835 0 0 1 .3 1.242 7.239 7.239 0 0 1-.089 1.234l-1.587-.611-.106.17c1.183 1.147 1.595 2.9 3.158 3.8.007-.151.02-.311.02-.472 0-2.387.015-4.773-.009-7.16-.006-.455.142-.552.563-.546 1.374.023 2.75.017 4.124 0a.608.608 0 0 1 .6.34 2.634 2.634 0 0 0 3.394 1.154 8.232 8.232 0 0 0 1.266-.639 5.942 5.942 0 0 1 3.111-.849q2.23-.005 4.458 0c.169 0 .339.014.554.023v8.161c1.573-.9 1.983-2.661 3.243-3.863a2.077 2.077 0 0 0-1.657.552 2.943 2.943 0 0 1 .167-2.524l-.152-.079-.71 1.087c-.672-.811-.183-1.868 1.361-2.568h-.8a4.04 4.04 0 0 1 2.255-1.491.974.974 0 0 0 .707-.6c.243-.545.523-1.072.811-1.653l.975.455-.06.4a4.686 4.686 0 0 1 .69-.281 3.826 3.826 0 0 1 1.04-.148c.906.052 1.43-.469 1.238-1.288-.3.858-.79 1.08-1.682.854a2.544 2.544 0 0 0-1 0c-.894.143-1.389-.228-1.407-1.152.842.61 1.642-.1 2.524.009a1.709 1.709 0 0 0-.979-.8 2.309 2.309 0 0 1-.772-.507c-.545-.586-.86-.622-1.463-.083a1.1 1.1 0 0 1 1.233-1.552c.169.021.351-.1.531-.132.31-.059.667-.224.927-.131a1.292 1.292 0 0 0 1.771-.638c.225-.4.438-.814.66-1.227a1.158 1.158 0 0 1 .219 1.782 5.1 5.1 0 0 0 2.677-1.588c.275.935.006 1.558-1.014 2.3l.575-.1c0 .688-.561 1.182-1.768 1.5a3.056 3.056 0 0 1 1.09 2.334l-.472.16a3.458 3.458 0 0 1-.119 2.525l-.461-.489c-.361.666-.517 1.3.259 1.811l-1.637 1.7a1.373 1.373 0 0 0 2.276.547 1.679 1.679 0 0 0 .615-2.267 2.349 2.349 0 0 1 .065-2.185c.3-.54.6-1.075.92-1.6a13.291 13.291 0 0 0 2.107-6.156c.56.208.567.227.953 2.542a6.442 6.442 0 0 0 1.295-3.228c.888.651 1.028 2.411.386 5.21a4.435 4.435 0 0 0 1.4-2.029c.688 1.708-.214 3.014-1.046 4.419l1.616-.555a2.091 2.091 0 0 1-.674 1.75 16.277 16.277 0 0 1-1.641 1.148l2.221-.113a4.848 4.848 0 0 1-3.252 2.954l2.052.683c-.291.945-1.249 1.314-3.026 1.121l1 1.068c-.387.444-.387.444-1.943.636 0 .393.01.783 0 1.172s-.258.525-.6.476-.7-.14-1.088-.218c-.013.059-.035.13-.046.2-.145.922-.371 1.028-1.163.526-.224-.141-.426-.316-.663-.5l-.443.921c-.619-.166-.813-.369-1.227-1.26a1.557 1.557 0 0 0 1.091 1.651.531.531 0 0 0 .377-.2 3.037 3.037 0 0 0 .314-.494c.408.149.82.28 1.213.453a.633.633 0 0 1 .289.339c.353.993.668 2 1.037 2.988a18.874 18.874 0 0 0 .936 2.166 1.267 1.267 0 0 0 1.274.818c.507-.063.838-.6.936-1.341a5.062 5.062 0 0 0-.414-2.443 13.373 13.373 0 0 1-.671-2.063 2.327 2.327 0 0 1 2.9-2.652 3.751 3.751 0 0 1 .993.672c.253.187.492.392.785.627l-.684.535a1.186 1.186 0 0 1-.176 1.341c-.106.139.149.554.253.889-.436.063-.324.538-.439.907a7.864 7.864 0 0 1-.434.927l-.759-2.811-.192.545a1.441 1.441 0 0 1 0-2.255c-.234-.4-.431-.451-.769-.18a1.216 1.216 0 0 0-.424 1.323c.176.686.436 1.348.634 2.028s.4 1.361.535 2.053a2.893 2.893 0 0 1-.342 1.83 2.115 2.115 0 0 1-3.508.611 9.791 9.791 0 0 1-1.057-1.608 4.268 4.268 0 0 1-.2-.447c-.066.608-.15 1.086-.163 1.566-.017.616.4 1.027 1.152 1.177a1.683 1.683 0 0 0 .49 1.8 1.281 1.281 0 0 1 .152 1.636l-.3-.91c-.034.759.135 1.514-.4 2.161l-.311-.943-.116.034-.144 1.467c.695.129 1.431.281 2.175.4.441.068.626.237.608.729-.043 1.214-.013 2.431-.013 3.67-.816-.151-1.6-.312-2.381-.436a16.4 16.4 0 0 0-9.986 1.573c-.961.47-1.963.861-2.96 1.252a2.721 2.721 0 0 1-.932.126c-1.1.02-1.135-.021-1.178-1.113 0-.062-.016-.122-.022-.179-.8-.1-1.01.078-1.01.833v.189c0 1.188.012 1.254-1.185 1.48-1.314.247-2.654.358-3.984.529-.122.016-.244.041-.366.062h-1.043c-.122-.02-.244-.045-.367-.062-1.449-.206-2.91-.359-4.346-.633-.84-.161-.823-.247-.821-1.088v-.474c0-.756-.2-.928-1.036-.833a3.059 3.059 0 0 0 .006.554c.093.5-.172.677-.611.724a4.242 4.242 0 0 1-2.177-.327c-1-.435-1.984-.9-2.974-1.345a15.614 15.614 0 0 0-8.4-1.369c-1.09.128-2.172.333-3.307.511v-.54c0-1.153-.006-2.307.019-3.46 0-.1.207-.255.34-.285.813-.182 1.632-.336 2.432-.5l-.144-1.467-.114-.027-.326.942c-.526-.651-.348-1.392-.4-2.129l-.291.868a1.236 1.236 0 0 1 .131-1.6 1.732 1.732 0 0 0 .509-1.831c.7-.105 1.169-.542 1.152-1.13-.013-.489-.1-.974-.162-1.465a15.981 15.981 0 0 1-1.013 1.676 2.168 2.168 0 0 1-3.807-.466 3.866 3.866 0 0 1-.284-.9 5.376 5.376 0 0 1 .436-2.676c.266-.773.521-1.552.729-2.342a1.15 1.15 0 0 0-.41-1.193c-.338-.294-.559-.244-.8.173.718.673.716 1.916 0 2.217l-.2-.544-.707 2.677-.108.05a7.514 7.514 0 0 1-.38-.86c-.11-.354-.01-.81-.4-.863.085-.35.32-.783.2-.933a1.167 1.167 0 0 1-.155-1.305l-.771-.605zM47.816 44.84l-.782.268c.509-.909-.239-1.32-.442-1.926.455-.433.889-.146 1.319.082.473.253.608.232.832-.256a1.52 1.52 0 0 0-.04-1.73 1.146 1.146 0 0 1-.214-1.464 1.161 1.161 0 0 0 .077-.453c-.374.475-.6 1.042-1.312 1.151a2.284 2.284 0 0 1 0-.307 3.855 3.855 0 0 0-.445-2.428 1.391 1.391 0 0 1-.068-1.263c.163-.409.332-.82.463-1.24a1.118 1.118 0 0 0-.231-1.216c-.01.163-.01.255-.023.346-.164 1.1-.339 1.763-1.537 2.03-.215.048-.423.129-.635.186-1.189.318-1.19.319-1.014 1.589.016.11.034.219.043.329a9.531 9.531 0 0 1 .091 1.316c-.01.186-.208.379-.357.534-.229.239-.509.429-.729.674a5.381 5.381 0 0 0-.458.72l-.121-.428a2.3 2.3 0 0 1-2.005.8l.306-.55a1.6 1.6 0 0 1-1.845.036l.425-.547c-1.134.19-1.327.125-1.655-.519l.324-.3-.483-.111.113-.079c-.154-.319-.3-.642-.464-.954-.144-.274-.426-.65-.034-.8a1.035 1.035 0 0 0 .71-.849l.473.039-.019-.39 1.091-.669a1.459 1.459 0 0 1 .259.538 6.19 6.19 0 0 1-.112 1.025c-.034.285-.063.57-.1.867l2.3-.558.357-1.451c-.4.371-.763.81-1.326.775.227-.575.491-1.131.668-1.711a2.669 2.669 0 0 1 2.175-1.93 5.428 5.428 0 0 0 1.613-.632c.737-.45.764-.851.152-1.444-.586-.568-1.225-1.084-1.842-1.624.14-.429.32-.731.892-.75a1.063 1.063 0 0 0 .992-1.269 1.393 1.393 0 0 1-1.7.916l-1.08 1.774-.219-.021-.427-1.554-1.585 1.374c1 .212 1 .212 1.117.523-.614-.006-.511.46-.518.952-.241-.119-.41-.2-.576-.285a.68.68 0 0 0-.972.221c-.27.332-.042.615-.006.926a1.168 1.168 0 0 1-.089.677c-.063.108-.353.146-.524.116-.289-.049-.377.078-.4.314-.011.105 0 .213 0 .358-.39-.042-.822-.609-1.087.225-.16-.25-.369-.428-.351-.578a4.292 4.292 0 0 1 .322-1.24 4.054 4.054 0 0 0 .572-2.534h-7.092v6.064h6.621c.691 0 .777.1.689.826a9.348 9.348 0 0 0-1.352-.369.928.928 0 0 0-1.084.689l1.117.346-.1.98h-5.893v8.476a10.863 10.863 0 0 0 6.526-7.161c.114.141.222.311.182.432a10.592 10.592 0 0 1-7.8 7.466 1.779 1.779 0 0 1-.833.007 10.671 10.671 0 0 1-7.832-7.444c-.106-.31.021-.382.279-.441a10.563 10.563 0 0 0 6.457 7.145v-8.5h-5.916l-.082-.945c.176-.068.36-.15.551-.208s.409-.1.632-.151a1.281 1.281 0 0 0-1.784-.565c-.235.1-.474.182-.732.28-.053-.786.014-.862.682-.862h6.645v-6.079h-7.2a9.98 9.98 0 0 0 .232 1.435 11.049 11.049 0 0 0 .63 1.415c.309.656.235 1.066-.3 1.406-.2-.842-.665-.042-1.024-.162.055-.46-.012-.754-.6-.576-.306.093-.592-.389-.478-.738a4.815 4.815 0 0 0 .157-.491.681.681 0 0 0-.875-.841 3.833 3.833 0 0 0-.452.252c-.2.1-.367.069-.325-.2.068-.432-.127-.635-.584-.662.261-.53.79-.305 1.162-.532l-1.654-1.424a2.073 2.073 0 0 1-.54 1.686l-1.085-1.812a1.443 1.443 0 0 1-1.74-.907 1.134 1.134 0 0 0 1.037 1.266.835.835 0 0 1 .869.756c-.628.557-1.269 1.09-1.869 1.668-.566.543-.567.888.1 1.316a6.178 6.178 0 0 0 1.773.721 2.657 2.657 0 0 1 2.082 1.848c.192.606.459 1.19.7 1.794-.554.012-.924-.407-1.316-.753l.337 1.419 2.3.554c-.036-.309-.07-.6-.1-.886a5.651 5.651 0 0 1-.1-1.027c.013-.2.2-.385.3-.558.28.225.446.47.634.488.448.041.513.252.362.621l.395-.032c.228.291.361.585.588.722.425.258.494.475.212.9a9.064 9.064 0 0 0-.477.942l.12.087-.473.129.312.3c-.34.646-.519.706-1.649.528l.409.547a1.63 1.63 0 0 1-1.837-.037l.3.536a2.31 2.31 0 0 1-2-.766l-.128.381c-.177-.281-.294-.5-.441-.693s-.3-.52-.512-.579c-.626-.174-.645-.6-.594-1.1l.2-2.071c.029-.328-.073-.508-.452-.565-.48-.071-.939-.269-1.417-.371a1.587 1.587 0 0 1-1.249-1.319c-.076-.3-.119-.615-.192-1a1.348 1.348 0 0 0-.15 1.3c.153.431.343.85.474 1.287a1.16 1.16 0 0 1 .049.729 4.832 4.832 0 0 0-.561 3.136c-.747-.092-.961-.7-1.369-1.266.037.274.012.44.082.545a1.21 1.21 0 0 1-.235 1.542 1.28 1.28 0 0 0-.173 1.246c.222.856.44.952 1.22.573a1.913 1.913 0 0 1 .3-.132.653.653 0 0 1 .8.181c-.262.618-.927 1.041-.559 1.858-.273-.079-.487-.226-.723-.3-.177-.057-.453-.1-.559-.011s-.1.371-.141.569l-.013-.012c-.027.2.284.508-.093.588a.971.971 0 0 1-.7-.2 4.018 4.018 0 0 1-.6-.734l-.056.748a4.992 4.992 0 0 0-3.149.261v3.377c.172-.031.311-.053.447-.082a16.7 16.7 0 0 1 9.742.551c1.364.536 2.673 1.213 4.037 1.748a9.269 9.269 0 0 0 1.927.4c.323.051.466-.122.456-.478-.025-.885-.007-1.77-.01-2.655a3.756 3.756 0 0 0-.044-.388 5.885 5.885 0 0 1-3.478-.806 23.885 23.885 0 0 0-5.346-2.019c-.114-.023-.2-.193-.3-.3l.1-.14a9.7 9.7 0 0 1 1.315.323c1.627.642 3.237 1.326 4.859 1.978.6.243 1.227.442 1.9.68.012-.259.03-.4.025-.538a.609.609 0 0 1 .483-.669 2.913 2.913 0 0 1 2.4.415 1.509 1.509 0 0 1 .654 1.607c-.032.321.112.462.406.508.513.081 1.027.17 1.541.249a21.466 21.466 0 0 0 7.4-.216c.453-.087.62-.275.556-.723a1.447 1.447 0 0 1 1.022-1.617 3.814 3.814 0 0 1 1.228-.3c1.009-.059 1.215.146 1.3 1.124 0 .025.037.046.105.125 2.71-.76 5.086-2.559 7.979-2.893.15.3-.011.335-.241.414-1.416.482-2.841.945-4.226 1.5-1.481.6-2.85 1.529-4.6 1.306v2.56c0 1 .115 1.094 1.111.938a.918.918 0 0 0 .185-.041c1.052-.422 2.132-.787 3.148-1.281a16.822 16.822 0 0 1 10.312-1.6l1.852.309v-3.467c-1.068-.035-2.072-.718-3.185-.153l-.038-.767a4.03 4.03 0 0 1-.6.757.945.945 0 0 1-.7.172c-.341-.085-.047-.359-.067-.547-.023-.216-.056-.507-.2-.609-.111-.079-.393.079-.6.132zm-13.08 4.781a22.722 22.722 0 0 1-11.333 0v2.351c0 1.009 0 1.019 1.011 1.247a21.587 21.587 0 0 0 7.484.312 24.005 24.005 0 0 0 2.5-.519c.131-.03.324-.2.328-.318.02-1.018.014-2.042.014-3.073zM23.765 25.988c-.428.672-.858 1.371-1.313 2.054a.728.728 0 0 0 .141 1.049 2.886 2.886 0 0 0 3.352 0 .7.7 0 0 0 .138-1.047c-.4-.627-.8-1.248-1.2-1.877-.2-.318-.02-.666.347-.617.478.064.94.228 1.414.325a.915.915 0 0 0 .543-.008 3.229 3.229 0 0 1 1.622-.312l-.492 1.1.764 1.173a2.035 2.035 0 0 1 .188-.322 1.178 1.178 0 0 0 .172-1.685c-.041-.052-.025-.148-.056-.385.578.167 1.075.321 1.579.449a1.157 1.157 0 0 0 .507 0c.473-.1.937-.252 1.413-.334a.5.5 0 0 1 .389.227.474.474 0 0 1-.04.4c-.377.622-.778 1.227-1.164 1.842a.74.74 0 0 0 .185 1.115 2.941 2.941 0 0 0 3.247-.006.734.734 0 0 0 .165-1.116q-.555-.882-1.12-1.757c-.121-.188-.216-.336-.051-.584a.623.623 0 0 0-.225-.906.71.71 0 0 0-.946.114.877.877 0 0 1-.505.229q-1.469.032-2.939 0a.9.9 0 0 1-.492-.236.425.425 0 0 0-.625-.009 1.023 1.023 0 0 1-.537.245c-.947.023-1.9.026-2.844 0-.2-.006-.391-.179-.6-.242-.255-.077-.564-.228-.769-.146a1.008 1.008 0 0 0-.456.637c-.045.178.126.407.208.63zm-8.164-4.05-.894-1.8-.595.3-.045.155.6.329-1.082.621-.407-.549-.725.51.252.372.442-.187.064.123-1.081.829-.464-.521-.67.589.272.333.4-.151.028.065-.895.926-.565-.518a2.174 2.174 0 0 0-.223.632c0 .067.284.138.471.22-.073.521.515.633.772 1.029a13.789 13.789 0 0 1 4.345-3.306zm30.4.716-1.063-.874.093-.107.393.217.257-.408-.735-.487-.4.546-1.083-.64c.286-.075.591-.047.539-.491l-.586-.26-.876 1.797a14.1 14.1 0 0 1 4.408 3.354c.126-.519.866-.534.691-1.106l.661-.227-.467-.557-.5.467.078-.15-.911-.859c.257.185.5.218.612-.2l-.662-.551zm5.321.992a.693.693 0 0 1 .092 1c-.388.355.1.867-.331 1.141-.013.009-.031.016-.038.028a1.325 1.325 0 0 0-.194.362 3.675 3.675 0 0 1-1.153 1.389c-.06.016-.13 0-.187.02-.1.033-.221.059-.271.132a.694.694 0 0 1-.84.246c-.083-.019-.2-.048-.252-.008-.428.367-.81.271-1.2-.169.026.484.336.776.623.709a7.072 7.072 0 0 0 1.452-.256 8.249 8.249 0 0 0 .957-.492 2.721 2.721 0 0 0 1.074-1.292c.155-.492.86-.876.428-1.53-.006-.008.032-.05.056-.069.506-.421.273-.867.027-1.319a3.487 3.487 0 0 0 1.146-2.141zm-45.89-2.2a3.475 3.475 0 0 0 1.152 2.1c-.284.47-.474.909.027 1.333.038.032.036.151.011.213a.69.69 0 0 0 .294.9.354.354 0 0 1 .1.232c.073.73.811.985 1.111 1.552.025.048.144.05.22.067.574.124 1.009.708 1.682.506.029-.008.075.054.116.077a.66.66 0 0 0 1-.621.728.728 0 0 1-.964.3c-.513-.226-1.145-.07-1.594-.518-.186-.187-.435-.311-.624-.5-.347-.338-.771-.64-.743-1.212 0-.012-.072-.019-.081-.04-.091-.23-.187-.461-.257-.7-.029-.1.046-.263 0-.305a.777.777 0 0 1-.067-1.208zm6.212-4.552c.519.544.861.519 1.275-.109a1.027 1.027 0 0 0-.475.16c-.218.146-.343.1-.415-.143a.554.554 0 0 0-.078-.118zm34.545-.211-.005.158c-.165.03-.46.116-.475.081-.143-.331-.331-.108-.527-.1.474.6.82.62 1.292.074z"/>
    <path data-name="Path 543" d="M182.864 39.362h-6.568a3.117 3.117 0 0 0 2.36 3.657c1.171.155 2.061-.41 2.721-1.765l1.257.435a3.65 3.65 0 0 1-3 2.507 4 4 0 0 1-4.818-3.5 8.418 8.418 0 0 1 .185-4.212 3.809 3.809 0 0 1 4.117-2.85 3.682 3.682 0 0 1 3.553 3.1c.067.272.131.544.2.816zm-1.582-1.2a3.983 3.983 0 0 0-.593-2.315 2.211 2.211 0 0 0-3.54-.244 4.274 4.274 0 0 0-.9 2.559z"/>
    <path data-name="Path 544" d="M29.971 0v.834l.7.1.227-.831 1.49.344c-.313.768-.326 1.581-.9 2.2a.456.456 0 0 1-.566.142 6.041 6.041 0 0 0-3.453-.075c-.57.152-.879.036-1.09-.518s-.37-1.131-.57-1.752l1.454-.308.21.812.792-.074V.001z"/>
    <path data-name="Path 545" d="M23.958 18.937c.708.123 1.349.2 1.965.362a.987.987 0 0 1 .557.516c.314.735.567 1.5.87 2.314a6.8 6.8 0 0 0-.34-2.9 8.416 8.416 0 0 0 3.155-1.447c-.962.262-1.855.558-2.772.737a8.851 8.851 0 0 1-2.069.143 1.508 1.508 0 0 1-1.563-1 1.929 1.929 0 0 1 .776-1.936c.009.093.02.163.021.233a1.283 1.283 0 0 0 1.176 1.409 6.444 6.444 0 0 0 3.432-.458c.871-.313 1.7-.735 2.564-1.113a3.784 3.784 0 0 0 .418 3.739l.52-2.217c.937 1.955 2.456 3.26 3.8 3.177a4.627 4.627 0 0 1-.491-4.246 3.086 3.086 0 0 1-3.965-1.288 9.132 9.132 0 0 1-5.313 1.829c.12-.319.2-.588.32-.833s.3-.475.489-.775a2.858 2.858 0 0 0-1.559 1.572c-.75-.3-.847-.9-.8-1.615-.933.043-1.246-.832-1.869-1.26a.78.78 0 0 1 .178-1.282c.347-.186.763-.255 1.084-.471a2.648 2.648 0 0 0 .654-.772c.037-.055-.122-.252-.21-.368a.315.315 0 0 0-.2-.1c-.2-.021-.456.055-.587-.045-.5-.381-1.142-.635-1.305-1.361-.089-.4-.116-.851-.6-1.044-.092-.036-.117-.217-.2-.311a3.9 3.9 0 0 0-.389-.342 1.315 1.315 0 0 1 .494-1.1 1.2 1.2 0 0 1 1.075-.428c.252.018.473-.1.388-.435a.44.44 0 0 1-.022-.14c.021-.225.049-.448.074-.671l.664.134-.169-.417c.07-.069.189-.134.227-.232.148-.375.342-.567.794-.436.159.045.381-.137.6-.224.1.355.215.621.694.389.241-.117.588-.049.378.5l.154-.084a8.759 8.759 0 0 0 .15-1.086c.008-.321.156-.435.435-.5a6.484 6.484 0 0 1 2.956.027.477.477 0 0 1 .4.5c.051.517.121 1.031.189 1.59a.9.9 0 0 1 1.271.489 1.37 1.37 0 0 1 1.634.583 4.757 4.757 0 0 1 .47 1.921 1.451 1.451 0 0 1-1.147 1.354c-.249.087-.514.13-.851.211.088.1.142.226.226.253a2.2 2.2 0 0 0 .6.1c.646.013 1.039.263 1.137.9.171 1.114.246 2.036-1.02 2.711.136.99.014 1.251-.748 1.5a2.036 2.036 0 0 0 1.744.868c.67-.037.975-.518 1.205-1.059a6.836 6.836 0 0 0-.342-5.236 2.249 2.249 0 0 1 2.306.555 8.817 8.817 0 0 1 .363-1.492c.584-1.343 1.579-2.019 3.116-1.318a4.789 4.789 0 0 1 1.052.624.868.868 0 0 0 .869.191 3.129 3.129 0 0 0 2.477-2.4 1.32 1.32 0 0 1 1 .932 4.519 4.519 0 0 1 .239 2.512c-.028.169-.06.336-.092.5a2.533 2.533 0 0 0 2.419-.976 2.183 2.183 0 0 1 .112 1.467 3.184 3.184 0 0 1-4 2.544 2.615 2.615 0 0 1-1.589-1.191c-.107-.176-.2-.36-.3-.536-.281-.464-.453-1.06-1.113-1.12a2.389 2.389 0 0 0-2.234.76 11.564 11.564 0 0 0-.758 1.234 2.148 2.148 0 0 1 2.209.465 2.607 2.607 0 0 1 .667 1.154 2.265 2.265 0 0 1-1.647 2.347c-.106-1.011-.608-1.333-1.677-1.076a3.034 3.034 0 0 0-2.309 3.988 2.676 2.676 0 0 0 1.417 1.9c-1.656.922-3.669.211-4.9-1.729a3.841 3.841 0 0 0 .84 3.13 8.344 8.344 0 0 0-1.752.132c-.839.24-1.631.645-2.45.961a11.752 11.752 0 0 1-1.77.614 2.312 2.312 0 0 1-2.23-.876.851.851 0 0 1 .168-1.409.546.546 0 0 0 .2-.368 1.294 1.294 0 0 0-.958-1.339c-.206-.074-.4-.187-.623-.294a3.792 3.792 0 0 1-4.58 1.2 3.133 3.133 0 0 0 1.516-3.547 1.96 1.96 0 0 0-.607-1.075 6.628 6.628 0 0 0-6.364-1.619 1.417 1.417 0 0 1-.185.025c0-.669.864-1.517 1.9-1.88a3.311 3.311 0 0 1 2.8.277 5.041 5.041 0 0 0-2.478-3.111 1.054 1.054 0 0 0-1.33.293 13.419 13.419 0 0 0-.852 1.3 3.051 3.051 0 0 1-3.551 1.392 3.352 3.352 0 0 1-2.07-3.949 7.479 7.479 0 0 0 1.111.731 7.643 7.643 0 0 0 1.332.321c-.188-1.34-.331-2.571.451-3.655a3 3 0 0 1 .678-.513 3.121 3.121 0 0 0 2.592 2.485 1.3 1.3 0 0 0 .721-.18 16.527 16.527 0 0 1 1.872-.858 1.851 1.851 0 0 1 2.085.771 4.637 4.637 0 0 1 .831 2.48c.014.141.021.282.039.534.275-.626.537-1.171 1.231-1.165a1.174 1.174 0 0 1 1.036.635 3.927 3.927 0 0 0-.49 4.873c.352.441.532.5 1.616.561-.172.674-.27.694-1.841.377a4.819 4.819 0 0 1-.535 4.161 3.494 3.494 0 0 0 2.613-1.579zm8.059-9.7c.129.026.266.05.4.079a1.647 1.647 0 0 0 1.486-.436 1.169 1.169 0 0 0 .277-1.421 1.038 1.038 0 0 0-1.3-.431 3.1 3.1 0 0 0-.749.369c-.156.107-.379.322-.353.443.034.161.28.277.525.492.022-.247 0-.348.042-.395.16-.187.324-.474.518-.5a.769.769 0 0 1 .64.329.811.811 0 0 1-.11.716 1.077 1.077 0 0 1-.7.33 8.41 8.41 0 0 1-1.318-.051c-.9-.07-1.789-.158-2.685-.226a.636.636 0 0 0-.743.528 2.024 2.024 0 0 1-1.5 1.436c-.455.1-.539.283-.476.667a.756.756 0 0 1-.022.187l-.341-.054c-.381.484-.523 1.141-1.321 1.138-.41 0-.93.627-.933.952a2.653 2.653 0 0 0 .832-.3c.463-.38.652-.15.839.358l1.364-1.378.149.3.387-1.077c.1-.045.271-.082.276-.134.036-.381.357-.432.6-.59a7.724 7.724 0 0 0 .991-.763c.23-.21.435-.413.737-.357a4.163 4.163 0 0 0-.509.962.725.725 0 0 0 .556.84 3.452 3.452 0 0 0-.584.528.8.8 0 0 1-1.016.336c-.484-.145-.719.083-.729.706.556-.035 1.106-.089 1.657-.1a.847.847 0 0 0 .815-.322 1.439 1.439 0 0 1 .693-.425c.542-.187.55-.167.209-.67a1.119 1.119 0 0 1 .022-1.5c.167.321.337.6.455.895a.55.55 0 0 0 .545.425c.471.008.939.045 1.438.072.1.436.52.863.124 1.406-.284-.1-.644-.352-.84-.258-.214.1-.273.523-.4.806a3.624 3.624 0 0 1 .837.143c.553.25.788.1 1-.474l.291.237.078-1.17h.254l-.437-.869.276.016a.818.818 0 0 0-.828-.694 2.232 2.232 0 0 1-1.058-.353c-.195-.132-.243-.485-.361-.744zm-22.969.772a2.946 2.946 0 0 0 2.034 2.419 2.447 2.447 0 0 0 2.765-1.417c.358-.68.679-1.379 1.024-2.085a4.152 4.152 0 0 1-3.008-2.078c-.493.768-.5 1.221-.061 3.518a3.915 3.915 0 0 1-2.754-.354zM42.86 8.932c.408.814.776 1.58 1.175 2.331a2.091 2.091 0 0 0 1.316 1.081 2.458 2.458 0 0 0 3.014-1.326 7.715 7.715 0 0 0 .352-.91 4.523 4.523 0 0 1-2.84.237 4.08 4.08 0 0 0 .022-3.557 4.19 4.19 0 0 1-3.038 2.147zm-19.053-.014.16-.008.575-.573c-.442.848-.448 1.221.008 1.671l.359-.762c-.042.48-.233.924.139 1.315l.317-1.228c.031.6-.268 1.207.206 1.717l.89-1.606v.785c.636-.3.842-.759.782-1.627l.305.7.127.008.078-1.427.119-.046-.333-1.049.475-.126-.5-.412c-.2.4-.347.742-.539 1.054s-.444.593-.656.9a.619.619 0 0 1-.947.1 10.9 10.9 0 0 1-.912-1.439c-.213-.4-.409-.569-.759-.419l.391.322-.454.886.253.044zm.738-3.651c-.264.16-.612.279-.61.389 0 .211.2.427.334.625.069.1.2.154.282.249a1.627 1.627 0 0 1 .175.3c.1.187.159.473.309.534s.391-.1.656-.19l-.341-.386h.953l-.29.389a2.107 2.107 0 0 0 .592.153c.1 0 .273-.2.257-.279-.078-.423.25-.568.477-.786.124-.121.25-.237.462-.437h-.566l-.037-.1.514-.313-.422-.068v-.668l-.489.363-.094-.739-.644.362-.411-.5-.113.431c-.253-.171-.4-.609-.75-.305l.344.74-.614-.24zm7.212 1.464h2.267c-.251-.71-.85-.979-1.748-.737-.132-.34-.243-.733-.719-.608 0 .267.09.633-.02.707a1.473 1.473 0 0 1-.748.076c-.107 0-.217-.083-.32-.073a7.669 7.669 0 0 0-1.466.194.8.8 0 0 0-.532.867.934.934 0 0 0 .64.809 2.01 2.01 0 0 0 2.141-.587 3.577 3.577 0 0 0-.774-.012 5.27 5.27 0 0 1-.926.046c-.134-.017-.356-.245-.34-.347a.61.61 0 0 1 .344-.416 1.425 1.425 0 0 1 1.417.27.918.918 0 0 0 1.117.168zm-8.07.209-.111-.107-1.307.976c.079.134.134.369.268.431.715.325.431 1.23.991 1.636.352.254.68.541 1.022.809l.1-.121a1.355 1.355 0 0 1-.2-.18 4.176 4.176 0 0 1-.977-2.038c-.029-.239-.078-.476-.12-.715h-.114zm5.937-2.139a5.744 5.744 0 0 0-.121-.986.534.534 0 0 0-.406-.3.544.544 0 0 0-.407.306 5.866 5.866 0 0 0-.135.982zm-3.85 8.691c.988 1.112 1.1 1.173 1.632.924-.509-.983-1.071-1.301-1.632-.922zm6 .079-.1.178a5.305 5.305 0 0 0 .7.783.622.622 0 0 0 .6.024.423.423 0 0 0-.165-.7 6.7 6.7 0 0 0-1.039-.283zm-1.57.82c-.554-1.121-.831-1.31-1.562-1.052.52.357.609 1.255 1.558 1.054zm-1.377-.078c-.691-1.059-1.135-1.3-1.633-.877.525.302.716 1.176 1.629.879zm1.409-.952c.626 1.148.758 1.34 1.33 1.157-.406-1.074-.699-1.34-1.331-1.155zm-5.706.868a1.047 1.047 0 0 0 1.491.175l-.881-.687zm7.1-5.872a1.032 1.032 0 0 0 1 .173 1.591 1.591 0 0 0 .648-.389c.03-.027-.139-.284-.215-.435-.143.083-.33.134-.416.257-.075.106-.035.292-.05.519zm1.436 3.763c-.05-.655-.2-.747-1.088-.605l.07.435z"/>
    <path data-name="Path 546" d="M117.783 26.466v-1.334c-.413.326-.753.622-1.12.879a4.546 4.546 0 0 1-5.312-.03 4.315 4.315 0 0 1-1.416-2.143 14.159 14.159 0 0 1-.1-8.253 4.122 4.122 0 0 1 3.52-3.219 4.69 4.69 0 0 1 3.966 1.263c.123.11.254.211.458.381V8.679h4.295v17.787zm.01-6.859v-2.6a.728.728 0 0 0-.111-.438 2.311 2.311 0 0 0-2.268-.979 1.825 1.825 0 0 0-1.472 1.714 26.627 26.627 0 0 0-.141 3.717 4.328 4.328 0 0 0 .472 1.663 1.545 1.545 0 0 0 1.982.848 4.938 4.938 0 0 0 1.282-.759.807.807 0 0 0 .249-.558c.018-.875.007-1.743.007-2.611z"/>
    <path data-name="Path 547" d="M107.589 26.474h-4.307v-.571c0-2.641.005-5.28-.008-7.919a4.425 4.425 0 0 0-.153-1.167 1.147 1.147 0 0 0-1.728-.811 9.269 9.269 0 0 0-1.6 1.15c-.112.089-.124.343-.124.521q-.012 4.1-.006 8.2v.585h-4.3v-13.8h4.269v1.816l.775-.625a5.787 5.787 0 0 1 3.728-1.539c2.167.012 3.333 1.073 3.4 3.252.062 1.943.04 3.887.048 5.831.007 1.5 0 3 0 4.506z"/>
    <path data-name="Path 548" d="M150.704 26.465h-4.331v-.586c0-2.671.009-5.341-.009-8.012a4.08 4.08 0 0 0-.2-1.249 1.082 1.082 0 0 0-1.364-.717 4.24 4.24 0 0 0-1.971 1.336c-.1.1-.075.326-.076.494q-.005 4.076 0 8.154v.581h-4.244v-13.8h4.22v1.813c.37-.29.651-.5.923-.721a5.626 5.626 0 0 1 4-1.437 2.9 2.9 0 0 1 2.958 2.7 9.554 9.554 0 0 1 .1 1.275q.012 4.882 0 9.766z"/>
    <path data-name="Path 549" d="M136.983 19.591a8.426 8.426 0 0 1-1.04 4.231c-1.466 2.486-3.79 3.208-6.487 2.972-3.85-.339-5.442-3.1-5.779-5.912a9.462 9.462 0 0 1 .477-4.567 5.738 5.738 0 0 1 4.867-3.9 6.787 6.787 0 0 1 5.8 1.5 6.663 6.663 0 0 1 2.029 4.167c.07.5.091 1.006.133 1.509zm-4.328-.109c-.134-.84-.227-1.766-.444-2.662a1.746 1.746 0 0 0-1.515-1.379 1.855 1.855 0 0 0-2.268 1.307 8.6 8.6 0 0 0-.413 2.5 12.418 12.418 0 0 0 .343 2.986 2.018 2.018 0 0 0 3.934-.13c.185-.827.238-1.681.363-2.622z"/>
    <path data-name="Path 550" d="M80.48 19.588a8.493 8.493 0 0 1 .979-4.193 5.618 5.618 0 0 1 3.587-2.8 7.876 7.876 0 0 1 4.439.056 5.708 5.708 0 0 1 3.867 3.849 9.427 9.427 0 0 1 .092 5.867 5.977 5.977 0 0 1-5.843 4.467 6.812 6.812 0 0 1-4.6-1.27 6.738 6.738 0 0 1-2.463-4.885c-.043-.364-.041-.729-.058-1.091zm9.071-.1c-.149-.869-.258-1.825-.489-2.751a1.7 1.7 0 0 0-1.439-1.283 1.916 1.916 0 0 0-2.376 1.435 9.117 9.117 0 0 0-.024 5.323 1.9 1.9 0 0 0 1.969 1.527 1.856 1.856 0 0 0 1.96-1.581c.205-.838.261-1.708.399-2.673z"/>
    <path data-name="Path 551" d="M69.071 10.166h4.44v12.879h6.039v3.413H69.071z"/>
    <path data-name="Path 552" d="M167.48 42.283c-.879-.7-.787-1.62.337-2.5a1.932 1.932 0 0 0-.182-.136 3.171 3.171 0 0 1 1.279-5.953 18.018 18.018 0 0 1 2.166.082c.566.026 1.132.064 1.7.078.533.013 1.068 0 1.639 0v1.018h-1.74a2.918 2.918 0 0 1 .733 2.581 2.756 2.756 0 0 1-2 2.352 7.532 7.532 0 0 1-2.233.259.728.728 0 0 0-.8.558c-.146.408.13.626.484.718.915.238 1.837.449 2.753.681a8.791 8.791 0 0 1 .992.311 2.261 2.261 0 0 1 1.594 2.186 2.3 2.3 0 0 1-1.317 2.286 7.492 7.492 0 0 1-2.154.65 6.275 6.275 0 0 1-3.705-.474 2.283 2.283 0 0 1-.686-3.723 12.454 12.454 0 0 1 1.14-.974zm2.251-7.594a2.057 2.057 0 0 0-2.322 2.108 2.3 2.3 0 0 0 4.6-.008 2.05 2.05 0 0 0-2.277-2.1zm.212 11.787a15.133 15.133 0 0 0 1.667-.386 1.468 1.468 0 0 0 1.065-1.464c-.035-.593-.377-.971-1.167-1.191-.866-.24-1.742-.442-2.617-.644a.522.522 0 0 0-.4.051 6.263 6.263 0 0 0-1.132 1.118 1.282 1.282 0 0 0 .615 2 14.432 14.432 0 0 0 1.97.517z"/>
    <path data-name="Path 553" d="M115.147 36.998h5.379v1.308h-5.379v4.434h5.839v1.3a2.5 2.5 0 0 1-.314.039c-2.259 0-4.518 0-6.777.006-.27 0-.443-.02-.442-.371q.015-5.876.01-11.753a.965.965 0 0 1 .039-.171h7.312v1.285h-5.667z"/>
    <path data-name="Path 554" d="M108.567 44.079c-.7 0-1.263.018-1.827-.013a.674.674 0 0 1-.4-.273 977.16 977.16 0 0 1-3.9-4.922c-.015.244-.029.385-.029.527 0 1.4-.016 2.812.008 4.216.006.388-.124.477-.488.474-1.084-.012-1.084 0-1.084-1.1V30.645h1.551v7.663l2.031-2.341c.527-.608 1.035-1.235 1.588-1.817a1.149 1.149 0 0 1 .679-.3c.468-.047.944-.014 1.547-.014l-4.2 4.716z"/>
    <path data-name="Path 555" d="m76.104 33.751-1.509.505c-.487-1.168-1.375-1.692-2.979-1.362a1.626 1.626 0 0 0-1.353 1.448 1.7 1.7 0 0 0 .87 1.967c.966.491 1.971.908 2.963 1.351a3.361 3.361 0 0 1-.032 6.328 5.393 5.393 0 0 1-3.794.008 3.5 3.5 0 0 1-2.152-2.308l1.52-.576a1.773 1.773 0 0 1 .142.262 2.566 2.566 0 0 0 3.429 1.432 2.005 2.005 0 0 0 1.344-1.838 1.892 1.892 0 0 0-1.175-1.974l-2.823-1.322c-1.513-.709-2.16-1.673-2.053-3.061a3.185 3.185 0 0 1 2.573-2.954 4.964 4.964 0 0 1 3.375.225 2.99 2.99 0 0 1 1.654 1.869z"/>
    <path data-name="Path 556" d="M147.238 44.009h-1.527V36.83c-.04-1.563-.986-2.194-2.449-1.629a4.491 4.491 0 0 0-1.833 1.458.833.833 0 0 0-.107.485c-.007 2.1 0 4.205 0 6.307v.556h-1.489V30.659h1.467v4.794c.307-.26.528-.444.746-.631a4.053 4.053 0 0 1 2.759-1.187 2.259 2.259 0 0 1 2.4 2.183c.035.344.039.693.039 1.041v6.544z"/>
    <path data-name="Path 557" d="M154.461 37.757c.218-1.576-.159-2.584-1.118-2.851-1.01-.281-2.2-.319-3.1 1.664l-1.237-.362a3.184 3.184 0 0 1 2.828-2.516 6.742 6.742 0 0 1 1.7.021c1.567.246 2.416 1.309 2.471 3.1.044 1.42.018 2.843.021 4.264v2.928h-1.514v-1.612c-.408.387-.735.744-1.108 1.041a3.26 3.26 0 0 1-4.066.011 3.3 3.3 0 0 1 .545-4.924 5.547 5.547 0 0 1 2.893-.759c.554-.021 1.106-.005 1.685-.005zm.048 1.159a10.57 10.57 0 0 0-1.724.019 6.527 6.527 0 0 0-1.963.59 1.938 1.938 0 0 0-.664 2.473 1.667 1.667 0 0 0 2.076.868 4.574 4.574 0 0 0 2.219-1.617.274.274 0 0 0 .055-.173c.003-.708.001-1.415.001-2.161z"/>
    <path data-name="Path 558" d="M91.294 38.905a6.653 6.653 0 0 1-1.114 3.809 3.858 3.858 0 0 1-3.66 1.54 3.639 3.639 0 0 1-3.329-2.408 7.626 7.626 0 0 1-.126-5.406 4.12 4.12 0 0 1 7.966.551c.132.628.178 1.275.263 1.914zm-7.122 0 .123.026a5.89 5.89 0 0 0 .474 2.673 2.241 2.241 0 0 0 2.255 1.4 2.157 2.157 0 0 0 2.124-1.446 6.9 6.9 0 0 0 .029-5.164 2.2 2.2 0 0 0-2.275-1.51 2.158 2.158 0 0 0-2.19 1.557 21.12 21.12 0 0 0-.54 2.464z"/>
    <path data-name="Path 559" d="M164.821 44.012h-1.489v-7.174c-.056-1.579-1.019-2.213-2.491-1.631a4.414 4.414 0 0 0-1.818 1.474.928.928 0 0 0-.115.533c-.008 2.069 0 4.139 0 6.208v.587h-1.491V33.89h1.482v1.576c.36-.311.624-.547.9-.773a3.819 3.819 0 0 1 2.853-1.046 2.158 2.158 0 0 1 2.145 2.223c.085 2.697.024 5.397.024 8.142z"/>
    <path data-name="Path 560" d="M122.395 33.855c.567 0 1.04-.023 1.51.013a.636.636 0 0 1 .417.287c.709 1.171 1.4 2.354 2.108 3.557.635-1.029 1.3-2.018 1.869-3.061a1.234 1.234 0 0 1 1.44-.8 4.388 4.388 0 0 0 .708.006c-.111.19-.187.332-.273.468-.835 1.3-1.665 2.607-2.514 3.9a.6.6 0 0 0-.015.759c.946 1.512 1.867 3.04 2.795 4.563.08.132.154.268.281.488-.607 0-1.149.018-1.687-.016-.11-.007-.233-.191-.307-.319-.751-1.3-1.494-2.6-2.239-3.9-.024-.04-.051-.078-.078-.117-.857 1.367-1.685 2.709-2.543 4.033a.834.834 0 0 1-.548.315 12.251 12.251 0 0 1-1.342.015c.117-.2.188-.34.268-.469.945-1.513 1.884-3.03 2.846-4.532a.635.635 0 0 0 .009-.8c-.815-1.277-1.6-2.571-2.4-3.861-.087-.146-.168-.294-.305-.529z"/>
    <path data-name="Path 561" d="m99.745 36.328-1.347.4c-.073-.163-.138-.3-.2-.441a1.908 1.908 0 0 0-1.567-1.4 2.177 2.177 0 0 0-2.255 1.074 5.411 5.411 0 0 0-.644 3.243 10.124 10.124 0 0 0 .464 2.4 1.877 1.877 0 0 0 1.689 1.385 2.185 2.185 0 0 0 2.249-1.166c.118-.2.207-.419.327-.664l1.289.419a3.641 3.641 0 0 1-4.086 2.677 3.581 3.581 0 0 1-3.21-2.784 8.268 8.268 0 0 1 .224-5.558 3.914 3.914 0 0 1 5.846-1.578 4.639 4.639 0 0 1 1.221 1.993z"/>
    <path data-name="Path 562" d="m137.404 41.17 1.251.418a3.5 3.5 0 0 1-3.93 2.64 3.326 3.326 0 0 1-3.129-2.218 7.99 7.99 0 0 1 0-6.007 3.9 3.9 0 0 1 4.86-2.212 3.659 3.659 0 0 1 2.2 2.506l-1.329.423c-.078-.187-.147-.356-.218-.522a1.915 1.915 0 0 0-1.576-1.335 2.053 2.053 0 0 0-2.1.913 5.411 5.411 0 0 0-.669 1.744 7.406 7.406 0 0 0 .183 3.7 2.181 2.181 0 0 0 1.99 1.81 2.3 2.3 0 0 0 2.332-1.586c.035-.088.079-.17.135-.274z"/>
    <path data-name="Path 563" d="M82.484 42.736c0 .391.021.719-.012 1.041a.426.426 0 0 1-.259.276 3.638 3.638 0 0 1-2.186.082 2.252 2.252 0 0 1-1.581-2.366c-.007-1.786 0-3.572 0-5.358v-.574h-1.492v-1.188h1.494c0-.679.039-1.309-.012-1.93a.7.7 0 0 1 .579-.849c.312-.092.606-.243.966-.39v3.131h2.412a6.777 6.777 0 0 1-.017.974c-.015.1-.228.227-.355.232-.66.023-1.321.011-1.968.011a.734.734 0 0 0-.064.177c.008 1.9.028 3.791.027 5.687 0 1.387.851 1.4 1.825 1.238a5.683 5.683 0 0 0 .643-.194z"/>
    <path data-name="Path 564" d="M23.31 22.544h-3.542a1.088 1.088 0 0 1-.612 1.247l-.738-.893c1.422-1.214 3.905-1.438 4.892-.354z"/>
    <path data-name="Path 565" d="M34.871 22.55c.785-1.1 3.448-.883 4.84.352l-.736.9a1.065 1.065 0 0 1-.588-1.248z"/>
    <path data-name="Path 566" d="M13.793 18.432a1.187 1.187 0 0 1 1.372-.655 2.461 2.461 0 0 0 .794.069 4.31 4.31 0 0 0 .867-.374c.266.605-.1 1.141-.842 1.087-.218-.016-.432-.09-.649-.126a2.751 2.751 0 0 0-1.542 0z"/>
    <path data-name="Path 567" d="M41.301 17.294c.422.695 1 .6 1.591.5a1.187 1.187 0 0 1 1.4.51c-.6.067-1.242.114-1.877.218-.909.156-1.292-.21-1.114-1.228z"/>
    <path data-name="Path 568" d="m24.744 33.809.682-.188c.153.717.15.74-.5.93-.388.113-.3.389-.3.669a1.015 1.015 0 0 1-.151.577.471.471 0 0 1-.457-.006 1.085 1.085 0 0 1-.143-.582c-.006-.263.083-.531-.275-.651-.65-.218-.648-.227-.54-.939l.715.192c.152-.992-.206-2.023.469-3 .671.967.331 1.998.5 2.998z"/>
    <path data-name="Path 569" d="M51.092 47.182c.388-.116.411-.826 1-.65v1.955l-.459-.044v-1.226l-.482.67-.628-.755v1.188l-.5-.047v-1.975c.647-.116.647.659 1.069.884z"/>
    <path data-name="Path 570" d="M17.653 50.201v-1.988c.292-.018.451.2.593.482.129.248.3.478.427.688.4-.053.54-.751 1.021-.363v1.971l-.463-.181v-1.2l-.557.4-.527-.815v1.174z"/>
    <path data-name="Path 571" d="M16.279 47.642c.326.013.423.183.4.52-.035.5-.009 1.008-.009 1.6a4.821 4.821 0 0 1-1.3-.606c-.226-.2-.224-.679-.283-1.039a8.523 8.523 0 0 1-.049-.925l.422.115c0 .406-.019.782.008 1.155a.915.915 0 0 0 .185.511.594.594 0 0 0 .447.166c.073-.007.168-.239.177-.375.018-.373.002-.749.002-1.122z"/>
    <path data-name="Path 572" d="m40.126 50.11.782-2.361 1.191 1.642-.442.2a.654.654 0 0 0-.992.119 4.45 4.45 0 0 1-.415.518z"/>
    <path data-name="Path 573" d="M47.408 46.299h.431v1.169c0 .287.142.541.435.484a.682.682 0 0 0 .369-.487 7.656 7.656 0 0 0 .018-1.161l.407-.021v2c-.348 0-.714.021-1.075-.007-.422-.031-.522-.359-.543-.708-.025-.424-.023-.85-.032-1.274z"/>
    <path data-name="Path 574" d="M6.457 48.452v-1.946a1.069 1.069 0 0 1 1.183.139.879.879 0 0 1 .208 1.043c-.24.609-.777.725-1.391.764zm.428-.379a.758.758 0 0 0 .593-.855.511.511 0 0 0-.593-.483z"/>
    <path data-name="Path 575" d="m38.885 50.721-.505.2v-2.043a4.705 4.705 0 0 1 .869-.215c.414-.028.6.292.406.662a.98.98 0 0 1-.4.442.626.626 0 0 0-.37.954zm-.18-1.131.256.125.341-.617-.3-.15z"/>
    <path data-name="Path 576" d="M10.826 46.28a2.671 2.671 0 0 1 .652.038c.142.044.245.211.328.387-.426-.022-.879-.27-1.119.206a.928.928 0 0 0 .054.776c.252.4.665.336 1.057.143l.086.105c-.113.114-.207.293-.342.333a1.089 1.089 0 0 1-1.279-.548.98.98 0 0 1 .4-1.307c.063-.045.12-.1.178-.148z"/>
    <path data-name="Path 577" d="M44.071 47.172c-.559.048-.977.16-1.1.649-.057.228.062.714.159.729a3.958 3.958 0 0 0 1.071-.1c.121.284-.192.381-.457.492a.836.836 0 0 1-1.1-.222 1.047 1.047 0 0 1 .053-1.16 1.286 1.286 0 0 1 1.126-.663c.08-.002.164.179.248.275z"/>
    <path data-name="Path 578" d="m46.591 46.587-.616.287v1.56l-.441.1v-1.671l-.513.174c0-.47.2-.549 1.5-.6z"/>
    <path data-name="Path 579" d="M13.177 46.917h-.528l-.083-.1c.122-.081.254-.242.366-.229.417.047.829.151 1.241.234l.019.183-.588.122v1.545l-.427-.047z"/>
    <path data-name="Path 580" d="m10.841 46.266-1.3-.963.011.01c.116-.159.257-.461.347-.447a.94.94 0 0 1 .635.347 4.749 4.749 0 0 1 .286 1.068z"/>
    <path data-name="Path 581" d="M47.8 44.856a.7.7 0 0 1 .182 0c.174.055.344.122.516.183a1.654 1.654 0 0 1-.233.557 4.969 4.969 0 0 1-.683.483 1.108 1.108 0 0 0-.175.215l.012-.008c-.206-.576.117-1.007.4-1.451z"/>
    <path data-name="Path 582" d="M37.307 35.971a.962.962 0 0 1 1.352.182.439.439 0 0 1-.011.422c-.138.1-.407.189-.516.119a6.862 6.862 0 0 1-.825-.723z"/>
    <path data-name="Path 583" d="M20.829 35.969a6.76 6.76 0 0 1-.816.71.6.6 0 0 1-.51-.091.429.429 0 0 1-.043-.417.988.988 0 0 1 1.369-.202z"/>
    <path data-name="Path 584" d="M35.774 37.455a1.167 1.167 0 0 1 1.383-.144.334.334 0 0 1 .1.548.316.316 0 0 1-.508.1c-.304-.2-.647-.34-.975-.504z"/>
    <path data-name="Path 585" d="M22.348 37.459a10.239 10.239 0 0 1-1 .5.483.483 0 0 1-.447-.108.532.532 0 0 1 .058-.5 1.057 1.057 0 0 1 1.389.108z"/>
    <path data-name="Path 586" d="M8.812 46.232h.422v1.951l-.422.034z"/>
    <path data-name="Path 587" d="M45.875 45.374a7.318 7.318 0 0 1 .513-.966c.1-.135.344-.164.523-.24.041.111.143.243.113.329a1.166 1.166 0 0 1-.315.509 4.723 4.723 0 0 1-.728.409z"/>
    <path data-name="Path 588" d="M11.359 44.097a1.5 1.5 0 0 1 .806 1.325 6.492 6.492 0 0 1-.806-.448.645.645 0 0 1-.24-.448c0-.138.164-.275.256-.413z"/>
    <path data-name="Path 589" d="m22.407 39.994-1.414-.1c.124-.228.183-.5.346-.6.271-.17.769.181 1.068.7z"/>
    <path data-name="Path 590" d="m37.197 39.885-1.444.1c.227-.475.671-.831.988-.7.173.071.266.338.456.6z"/>
    <path data-name="Path 591" d="M18.488 34.895a9.165 9.165 0 0 1 .707-.6 1.669 1.669 0 0 1 .465-.152c-.016.2.044.462-.062.579a.9.9 0 0 1-1.11.173z"/>
    <path data-name="Path 592" d="M38.24 35.654a4.9 4.9 0 0 1-.807-.521c-.082-.076.012-.341.027-.52.184.065.432.078.536.207a2.821 2.821 0 0 1 .313.715z"/>
    <path data-name="Path 593" d="M39.645 34.891a.891.891 0 0 1-1.08-.141c-.116-.12-.064-.4-.088-.612a1.781 1.781 0 0 1 .466.162c.238.161.449.374.702.591z"/>
    <path data-name="Path 594" d="M19.825 35.518a2.828 2.828 0 0 1 .306-.671c.109-.133.338-.167.513-.245.026.177.135.441.06.516a4.927 4.927 0 0 1-.79.542z"/>
    <path data-name="Path 595" d="M45.623 44.505a1.324 1.324 0 0 1 .7-.983c.059-.038.306.074.339.164a.436.436 0 0 1-.084.4 8.647 8.647 0 0 1-.955.419z"/>
    <path data-name="Path 596" d="M11.375 44.112a2.322 2.322 0 0 1 .057-.366c.083-.266.263-.389.483-.166.253.257.456.563.759.945l-1.315-.43z"/>
    <path data-name="Path 597" d="M41.554 32.823a4.847 4.847 0 0 1-.51-.711.983.983 0 0 1-.019-.532c.008-.048.233-.126.269-.093a.842.842 0 0 1 .3.419 5.222 5.222 0 0 1-.04.917z"/>
    <path data-name="Path 598" d="M16.572 32.838a6.734 6.734 0 0 1-.028-.993c.015-.134.174-.271.3-.362a.3.3 0 0 1 .267.1.8.8 0 0 1 0 .489 6.159 6.159 0 0 1-.539.766z"/>
    <path data-name="Path 599" d="M26.604 50.954v1.962l-.483-.04v-1.19l-.556.525-.55-.717v1.147l-.5-.065v-2c.641-.039.632.719 1.057.993.392-.113.472-.838 1.032-.615z"/>
    <path data-name="Path 600" d="M31.609 52.935v-2c.567-.262.653.494 1.056.636.395-.286.422-.948 1.034-1v1.983l-.471.092V51.47l-.552.724-.573-.528v1.189z"/>
    <path data-name="Path 601" d="m29.219 51.115.38-.017a.561.561 0 0 1 .039.14 6.5 6.5 0 0 0-.014 1.084c.023.16.259.289.4.432.137-.146.371-.28.395-.443a8.932 8.932 0 0 0 .019-1.256l.387-.038v1.955c-.313.038-.631.1-.951.111-.383.018-.624-.259-.651-.718-.012-.2 0-.411 0-.616z"/>
    <path data-name="Path 602" d="M27.789 52.318v.433l.727-.06c-.13.437-.13.437-1.161.29v-1.91H28.4c0 .586-.375.252-.61.281v.5l.526.091.043.122z"/>
    <path data-name="Path 603" d="M24.072 26.226v1.433l-1.1.135 1.022-1.609z"/>
    <path data-name="Path 604" d="m35.16 27.787-1.083-.122v-1.572z"/>
    <path data-name="Path 605" d="M33.667 26.246v1.411l-1.088.136 1.008-1.576z"/>
    <path data-name="Path 606" d="m25.557 27.786-1.085-.121v-1.417l.083-.029z"/>
    <path data-name="Path 607" d="M34.055 28.575v-.627l1.382.192v.237z"/>
    <path data-name="Path 608" d="M24.085 27.933v.641l-1.391-.192v-.229z"/>
    <path data-name="Path 609" d="m33.665 28.577-1.34-.195-.013-.214 1.353-.244z"/>
    <path data-name="Path 610" d="m24.482 27.934 1.332.22v.209l-1.333.232z"/>
    <path data-name="Path 611" d="M24.245 24.9c.161.216.32.34.3.431-.023.128-.18.229-.279.342-.1-.1-.27-.187-.277-.289-.01-.122.126-.253.256-.484z"/>
    <path data-name="Path 612" d="M33.823 25.816c-.117-.236-.244-.375-.229-.5.011-.1.191-.18.3-.269.092.117.243.228.257.354.008.098-.156.21-.328.415z"/>
    <path data-name="Path 613" d="M14.169 22.328a1.565 1.565 0 0 0-.547.161c-.391.315-.975.464-1.109 1.085a.539.539 0 0 0-.672.566l-.833.471.025-.541c.513.019.775-.283.611-.71.573.084.935-.21.84-.682.537.115.9-.148.853-.621a.632.632 0 0 0 .926-.515l.794.045a5.039 5.039 0 0 0-.53.344 3.51 3.51 0 0 0-.358.397z"/>
    <path data-name="Path 614" d="M45.535 22.7a2.306 2.306 0 0 0 .366.554 1.543 1.543 0 0 0 .54.162c-.065.411.181.693.672.645v.545l-.171.181a1.424 1.424 0 0 0-.22-.455c-.088-.085-.274-.068-.429-.1 0-.479-.294-.747-.7-.62-.082-.688-.739-.822-1.154-1.175-.107-.092-.32-.058-.4-.07l-.908-.784.736-.035a.623.623 0 0 0 .924.5.578.578 0 0 0 .744.652z"/>
</svg>
