<svg data-name="Group 461" xmlns="http://www.w3.org/2000/svg" width="130.617" height="50.132" viewBox="0 0 130.617 50.132">
    <g data-name="Group 400">
        <path data-name="Path 367" d="M114.765 29.315a16.227 16.227 0 0 1-12.06-5.186 14.057 14.057 0 0 1 1.871-20.677 17.153 17.153 0 0 1 20.744.135 13.6 13.6 0 0 1 5.276 11.912c-.284 6.055-4.788 11.533-11.483 13.173-1.416.347-2.897.435-4.348.643zM125.558 14.7a10.089 10.089 0 0 0-6.434-9.558 11.325 11.325 0 0 0-6.76-.565c-4.006.895-6.816 3.234-7.865 7.254a9.8 9.8 0 0 0 3.2 10.515 10.9 10.9 0 0 0 8.742 2.467 10.059 10.059 0 0 0 9.118-10.112z"/>
        <path data-name="Path 368" d="M64.323 19.169v-6.464c.011-6.26 3.328-10.557 9.4-12.119A17.569 17.569 0 0 1 83.6.842a11.471 11.471 0 0 1 8.485 11.3c.082 4.919.028 9.841.013 14.76 0 1.33-.669 1.934-2 2.005-2.3.125-2.989-.512-2.948-2.8.077-4.308-.072-8.622.048-12.927s-2.552-7.944-7.623-8.56a10.147 10.147 0 0 0-6.741 1.329 7.071 7.071 0 0 0-3.6 6.335q-.005 6.734 0 13.467v.97c-.025 1.561-.615 2.124-2.141 2.2-1.972.093-2.882-.4-2.789-2.741s.019-4.677.019-7.011z"/>
        <path data-name="Path 369" d="M56.133 9.994c0 2.441.065 4.886-.016 7.324a11.23 11.23 0 0 1-4.837 9.281 12.877 12.877 0 0 1-4.282 1.964 17.986 17.986 0 0 1-10.293-.243 11.434 11.434 0 0 1-8.325-11.194c-.082-4.917-.028-9.837-.015-14.757 0-1.418.613-2 2.054-2.042a8.665 8.665 0 0 1 1.291.03 1.665 1.665 0 0 1 1.561 1.634c.023.285.008.575.008.862 0 4.38.1 8.764-.025 13.141-.146 5.323 3.716 8.307 7.892 8.629a11.53 11.53 0 0 0 5.178-.691 7.43 7.43 0 0 0 4.921-7.145c-.031-4.632-.007-9.263 0-13.9 0-2.133.473-2.594 2.608-2.57h.323c1.363.066 1.957.655 1.965 2.02.015 2.549 0 5.1 0 7.647z"/>
        <path data-name="Path 370" d="M.035 9.982V2.446C.035.925.585.37 2.091.324c2.325-.07 2.791.377 2.791 2.69 0 4.27.048 8.541-.011 12.811-.074 5.255 3.746 8.32 8.238 8.515 2.185.1 4.377.023 6.567.031a5.916 5.916 0 0 1 .966.038 1.666 1.666 0 0 1 1.493 1.69c.1 1.672-.192 2.363-1.183 2.686a2.76 2.76 0 0 1-.847.112c-2.368 0-4.737.044-7.1-.021a15.038 15.038 0 0 1-6.53-1.6 11.085 11.085 0 0 1-6.406-9.972c-.1-2.436-.019-4.879-.019-7.32z"/>
        <path data-name="Path 371" d="M115.203 36.909h1.329a127.951 127.951 0 0 1 .1 12.9c-1.1.365-1.217.331-1.835-.6q-2.833-4.257-5.661-8.52a2.764 2.764 0 0 0-.81-.848c-.01.83-.023 1.66-.027 2.491s.007 1.651.008 2.477V49.922h-1.331c-.221-.811-.268-11.673-.065-12.888 1.159-.325 1.211-.313 1.839.628q2.835 4.256 5.664 8.517a2.377 2.377 0 0 0 .79.789z"/>
        <path data-name="Path 372" d="M53.494 36.888c1.952 0 3.779-.043 5.6.019a3.91 3.91 0 0 1 2.459.976 2.9 2.9 0 0 1 1.116 2.235c.009 2.154.045 4.308-.008 6.459a3.29 3.29 0 0 1-2.687 3.21 7.322 7.322 0 0 1-1.6.206c-1.363.029-2.728.013-4.092.007-.242 0-.483-.047-.8-.079zm1.451 11.851c1.265 0 2.475.032 3.682-.008a2.447 2.447 0 0 0 2.608-2.658q.049-2.637 0-5.278a2.457 2.457 0 0 0-2.687-2.686c-.968-.036-1.938-.018-2.908 0a3.96 3.96 0 0 0-.694.135z"/>
        <path data-name="Path 373" d="M92.547 43.351c0-.862-.03-1.724.007-2.585a4.068 4.068 0 0 1 3.128-3.9 5.908 5.908 0 0 1 3.9.195 3.592 3.592 0 0 1 2.482 3.112 51.4 51.4 0 0 1 .048 6.226 3.731 3.731 0 0 1-2.863 3.406 6.042 6.042 0 0 1-3.913-.038 4.047 4.047 0 0 1-2.794-3.829c-.025-.861 0-1.722 0-2.583zm1.506.091h.009c0 .895-.042 1.792.01 2.684a2.745 2.745 0 0 0 1.962 2.558 3.859 3.859 0 0 0 2.324.1 2.846 2.846 0 0 0 2.341-2.824 93.188 93.188 0 0 0 0-5.153 2.874 2.874 0 0 0-2.663-2.869 5.34 5.34 0 0 0-1.282-.008 2.876 2.876 0 0 0-2.7 2.938c-.024.855-.001 1.715-.001 2.574z"/>
        <path data-name="Path 374" d="M39.827 36.906h9v1.166h-7.5v4.708h5.3v1.2h-5.308v4.713h7.488v1.237h-8.98z"/>
        <path data-name="Path 375" d="M121.089 45.808h1.17a6.706 6.706 0 0 1 .143.722 2.211 2.211 0 0 0 1.557 2 5.519 5.519 0 0 0 3.592.142 2.039 2.039 0 0 0 1.57-1.73 1.855 1.855 0 0 0-1.056-1.957c-.812-.452-1.672-.817-2.523-1.2-.817-.365-1.669-.661-2.47-1.057a2.916 2.916 0 0 1-1.821-3.017 3.021 3.021 0 0 1 2.342-2.772 6.878 6.878 0 0 1 4.646.144 3.273 3.273 0 0 1 2.21 3.641h-1.317c-.038-.151-.083-.283-.1-.42a2.411 2.411 0 0 0-2.165-2.3 8.853 8.853 0 0 0-2.352-.02 1.874 1.874 0 0 0-1.776 1.6 1.814 1.814 0 0 0 1.158 2.087c.6.313 1.258.52 1.88.8a32.218 32.218 0 0 1 3.214 1.489 2.936 2.936 0 0 1 1.553 3.361 2.98 2.98 0 0 1-1.949 2.268 7.14 7.14 0 0 1-5.658-.085c-1.558-.685-2.106-1.837-1.848-3.696z"/>
        <path data-name="Path 376" d="M1.554 43.934v4.815h7.561v1.071a61.733 61.733 0 0 1-8.9.078 128.09 128.09 0 0 1-.1-12.854 55.549 55.549 0 0 1 9.005-.027v1.07c-1.289 0-2.535.008-3.78.009H1.55v4.658H6.9l.087 1.178z"/>
        <path data-name="Path 377" d="M27.92 44.133v5.808h-1.243a105.27 105.27 0 0 1-.075-13.1 5.4 5.4 0 0 1 .7-.091q2.2-.012 4.407 0a9.2 9.2 0 0 1 1.179.083 3.5 3.5 0 0 1 3.1 3.431 3.427 3.427 0 0 1-2.871 3.714 18.986 18.986 0 0 1-2.676.148c-.783.024-1.563.007-2.521.007zm.1-6.138v4.928c1.415 0 2.767.039 4.114-.011a2.328 2.328 0 0 0 2.394-2.373 2.364 2.364 0 0 0-2.258-2.521c-1.38-.095-2.774-.023-4.249-.023z"/>
        <path data-name="Path 378" d="M12.475 49.826c1.35-2.189 2.857-4.221 4.261-6.4l-4.249-6.32c1.182-.414 1.354-.374 1.948.5 1.048 1.537 2.082 3.082 3.186 4.717.252-.324.453-.557.624-.809.864-1.277 1.765-2.532 2.563-3.848a1.519 1.519 0 0 1 2.033-.659c-1.386 2.2-2.87 4.25-4.278 6.452l4.25 6.319c-1.216.4-1.335.369-1.948-.531-.848-1.244-1.682-2.5-2.525-3.745-.2-.292-.41-.575-.682-.954-.3.42-.548.76-.785 1.108-.806 1.187-1.607 2.375-2.413 3.562-.618.904-.651.915-1.985.608z"/>
        <path data-name="Path 379" d="M78.315 38.086v11.838l-1.425.085a18.246 18.246 0 0 1-.092-2.927c-.017-1.005 0-2.011 0-3.017V38.13h-3.987v-1.206h9.6l.072 1.162z"/>
        <path data-name="Path 380" d="M68.464 49.936h-1.1a128.477 128.477 0 0 1-.04-13.019l1.074-.047a104.414 104.414 0 0 1 .066 13.066z"/>
        <path data-name="Path 381" d="M87.756 49.944h-1.285V36.951h1.25a115.164 115.164 0 0 1 .035 12.993z"/>
    </g>
</svg>
