<svg xmlns="http://www.w3.org/2000/svg" width="399.493" height="124.009" viewBox="0 0 399.493 124.009">
    <g data-name="Group 436">
        <path data-name="Path 667" d="M123.938.097c-.3.662-.42 1.573-.931 1.947-3.137 2.3-6.56 4.241-9.5 6.755-2.756 2.358-4.979 5.326-7.535 7.928-1.212 1.234-1.591 2.165-.374 3.738 4.952 6.4 9.687 12.966 14.674 19.338 1.974 2.521 4.368 4.666 8.043 4.371 2.832-.23 4.486-1.568 4.518-4.466.056-5.588.261-11.192-.147-16.751-.115-1.554-2.125-2.993-3.33-4.432a10.717 10.717 0 0 0-1.573-1.292c.63-.327 1.251-.911 1.9-.936 2.722-.105 5.448-.044 8.664-.044v10.034c0 4.447-.061 8.9.027 13.34.058 3.044 1.815 4.5 5.158 4.527 3.415.029 5.165-1.344 5.214-4.405.086-5.588 0-11.175.037-16.76.015-2.428-1.285-3.716-3.416-4.513a6.284 6.284 0 0 1-1.556-1.263c.633-.323 1.256-.889 1.9-.921 2.368-.11 4.742-.044 7.234-.044l1.356 5.839c1.661-1.446 3.025-2.785 4.537-3.921 3.425-2.57 7.237-3.5 11.214-1.578 3.792 1.832 4.561 5.363 4.493 9.245-.076 4.217.09 8.441-.056 12.653-.1 2.854.667 4.862 3.643 5.712.57.161.938 1.024 1.991 2.255-5.441 0-9.861.041-14.276-.049-.6-.012-1.18-.684-1.771-1.053.445-.408.823-1.036 1.344-1.187 2.731-.8 3.743-2.59 3.675-5.368-.115-4.559.032-9.123-.056-13.682-.093-4.967-3.02-6.9-7.774-5.268-5.436 1.869-7.024 4.066-7.029 9.731 0 3.305-.318 6.657.137 9.9.227 1.61 1.813 3.066 2.907 4.5a11.7 11.7 0 0 0 2.006 1.678 10.725 10.725 0 0 1-2.746.777q-12.658.088-25.314.02c-5-.032-10.775 1.314-14.769-.743-3.863-1.991-5.905-7.537-8.72-11.542-2.48-3.531-4.921-7.09-7.489-10.792-3.272 2.609-5.829 5.256-5.023 9.773a19.116 19.116 0 0 1 .024 4.439c-.21 3.5.8 6.047 4.708 6.626a1.612 1.612 0 0 1 1.156.921c.066.359-.494 1.2-.784 1.2-5.712.073-11.427.054-17.139.054l-.232-1.114c.552-.371 1.058-.953 1.659-1.078 3.2-.672 4.474-2.582 4.444-5.822-.09-10.032-.105-20.068.007-30.1.039-3.349-1.173-5.353-4.5-6.186-.694-.174-1.148-1.3-1.713-1.994h18.494c-.62.7-1.19 1.446-1.869 2.079-1.346 1.251-3.853 2.36-3.946 3.665-.428 6.017-.188 12.081-.188 19.03 5.439-6.062 10.222-11.366 14.972-16.7 2.368-2.663 1.723-4.759-1.6-6.037-.777-.3-1.268-1.339-1.888-2.038z"/>
        <path data-name="Path 668" d="M54.793.094c-.53.689-.948 1.83-1.608 1.991-3.328.818-4.574 2.834-4.542 6.174q.147 14.875 0 29.753c-.034 3.313 1.077 5.456 4.464 6.191.542.117.989.679 1.481 1.033-.555.406-1.1 1.153-1.661 1.163q-7.179.139-14.364 0c-.577-.012-1.141-.733-1.71-1.126.479-.371.906-.955 1.441-1.078 3.237-.735 4.3-2.778 4.268-5.971-.11-9.912-.042-19.824-.679-29.949q-3.976 9.444-7.95 18.893c-2.683 6.4-5.351 12.8-8.336 19.942L9.497 8.09l-.635.1c-.076.938-.218 1.874-.218 2.812-.017 9.006.063 18.014-.046 27.019-.042 3.3.938 5.512 4.422 6.181.5.1.9.74 1.344 1.129-.567.374-1.124 1.046-1.705 1.068-4.21.156-8.424.178-12.636.245v-2.739c4.07.318 5.954-1.31 5.971-5.35q.055-15.191 0-30.381C5.984 3.92 4.389 2.349.018 2.147.052 1.013-.429-.147 1.736.009 5.709.297 9.718.092 13.71.092l13.92 35.502L42.47.099z"/>
        <path data-name="Path 669" d="M375.872 124.009c-1.375-1.038-1.447-2.16-.628-3.7 1.915-3.618 3.523-7.4 5.485-10.994a5.773 5.773 0 0 0 .134-6.008c-2.917-5.788-5.4-11.8-8.375-17.554-.977-1.9-2.927-3.286-4.434-4.908q-.612-.66-1.229-1.314c.523-.33 1.041-.931 1.571-.941q6.322-.114 12.646.007c.516.01 1.016.621 1.525.953-.425.406-.782 1.024-1.285 1.185-2.92.928-3.648 2.595-2.331 5.424 2.06 4.422 3.929 8.935 6.174 14.09 2.372-5.551 4.6-10.459 6.55-15.48.816-2.106-.655-3.294-2.573-4.017-.567-.215-.968-.875-1.444-1.332.538-.3 1.065-.831 1.61-.845q4.269-.132 8.544 0c.569.017 1.121.52 1.681.8-.457.494-.911.99-1.368 1.483-1.285 1.385-3.035 2.558-3.787 4.19-5.722 12.4-11.251 24.879-16.819 37.347a6.744 6.744 0 0 0-.279 1.625z"/>
        <path data-name="Path 670" d="m324.248 108.734-.968-5.558c-1.4 1.314-2.455 2.389-3.6 3.357-2.89 2.451-6.11 3.609-9.768 1.884-3.144-1.483-4.364-4.29-4.3-7.567.071-3.907 2.436-6.384 5.939-7.537 3.66-1.2 7.466-1.967 11.432-2.978.186-3.186 1.339-7.083-2-8.916a10.429 10.429 0 0 0-8.275-.344c-1.593.736-1.859 4.351-2.9 7.183-2.216-.569-2.536-3.787-4.31-5.622 4.5-4.857 13.582-6.326 19-3.176a7.908 7.908 0 0 1 4.158 7.337q-.018 7.014.007 14.029c.015 4.058 1.415 5.58 5.106 5.615 3.824.039 5.229-1.4 5.243-5.419.017-4.9-.073-9.81.034-14.711.063-2.844-.7-4.884-3.758-5.58-.481-.11-.833-.789-1.246-1.2.505-.33 1-.914 1.52-.943a35.609 35.609 0 0 1 6.145.034 3.152 3.152 0 0 1 1.908 1.786 20.921 20.921 0 0 1 .889 3.968c1.744-1.485 3.205-2.89 4.828-4.08 3.352-2.463 7.078-3.286 10.931-1.437 3.8 1.83 4.578 5.355 4.527 9.23-.059 4.447.066 8.9-.044 13.342a4.675 4.675 0 0 0 3.276 4.982c.594.232 1.021.889 1.527 1.351-.625.33-1.244.928-1.876.943-3.76.091-7.527.1-11.288 0-.721-.02-1.424-.682-2.135-1.046a7.3 7.3 0 0 1 1.671-1.261 4.666 4.666 0 0 0 3.411-4.9c-.076-4.674.063-9.353-.042-14.026-.113-5.047-2.949-6.956-7.721-5.358-5.426 1.815-7.093 4.09-7.1 9.677 0 3.078.083 6.159-.022 9.235-.1 2.746.87 4.6 3.618 5.419.545.161.97.726 1.452 1.1-.455.4-.9 1.134-1.361 1.136-7.949.07-15.896.051-23.908.051zm-1.251-16.279-7.242 1.9a8.742 8.742 0 0 0-1.295.408 5.682 5.682 0 0 0-2.983 7.879c1.429 2.685 4.537 3.142 7.679 1.422 4.804-2.628 4.232-6.925 3.841-11.609z"/>
        <path data-name="Path 671" d="M89.803 82.174c-1.026-3.552-2.507-6.719-2.763-9.98-.467-6.008 3.291-9.91 9.3-10.4a25.964 25.964 0 0 1 4.767.178c2.951.313 5.893.738 9.164 1.156v9.963l-.843.281c-.472-.887-.965-1.759-1.407-2.658-2.526-5.131-8.063-8.192-12.891-6.467-1.964.7-4.51 2.746-4.786 4.493a9.537 9.537 0 0 0 2.123 7.308c7.181 7.1 14.828 13.738 22.316 20.533a9.925 9.925 0 0 0 1.248.814 16.038 16.038 0 0 0 2.255-11.2c-.444-3.049-2.587-4.642-5.519-5.344-.608-.144-1.092-.8-1.632-1.226.591-.369 1.175-1.046 1.774-1.058q6.325-.135 12.651 0c.615.015 1.217.635 1.823.977a9.843 9.843 0 0 0-1.571 1.283c-1.451 1.778-3.386 3.418-4.122 5.473-1.471 4.114-2.267 8.466-3.594 13.714 2.942 1.842 6.636 4.131 10.293 6.479a5.689 5.689 0 0 1 1.114 1.366c-.545.291-1.075.8-1.637.838-5.407.337-10.477-.523-14.659-4.72a21.161 21.161 0 0 1-14.76 5.534c-6.015 0-11-2.248-13.8-7.786-2.793-5.514-1.7-10.87 1.73-15.781a34.684 34.684 0 0 1 3.426-3.77zm1.737.992c-5.1 5.815-4.889 13.1.308 18.294 5.431 5.436 13.858 5.969 18.717 1.816z"/>
        <path data-name="Path 672" d="M254.065 108.747c.965-1.2 1.319-2.114 1.857-2.236 3.093-.706 3.8-2.77 3.738-5.6-.107-4.786.032-9.577-.071-14.364-.086-3.907-2.179-5.561-6-4.977-4.769.731-7.662 4.041-7.669 8.786 0 3.536.078 7.071-.02 10.6-.076 2.7.75 4.647 3.528 5.492.508.156.87.8 1.3 1.222a10.261 10.261 0 0 1-1.825 1.031 5.686 5.686 0 0 1-1.7.042h-12.294c1.06-1.2 1.466-2.091 2.082-2.275 2.629-.782 3.545-2.5 3.5-5.116-.09-4.9.042-9.807-.064-14.708-.088-4.119-2.6-5.937-6.6-4.979-4.64 1.109-7.12 4.229-7.122 8.969 0 3.42.078 6.843-.031 10.261-.086 2.692.7 4.64 3.457 5.548.55.183.9.982 1.341 1.5-.567.266-1.131.75-1.7.76-3.875.071-7.752.083-11.627-.01-.579-.012-1.141-.682-1.713-1.048.425-.408.789-1.055 1.288-1.187 2.844-.755 3.618-2.668 3.555-5.395-.115-4.9-.108-9.807-.005-14.708.059-2.8-.572-4.923-3.667-5.634-.454-.1-.769-.823-1.148-1.258.523-.308 1.031-.853 1.568-.882 1.932-.112 4.166-.647 5.729.115 1.546.755 2.416 2.89 3.355 4.119 2.888-1.442 6.137-3.792 9.746-4.674 4.173-1.019 7.5 1.173 9.028 5.751 1.578-1.341 2.883-2.558 4.3-3.633 3.252-2.468 6.88-3.1 10.6-1.39 3.6 1.647 4.4 4.909 4.332 8.576-.081 4.559.046 9.12-.042 13.679-.049 2.578.794 4.376 3.34 5.3.537.2.845 1.026 1.261 1.564a5.026 5.026 0 0 1-1.693.718c-4.315.068-8.631.041-13.914.041z"/>
        <path data-name="Path 673" d="M268.154 123.088c1.231-1.036 1.691-1.71 2.3-1.884 2.749-.777 3.745-2.555 3.726-5.333-.073-10.039-.054-20.076-.017-30.115.01-2.614-.958-4.337-3.614-5.026-.559-.144-.968-.87-1.447-1.329a5.836 5.836 0 0 1 1.62-.831 16.144 16.144 0 0 1 2.732-.056c6.445.068 4.847-.564 6.289 5.544.8-.921 1.424-1.622 2.038-2.331a11.16 11.16 0 0 1 18.766 2.433 20.858 20.858 0 0 1-.288 18.5c-3.526 7.361-13.706 9.465-20.352 1.591 0 5-.222 9.47.156 13.887.093 1.09 2.131 2.026 3.3 3.005a2.917 2.917 0 0 1 1.327 1.94zm29.057-29.445c-.181-1.661-.274-3.254-.545-4.818-.794-4.576-2.822-6.917-6.328-7.437a8.485 8.485 0 0 0-9.277 4.908c-2.426 4.838-2.072 10-.447 14.918 1.163 3.528 5.06 5.36 8.871 4.974 3.707-.376 6.2-2.771 6.978-6.856.36-1.893.511-3.825.748-5.689z"/>
        <path data-name="Path 674" d="M179.216 63.517v14.955l-.711.34a12.535 12.535 0 0 1-1.229-2.309c-2.311-7.88-8.153-12.6-15.224-12.223-6.636.354-11.124 4.368-11.921 11.811a81.562 81.562 0 0 0 .007 16.687 14.675 14.675 0 0 0 11.789 12.684c7.5 1.493 13.511-.836 17.347-6.626a7.819 7.819 0 0 1 2.785-2.46c-1.415 7.708-8.659 13.005-17.22 13.171-11.9.232-21.647-8.781-22.216-21.361a37.909 37.909 0 0 1 2.121-14.342c3.428-9.416 12.9-13.929 22.746-11.94 3.746.758 7.587 1.059 11.726 1.613z"/>
        <path data-name="Path 675" d="M186.254 93.377c.083-8.981 6.633-15.769 15.1-15.644 8.515.124 14.906 7 14.84 15.966s-6.548 15.825-14.992 15.847c-8.584.022-15.034-6.956-14.948-16.169zm24.193.22c-.1-1.82-.083-3.655-.31-5.458-.635-5.009-3.785-7.852-8.639-7.938s-8.424 2.641-8.981 7.535a51.474 51.474 0 0 0-.027 11.224c.547 5.1 4.2 7.972 9.116 7.811 4.977-.164 8.048-3.137 8.59-8.392.16-1.587.167-3.187.25-4.782z"/>
        <path data-name="Path 676" d="M249.007 37.98c2.39-5.59 4.693-10.525 6.5-15.634.313-.887-1.41-2.565-2.318-3.782a6.9 6.9 0 0 0-1.678-1.219c.713-.362 1.415-1 2.143-1.036 2.727-.12 5.465-.088 8.2.007.54.017 1.06.569 1.588.875-.386.44-.774.877-1.156 1.322-1.583 1.835-3.675 3.432-4.659 5.546-5.241 11.231-10.2 22.595-15.268 33.909-.508 1.136-1.065 2.25-1.588 3.355-2.336-.144-2.807-1.021-1.742-3.059 2.108-4.034 4.153-8.109 5.961-12.28a5.631 5.631 0 0 0 .032-4.063c-2.739-6.25-5.568-12.47-8.69-18.534-.972-1.884-2.959-3.245-4.471-4.852-.4-.428-.77-.889-1.151-1.334.528-.313 1.05-.884 1.586-.894q6.318-.106 12.641.012c.5.01.987.635 1.478.975-.425.4-.782 1-1.283 1.163-2.971.945-3.56 2.665-2.255 5.465 2.052 4.409 3.906 8.919 6.13 14.058z"/>
        <path data-name="Path 677" d="m230.279 28.172-19.827 1.678c.178 4.774 1.793 8.586 5.859 10.682 6.162 3.176 11.344 1.314 15.475-4.645.432 6.694-6.318 12.008-13.354 11.175-6.247-.738-10.186-4.4-11.928-10.261-2-6.729-.909-12.969 4.386-17.879a13.083 13.083 0 0 1 5.981-3.018c8.07-1.67 13.43 3.193 13.408 12.268zm-19.81-.532c4.578-.349 8.864-.63 13.135-1.048a2.44 2.44 0 0 0 1.732-1.2c1.251-3.105-1.085-6.939-4.444-7.493-5.775-.96-9.626 2.47-10.422 9.741z"/>
        <path data-name="Path 678" d="M201.105 17.175v8.089l-.774.286c-.43-.765-.88-1.52-1.288-2.294-2.05-3.9-5.786-6.157-9.778-5.338-1.4.288-3.384 1.676-3.577 2.819a5.321 5.321 0 0 0 1.9 4.476c2.983 1.823 6.394 2.937 9.614 4.383 3.02 1.359 5.534 3.245 6.216 6.748 1.244 6.416-3.465 11.451-10.152 10.8-1.456-.142-2.861-.774-4.319-.965-2.145-.279-4.317-.364-6.956-.567v-9.619l.831-.274c.408.794.831 1.578 1.224 2.38 2.243 4.591 6.462 7.222 11.332 6.433 1.608-.259 4.017-1.757 4.215-2.983.252-1.564-1.007-3.8-2.287-5.06-1.3-1.28-3.406-1.735-5.168-2.536-1.656-.755-3.364-1.415-4.977-2.253-4.85-2.521-6.621-6.665-4.911-11.3 1.385-3.758 5.615-5.585 10.623-4.642 2.583.481 5.183.895 8.232 1.417z"/>
        <path data-name="Path 679" d="M81.529 36.293c-.586 10.408-12.282 13.252-19.133 8.969-6.11-3.819-8.639-12.751-5.7-20.423 2.693-7.046 9.084-10.609 16.731-8.923 2.426.533 4.64 2.04 7.383 3.3l-5.248 7.476-.845-.457c-.049-.637-.144-1.278-.139-1.913.024-2.636-.317-5.265-3.161-6.208a7.642 7.642 0 0 0-7.967 1.661c-3.328 3.086-4.364 10.435-2.192 15.417 2.042 4.683 6.24 7.359 11.559 6.523 2.387-.374 4.6-2.082 6.8-3.345a9.412 9.412 0 0 0 1.912-2.077z"/>
        <path data-name="Path 680" d="M134.853 9.036c-2.431-.208-3.711-1.585-3.594-4 .12-2.5 1.72-3.636 4.1-3.5a3.418 3.418 0 0 1 3.5 3.8c-.077 2.369-1.511 3.676-4.006 3.7z"/>
    </g>
</svg>
