<svg data-name="Group 460" xmlns="http://www.w3.org/2000/svg" width="182.865" height="36.804" viewBox="0 0 182.865 36.804">
    <g data-name="Group 397">
        <path data-name="Path 343" d="M182.865 36.161h-5.351V32.64c-.614.617-1.183 1.292-1.852 1.845a10.184 10.184 0 0 1-7.455 2.258c-4.952-.34-8.251-3.021-10.019-7.518a16 16 0 0 1 .395-13.108 10.953 10.953 0 0 1 7.926-6.362 10.758 10.758 0 0 1 8.795 1.542 24.356 24.356 0 0 1 2.192 1.954v-3.174H182.476c.13 0 .259-.014.39-.022zm-5.45-13.029v-3.637a1.1 1.1 0 0 0-.063-.416 7.62 7.62 0 0 0-1.479-2.339 7.449 7.449 0 0 0-6.016-2.327 6.964 6.964 0 0 0-6.63 4.9 11.894 11.894 0 0 0 .023 7.732 6.736 6.736 0 0 0 3.182 3.918 7.394 7.394 0 0 0 4.17.844 7.516 7.516 0 0 0 6.57-4.27 2.454 2.454 0 0 0 .23-1.018c.03-1.128.013-2.258.013-3.387z"/>
        <path data-name="Path 344" d="M40.784 0c.412.083.826.158 1.237.25a12.806 12.806 0 0 1 6.589 3.957 24.122 24.122 0 0 1 5.168 9.011 33.765 33.765 0 0 1 1.672 9.752 21.344 21.344 0 0 1-.6 6.31 10.676 10.676 0 0 1-3.146 5.5 8 8 0 0 1-4.5 1.943c-.541.058-1.09.042-1.635.061.047-.715.106-1.429.139-2.144.057-1.271.1-2.541.147-3.81.047-.007.094-.018.141-.02a3.611 3.611 0 0 0 3.579-2.581 11.4 11.4 0 0 0 .584-4.376 45.954 45.954 0 0 0-.306-4.261 25.745 25.745 0 0 0-2.5-8.529 13.148 13.148 0 0 0-4.052-5.029 6.046 6.046 0 0 0-7.312-.116 12.442 12.442 0 0 0-2.592 2.536c-.746.967-1.442 1.974-2.158 2.964a2.107 2.107 0 0 1-.244-.245c-.447-.622-.885-1.249-1.332-1.87-.382-.532-.774-1.059-1.161-1.588a31.757 31.757 0 0 1 3.9-4.432A12.186 12.186 0 0 1 38.043.176c.248-.054.494-.118.741-.179z"/>
        <path data-name="Path 345" d="M28.497 7.718c.387.529.778 1.056 1.161 1.588.447.621.885 1.248 1.332 1.87a2.1 2.1 0 0 0 .244.245 1.275 1.275 0 0 0 .1.281c.272.427.554.849.832 1.273-.055.1-.149.195-.158.3-.059.669-.11 1.34-.145 2.011q-.117 2.248-.217 4.5c-.032.733-.046 1.466-.075 2.2-.015.366-.038.73-.075 1.095a.759.759 0 0 1-.128.248c-.435-.712-.873-1.424-1.305-2.138-.736-1.219-1.466-2.441-2.2-3.66a1.4 1.4 0 0 0-.133-.162 1.024 1.024 0 0 0-.078-.195c-.652-1.016-1.3-2.032-1.964-3.039-.244-.371-.526-.718-.791-1.077a1.593 1.593 0 0 0-.138-.281c-.7-.926-1.383-1.874-2.129-2.766a13.2 13.2 0 0 0-3.365-3.05 5.867 5.867 0 0 0-6.911.413 13.652 13.652 0 0 0-3.045 3.688 24.569 24.569 0 0 0-1.867 4.139H1.221A28.127 28.127 0 0 1 4.027 8.34a18.561 18.561 0 0 1 5.175-6A11.512 11.512 0 0 1 14.84.07a.732.732 0 0 0 .163-.06h2.071a.505.505 0 0 0 .149.064 11.438 11.438 0 0 1 4.513 1.423 19.339 19.339 0 0 1 4.808 3.978c.667.723 1.298 1.491 1.953 2.243z"/>
        <path data-name="Path 346" d="M104.374 36.147H98.75V9.511l-.079-.034c-.058.1-.119.2-.176.307q-4.952 8.894-9.9 17.792a.53.53 0 0 1-.541.333 214.488 214.488 0 0 0-4.608 0 .507.507 0 0 1-.525-.3q-4.947-8.918-9.912-17.824c-.057-.1-.115-.2-.22-.389v26.742h-5.65V1.163h.372c2.06 0 4.12.006 6.179-.007a.511.511 0 0 1 .523.308Q79.89 11.747 85.58 22.023c.074.133.151.263.245.426.14-.245.264-.46.384-.677q5.61-10.136 11.214-20.277A.564.564 0 0 1 98 1.156c2 .014 4 .007 6 .007h.371z"/>
        <path data-name="Path 347" d="M115.055 25.154c.431 3.015 2.362 6.339 6.63 6.8a10.58 10.58 0 0 0 6.835-1.347c.737-.449 1.407-1.008 2.143-1.542l2.976 3.639c-.56.438-1.089.891-1.656 1.289a15.188 15.188 0 0 1-7.31 2.675 15.774 15.774 0 0 1-6.013-.414 11.783 11.783 0 0 1-8.363-7.908 15.206 15.206 0 0 1 1.071-12.8 11.573 11.573 0 0 1 9.263-5.985 12.218 12.218 0 0 1 6.951 1.082 11.1 11.1 0 0 1 5.42 6.083 18.139 18.139 0 0 1 1.217 6.721v1.71zm13.741-4.127c-.028-.239-.048-.451-.077-.661a7.666 7.666 0 0 0-1.641-3.995 6.781 6.781 0 0 0-8.118-1.425 7.342 7.342 0 0 0-3.593 4.622c-.145.469-.236.955-.357 1.458z"/>
        <path data-name="Path 348" d="M141.076 14.713h-5.182V10.09h5.171V2.458h5.465v7.619h7.891v4.613h-7.892v11.567a10.521 10.521 0 0 0 .323 2.965 3.346 3.346 0 0 0 3.2 2.588 17.354 17.354 0 0 0 4.36-.276v4.629c-.861.152-1.742.346-2.634.456a13.293 13.293 0 0 1-4.753-.2 6.988 6.988 0 0 1-5.5-5.578 15.654 15.654 0 0 1-.422-3.381c-.05-4.111-.021-8.224-.022-12.337z"/>
        <path data-name="Path 349" d="M24.892 13.051c.265.359.547.706.791 1.077.664 1.006 1.312 2.023 1.964 3.039a1.024 1.024 0 0 1 .078.195c-2.472 4.3-4.73 8.732-7.585 12.807a22.713 22.713 0 0 1-3.9 4.438 9.223 9.223 0 0 1-7.029 2.154 9.037 9.037 0 0 1-5.426-2.175 10.213 10.213 0 0 1-2.809-4.267 17.4 17.4 0 0 1-.971-6.5h5.974a12.8 12.8 0 0 0 .442 3.657 4.783 4.783 0 0 0 1.678 2.659 4.15 4.15 0 0 0 4.752-.1 9.659 9.659 0 0 0 2.328-2.345c1.462-2.066 2.9-4.148 4.293-6.26 1.841-2.774 3.618-5.583 5.42-8.379z"/>
        <path data-name="Path 350" d="M31.365 23.322a.76.76 0 0 0 .128-.248c.037-.365.06-.729.075-1.095.029-.732.042-1.466.075-2.2q.1-2.25.217-4.5c.036-.671.086-1.342.145-2.011.009-.1.1-.2.158-.3.075.105.158.206.225.317q2.06 3.375 4.118 6.752c.854 1.4 1.718 2.789 2.577 4.184-.051.491-.119.981-.151 1.473-.059.908-.1 1.817-.143 2.727-.054 1.23-.087 2.46-.151 3.689-.026.492-.108.981-.164 1.471-.766-.9-1.57-1.778-2.289-2.719a71.05 71.05 0 0 1-4.82-7.54z"/>
        <path data-name="Path 351" d="M38.472 33.585c.056-.49.139-.979.164-1.471.064-1.229.1-2.459.151-3.689.039-.909.084-1.818.143-2.727.032-.492.1-.982.151-1.473.4.6.8 1.2 1.206 1.8a22.082 22.082 0 0 0 2.759 3.527 4.048 4.048 0 0 0 2.809 1.28c-.048 1.269-.089 2.54-.147 3.81-.032.715-.092 1.429-.139 2.144a9.017 9.017 0 0 1-5.9-2.1c-.416-.342-.798-.732-1.197-1.101z"/>
        <path data-name="Path 352" d="M5.984 23.821H.014a25.941 25.941 0 0 1 .349-4.492c.329.023.658.066.986.068 1.684.007 3.368 0 5.053 0a30.524 30.524 0 0 0-.418 4.424z"/>
        <path data-name="Path 353" d="M6.398 19.399H1.345c-.329 0-.658-.045-.986-.068l.857-4.137h6.221z"/>
    </g>
</svg>
