<svg data-name="Group 455" xmlns="http://www.w3.org/2000/svg" width="182.864" height="22.634" viewBox="0 0 182.864 22.634">
    <path data-name="Path 382" d="M47.833 0v.6h-1.589v12.3c0 1.689.248 1.99 1.916 2.3v.659h-6.082v-.672c.091-.017.2-.043.308-.056 1.074-.133 1.53-.549 1.539-1.631.029-3.651.011-7.3-.115-11l-5.342 13.364h-.526l-5.8-13.756a2.174 2.174 0 0 0-.142.423c.006 3.575-.009 7.152.037 10.726.019 1.395.327 1.671 1.726 1.931v.66h-4.499l-.029-.661.472-.069a1.405 1.405 0 0 0 1.409-1.5c.059-1.56.075-3.122.083-4.684.012-2.541 0-5.081 0-7.622v-.69h-1.862V0h4.477l4.56 10.9c.177.422.358.842.589 1.389.159-.338.265-.539.349-.748q1.24-3.127 2.473-6.256c.689-1.758 1.363-3.522 2.043-5.283z"/>
    <path data-name="Path 383" d="M22.503 0c.57.118 1.147.209 1.708.359a3.392 3.392 0 0 1 2.763 3.408 8.986 8.986 0 0 1-.044 1.869c-.3 1.874-1.561 3.025-3.7 3.38a24.784 24.784 0 0 1-2.514.226c-.507.031-1.018.006-1.614.006V13.13c0 1.383.5 1.907 1.884 2l.341.025v.7h-6.71v-.641c.054-.032.085-.066.12-.069 1.65-.143 2.048-.56 2.05-2.2q.007-5.86 0-11.719c0-.173-.015-.347-.026-.594H14.96v-.634zm-3.347.574V8.55c.772 0 1.5.058 2.219-.011 1.861-.18 3.068-1.117 3.311-2.705a9.177 9.177 0 0 0-.054-2.664A2.51 2.51 0 0 0 22.598.988 33.544 33.544 0 0 0 19.16.574z"/>
    <path data-name="Path 384" d="M0 13.137c.285-.494.569-.978 1.264-.942a.921.921 0 0 1 1 .793 10.909 10.909 0 0 1 .088 1.163 1.3 1.3 0 0 0 1.334 1.411c1.37.037 2.344-.36 2.681-1.817a11.047 11.047 0 0 0 .273-2.372c.029-3.415.013-6.832.011-10.249 0-.151-.028-.3-.048-.507H4.595V0h6.48l-.049.595H8.935v.763c0 3.38.012 6.759-.01 10.139a9.684 9.684 0 0 1-.226 1.973 3.023 3.023 0 0 1-2.661 2.608 16.751 16.751 0 0 1-3.56.055A2.727 2.727 0 0 1 0 14.193z"/>
    <path data-name="Path 385" d="M80.8 6.391c.088.745.234 1.453.246 2.162a3.425 3.425 0 0 1-2.316 3.522 30.3 30.3 0 0 1-3.235.822 7.621 7.621 0 0 0-1.617.494 1.251 1.251 0 0 0-.541.863c-.047.435.363.63.757.656 1.31.089 2.621.143 3.932.223a12.829 12.829 0 0 1 1.4.139c2.58.445 2.99 2.791 2.384 4.532a4.036 4.036 0 0 1-3.2 2.562 10.109 10.109 0 0 1-5.4-.215 2.293 2.293 0 0 1-1.705-2.939 1.022 1.022 0 0 1 1.158-.766c.488.106.721.511.659 1.142-.113 1.14.165 1.657 1.255 1.992a6.9 6.9 0 0 0 4.775-.206 2.944 2.944 0 0 0 .917-.617 1.657 1.657 0 0 0-.721-2.894 22.05 22.05 0 0 0-2.916-.29c-1.07-.107-2.154-.155-3.2-.368a1.958 1.958 0 0 1-1.795-2.111 1.978 1.978 0 0 1 1.339-1.83c.607-.256 1.25-.426 1.948-.658-.225-.074-.386-.129-.548-.179a3.073 3.073 0 0 1-2.379-2.929 7.215 7.215 0 0 1 .062-1.977 4.19 4.19 0 0 1 4.646-3.27 5.465 5.465 0 0 1 3.217 1.12c.517.425 1.078.177 1.278-.523.157-.548.325-1.06 1.026-1.105a.815.815 0 0 1 .967.783 1.705 1.705 0 0 1-1.873 1.9c-.178.007-.352-.022-.52-.035zm-1.971 2.241c-.1-.744-.132-1.41-.278-2.052a2.067 2.067 0 0 0-4.041-.089 7.3 7.3 0 0 0-.057 4.209 1.729 1.729 0 0 0 1.934 1.361c1.165.019 1.8-.34 2.078-1.321a18.779 18.779 0 0 0 .365-2.107z"/>
    <path data-name="Path 386" d="M108.075 15.183v.662h-5.286l-.039-.7c1.254.01 1.35-.849 1.343-1.77-.015-1.895 0-3.789-.066-5.681-.048-1.377-.552-1.975-1.543-2.061a2.45 2.45 0 0 0-2.661 1.754 6.735 6.735 0 0 0-.2 1.563 161.32 161.32 0 0 0-.006 4.4c.011 1.216.248 1.518 1.382 1.843v.661h-5.442v-.68c.14-.02.271-.036.4-.056a1.232 1.232 0 0 0 1.234-1.31c.053-.838.058-1.679.062-2.517.008-2.012 0-4.024 0-6.1h-1.685l-.041-.594h3.475l.426 2.06c.136-.183.207-.27.266-.363a4.006 4.006 0 0 1 4.426-1.8 2.769 2.769 0 0 1 2.256 2.776c.048 1.855.022 3.713.029 5.569 0 .2-.007.391.011.586.116 1.262.357 1.522 1.659 1.758z"/>
    <path data-name="Path 387" d="M90.351 9.145a24.82 24.82 0 0 0-.017-2.535c-.113-1.078-.787-1.583-1.953-1.621a1.772 1.772 0 0 0-2.048 1.505 6.719 6.719 0 0 1-.195.793 1.01 1.01 0 0 1-1.265.672.922.922 0 0 1-.733-1.051 2.315 2.315 0 0 1 1.348-1.99 6.373 6.373 0 0 1 3.479-.659 8.549 8.549 0 0 1 1.965.31 2.254 2.254 0 0 1 1.786 2.208c.067 1.579.044 3.163.063 4.744q.012 1.025.04 2.05c.015.484.066.963.663 1.091.523.113.88-.151 1.14-.778a.961.961 0 0 1 .362-.407 2.106 2.106 0 0 1-1.408 2.479c-1.374.415-2.3-.017-3.117-1.415-.622.426-1.219.906-1.881 1.269a3.478 3.478 0 0 1-2.573.308 2.777 2.777 0 0 1-2.179-2.287 3.035 3.035 0 0 1 1.211-3.159 7.568 7.568 0 0 1 3.493-1.284c.599-.101 1.201-.162 1.819-.243zm.031.756a5.259 5.259 0 0 0-3.044 1.008 3.731 3.731 0 0 0-1.114 1.311 1.859 1.859 0 0 0 1.655 2.777 4.1 4.1 0 0 0 2.406-1.346.389.389 0 0 0 .093-.263c.007-1.148 0-2.293 0-3.487z"/>
    <path data-name="Path 388" d="M59.973 10.193c-.1 1.862-.467 3.6-1.966 4.867a5.185 5.185 0 0 1-5.4.934 4.89 4.89 0 0 1-3.232-4.18 8.634 8.634 0 0 1 .272-4.11 5.239 5.239 0 0 1 9.94.248 21.364 21.364 0 0 1 .386 2.241zm-2.484.091c-.085-1.121-.113-2.059-.238-2.985a2.409 2.409 0 0 0-1.36-2.057 2.652 2.652 0 0 0-3.915 1.949 19.138 19.138 0 0 0 0 6.53 2.081 2.081 0 0 0 1.051 1.614 2.726 2.726 0 0 0 4.1-1.861c.219-1.104.26-2.243.362-3.188z"/>
    <path data-name="Path 389" d="m64.737 4.562.431 2.368c.206-.388.331-.64.47-.884a3.162 3.162 0 0 1 3.839-1.466 1.73 1.73 0 0 1 1.286 1.388 1.053 1.053 0 0 1-.579 1.227.99.99 0 0 1-1.268-.275c-.04-.044-.077-.089-.116-.133-.967-1.08-1.926-1.046-2.813.114a3.3 3.3 0 0 0-.718 2.063c.007 1.407 0 2.814 0 4.222a3.94 3.94 0 0 0 .058.7c.164.91.485 1.188 1.414 1.249l.611.044v.679h-6.309v-.664c.155-.017.308-.04.46-.049 1.163-.072 1.51-.39 1.518-1.55.02-2.736.006-5.472 0-8.208a1.279 1.279 0 0 0-.048-.217h-1.94v-.605z"/>
    <path data-name="Path 390" d="M171.827 10.332v5.525h-.883V8.71h1.266l2.737 5.507V8.7h.892v7.157h-1.226z"/>
    <path data-name="Path 391" d="M158.001 15.819V8.692c1.022 0 2.019-.056 3.006.018a1.658 1.658 0 0 1 1.572 1.353c.186 1-.069 1.494-1.065 2.082 1.162.642 1.5 1.3 1.229 2.333a1.666 1.666 0 0 1-1.546 1.32c-1.044.085-2.102.021-3.196.021zm1.138-.8c.834-.113 1.754.319 2.314-.535a1.255 1.255 0 0 0-.086-1.54c-.614-.663-1.449-.291-2.228-.385zm.007-3.273c.585 0 1.095.032 1.6-.009.529-.044.708-.426.718-.908.01-.5.039-1.055-.584-1.19a13.148 13.148 0 0 0-1.735-.15z"/>
    <path data-name="Path 392" d="m125.484 12.872 1.737 2.969h-1.272l-1.474-2.8h-1.109v2.814h-1.133v-7.16c1.04 0 2.06-.072 3.065.019a1.831 1.831 0 0 1 1.705 1.793 1.923 1.923 0 0 1-1.41 2.312.443.443 0 0 0-.109.053zm-2.1-.643c.781-.128 1.667.328 2.209-.474a1.545 1.545 0 0 0 0-1.779c-.552-.739-1.427-.378-2.213-.457z"/>
    <path data-name="Path 393" d="M177.807 15.85V8.698h1.081v3.386l2.642-3.388h1.209l-2.6 3.241c1.331.99 1.76 2.568 2.728 3.915h-1.3l-1.958-3.341c-1.158.936-.416 2.226-.728 3.338z"/>
    <path data-name="Path 394" d="M149.264 8.691h3.988v.86h-2.864v2.177h2.436v.868h-2.427v2.391h3.068v.858h-4.2z"/>
    <path data-name="Path 395" d="M166.088 8.681h1.149l2.289 7.163h-1.183l-.437-1.367h-2.7l-.464 1.38h-.992c.785-2.401 1.553-4.76 2.338-7.176zm.5 1.189-1.1 3.752h2.143z"/>
    <path data-name="Path 396" d="M142.899 15.864h-1.18l-.441-1.39h-2.7l-.461 1.386h-.993l2.334-7.169h1.154zm-1.892-2.236-1.048-3.75-1.1 3.75z"/>
    <path data-name="Path 397" d="M117.139 13.351v2.493h-1.084V8.735a24.335 24.335 0 0 1 3.157.029 1.986 1.986 0 0 1 1.6 2.267 2.086 2.086 0 0 1-1.836 2.221c-.576.081-1.167.065-1.837.099zm.025-.872c.781-.07 1.653.324 2.193-.448a1.817 1.817 0 0 0 .04-2c-.521-.814-1.431-.433-2.233-.5z"/>
    <path data-name="Path 398" d="M135.825 8.686h1.094c-.774 2.412-1.536 4.783-2.3 7.175h-1.106l-2.332-7.162h1.22l1.7 5.9 1.724-5.913z"/>
    <path data-name="Path 399" d="M144.871 9.558h-1.818V8.7h4.774v.86h-1.833v6.3h-1.128z"/>
    <path data-name="Path 400" d="M129.774 15.857h-1.083V8.696h1.083z"/>
    <path data-name="Path 401" d="M26.508 15.05a1.219 1.219 0 0 1-1.261 1.253 1.261 1.261 0 0 1-1.3-1.293 1.289 1.289 0 0 1 1.283-1.266 1.248 1.248 0 0 1 1.278 1.306z"/>
    <path data-name="Path 402" d="M12.743 15.028a1.214 1.214 0 0 1-1.238 1.274 1.235 1.235 0 0 1-1.312-1.268 1.267 1.267 0 0 1 1.247-1.291 1.254 1.254 0 0 1 1.303 1.285z"/>
</svg>
