<svg data-name="Group 466" xmlns="http://www.w3.org/2000/svg" width="182.863" height="36.302" viewBox="0 0 182.863 36.302">
    <g data-name="Group 441">
        <path data-name="Path 504" d="M6.924 6.346 4.269 25.558H0L3.884.435c1.642 0 3.222-.04 4.8.038.277.013.626.479.78.811q4.014 8.711 7.985 17.443a3.261 3.261 0 0 0 .729 1.088l.8-5.77c.586-4.258 1.185-8.513 1.738-12.775.085-.658.3-.879.961-.849 1.088.049 2.18.013 3.389.013-.316 2.1-.607 4.079-.912 6.05-.939 6.066-1.9 12.13-2.806 18.2-.11.738-.352.984-1.086.942a26.083 26.083 0 0 0-3.1 0 1.119 1.119 0 0 1-1.227-.8q-4.209-8.943-8.464-17.863c-.106-.225-.234-.441-.352-.66z"/>
        <path data-name="Path 505" d="m47.922 21.797-.467 3.761H32.1c.3-1.936.578-3.809.867-5.682q1.433-9.29 2.859-18.583c.081-.53.157-.879.848-.875 4.557.03 9.115.017 13.672.021a5.012 5.012 0 0 1 .543.078c-.183 1.16-.328 2.3-.578 3.415-.036.159-.582.286-.893.289-2.876.021-5.753.039-8.629-.007-.772-.012-1.057.214-1.152.989-.227 1.855-.556 3.7-.861 5.668h8.561c-.172 1.2-.284 2.295-.519 3.358-.046.206-.569.429-.877.435-2.2.037-4.4.019-6.593.018h-1.161l-1.118 7.114z"/>
        <path data-name="Path 506" d="m119.179 21.825-.441 3.73h-15.375c1.3-8.393 2.585-16.719 3.878-25.078h14.921c-.18 1.155-.311 2.266-.562 3.347-.046.2-.586.39-.9.394-2.909.03-5.819.042-8.727 0-.7-.01-.955.2-1.044.889-.245 1.883-.564 3.757-.87 5.748h8.543l-.54 3.827h-3.983c-1.325 0-2.651-.022-3.974.019-.245.008-.663.239-.694.422-.383 2.185-.707 4.38-1.066 6.7z"/>
        <path data-name="Path 507" d="m155.8 24.459 1.669-4.165a15.308 15.308 0 0 0 1.8.73 35.817 35.817 0 0 0 4.774 1.139 4.2 4.2 0 0 0 4.009-1.9 2.383 2.383 0 0 0-.214-3.412 19.585 19.585 0 0 0-2.518-1.95c-1.345-.945-2.8-1.749-4.072-2.785-3.6-2.937-3.411-7.386.361-10.15a10.977 10.977 0 0 1 7.92-1.88c2.005.209 3.987.644 6.1 1a3115.3 3115.3 0 0 1-1.4 4.331c-1.047-.359-2.03-.747-3.041-1.032a7.23 7.23 0 0 0-4.754-.129 5.574 5.574 0 0 0-1.7 1.063 2.259 2.259 0 0 0-.134 3.508 26.986 26.986 0 0 0 3.357 2.589c.763.539 1.619.943 2.4 1.459 5.414 3.579 3.276 10.193-.94 12.15a13.924 13.924 0 0 1-8.919.682c-1.539-.316-3.042-.803-4.698-1.248z"/>
        <path data-name="Path 508" d="M91.596.484h4.518c-.239 1.553-.459 3.043-.7 4.529-1.035 6.475-2.011 12.962-3.131 19.422-.92 5.309-3.766 9.2-8.9 11.207a23.877 23.877 0 0 1-2.372.659l-1.757-3.643c.529-.189 1-.378 1.476-.524a9.949 9.949 0 0 0 7.3-8.459c.919-5.38 1.693-10.786 2.522-16.183.352-2.296.685-4.596 1.044-7.008z"/>
        <path data-name="Path 509" d="M140.22 25.572h-4.429c1.107-7.093 2.2-14.125 3.324-21.306h-7.493c.171-1.231.281-2.321.51-3.384.044-.2.563-.425.865-.428 2.909-.032 5.818-.019 8.726-.019h9.894l-.608 3.782h-7.483l-3.306 21.355z"/>
        <path data-name="Path 510" d="m80.789.434-.584 3.774h-7.5c-1.1 7.144-2.2 14.214-3.3 21.34h-4.421c1.106-7.1 2.2-14.143 3.318-21.3h-7.486c.177-1.253.3-2.392.536-3.51.033-.158.581-.293.891-.294C67.25.426 72.258.432 77.266.432z"/>
        <path data-name="Path 511" d="M182.866 2.469a2.5 2.5 0 0 1-2.483 2.541 2.563 2.563 0 0 1-2.489-2.461A2.521 2.521 0 0 1 180.4.02a2.472 2.472 0 0 1 2.466 2.449zm-.358.058a2.111 2.111 0 0 0-2.127-2.153 2.137 2.137 0 0 0-.032 4.274 2.122 2.122 0 0 0 2.156-2.121z"/>
        <path data-name="Path 512" d="M179.653 1.2a3.308 3.308 0 0 1 1.245.1 1.248 1.248 0 0 1 .475.919 6.158 6.158 0 0 1-.248 1.42l-.984-1.047-.274 1.074h-.214z"/>
    </g>
</svg>
