<svg data-name="Group 459" xmlns="http://www.w3.org/2000/svg" width="182.864" height="27.306" viewBox="0 0 182.864 27.306">
    <path data-name="Path 317" d="M.006 13.351V.451c0-.436 0-.437.426-.437h25.91c.414 0 .415 0 .415.418V6.5c0 .435 0 .436-.433.436H7.35c-.407 0-.408 0-.408.4v19c0 .4 0 .4-.393.4-2.058 0-4.116-.006-6.172.007-.3 0-.378-.084-.377-.377q.013-6.505.006-13.015z"/>
    <path data-name="Path 318" d="M74.595.006h4.467V9.19c.1-.087.155-.133.2-.187a7.709 7.709 0 0 1 5.121-2.482 10.117 10.117 0 0 1 5.146.695 7.836 7.836 0 0 1 4.371 4.718 13.74 13.74 0 0 1-.163 10.232 7.914 7.914 0 0 1-6.9 5.028 10.517 10.517 0 0 1-3.789-.224 7.712 7.712 0 0 1-4.093-2.557v2.339h-4.363zm4.364 16.866c.077.766.1 1.542.244 2.3a4.905 4.905 0 0 0 3.006 3.934 6.176 6.176 0 0 0 3.451.305 4.574 4.574 0 0 0 3.868-3.287 10.893 10.893 0 0 0-.025-6.6 4.4 4.4 0 0 0-3.169-3.023 7.173 7.173 0 0 0-2.54-.215 4.831 4.831 0 0 0-4.359 3.366 11.348 11.348 0 0 0-.476 3.22z"/>
    <path data-name="Path 319" d="M116.94 18.113h-15.806c.153 1.968.6 3.759 2.456 4.817a7.07 7.07 0 0 0 4.051.76 6.927 6.927 0 0 0 2.338-.528 3.852 3.852 0 0 0 2.134-2.227c.051-.133.078-.255.278-.254 1.395.009 2.79.006 4.185.007a1.241 1.241 0 0 1 .177.035c-.132.446-.236.889-.391 1.312a7.191 7.191 0 0 1-4.477 4.372 13.3 13.3 0 0 1-9.439.068 8.352 8.352 0 0 1-5.578-6.729 14.291 14.291 0 0 1 .171-6.524 8.63 8.63 0 0 1 7.087-6.507 12.56 12.56 0 0 1 6.31.257 8.5 8.5 0 0 1 6.084 6.5 18.584 18.584 0 0 1 .441 4.476 1.273 1.273 0 0 1-.021.165zm-15.7-3.312h11.1c-.029-.219-.049-.417-.082-.615a4.473 4.473 0 0 0-3.571-3.925 8.034 8.034 0 0 0-3.3-.088 4.9 4.9 0 0 0-4.146 4.629z"/>
    <path data-name="Path 320" d="M72.329 18.098H56.51c.048.406.079.786.142 1.161a4.824 4.824 0 0 0 2.3 3.661 6.421 6.421 0 0 0 2.951.778 7.965 7.965 0 0 0 3.24-.45 3.816 3.816 0 0 0 2.34-2.294.37.37 0 0 1 .422-.276c1.293.011 2.587.006 3.88.006h.328a7.358 7.358 0 0 1-.977 2.631 7.588 7.588 0 0 1-3.938 3.128 13.563 13.563 0 0 1-6 .767 11.41 11.41 0 0 1-4.086-1.031 8.143 8.143 0 0 1-4.5-5.1 13.861 13.861 0 0 1-.031-8.34 8.3 8.3 0 0 1 5.66-5.682 12.353 12.353 0 0 1 8.122.1 8.4 8.4 0 0 1 5.567 6.394 18.954 18.954 0 0 1 .399 4.547zm-15.7-3.3h11.1c-.027-.2-.047-.381-.075-.56a4.441 4.441 0 0 0-3.329-3.9 7.43 7.43 0 0 0-4.508.093 4.9 4.9 0 0 0-3.192 4.368z"/>
    <path data-name="Path 321" d="M141.815 16.999a12.222 12.222 0 0 1 .986-5.173 8.454 8.454 0 0 1 5.44-4.813 12.725 12.725 0 0 1 7.665.007 8.421 8.421 0 0 1 5.781 5.725 13.053 13.053 0 0 1-.051 8.409 8.378 8.378 0 0 1-5.781 5.564 12.665 12.665 0 0 1-7.548.012 8.736 8.736 0 0 1-6.159-6.753 11.967 11.967 0 0 1-.333-2.978zm15.824-.046c-.12-.992-.161-1.921-.356-2.818a4.52 4.52 0 0 0-3.308-3.631 7.532 7.532 0 0 0-2.691-.214 4.627 4.627 0 0 0-4.309 3.388 11.227 11.227 0 0 0-.006 6.37 4.5 4.5 0 0 0 3.478 3.281 6.74 6.74 0 0 0 2.817.078 4.59 4.59 0 0 0 3.956-3.57 26.359 26.359 0 0 0 .419-2.884z"/>
    <path data-name="Path 322" d="M164.591 7.002h4.45v2.172c.276-.3.476-.535.7-.749a6.9 6.9 0 0 1 3.9-1.849 10.179 10.179 0 0 1 4.237.209 6.227 6.227 0 0 1 4.634 4.854 11.688 11.688 0 0 1 .33 2.651c.035 4.045.016 8.09.016 12.135v.322h-4.421c-.006-.121-.016-.247-.016-.375 0-3.567.016-7.135-.013-10.7a10.924 10.924 0 0 0-.278-2.5 3.552 3.552 0 0 0-3.511-2.883 6.494 6.494 0 0 0-2.623.263 4.1 4.1 0 0 0-2.778 3.41 10.316 10.316 0 0 0-.164 1.847c-.015 3.506-.007 7.013-.007 10.519v.42h-4.458z"/>
    <path data-name="Path 323" d="M14.13 26.744c-1.038 0-2.077-.011-3.115.008-.309.005-.375-.1-.363-.384a16.052 16.052 0 0 1 3.052-9 15.865 15.865 0 0 1 10.029-6.407c.9-.179 1.834-.193 2.752-.285.2-.02.273.06.273.258q-.007 3.2 0 6.4c0 .2-.077.255-.271.263a9.163 9.163 0 0 0-8.621 7.055 11.669 11.669 0 0 0-.226 1.712c-.025.272-.089.391-.395.386-1.037-.017-2.076-.006-3.115-.006z"/>
    <path data-name="Path 324" d="M127.149.003h4.459v26.74h-4.459z"/>
    <path data-name="Path 325" d="M44.725 26.752h-4.48V7.007h4.411v2.214a1.773 1.773 0 0 0 .192-.18 5.744 5.744 0 0 1 4.661-2.322 19.986 19.986 0 0 1 2.213.16c.151.011.24.069.239.245-.006 1.209 0 2.418-.006 3.628a.26.26 0 0 1-.016.078c-.735-.041-1.452-.115-2.17-.116a4.6 4.6 0 0 0-4.851 4.025 11.256 11.256 0 0 0-.187 1.966c-.018 3.221-.008 6.443-.008 9.665z"/>
    <path data-name="Path 326" d="M123.663 26.754h-4.432V.013h4.435z"/>
    <path data-name="Path 327" d="M139.565 7.011v19.737h-4.452V7.011z"/>
    <path data-name="Path 328" d="M135.122 0h4.433v4.036c-.079.008-.158.022-.235.022h-3.938c-.165 0-.293 0-.292-.229.009-1.228.006-2.457.007-3.686a.975.975 0 0 1 .025-.143z"/>
</svg>
