<svg data-name="Group 467" xmlns="http://www.w3.org/2000/svg" width="130.616" height="91.377" viewBox="0 0 130.616 91.377">
    <g data-name="Group 440">
        <g data-name="Group 413">
            <path data-name="Path 536" d="M96.919 68.646a20.744 20.744 0 0 1-26.91 8.527c-4.592 9.156-11.862 14.13-22.256 14.2-10.356-.584-17.366-5.882-21.55-15.306a21.86 21.86 0 0 1-25.03-14.56 22.189 22.189 0 0 1 9.7-26.127 25.271 25.271 0 0 1 .066-20.162 24.835 24.835 0 0 1 10.82-11.981A24.364 24.364 0 0 1 30.268.296a25.942 25.942 0 0 1 9.009.2 24.967 24.967 0 0 1 8.364 3.338 25.777 25.777 0 0 1 6.7 6.07c5.481-5.375 11.987-7.845 19.587-6.836 7.576 1.008 13.174 5.117 17.13 11.645.186-.062.383-.113.569-.191a27.063 27.063 0 0 1 8.279-2.049 26.787 26.787 0 0 1 12.475 1.736c9.617 3.914 15.64 10.982 17.642 21.146a28.181 28.181 0 0 1-32.589 33.368c-.153-.029-.318-.048-.515-.077zm-25.7-31.628h-1.892l-.358 1.968 1.891.058c-.019.241-.018.4-.046.559-.559 3.129-1.1 6.261-1.7 9.384a10.891 10.891 0 0 1-.656 2.062 1.58 1.58 0 0 1-1.669 1.035c-.437-.027-.873-.084-1.388-.135l-.665 1.789a4.394 4.394 0 0 0 2.333.423 3.828 3.828 0 0 0 3.636-2.411 9.589 9.589 0 0 0 .677-2.057c.547-2.845 1.041-5.7 1.557-8.55.128-.7.261-1.4.4-2.162h2.7a8.212 8.212 0 0 0 .217-1.967h-2.475a3.247 3.247 0 0 1 .247-1.559 2 2 0 0 1 2.388-1.458c.294.043.586.1.916.151l.661-1.847a2.971 2.971 0 0 0-.418-.195 5.925 5.925 0 0 0-2.914-.035 3.582 3.582 0 0 0-2.512 1.966 16.007 16.007 0 0 0-.745 2.106 8.717 8.717 0 0 0-.189.874zM39.107 48.253v-.834q0-3.088-.006-6.175c0-.281-.007-.562-.026-.841a3.439 3.439 0 0 0-2.8-3.416 8.943 8.943 0 0 0-5.756.562 3.785 3.785 0 0 0-.525.338 6.992 6.992 0 0 0 .689 1.788c.278-.119.49-.217.707-.3a6.487 6.487 0 0 1 3.911-.413 1.76 1.76 0 0 1 1.28 2.447c-.294-.034-.594-.074-.895-.1a7.816 7.816 0 0 0-4.189.536 3.682 3.682 0 0 0-2.108 4.047 3.371 3.371 0 0 0 2.977 2.926 15.381 15.381 0 0 0 6.736-.566zm17.477-4.754c.012-.677.064-1.258.025-1.834a5.5 5.5 0 0 0-1.106-3.2 4.7 4.7 0 0 0-4.044-1.7 5.065 5.065 0 0 0-4.915 3.691 8.279 8.279 0 0 0-.056 4.773 4.69 4.69 0 0 0 3.259 3.39 9.3 9.3 0 0 0 5.8-.143 5.363 5.363 0 0 0 .676-.342l-.656-1.8a4.224 4.224 0 0 0-.423.115 7.366 7.366 0 0 1-3.45.423 4.123 4.123 0 0 1-1.281-.329 2.8 2.8 0 0 1-1.517-3.047zm60.519.005a6.926 6.926 0 0 0 .07-2.135c-.225-2.422-1.626-4.275-4.158-4.561a5.176 5.176 0 0 0-5.868 3.6 8.365 8.365 0 0 0-.082 4.779 4.721 4.721 0 0 0 3.364 3.464 9.327 9.327 0 0 0 5.533-.116 7.3 7.3 0 0 0 .849-.39l-.643-1.771a3.943 3.943 0 0 0-.546.116 7.588 7.588 0 0 1-3.528.373 2.811 2.811 0 0 1-2.591-3.361zm-29.575-.551c-.122-.782-.18-1.58-.377-2.343a5.109 5.109 0 0 0-5.967-3.786 4.906 4.906 0 0 0-4.368 3.971 8.371 8.371 0 0 0 .082 4.507 4.871 4.871 0 0 0 3.308 3.442 5.971 5.971 0 0 0 2.292.225 4.852 4.852 0 0 0 4.491-3.254 9.234 9.234 0 0 0 .533-2.762zm-20.627-5.025a4.817 4.817 0 0 0-.463-.326 7.5 7.5 0 0 0-4.7-.785 4.932 4.932 0 0 0-1.75.671 3.23 3.23 0 0 0 .244 5.639 12.4 12.4 0 0 0 1.231.5c.574.2 1.163.356 1.736.559a4.928 4.928 0 0 1 1.019.461 1.149 1.149 0 0 1 .112 1.943 2.354 2.354 0 0 1-1.151.432 5.922 5.922 0 0 1-3.679-.919c-.212-.128-.429-.246-.687-.393-.111.24-.2.4-.262.573-.125.328-.239.66-.358.99-.1.28.05.439.271.569a7.51 7.51 0 0 0 6.466.816 3.232 3.232 0 0 0 2.244-3.025 2.95 2.95 0 0 0-1.849-3.092c-.626-.306-1.305-.507-1.958-.759-.609-.237-1.23-.452-1.821-.729a1.061 1.061 0 0 1-.681-1.187 1.2 1.2 0 0 1 .955-1.01 3.405 3.405 0 0 1 1.107-.114 7.833 7.833 0 0 1 2.705.7c.179.084.37.143.609.234zm-47.323 7.76c-.192.52-.372.97-.526 1.428s-.141.538.314.783a9.26 9.26 0 0 0 1.522.707 7.412 7.412 0 0 0 4.752.1 3.442 3.442 0 0 0 2.3-4.01 2.468 2.468 0 0 0-1.3-1.833c-.755-.409-1.568-.713-2.362-1.047a19.908 19.908 0 0 1-2-.821 1.091 1.091 0 0 1 .118-2.029 3.12 3.12 0 0 1 1.361-.214 7.3 7.3 0 0 1 2.636.667c.187.085.379.159.649.271l.665-1.772a5.432 5.432 0 0 0-2.167-.956 6.459 6.459 0 0 0-4.13.18 3.321 3.321 0 0 0-2.133 3.25 3.026 3.026 0 0 0 2.131 2.914c.579.245 1.194.4 1.788.616a17.276 17.276 0 0 1 1.7.653 1.208 1.208 0 0 1-.022 2.221 2.306 2.306 0 0 1-.868.234 5.911 5.911 0 0 1-3.556-.851c-.269-.151-.529-.293-.878-.491zm85.855.811a3.621 3.621 0 0 0-.433.093 6 6 0 0 1-2.562.273 2.948 2.948 0 0 1-2.757-2.146 6.02 6.02 0 0 1 .092-3.863 2.835 2.835 0 0 1 2.909-2c.7.01 1.39.146 2.085.224l.567.065.641-1.794c-.245-.1-.428-.188-.622-.246a8.658 8.658 0 0 0-3.333-.331 5.146 5.146 0 0 0-4.726 3.6 7.654 7.654 0 0 0 .008 5.1 4.775 4.775 0 0 0 3.616 3.3 8.707 8.707 0 0 0 4.641-.225 4.216 4.216 0 0 0 .521-.254zM41.64 48.683h2.327v-16.5a11.991 11.991 0 0 0-2.327 0zm50.3.036v-.774c0-1.264-.012-2.529 0-3.792.011-.841.02-1.687.107-2.522a2.6 2.6 0 0 1 3-2.535c.252.013.5.032.809.053l.654-1.854c-1.2-.711-2.723-.481-4.58.668l-.124-.924a14.679 14.679 0 0 0-2.253.041v11.6a11.975 11.975 0 0 0 2.378.039z"/>
            <path data-name="Path 537" d="M36.68 43.34v3.424a8.2 8.2 0 0 1-3.336.2 1.674 1.674 0 0 1-1.566-1.691 1.78 1.78 0 0 1 1.411-1.918 8.041 8.041 0 0 1 3.491-.015z"/>
            <path data-name="Path 538" d="M54.164 41.627h-5.283a2.706 2.706 0 0 1 2.724-2.874c1.537.014 2.481 1.051 2.559 2.874z"/>
            <path data-name="Path 539" d="M114.76 41.627h-5.268a2.665 2.665 0 0 1 2.63-2.872 2.58 2.58 0 0 1 2.638 2.872z"/>
            <path data-name="Path 540" d="M84.983 42.922a18.19 18.19 0 0 1-.408 2.189 2.656 2.656 0 0 1-3.711 1.681 2.215 2.215 0 0 1-1.246-1.265 6.471 6.471 0 0 1-.438-3.5 6.971 6.971 0 0 1 .446-1.753 2.294 2.294 0 0 1 2.268-1.457 2.449 2.449 0 0 1 2.478 1.367 7.187 7.187 0 0 1 .611 2.738z"/>
        </g>
    </g>
</svg>
