<svg data-name="Group 465" xmlns="http://www.w3.org/2000/svg" width="78.37" height="77.166" viewBox="0 0 78.37 77.166">
    <path data-name="Path 541" d="M16.077 25.816c0-.211-.006-.393 0-.574.057-1.6.09-3.2.182-4.8a24.307 24.307 0 0 1 .881-5.139 19.6 19.6 0 0 1 4.791-8.264A22.267 22.267 0 0 1 32.709.795a25.338 25.338 0 0 1 7.083-.793 23.441 23.441 0 0 1 14.308 4.9 20 20 0 0 1 7.612 12.36 34.718 34.718 0 0 1 .556 5.741c.019.924 0 1.849 0 2.78.55-.088 1.046-.2 1.547-.243a6.811 6.811 0 0 1 6.292 11.076 12.865 12.865 0 0 1-3.182 2.751q-1.35.879-2.7 1.761a3.4 3.4 0 0 0-.414.322.8.8 0 0 0-.264.86 7.226 7.226 0 0 0 .455 1.13 20.321 20.321 0 0 0 6.064 6.948 32.5 32.5 0 0 0 5 2.975 6.518 6.518 0 0 1 2.29 1.743 4.752 4.752 0 0 1-.077 5.966 8.655 8.655 0 0 1-3.025 2.408 22.2 22.2 0 0 1-4.324 1.674c-.065.018-.128.038-.192.054a1.931 1.931 0 0 0-1.467 1.348 5.714 5.714 0 0 1-5.027 3.989c-1.244.163-2.507.182-3.763.258a15.168 15.168 0 0 0-5.006.968 20.624 20.624 0 0 0-2.653 1.438 30.35 30.35 0 0 1-5.264 2.689 21.049 21.049 0 0 1-6.5 1.239 20.757 20.757 0 0 1-10.6-2.29 54.586 54.586 0 0 1-3.669-2.137 12.54 12.54 0 0 0-5.685-1.8c-1.386-.123-2.778-.159-4.166-.261a6.706 6.706 0 0 1-4.309-1.685 5.11 5.11 0 0 1-1.452-2.242 2.18 2.18 0 0 0-1.718-1.577 18.822 18.822 0 0 1-5.428-2.307 6.477 6.477 0 0 1-2.766-3.319 4.615 4.615 0 0 1 1.841-5.406 28.017 28.017 0 0 1 2.633-1.477 23.115 23.115 0 0 0 8.55-7.369c.511-.756.92-1.581 1.363-2.382a2.275 2.275 0 0 0 .178-.544.838.838 0 0 0-.3-.92c-.3-.244-.633-.46-.957-.678-1.166-.788-2.364-1.534-3.5-2.369a8.2 8.2 0 0 1-2.9-3.686 6.709 6.709 0 0 1 5.564-9.136 8.977 8.977 0 0 1 3.34.264zm41.854-.5h-.064c0-.8.012-1.6 0-2.4a30.323 30.323 0 0 0-.45-4.723 15.615 15.615 0 0 0-4.315-8.3 17.6 17.6 0 0 0-7.2-4.448 21.456 21.456 0 0 0-9.206-.91 19.316 19.316 0 0 0-7.562 2.41 16.631 16.631 0 0 0-6.954 7.414 17.978 17.978 0 0 0-1.541 6.4 61.208 61.208 0 0 0 .023 8.618c.034.541.063 1.083.07 1.624a.594.594 0 0 1-.64.7 2.017 2.017 0 0 1-.733-.113c-.763-.265-1.514-.56-2.272-.836a11.9 11.9 0 0 0-3.074-.84 2.853 2.853 0 0 0-1.956.454 2.416 2.416 0 0 0-.579 3.144 4.223 4.223 0 0 0 1.26 1.372c1.234.852 2.5 1.662 3.734 2.51.894.612 1.785 1.229 2.638 1.893a1.869 1.869 0 0 1 .691 1.782 10.6 10.6 0 0 1-.851 2.993 23.275 23.275 0 0 1-6.533 8.693 32.445 32.445 0 0 1-6.92 4.45 2.789 2.789 0 0 0-.621.414.626.626 0 0 0-.065 1 4.3 4.3 0 0 0 .918.718 19.253 19.253 0 0 0 4.738 1.826 20.364 20.364 0 0 1 2.306.8 1.947 1.947 0 0 1 1.207 1.521c.075.393.133.787.193 1.183a1.535 1.535 0 0 0 1.474 1.526 9.9 9.9 0 0 0 .993.112c1.628.121 3.262.183 4.883.367a13.829 13.829 0 0 1 4.7 1.3c1.18.595 2.322 1.274 3.446 1.973a17.376 17.376 0 0 0 8.919 2.813 17.078 17.078 0 0 0 7.387-1.353 34.529 34.529 0 0 0 4.036-2.246 16.9 16.9 0 0 1 3.438-1.709 25.757 25.757 0 0 1 7.313-1.1 19.212 19.212 0 0 0 2.3-.24 1.307 1.307 0 0 0 1.1-1.15 4.273 4.273 0 0 0 .106-.665 2.682 2.682 0 0 1 2.081-2.666c.709-.213 1.418-.43 2.133-.623a16.975 16.975 0 0 0 4.337-1.76 3.5 3.5 0 0 0 .769-.629.641.641 0 0 0-.071-1.009 3.39 3.39 0 0 0-.622-.413c-.329-.18-.671-.333-1-.507a28.948 28.948 0 0 1-9.072-7.112 20.406 20.406 0 0 1-3.839-6.762 12.712 12.712 0 0 1-.373-1.627 2.037 2.037 0 0 1 .914-2.125 72.41 72.41 0 0 1 2.4-1.673c1.154-.777 2.33-1.523 3.477-2.311a4.793 4.793 0 0 0 1.611-1.748A2.321 2.321 0 0 0 65.489 30a4.4 4.4 0 0 0-1.486-.038 17.15 17.15 0 0 0-3.451 1.071 19.345 19.345 0 0 1-2.012.656c-.577.143-.885-.158-.889-.756q0-.113.007-.225l.274-5.389z"/>
</svg>
