<svg xmlns="http://www.w3.org/2000/svg" width="399.492" height="79.048" viewBox="0 0 399.492 79.048">
    <g data-name="Group 435">
        <path data-name="Path 440" d="m142.989 79.048-7.615-4.8c-.369-.232-.731-.474-1.141-.743l16.706-29.659-16.721-29.678 8.874-5.495 28.436 35.15c-.4.513-.775 1.011-1.168 1.5L143.636 78.35a7.486 7.486 0 0 0-.457.7z"/>
        <path data-name="Path 441" d="M399.492 20.509q-1.807 4.57-3.611 9.14c-1.652 4.2-3.289 8.407-4.95 12.6a9.894 9.894 0 0 1-.75 1.422c-1.857 3.1-4.261 4.051-7.874 3.1v-3.037a20.272 20.272 0 0 0 2.077-.01 4.241 4.241 0 0 0 3.509-3.614 2.591 2.591 0 0 0-.284-1.073q-3.69-9.03-7.4-18.05c-.071-.171-.132-.344-.227-.6h4.193l5.781 15.079c1.874-5.165 3.665-10.1 5.5-15.148h4.039z"/>
        <path data-name="Path 442" d="M96.88 30.464a15.782 15.782 0 0 1 5.123-6.071c4.674-3.118 9.724-3.135 14.862-1.53a15.226 15.226 0 0 1 9.641 8.588c3.7 8.326 3.821 16.809-.186 25.036a16.879 16.879 0 0 1-21.81 8.312 14.625 14.625 0 0 1-7.552-7.178c-1.114 2-2.27 3.855-3.193 5.815a2.6 2.6 0 0 1-2.968 1.742c-1.659-.156-3.345-.037-5.072-.037V0h11.156zm20.941 13.616c-.247-1.718-.381-3.46-.76-5.145-1.082-4.8-4.317-7.735-8.82-8.138-4.977-.445-8.825 1.747-10.7 6.3a17.773 17.773 0 0 0-.029 13.863 10.287 10.287 0 0 0 19.05-.349 22.858 22.858 0 0 0 1.258-6.531z"/>
        <path data-name="Path 443" d="M.013 51.3h10.349c.054.467.083.933.161 1.388.557 3.23 2.6 5.05 5.681 5.761a14.232 14.232 0 0 0 7.694-.32c3.066-.992 4.542-3.533 3.726-6.279a4.049 4.049 0 0 0-2.622-2.817c-2.3-.755-4.664-1.339-7.024-1.9-3.135-.748-6.352-1.2-9.414-2.162-3.814-1.2-6.523-3.675-7.291-7.84-1.087-5.886 1.476-11.046 7.061-13.33a27.663 27.663 0 0 1 20.948-.247c5.131 1.969 7.811 5.915 8.175 11.4.015.215 0 .435 0 .721h-10.43c-.017-.2-.029-.405-.054-.613-.5-4.119-2.871-6.2-7.354-6.338a10.21 10.21 0 0 0-5.341 1.073 4.2 4.2 0 0 0-2.4 4 3.471 3.471 0 0 0 2.529 3.432 67.584 67.584 0 0 0 7.327 1.881c3.347.682 6.753 1.112 9.924 2.48a11.766 11.766 0 0 1 3.706 19.025 17.3 17.3 0 0 1-10 4.816 31.42 31.42 0 0 1-16.045-1.053C4.65 62.695 1.383 59.616.282 54.603a11.737 11.737 0 0 1-.261-1.591C-.024 52.48.013 51.943.013 51.3z"/>
        <path data-name="Path 444" d="M69.789 65.112H50.984l-12.39-42.443h12.05l9.658 38.143h.171l9.658-38.16h12.05z"/>
        <path data-name="Path 445" d="M183.54 75.424V47.737c.266-.017.508-.049.752-.049 3.838 0 7.677-.025 11.515 0a10.822 10.822 0 0 1 5.866 1.62c3.411 2.16 3.995 8.942-.96 10.9-.171.068-.33.161-.542.266 3.7 1.175 5.37 3.477 5.248 7.141a7.341 7.341 0 0 1-5.893 7.4 14.991 14.991 0 0 1-3.381.425c-4.061.049-8.121.02-12.182.017-.12.008-.24-.014-.423-.033zm4.354-3.824c3.179 0 6.318.176 9.426-.056 2.509-.188 3.689-2.016 3.555-4.723a4.019 4.019 0 0 0-3.988-4.126c-2.624-.125-5.258-.066-7.884-.086h-1.109zm-.024-12.512c2.973 0 5.849.051 8.725-.024a3.123 3.123 0 0 0 2.732-1.637 3.874 3.874 0 0 0-3.122-5.935c-2.687-.142-5.385-.061-8.077-.071-.081 0-.161.076-.257.122z"/>
        <path data-name="Path 446" d="M203.648 20.613h-4.412c-.066-.222-.154-.481-.22-.748a5.035 5.035 0 0 0-5.075-4.266 16.012 16.012 0 0 0-4.122.4 2.9 2.9 0 0 0-2.262 2.641 3.052 3.052 0 0 0 1.542 3.4 35.238 35.238 0 0 0 4.61 1.674c1.894.611 3.863 1.021 5.71 1.747 3.731 1.463 5.238 3.811 5.048 7.471a7.487 7.487 0 0 1-5.9 7.156c-4.64 1.2-9.133.875-13.115-2.106a8.773 8.773 0 0 1-3.423-7.2h4.334c.066.3.149.625.21.955a5.827 5.827 0 0 0 4.745 4.935 10.55 10.55 0 0 0 5.815-.115 3.731 3.731 0 0 0 2.793-3.552c.1-2.108-.523-3.384-2.375-4.092-1.884-.718-3.868-1.165-5.8-1.764a41.415 41.415 0 0 1-4.219-1.42c-3.164-1.361-4.706-3.711-4.522-6.663a6.968 6.968 0 0 1 5.4-6.655 15.066 15.066 0 0 1 9.255.171 8.65 8.65 0 0 1 5.983 8.031z"/>
        <path data-name="Path 447" d="M314.564 40.088h-4.715q-4.878-13.809-9.792-27.728h4.808c2.429 7.677 4.855 15.351 7.359 23.271 2.485-7.894 4.9-15.578 7.322-23.259h4.574c-3.2 9.277-6.375 18.49-9.556 27.716z"/>
        <path data-name="Path 448" d="M379.137 31.269h-15.139c.039 3.147 1.788 5.568 4.361 6.137 3.081.682 5.373-.454 6.743-3.367h3.831a8.529 8.529 0 0 1-3.408 5.1 10.7 10.7 0 0 1-12.47-.84 10.049 10.049 0 0 1-3.047-7.146c-.193-3.591.5-6.939 3.443-9.326 3.139-2.548 6.768-2.746 10.413-1.363 3.5 1.329 4.913 4.276 5.26 7.811.093.932.013 1.884.013 2.994zm-3.98-3.1a4.969 4.969 0 0 0-2.485-4.537 5.758 5.758 0 0 0-6.206.132 5.319 5.319 0 0 0-2.487 4.405z"/>
        <path data-name="Path 449" d="M327.918 26.516h-3.777a6.064 6.064 0 0 1 3.86-5.979 12.079 12.079 0 0 1 7.738-.464c2.986.779 4.4 2.927 4.434 6.56.027 2.976 0 5.949.007 8.925 0 .347.034.694.051 1.041.037.784.381 1.263 1.288 1.19v2.257c-2.768.921-4.42.12-5.089-2.49a14.345 14.345 0 0 1-1.744 1.632 8.552 8.552 0 0 1-8.5.777 4.945 4.945 0 0 1-3.086-4.627 5.286 5.286 0 0 1 2.683-5.268 21.713 21.713 0 0 1 6.509-1.962 18.594 18.594 0 0 0 2.9-.86 1.812 1.812 0 0 0 1.175-1.881 2.062 2.062 0 0 0-1.16-2.018 6.294 6.294 0 0 0-5.756.147c-.638.344-.945 1.327-1.346 2.047a3.312 3.312 0 0 0-.187.973zm8.344 3.442c-1.828.457-3.714.848-5.541 1.417a7.645 7.645 0 0 0-2.822 1.437 2.753 2.753 0 0 0 1.016 4.552 6.606 6.606 0 0 0 5.541-.921 3.835 3.835 0 0 0 1.776-2.8 35.715 35.715 0 0 0 .03-3.685z"/>
        <path data-name="Path 450" d="M226.429 75.363c-2.832.936-4.613.068-5.04-2.512a1.185 1.185 0 0 0-.291.2c-2.282 3.162-6.824 3.464-9.475 2.47a5.141 5.141 0 0 1-3.589-4.684c-.186-2.37.528-4.456 2.788-5.451a51.3 51.3 0 0 1 6.225-1.913c.938-.274 1.908-.459 2.829-.784a1.945 1.945 0 0 0 1.412-2.02 2.116 2.116 0 0 0-1.429-2.14 6.582 6.582 0 0 0-5.351.2c-.633.328-1.016 1.2-1.422 1.886a3.821 3.821 0 0 0-.261 1.175h-3.807a6.169 6.169 0 0 1 4.139-6.027 12.212 12.212 0 0 1 7.476-.4 5.744 5.744 0 0 1 4.425 5.9c.027 3.418.01 6.839.049 10.259.007.8.1 1.649 1.322 1.588zm-5.145-10.107c-1.749.435-3.411.787-5.031 1.27a13.759 13.759 0 0 0-3.113 1.29c-1.161.7-1.212 1.935-.977 3.13a2.252 2.252 0 0 0 1.957 1.818 7.179 7.179 0 0 0 4.351-.486 4.5 4.5 0 0 0 2.8-4.242c.042-.943.013-1.889.013-2.78z"/>
        <path data-name="Path 451" d="M250.969 75.409V47.725h3.785v16.242c1.419-1.361 2.685-2.575 3.946-3.789 1.439-1.383 2.868-2.776 4.317-4.146a1.252 1.252 0 0 1 .711-.379c1.288-.037 2.58-.017 4.112-.017l-7.628 7.273 8.436 12.553c-1.546 0-2.922.027-4.293-.029-.225-.007-.484-.352-.64-.6-2.008-3.1-4-6.218-6.091-9.472-.96.926-1.893 1.8-2.783 2.714-.132.139-.071.484-.071.73-.005 2.182 0 4.361 0 6.6z"/>
        <path data-name="Path 452" d="M272.342 29.788c-.037 3.8-.9 6.846-3.67 8.93a10.264 10.264 0 0 1-10.787 1.053c-3.726-1.61-5.143-4.862-5.387-8.69a10.891 10.891 0 0 1 2.321-8.087c2.807-3.289 6.5-3.858 10.467-2.93 3.89.911 6.013 3.638 6.8 7.452a20.152 20.152 0 0 1 .256 2.272zm-3.806.386a28.844 28.844 0 0 0-1.065-4.08 4.955 4.955 0 0 0-4.588-3.142c-2.311-.137-4.258.589-5.336 2.712a9.568 9.568 0 0 0 .007 9.116c1.925 3.679 7.462 3.731 9.621.176a11.6 11.6 0 0 0 1.361-4.782z"/>
        <path data-name="Path 453" d="M233.537 58.053a8.309 8.309 0 0 1 9.162-2.585 5.272 5.272 0 0 1 3.99 5.219c.149 4.9.044 9.8.044 14.74h-3.87v-.99c0-3.833.007-7.664 0-11.5a8.041 8.041 0 0 0-.142-1.7c-.481-2.135-2.223-3.188-4.649-2.854-2.937.406-4.5 2.182-4.52 5.229-.027 3.579-.007 7.156-.007 10.733v1.073h-3.819V55.713h3.816z"/>
        <path data-name="Path 454" d="M279.524 40.096h-3.775V20.384h3.77v2.377a7.234 7.234 0 0 1 5.1-2.907 11.793 11.793 0 0 1 3.675.176 5.484 5.484 0 0 1 4.354 5.336c.088 4.872.024 9.749.024 14.686h-3.819V27.977c0-3.377-1.266-4.945-4-4.965-3.213-.027-5.329 2.006-5.331 5.128v10.926z"/>
        <path data-name="Path 455" d="M250.178 27.506h-3.963a1.387 1.387 0 0 1-.112-.259q-.759-3.958-4.107-4.273c-2.822-.266-4.906.88-5.832 3.369a10.224 10.224 0 0 0 .252 8.287c1.077 2.228 3.23 3.191 5.9 2.78 2.055-.315 3.335-1.737 3.762-4.178.022-.122.059-.24.1-.413h3.865c.193 3.108-2.277 6.44-5.676 7.427-6.013 1.752-12.157-1.275-12.849-8.6-.332-3.543.342-6.812 2.986-9.426 4.073-4.026 13.46-3.565 15.38 3.863.118.458.191.919.294 1.423z"/>
        <path data-name="Path 456" d="M344.783 12.375h3.792v27.677h-3.792z"/>
        <path data-name="Path 457" d="M219.702 40.076h-3.738V12.387h3.738z"/>
        <path data-name="Path 458" d="M356.59 40.073h-3.741V12.387h3.741z"/>
        <path data-name="Path 459" d="M207.678 20.354h3.787v19.7h-3.787z"/>
        <path data-name="Path 460" d="M227.967 40.077h-3.772v-19.69h3.772z"/>
        <path data-name="Path 461" d="M228.333 14.855a2.1 2.1 0 0 1-2.3 2.2 2.134 2.134 0 0 1-2.216-2.219 2.2 2.2 0 0 1 2.275-2.284 2.159 2.159 0 0 1 2.241 2.303z"/>
        <path data-name="Path 462" d="M207.319 14.827a2.157 2.157 0 0 1 2.26-2.272 2.193 2.193 0 0 1 2.25 2.309 2.124 2.124 0 0 1-2.238 2.194 2.1 2.1 0 0 1-2.272-2.231z"/>
    </g>
</svg>
