<svg data-name="Group 463" xmlns="http://www.w3.org/2000/svg" width="130.617" height="44.844" viewBox="0 0 130.617 44.844">
    <g data-name="Group 407">
        <path data-name="Path 463" d="M26.497 0a17.71 17.71 0 0 0-8.033 8.116c-.7-2.148-.73-6.259 8.033-8.116m-6.992 9.433c9.578-1.3 9.479-6.409 8.945-8.66a16.2 16.2 0 0 0-8.945 8.658M13.99 44.844a3.551 3.551 0 0 0 2.147-.777 15.013 15.013 0 0 1 .179-24.077A19.366 19.366 0 0 0 3.918 35.05c3.049 5.582 7.225 9.793 10.069 9.793M1.271 28.919c.118.372.246.742.378 1.111l.038.105c.091.253.19.5.286.75a22.249 22.249 0 0 1 21-15 24.677 24.677 0 0 1 16.387 6.459c.057.054.111.109.169.162.019-.348.031-.693.031-1.036a15.764 15.764 0 0 0-.745-4.967q-.183-.552-.411-1.067t-.494-.991a10.071 10.071 0 0 0-.579-.912 8.16 8.16 0 0 0-.32-.426 9.461 9.461 0 0 0-4.78-3.205 12.2 12.2 0 0 0-3.5-.486 17.085 17.085 0 0 0-5.122.693l-.091.03c-.428.123-.84.26-1.237.407a6.521 6.521 0 0 1-5 0c-.4-.147-.809-.284-1.237-.407q-.045-.013-.091-.03a17.049 17.049 0 0 0-5.122-.693 12.227 12.227 0 0 0-3.5.486 9.461 9.461 0 0 0-4.78 3.205c-.11.139-.217.28-.32.426a10.105 10.105 0 0 0-.579.912 10.905 10.905 0 0 0-.494.991c-.152.343-.287.7-.41 1.067a15.762 15.762 0 0 0-.745 4.967c0 .371.015.745.036 1.121.007.115.017.229.026.343.02.268.044.537.075.806.014.125.03.249.046.375q.052.411.121.823l.055.324c.062.342.13.684.206 1.029.008.036.013.073.021.109.182.81.4 1.618.659 2.421l.029.091m12.65 2.813a11.775 11.775 0 1 0 11.775-11.774 11.775 11.775 0 0 0-11.784 11.78"/>
        <g data-name="Group 406">
            <path data-name="Path 464" d="M48.215 7.698h-3.37V5.712h9.175v1.986h-3.368v8.542h-2.436V7.698z"/>
            <path data-name="Path 465" d="M63.177 14.284v1.956h-8.152V5.711h7.956v1.957h-5.54v2.285h4.889v1.9h-4.889v2.437h5.732z"/>
            <path data-name="Path 466" d="M71.748 13.984h-4.887l-.933 2.256h-2.5l4.693-10.528h2.41l4.707 10.528h-2.557l-.933-2.256zm-.767-1.85-1.669-4.031-1.67 4.031z"/>
            <path data-name="Path 467" d="M75.37 10.976a5.8 5.8 0 0 1 10.046-3.58l-1.565 1.443a3.388 3.388 0 0 0-2.647-1.232 3.369 3.369 0 1 0 0 6.737 3.354 3.354 0 0 0 2.647-1.249l1.565 1.444a5.787 5.787 0 0 1-10.046-3.564z"/>
            <path data-name="Path 468" d="M96.409 5.711V16.24h-2.436v-4.317H89.19v4.317h-2.436V5.711h2.436v4.151h4.783V5.711z"/>
            <path data-name="Path 469" d="M106.753 14.284v1.956h-8.152V5.711h7.957v1.957h-5.535v2.285h4.887v1.9h-4.887v2.437z"/>
            <path data-name="Path 470" d="m115.1 16.24-2.031-2.933h-2.241v2.933h-2.439V5.711h4.557c2.812 0 4.573 1.459 4.573 3.82a3.426 3.426 0 0 1-2.166 3.325l2.362 3.384zm-2.285-8.542h-1.986v3.67h1.986c1.489 0 2.241-.692 2.241-1.835s-.753-1.835-2.241-1.835z"/>
            <path data-name="Path 471" d="m118.316 15.201.828-1.835a6.188 6.188 0 0 0 3.475 1.1c1.443 0 2.031-.48 2.031-1.126 0-1.972-6.122-.617-6.122-4.527 0-1.792 1.444-3.28 4.437-3.28a7.062 7.062 0 0 1 3.655.933l-.752 1.85a5.949 5.949 0 0 0-2.919-.829c-1.443 0-2 .542-2 1.2 0 1.939 6.122.6 6.122 4.467 0 1.759-1.458 3.264-4.467 3.264a7.5 7.5 0 0 1-4.287-1.219z"/>
            <path data-name="Path 472" d="M130.617 6.403a3.646 3.646 0 0 1-.39 1.505l-.872 2.165h-1.49l.647-2.375a1.339 1.339 0 0 1-.8-1.294 1.451 1.451 0 0 1 2.9 0z"/>
            <path data-name="Path 473" d="m56.155 19.914-4.556 10.528h-2.407l-4.543-10.528h2.633l3.2 7.521 3.248-7.521z"/>
            <path data-name="Path 474" d="M65.083 28.486v1.956h-8.152V19.914h7.956v1.957h-5.536v2.285h4.892v1.9h-4.889v2.437h5.732z"/>
            <path data-name="Path 475" d="M76.415 19.914v10.528h-2l-5.25-6.392v6.392h-2.406V19.914h2.015l5.234 6.392v-6.392z"/>
            <path data-name="Path 476" d="M80.664 21.898h-3.366v-1.985h9.175v1.985h-3.375v8.544H80.66v-8.544z"/>
            <path data-name="Path 477" d="M87.298 25.809v-5.9h2.437v5.805c0 2 .873 2.828 2.346 2.828s2.346-.829 2.346-2.828v-5.805h2.406v5.9c0 3.1-1.775 4.813-4.768 4.813s-4.767-1.715-4.767-4.813z"/>
            <path data-name="Path 478" d="m105.601 30.442-2.031-2.935h-2.241v2.935h-2.436V19.914h4.557c2.812 0 4.572 1.459 4.572 3.82a3.424 3.424 0 0 1-2.165 3.325l2.362 3.384h-2.618zm-2.286-8.544h-1.985v3.673h1.985c1.49 0 2.241-.692 2.241-1.835s-.751-1.838-2.241-1.838z"/>
            <path data-name="Path 479" d="M117.766 28.486v1.956h-8.148V19.914h7.956v1.957h-5.536v2.285h4.889v1.9h-4.889v2.437h5.732z"/>
            <path data-name="Path 480" d="M53.146 39.214h2.225v4.271a7.26 7.26 0 0 1-4.258 1.34 5.418 5.418 0 0 1-5.745-5.444c0-3.173 2.437-5.445 5.79-5.445a5.614 5.614 0 0 1 4.407 1.821L54 37.2a3.565 3.565 0 0 0-2.722-1.189 3.37 3.37 0 1 0-.03 6.738 3.874 3.874 0 0 0 1.894-.451v-3.085z"/>
            <path data-name="Path 481" d="m64.294 44.644-2.031-2.933h-2.241v2.933h-2.437V34.117h4.557c2.813 0 4.573 1.459 4.573 3.82a3.423 3.423 0 0 1-2.165 3.324l2.361 3.385h-2.617zm-2.286-8.542h-1.985v3.673h1.989c1.489 0 2.241-.692 2.241-1.835s-.753-1.835-2.241-1.835z"/>
            <path data-name="Path 482" d="M67.868 39.38a5.769 5.769 0 1 1 5.761 5.444 5.449 5.449 0 0 1-5.761-5.444zm9.054 0a3.295 3.295 0 1 0-3.294 3.369 3.21 3.21 0 0 0 3.294-3.369z"/>
            <path data-name="Path 483" d="m96.667 34.117-3.445 10.527h-2.617l-2.316-7.128-2.391 7.128h-2.6l-3.46-10.527h2.529l2.378 7.4 2.482-7.4h2.256l2.406 7.461 2.451-7.461z"/>
            <path data-name="Path 484" d="M100.792 36.102h-3.364v-1.985h9.174v1.985h-3.374v8.542h-2.436v-8.542z"/>
            <path data-name="Path 485" d="M117.423 34.117v10.527h-2.436v-4.317h-4.783v4.317h-2.436V34.117h2.436v4.151h4.783v-4.151z"/>
        </g>
    </g>
</svg>
