<svg data-name="Group 468" xmlns="http://www.w3.org/2000/svg" width="182.864" height="27.164" viewBox="0 0 182.864 27.164">
    <path data-name="Path 621" d="M6.936 26.642C4.627 17.962 2.336 9.373 0 .576c2.245 0 4.349-.036 6.45.049.237.009.556.673.653 1.078 1.424 5.912 2.814 11.831 4.218 17.748.145.607.33 1.206.5 1.808h.332c.314-1.284.64-2.565.942-3.853 1.229-5.241 2.476-10.478 3.654-15.731.206-.917.59-1.157 1.487-1.134 2.347.065 4.7.117 7.043-.016 1.306-.075 1.675.425 1.924 1.59 1.272 5.945 2.628 11.871 3.96 17.8.1.437.24.866.362 1.3h.331L36.686.624h3.841l-2.295 9.261c-1.3 5.225-2.613 10.445-3.862 15.682-.2.844-.53 1.119-1.385 1.1-2.126-.058-4.254-.019-6.488-.019-.89-3.584-1.769-7.112-2.64-10.64-.75-3.036-1.508-6.069-2.222-9.114-.162-.688-.389-1.017-1.191-1.015-.824 0-.987.386-1.151 1.056-1.5 6.159-3.061 12.3-4.526 18.47-.243 1.021-.648 1.306-1.652 1.267-2.036-.086-4.075-.03-6.179-.03z"/>
    <path data-name="Path 622" d="M53.516 14.994v11.573h-6.409V.673h6.376v10.5h10.613V.628h6.435v25.914h-6.419V14.994z"/>
    <path data-name="Path 623" d="m99.953 20.178 2.164 2.163a14.1 14.1 0 0 1-13.1 4.653c-5.17-.7-9.183-3.147-11-8.173a13.862 13.862 0 0 1 2.468-14.43c3.6-4.262 10.5-5.582 16.09-3.248a12.811 12.811 0 0 1 7.469 13.015 2.882 2.882 0 0 1-.159.5h-19.58c-.341 3.408 1.265 6.972 3.933 8.193 4.515 2.069 8.347.542 11.715-2.673zm-3.165-8.989c-.078-4.758-2.6-7.837-6.315-7.778-3.667.058-6.234 3.29-6.135 7.778z"/>
    <path data-name="Path 624" d="M116.182 14.656c-.332 3.411 1.286 6.972 3.933 8.188 4.524 2.078 8.348.541 11.681-2.619l2.175 2.15a14.063 14.063 0 0 1-13.085 4.615c-5.274-.726-9.327-3.248-11.083-8.426a13.81 13.81 0 0 1 2.742-14.374c3.668-4.135 10.56-5.348 16.035-2.992a12.818 12.818 0 0 1 7.358 12.838 4.967 4.967 0 0 1-.138.621zm12.524-3.453c-.239-5.128-2.854-8.068-6.792-7.776-3.4.252-6.069 3.924-5.609 7.776z"/>
    <path data-name="Path 625" d="M157.962.565c2.153 0 4.068-.051 5.976.039a1.8 1.8 0 0 1 1.226.841c1.881 3.377 3.677 6.8 5.551 10.183a1.785 1.785 0 0 0 1.171.91 1.74 1.74 0 0 0 1.187-.88c1.814-3.266 3.6-6.55 5.316-9.867a1.857 1.857 0 0 1 2.1-1.245 19.891 19.891 0 0 0 2.379.018c-.52 1.013-.941 1.854-1.38 2.685-2.437 4.608-4.9 9.2-7.3 13.83a4.945 4.945 0 0 0-.512 2.094c-.062 2.426-.024 4.854-.024 7.374h-6.5c0-1.78-.1-3.592.027-5.388a10.071 10.071 0 0 0-1.423-5.8c-2.492-4.479-4.818-9.05-7.209-13.585-.181-.341-.334-.688-.585-1.209z"/>
    <path data-name="Path 626" d="M142.173.605h6.364V23.01h9.656v3.553h-16.02z"/>
</svg>
