<svg data-name="Group 469" xmlns="http://www.w3.org/2000/svg" width="182.865" height="33.718" viewBox="0 0 182.865 33.718">
    <g data-name="Group 439">
        <path data-name="Path 650" d="M23.369 19.847c.267 1.561.519 3.017.762 4.476a.582.582 0 0 0 .352.452c1.293.671 2.58 1.354 3.868 2.034.04.021.077.046.153.092-.337.246-.638.481-.961.687a.4.4 0 0 1-.314-.038c-.749-.386-1.493-.783-2.24-1.174-.148-.077-.3-.145-.536-.259.09.557.168 1.044.249 1.531.085.51.191 1.018.252 1.531a.565.565 0 0 1-.172.416 9.964 9.964 0 0 1-.83.615c-.114-.642-.225-1.238-.326-1.835-.157-.914-.3-1.829-.469-2.741a.477.477 0 0 0-.2-.308c-1.315-.707-2.639-1.4-3.961-2.094a.7.7 0 0 0-.158-.023c.1.608.189 1.2.288 1.78.4 2.313.759 4.632 1.212 6.934a1.028 1.028 0 0 1-.568 1.331 4.407 4.407 0 0 0-.379.238l-2.136-12.43h-.107l-2.136 12.457c-.365-.27-.7-.509-1.018-.764-.038-.03-.015-.152 0-.228q.455-2.687.913-5.373c.221-1.3.443-2.6.671-3.951a1.151 1.151 0 0 0-.232.058c-1.28.67-2.562 1.337-3.834 2.024a.615.615 0 0 0-.262.385c-.192 1.029-.361 2.062-.538 3.094l-.246 1.451a10.614 10.614 0 0 1-.967-.731c-.084-.078-.05-.315-.025-.472.152-.935.316-1.869.5-2.91-.36.182-.641.32-.918.465-.63.329-1.254.669-1.891.983a.452.452 0 0 1-.376-.025c-.285-.177-.548-.39-.873-.629.445-.239.848-.46 1.255-.674.926-.489 1.86-.966 2.777-1.472a.706.706 0 0 0 .323-.422c.264-1.43.5-2.866.747-4.3a.662.662 0 0 0-.025-.156c-.13.06-.245.107-.354.165q-3.982 2.092-7.959 4.191a.368.368 0 0 1-.481-.023c-.259-.212-.539-.4-.843-.623l11.17-5.88-.036-.1L.004 19.41c.133-.416.239-.782.375-1.136.026-.069.16-.125.252-.14 1.129-.172 2.261-.337 3.393-.5l5.646-.817c.093-.013.185-.045.312-.076a1.786 1.786 0 0 0-.158-.211c-1-.976-2.013-1.941-3-2.932a.685.685 0 0 0-.68-.182q-2.105.32-4.213.628a.821.821 0 0 1-.176-.02c.117-.372.213-.73.35-1.072.035-.086.2-.152.314-.17.985-.157 1.971-.3 3.035-.462-.105-.129-.168-.219-.245-.3-.639-.622-1.277-1.246-1.924-1.86-.154-.147-.24-.265-.138-.493a10.223 10.223 0 0 0 .336-.972c.515.5 1 .961 1.475 1.427.6.587 1.2 1.185 1.817 1.76a.66.66 0 0 0 .467.162c1.265-.163 2.528-.351 3.789-.533.223-.032.444-.072.71-.114-.509-.515-.972-1-1.451-1.465Q7.653 7.355 5.005 4.787a.366.366 0 0 1-.117-.465c.126-.306.215-.63.332-.984l9.052 8.827.085-.055L8.764.759c.431 0 .8-.013 1.167.01a.386.386 0 0 1 .252.2q1.582 3.187 3.149 6.382c.339.689.681 1.376 1.059 2.14.245-.485.457-.9.664-1.315.464-.938.932-1.875 1.38-2.822a.564.564 0 0 0-.009-.426c-.629-1.3-1.273-2.595-1.911-3.891-.036-.074-.064-.152-.115-.278.412 0 .792-.016 1.169.012.093.007.206.142.258.244.4.784.781 1.575 1.17 2.363.053.106.112.209.2.376.087-.15.154-.252.209-.36.39-.787.785-1.572 1.164-2.364a.4.4 0 0 1 .437-.277c.321.019.644 0 1.022 0l-.977 1.981c-.351.712-.71 1.422-1.046 2.142a.622.622 0 0 0-.035.463c.63 1.314 1.28 2.617 1.927 3.923a1.706 1.706 0 0 0 .139.184c.327-.658.636-1.277.943-1.9q1.587-3.222 3.169-6.449a.5.5 0 0 1 .549-.349c.3.028.6.006.953.006l-5.6 11.356.081.055 9.061-8.833c.125.393.257.747.34 1.113a.483.483 0 0 1-.154.356q-2.335 2.292-4.684 4.571-.933.909-1.859 1.824c-.049.048-.09.1-.174.2.416.065.778.126 1.143.178 1.119.16 2.239.325 3.361.463a.7.7 0 0 0 .494-.18c1-.956 1.99-1.929 2.983-2.9.084-.082.177-.154.292-.255.121.374.252.708.328 1.055a.51.51 0 0 1-.145.388c-.628.633-1.273 1.25-1.911 1.873-.074.073-.143.151-.27.286.738.112 1.408.216 2.079.315.357.052.717.09 1.071.155a.344.344 0 0 1 .225.18c.126.336.227.682.357 1.085-.456-.058-.867-.1-1.275-.164-1.083-.159-2.164-.331-3.248-.48a.627.627 0 0 0-.46.113c-1.064 1.017-2.112 2.049-3.163 3.078a1.073 1.073 0 0 0-.09.154c.453.074.879.15 1.306.213l4.788.7c1.073.155 2.143.318 3.216.46a.348.348 0 0 1 .346.287c.088.321.2.636.311 1.006l-12.586-1.829 4.535-4.425c-.491-.077-.883-.144-1.277-.2q-2.305-.332-4.611-.654a.74.74 0 0 1-.634-.474c-.793-1.661-1.617-3.308-2.431-4.959-.047-.1-.109-.184-.2-.34-.339.68-.653 1.308-.965 1.939-.582 1.175-1.157 2.355-1.751 3.525a.535.535 0 0 1-.344.249c-1.272.2-2.547.381-3.819.568l-2.221.329c.111.129.174.216.252.292 1.336 1.305 2.669 2.615 4.016 3.91a.666.666 0 0 1 .208.671c-.286 1.611-.56 3.223-.838 4.836-.055.316-.107.634-.175 1.038.187-.085.3-.132.411-.189 1.631-.859 3.262-1.714 4.887-2.584a.661.661 0 0 1 .7.006c1.592.851 3.194 1.688 4.792 2.529.136.071.275.138.51.255l-1.063-6.246 11.26 5.924c-.356.266-.653.509-.976.711-.074.047-.248-.021-.354-.076q-3.09-1.617-6.174-3.243l-1.691-.9a17.768 17.768 0 0 1-.492-.222z"/>
        <path data-name="Path 651" d="m57.763 14.29 1.03-2.088q2.738-5.554 5.471-11.112a.5.5 0 0 1 .548-.338c.541.023 1.085.007 1.708.007l-8.776 17.8-4.366-8.847-4.365 8.842L40.239.763c.692 0 1.325-.009 1.958.01.082 0 .189.128.236.22q1.295 2.605 2.577 5.215l3.834 7.773c.04.084.091.162.176.313.262-.518.5-.982.731-1.451.808-1.641 1.609-3.286 2.427-4.922a.671.671 0 0 0-.008-.673c-1.031-2.068-2.049-4.142-3.07-6.216-.036-.073-.066-.15-.118-.271.675 0 1.31-.011 1.943.013.1 0 .211.168.268.283.639 1.282 1.268 2.569 1.9 3.853.078.159.167.312.29.539.332-.668.632-1.265.928-1.863.422-.852.848-1.7 1.258-2.56a.412.412 0 0 1 .442-.273c.566.017 1.132.006 1.771.006l-.531 1.087q-1.355 2.754-2.7 5.512a.521.521 0 0 0-.037.391q1.55 3.184 3.124 6.354a2.207 2.207 0 0 0 .125.187z"/>
        <path data-name="Path 652" d="M71.713 7.748h.871c2.532 0 5.065-.005 7.6.008.327 0 .407-.106.4-.416-.01-2.038 0-4.077 0-6.115V.802h1.833v17.057h-1.835v-.535c0-2.473-.008-4.945.007-7.418 0-.358-.113-.443-.453-.442q-4 .018-8 0c-.334 0-.425.1-.424.426.013 2.533 0 5.066.015 7.6 0 .315-.08.427-.4.409-.465-.027-.934-.007-1.425-.007V.799h1.811z"/>
        <path data-name="Path 653" d="m177.439 10.234 5.425 7.653c-.772 0-1.466.01-2.161-.01-.1 0-.215-.138-.284-.238q-2.382-3.449-4.753-6.906c-.048-.069-.08-.171-.146-.2a1.571 1.571 0 0 0-.509-.153c-.035 0-.13.227-.13.35-.008 2.231-.006 4.462-.006 6.692v.448h-1.824V.825a.33.33 0 0 1 .119-.047 21.725 21.725 0 0 1 5.039.278 4.068 4.068 0 0 1 3.22 2.552 5.076 5.076 0 0 1-1.262 5.54 4.6 4.6 0 0 1-2.323 1c-.116.018-.226.049-.405.086zm-2.563-4.629c0 .916.007 1.832 0 2.748 0 .267.056.4.36.378.693-.062 1.4-.049 2.082-.162a2.772 2.772 0 0 0 2.563-3.268 2.58 2.58 0 0 0-2.408-2.657c-.735-.111-1.486-.1-2.23-.161-.291-.023-.374.1-.369.376.011.914.003 1.83.002 2.746z"/>
        <path data-name="Path 654" d="M153.039 17.893 160.912 0c2.571 6 5.109 11.913 7.671 17.889-.679 0-1.289.015-1.9-.015-.1 0-.231-.18-.284-.3-.558-1.319-1.095-2.645-1.654-3.963-.3-.708-.1-.571-.838-.574-2.109-.008-4.22.007-6.33-.013a.577.577 0 0 0-.63.427c-.565 1.368-1.154 2.724-1.721 4.091a.485.485 0 0 1-.536.361c-.524-.028-1.053-.01-1.651-.01zm7.882-13.436-.1-.013-2.917 6.841h5.869c-.967-2.311-1.91-4.571-2.852-6.828z"/>
        <path data-name="Path 655" d="M118.307 8.494v1.71h-.412c-1.99 0-3.979.006-5.969 0-.292 0-.4.072-.4.38q.02 2.622 0 5.245c0 .293.1.366.378.365 2.075-.009 4.148 0 6.222-.012.339 0 .439.1.418.426-.027.417-.007.837-.007 1.271h-8.821V.821a2.01 2.01 0 0 1 .331-.048c2.7 0 5.4 0 8.1-.008.328 0 .422.111.4.42a6.276 6.276 0 0 0 0 .939c.02.293-.1.366-.377.365-2.038-.011-4.075-.008-6.113-.008-.518 0-.521 0-.521.509 0 1.7.008 3.4-.006 5.1 0 .324.1.41.415.408 1.965-.011 3.931-.006 5.9-.006z"/>
        <path data-name="Path 656" d="m127.204 13.8 1.766-.5a4.462 4.462 0 0 0 .93 2.006 3.508 3.508 0 0 0 6.112-2.213 2.679 2.679 0 0 0-1.343-2.45c-.869-.509-1.807-.9-2.7-1.363a23.892 23.892 0 0 1-2.241-1.234 4.072 4.072 0 0 1 .108-6.651 5.1 5.1 0 0 1 7.3 1.536c.03.051.057.1.1.181l-1.471.944a3.99 3.99 0 0 0-1.409-1.492 3.063 3.063 0 0 0-4.242 1.329 2.121 2.121 0 0 0 .715 2.7 18.938 18.938 0 0 0 2.349 1.254 14.711 14.711 0 0 1 3.126 1.711 4.222 4.222 0 0 1 1.537 3.849 5.2 5.2 0 0 1-4.072 4.641 5.285 5.285 0 0 1-6.565-4.248z"/>
        <path data-name="Path 657" d="M100.968 17.871h-1.843V2.961c0-.476 0-.479-.47-.479h-3.638V.791c.125-.007.253-.019.38-.019 3.135 0 6.271 0 9.405-.009.283 0 .385.083.37.371-.022.431-.006.862-.006 1.325-.163.008-.292.02-.419.02h-3.292c-.482 0-.483 0-.484.472V17.24z"/>
        <path data-name="Path 658" d="M147.718 17.889c-.579 0-1.118.007-1.657-.009-.064 0-.152-.121-.178-.2a1.069 1.069 0 0 1-.01-.323V2.993c0-.507 0-.509-.518-.51-1.085 0-2.171-.007-3.256 0-.274 0-.39-.067-.373-.364.023-.432.006-.864.006-1.333.161-.008.29-.02.418-.02h9.3c.464 0 .464 0 .466.48V2.46c-.168.008-.3.019-.425.019-1.109 0-2.22.012-3.328-.007-.343-.007-.449.09-.449.443q.017 7.252.008 14.506z"/>
        <path data-name="Path 659" d="M88.591 9.329c0-2.7.007-5.4-.007-8.1 0-.361.091-.5.465-.465s.748-.009 1.12.019c.093.007.2.142.253.244a.78.78 0 0 1 .015.321v15.945c0 .714.037.587-.6.6h-.688c-.556 0-.556 0-.556-.573V9.329z"/>
        <path data-name="Path 660" d="m80.595 33.54 4.526-10.286 4.412 10.281a8.817 8.817 0 0 1-1.016-.013c-.1-.012-.216-.171-.266-.289A73.95 73.95 0 0 1 87.32 31a.4.4 0 0 0-.434-.285 207.78 207.78 0 0 1-3.618 0 .422.422 0 0 0-.46.3c-.305.747-.639 1.482-.938 2.23a.4.4 0 0 1-.461.3c-.246-.019-.496-.005-.814-.005zm4.551-7.728h-.1l-1.669 3.914h3.4z"/>
        <path data-name="Path 661" d="m55.274 23.253 4.41 10.29a9.071 9.071 0 0 1-1.046-.015c-.1-.012-.2-.19-.249-.313a83.564 83.564 0 0 1-.894-2.167.441.441 0 0 0-.475-.337c-1.206.013-2.411.009-3.617 0a.391.391 0 0 0-.433.281c-.3.749-.637 1.482-.937 2.23a.425.425 0 0 1-.488.315c-.237-.018-.478 0-.8 0 1.513-3.441 3.003-6.823 4.529-10.284zm1.663 6.489-1.643-3.931-.1.008-1.671 3.923z"/>
        <path data-name="Path 662" d="M48.275 25.731a4.037 4.037 0 0 0-5.872.03 4.118 4.118 0 0 0-.1 5.591 4.035 4.035 0 0 0 5.971.152 9.678 9.678 0 0 1-.015 1.132c-.016.129-.19.265-.323.347a5.041 5.041 0 0 1-6.339-.9 4.765 4.765 0 0 1-1.039-5.225 4.942 4.942 0 0 1 4.17-3.295 4.776 4.776 0 0 1 3.248.7.538.538 0 0 1 .309.553c-.028.282-.01.571-.01.915z"/>
        <path data-name="Path 663" d="M62.275 23.688c1.235.092 2.451-.187 3.61.285a2.585 2.585 0 0 1 1.538 2.662 2.533 2.533 0 0 1-2.146 2.464 10.477 10.477 0 0 1-1.547.1c-.305 0-.417.083-.412.409.02 1.193 0 2.387.013 3.58 0 .265-.069.362-.343.356-.877-.021-.707.084-.709-.7-.009-2.88 0-5.761 0-8.64zm1.056.97c0 1.153 0 2.26.011 3.366a.325.325 0 0 0 .239.212 8.954 8.954 0 0 0 1.61-.151 1.465 1.465 0 0 0 1.173-1.426 1.572 1.572 0 0 0-.654-1.647 4.268 4.268 0 0 0-2.379-.354z"/>
        <path data-name="Path 664" d="M79.89 23.724v.886c-.123.009-.249.026-.376.026-.531 0-1.062.016-1.591-.006-.325-.012-.434.09-.432.428q.019 3.942 0 7.884c0 .191-.027.523-.111.547a2.158 2.158 0 0 1-.818.012c-.048-.005-.1-.218-.1-.335q-.008-2.947 0-5.895c0-.76-.008-1.519.007-2.278.005-.267-.084-.366-.352-.359-.566.013-1.133-.008-1.7.008-.267.007-.386-.079-.348-.351a.48.48 0 0 0 0-.144c-.055-.34.068-.457.428-.453 1.675.018 3.351.008 5.026.009.118 0 .231.013.367.021z"/>
        <path data-name="Path 665" d="M92.152 23.703a7.742 7.742 0 0 1 .812.011c.075.008.167.128.2.217a.974.974 0 0 1 .01.323v7.85c0 .482 0 .483.476.484.639 0 1.278.011 1.917 0 .271-.007.353.085.346.354-.021.674.07.594-.6.6-.941 0-1.882-.006-2.822.01-.286 0-.372-.093-.371-.376.009-3.027.006-6.054.008-9.081-.01-.123.008-.24.024-.392z"/>
        <path data-name="Path 666" d="M70.372 23.737c1.019-.116 1.019-.116 1.019.82v8.46c0 .167-.041.462-.109.476a2.4 2.4 0 0 1-.82 0c-.045-.006-.081-.251-.082-.386q-.007-3.922 0-7.845z"/>
    </g>
</svg>
